<svg id="Ebene_1" data-name="Ebene 1" xmlns="http://www.w3.org/2000/svg" viewBox="0 0 405.11 132.5"><defs><style>.cls-1{fill:#fff;stroke:#fff;stroke-miterlimit:10;}</style></defs><title>viita_logo_white</title><polygon class="cls-1" points="227.67 34.96 253.2 34.96 253.2 116.84 273.82 116.84 273.82 34.96 299.36 34.96 299.36 15.66 227.67 15.66 227.67 34.96"/><path class="cls-1" d="M192.24,23.84a11.92,11.92,0,1,0-11.92-11.92h0A11.93,11.93,0,0,0,192.24,23.84Z" transform="translate(0.73 0.5)"/><rect class="cls-1" x="182.87" y="34.98" width="20.21" height="81.85"/><polygon class="cls-1" points="50.36 87.53 22.85 15.67 0.73 15.67 39.56 116.83 61.17 116.83 99.98 15.67 77.93 15.67 50.36 87.53"/><polygon class="cls-1" points="365.56 15.62 343.95 15.62 305.14 116.79 327.19 116.79 354.76 44.93 382.27 116.79 404.39 116.79 365.56 15.62"/><path class="cls-1" d="M131.58,107.66a11.92,11.92,0,1,0,11.92,11.92h0A11.93,11.93,0,0,0,131.58,107.66Z" transform="translate(0.73 0.5)"/><rect class="cls-1" x="122.21" y="15.66" width="20.21" height="81.85"/></svg>