<svg xmlns="http://www.w3.org/2000/svg" xmlns:xlink="http://www.w3.org/1999/xlink" width="34" height="14" version="1.1" viewBox="0 0 34 14"><title>Fill 1</title><desc>Created with Sketch.</desc><g id="Symbols" fill="none" fill-rule="evenodd" stroke="none" stroke-width="1"><g id="Footer" fill="#FFF" transform="translate(-830.000000, -297.000000)"><g id="Group-9" transform="translate(520.000000, 269.000000)"><g id="Group-3"><path id="Fill-1" d="M343.792058,34.3807539 L337.879014,28.2255815 C337.603565,27.946547 337.155159,27.9142021 336.833884,28.1970987 C336.547101,28.4519952 336.539217,28.9458573 336.804812,29.2210297 L341.551507,34.1543401 L327.492754,34.1543401 L325.521739,34.1543401 L310.73913,34.1543401 C310.330638,34.1543401 310,34.4787539 310,34.878478 C310,35.2786849 310.330638,35.6026159 310.73913,35.6026159 L325.521739,35.6026159 L327.492754,35.6026159 L341.551507,35.6026159 L336.804812,40.5359263 C336.539217,40.8110987 336.558435,41.2938573 336.833884,41.5598573 C337.124609,41.8408228 337.607507,41.8162021 337.879014,41.5318573 L343.792058,35.3766849 C343.965507,35.2086849 343.998029,35.048409 344,34.878478 C344,34.710478 343.896029,34.4879263 343.792058,34.3807539"/></g></g></g></g></svg>