<?xml version="1.0" encoding="UTF-8"?>
<svg width="14px" height="14px" viewBox="0 0 14 14" version="1.1" xmlns="http://www.w3.org/2000/svg" xmlns:xlink="http://www.w3.org/1999/xlink">
    <!-- Generator: Sketch 42 (36781) - http://www.bohemiancoding.com/sketch -->
    <title>dropdown arrow</title>
    <desc>Created with Sketch.</desc>
    <defs></defs>
    <g id="Symbols" stroke="none" stroke-width="1" fill="none" fill-rule="evenodd">
        <g id="Filters" transform="translate(-964.000000, -44.000000)" fill="#FFFFFF">
            <g id="Group-3">
                <g transform="translate(843.000000, 21.000000)">
                    <g id="Group-2">
                        <g id="Group" transform="translate(42.000000, 0.000000)">
                            <g id="dropdown-arrow" transform="translate(79.000000, 23.000000)">
                                <path d="M11.5529724,2.58916322 C11.3817191,2.43178361 11.1246224,2.30822111 10.8922382,2.30128426 L3.30506701,2.07106781 C2.83292819,2.09621386 2.26193936,2.48250927 2.24156239,3.01924743 C2.22291962,3.54948231 2.72584068,4.03549482 3.25434135,4.01858626 L8.58573815,4.17596587 L2.35688739,10.4052502 C1.97579462,10.7859094 1.97579462,11.4041555 2.35688739,11.7852482 C2.73798016,12.166341 3.35622622,12.166341 3.73688544,11.7852482 L9.96616975,5.55639747 L10.1235494,10.8877943 C10.1235494,11.3586324 10.5926533,11.9140134 11.1228882,11.9005732 C11.6526895,11.8866996 12.0645645,11.3092074 12.0710678,10.8370686 L11.8408514,3.24989744 C11.8321803,2.99063296 11.7376658,2.77212243 11.5529724,2.58916322 Z" id="Page-1" transform="translate(7.071068, 7.071068) rotate(-225.000000) translate(-7.071068, -7.071068) "></path>
                            </g>
                        </g>
                    </g>
                </g>
            </g>
        </g>
    </g>
</svg>