<svg xmlns="http://www.w3.org/2000/svg" xmlns:xlink="http://www.w3.org/1999/xlink" width="12" height="13" version="1.1" viewBox="0 0 12 13"><title>Masonry</title><desc>Created with Sketch.</desc><g id="Desktop" fill="none" fill-rule="evenodd" stroke="none" stroke-width="1"><g id="01-–-Tattoo" fill="#FFF" transform="translate(-644.000000, -1028.000000)"><g id="Group-6" transform="translate(644.000000, 1020.000000)"><g id="Group-5"><g id="Masonry" transform="translate(0.000000, 8.000000)"><path id="Combined-Shape" d="M0,0.560584366 C0,0.25098217 0.25680542,0 0.55517357,0 L2.7175537,0 C3.0241676,0 3.27272727,0.25734663 3.27272727,0.560584366 L3.27272727,10.7437635 C3.27272727,11.0533657 3.01592185,11.3043478 2.7175537,11.3043478 L0.55517357,11.3043478 C0.248559674,11.3043478 0,11.0470012 0,10.7437635 L0,0.560584366 Z M4.36363636,0.551752002 C4.36363636,0.247027786 4.62044178,0 4.91880993,0 L7.08119007,0 C7.38780396,0 7.63636364,0.251429594 7.63636364,0.551752002 L7.63636364,5.6656393 C7.63636364,5.97036352 7.37955822,6.2173913 7.08119007,6.2173913 L4.91880993,6.2173913 C4.61219604,6.2173913 4.36363636,5.96596171 4.36363636,5.6656393 L4.36363636,0.551752002 Z M8.72727273,0.560004939 C8.72727273,0.250722751 8.98407815,0 9.2824463,0 L11.4448264,0 C11.7514403,0 12,0.243894245 12,0.560004939 L12,2.83129941 C12,3.1405816 11.7431946,3.39130435 11.4448264,3.39130435 L9.2824463,3.39130435 C8.9758324,3.39130435 8.72727273,3.1474101 8.72727273,2.83129941 L8.72727273,0.560004939 Z M8.72727273,5.07349113 C8.72727273,4.76876692 8.98407815,4.52173913 9.2824463,4.52173913 L11.4448264,4.52173913 C11.7514403,4.52173913 12,4.77316872 12,5.07349113 L12,10.1873784 C12,10.4921026 11.7431946,10.7391304 11.4448264,10.7391304 L9.2824463,10.7391304 C8.9758324,10.7391304 8.72727273,10.4877008 8.72727273,10.1873784 L8.72727273,5.07349113 Z M4.36363636,7.9104421 C4.36363636,7.59971786 4.62044178,7.34782609 4.91880993,7.34782609 L7.08119007,7.34782609 C7.38780396,7.34782609 7.63636364,7.59069293 7.63636364,7.9104421 L7.63636364,12.437384 C7.63636364,12.7481082 7.37955822,13 7.08119007,13 L4.91880993,13 C4.61219604,13 4.36363636,12.7571332 4.36363636,12.437384 L4.36363636,7.9104421 Z"/></g></g></g></g></g></svg>