<svg xmlns="http://www.w3.org/2000/svg" xmlns:xlink="http://www.w3.org/1999/xlink" width="30" height="30" version="1.1" viewBox="0 0 30 30"><title>Search</title><desc>Created with Sketch.</desc><g id="Symbols" fill="none" fill-rule="evenodd" stroke="none" stroke-width="1"><g id="Filters" fill="#FFF" transform="translate(-40.000000, -35.000000)"><g id="Search"><g transform="translate(40.000000, 35.000000)"><path id="Combined-Shape" d="M21.7397186,19.9188495 L29.6177583,27.7991046 C30.1284021,28.3103381 30.1284021,29.1407254 29.6177583,29.6519589 C29.1066953,30.1631923 28.1797385,30.0663138 27.7655217,29.6519589 L19.8848339,21.7690549 C17.7892769,23.4548233 15.1265702,24.4637153 12.2286188,24.4637153 C5.47495655,24.4637153 0,18.9869332 0,12.2326964 C0,5.47678219 5.47495655,0 12.2286188,0 C18.980604,0 24.4555606,5.47678219 24.4555606,12.2326964 C24.4555606,15.1442527 23.4381916,17.8184294 21.7397186,19.9188495 Z M21.8352621,12.2326964 C21.8352621,6.92492745 17.5346185,2.62117227 12.2286188,2.62117227 C6.92261908,2.62117227 2.62029853,6.92492745 2.62029853,12.2326964 C2.62029853,17.5404654 6.92261908,21.8425431 12.2286188,21.8425431 C17.5346185,21.8425431 21.8352621,17.5404654 21.8352621,12.2326964 Z"/></g></g></g></g></svg>