<svg xmlns="http://www.w3.org/2000/svg" xmlns:xlink="http://www.w3.org/1999/xlink" width="97" height="67" version="1.1" viewBox="0 0 97 67"><title>logo</title><desc>Created with Sketch.</desc><defs><polygon id="path-1" points="0 37.97 75.939 37.97 75.939 0 0 0"/></defs><g id="Symbols" fill="none" fill-rule="evenodd" stroke="none" stroke-width="1"><g id="logo"><g id="Page-1" transform="translate(0.000000, 15.000000)"><path id="Fill-1" fill="#D4983B" d="M13.5726647,20.4398089 C13.5726647,17.0256381 10.9094244,14.3296303 7.50187016,14.3296303 C4.09424225,14.3296303 1.43159109,17.0256381 1.43159109,20.4398089 C1.43159109,23.8539798 4.09424225,26.5509468 7.50187016,26.5509468 C10.9094244,26.5509468 13.5726647,23.8539798 13.5726647,20.4398089 Z M15.004219,7.52932738 L15.004219,27.6127332 L13.5726647,27.6127332 L13.5726647,24.2848924 C12.3987151,26.4937623 10.1936105,27.9280963 7.41614922,27.9280963 C3.32135465,27.9280963 3.68217054e-05,24.6867332 3.68217054e-05,20.4398089 C3.68217054e-05,16.1939177 3.32135465,12.9525546 7.41614922,12.9525546 C10.1936105,12.9525546 12.3987151,14.3868885 13.5726647,16.5956847 L13.5726647,7.52932738 L15.004219,7.52932738 Z"/><path id="Fill-3" fill="#D4983B" d="M30.912374,20.4398089 C30.912374,17.0256381 28.277781,14.3296303 24.8701531,14.3296303 C21.4625988,14.3296303 18.799874,17.0256381 18.799874,20.4398089 C18.799874,23.8539798 21.4625988,26.5509468 24.8701531,26.5509468 C28.277781,26.5509468 30.912374,23.8539798 30.912374,20.4398089 L30.912374,20.4398089 Z M32.3725756,13.2679177 L32.3725756,27.6127332 L30.912374,27.6127332 L30.912374,24.3703371 C29.7093353,26.522908 27.5048198,27.9280963 24.7558585,27.9280963 C20.6896376,27.9280963 17.339157,24.6867332 17.339157,20.4398089 C17.339157,16.1939177 20.6896376,12.9525546 24.7558585,12.9525546 C27.5048198,12.9525546 29.7093353,14.3577429 30.912374,16.5092808 L30.912374,13.2679177 L32.3725756,13.2679177 Z"/><mask id="mask-2" fill="#fff"><use xlink:href="#path-1"/></mask><polygon id="Fill-5" fill="#D4983B" points="39.344 27.613 44.47 27.613 44.47 7.529 39.344 7.529" mask="url(#mask-2)"/><path id="Fill-7" fill="#D4983B" d="M60.3177461,19.0345911 L60.3177461,27.6127037 L55.5648004,27.6127037 L55.5648004,19.6372784 C55.5648004,18.0873212 54.6485291,17.3701173 53.4174322,17.3701173 C51.9567151,17.3701173 51.0684283,18.2601289 51.0684283,19.9807542 L51.0684283,27.6127037 L46.3154826,27.6127037 L46.3154826,13.2679619 L51.0684283,13.2679619 L51.0684283,14.7022959 C51.8704787,13.5541794 53.2740484,12.8661212 55.0495174,12.8661212 C57.998936,12.8661212 60.3177461,14.9032163 60.3177461,19.0345911" mask="url(#mask-2)"/><polygon id="Fill-8" fill="#D4983B" points="70.613 27.613 66.546 21.502 66.546 27.613 61.793 27.613 61.793 7.529 66.546 7.529 66.546 19.264 70.241 13.268 75.739 13.268 70.927 20.44 75.939 27.613" mask="url(#mask-2)"/><path id="Fill-9" fill="#000" d="M35.897186,0.470462136 L35.8971124,0.470535922 C35.4537791,0.214128155 34.9491008,0.161887379 34.4912597,0.284815534 C34.033345,0.407743689 33.6224147,0.70576699 33.3664302,1.14996117 C32.9899651,1.80333981 33.0544031,2.5910835 33.4688682,3.16587961 C33.5788178,3.31839612 33.6107054,3.5123068 33.5168101,3.67522718 L31.7400891,6.75662136 L30.5561977,6.07173592 L27.323031,11.6808311 C27.0610078,12.1353553 26.4807713,12.2911184 26.0270543,12.0286602 C25.6144302,11.7899612 25.0885426,11.8861049 24.8004496,12.2663262 C23.4230969,14.0837592 22.0049457,16.2203922 20.6532209,18.5684233 C19.3000233,20.9168233 18.1620116,23.2146058 17.2796899,25.318035 C17.0951395,25.7580971 17.2749031,26.262501 17.6876008,26.5012738 L17.7681667,26.547833 C18.222031,26.810365 18.3774922,27.3918757 18.1153217,27.8465476 L15.9908566,31.5318097 C15.9625039,31.5809515 15.9437248,31.6351845 15.9356977,31.6913359 L15.4863256,34.8203961 C15.4782248,34.8765476 15.4595194,34.9307806 15.431093,34.9799961 L14.2376279,37.0492621 L15.3072248,37.6679612 L16.5007636,35.5985476 C16.5291163,35.5494796 16.5665271,35.5062408 16.6110078,35.4711922 L19.0910233,33.5165903 C19.1355775,33.481468 19.1729884,33.4381553 19.2013411,33.3889398 L19.8114767,32.3301049 L19.4299302,31.1646485 L19.9804147,30.2093359 L21.2341202,29.8592932 L21.7988178,28.8792621 L22.883438,29.5067417 C23.0771202,29.6188233 23.3216899,29.576101 23.458593,29.3989398 C24.919531,27.5077942 26.4346705,25.2466835 27.8745465,22.7455456 C29.3158953,20.2441864 30.5131899,17.800233 31.4172364,15.5874524 C31.502,15.379965 31.4165,15.1462835 31.2226705,15.0342757 L30.0578527,14.3613437 L33.7653566,7.92923495 L32.5409612,7.22095922 L34.4727752,3.86847379 C34.7972481,3.95864078 35.1345349,3.95753398 35.4494341,3.87297476 C35.9072752,3.7500466 36.3182791,3.4520233 36.5742636,3.00782913 C37.0857907,2.11803883 36.7820853,0.982318447 35.897186,0.470462136" mask="url(#mask-2)"/><path id="Fill-10" fill="#A31319" d="M35.8971124,0.47060233 C35.4537791,0.214120777 34.9491008,0.16188 34.4912597,0.284808155 C34.0334186,0.407736311 33.6224147,0.705833398 33.3664302,1.15002757 C32.9899651,1.80333243 33.0544031,2.59107612 33.4688682,3.16594602 C33.5788178,3.31838874 33.6107054,3.51229942 33.5168101,3.67521981 L31.7400891,6.75661398 L30.5561977,6.07180233 L27.323031,11.6808237 C27.0610078,12.1354217 26.4807713,12.2911111 26.0270543,12.0286528 C25.6144302,11.7899538 25.0885426,11.8860975 24.8004496,12.2663188 C23.4230969,14.0837518 22.0049457,16.2203111 20.6532209,18.5684159 C19.3000233,20.9168159 18.1620116,23.2145984 17.2796899,25.3180276 C17.0950659,25.7580897 17.2749031,26.2624936 17.6875271,26.5012664 L17.7681667,26.5478994 C18.222031,26.8103577 18.3774922,27.3918683 18.1153217,27.8465402 L15.9908566,31.5317285 C15.9625039,31.5809441 15.9437984,31.6351771 15.9356977,31.6914023 L15.4862519,34.8203887 C15.4782248,34.876614 15.4595194,34.930847 15.431093,34.9800625 L14.2376279,37.049181 L15.3072248,37.6679538 L16.5007636,35.598614 C16.5290426,35.5494722 16.5665271,35.5062334 16.6110078,35.4711111 L19.0910233,33.5165829 C19.1355039,33.4814606 19.1729884,33.438148 19.2013411,33.3890062 L19.8114767,32.3300975 L19.4299302,31.1646412 L19.9804147,30.2093285 L21.2340465,29.8592858 L21.7988178,28.8793285 L22.883438,29.5068082 C23.0771202,29.6188159 23.3216899,29.5760936 23.458593,29.3989324 C24.919531,27.5078606 26.4346705,25.2467499 27.8745465,22.7455383 C29.3158953,20.244179 30.5131899,17.8002256 31.4172364,15.587445 C31.502,15.3799577 31.4165,15.1462761 31.2226705,15.0342683 L30.0577791,14.3613363 L33.7653566,7.92922757 L32.5409612,7.22095184 L34.4727752,3.86846641 C34.7972481,3.9586334 35.1345349,3.9575266 35.4494341,3.87296738 C35.9073488,3.75003922 36.3182791,3.45201592 36.5742636,3.00782175 C37.0857907,2.11803146 36.7820853,0.982311068 35.897186,0.470454757 L35.8971124,0.47060233 Z M20.6221434,29.0673363 L19.7322364,29.3151849 L19.3685116,29.4173052 L18.4218992,31.0600858 L18.5511434,31.4544742 L18.8034457,32.2255421 L18.446938,32.8442412 L16.4855194,34.3899188 L16.8412171,31.9164509 L19.3772752,27.515313 L20.9816705,28.4433984 L20.6221434,29.0673363 Z M24.0036279,14.9662373 L29.3128023,18.0374489 C29.0713992,18.5417052 28.8179922,19.0508315 28.5547907,19.5624664 L23.0646008,16.3865518 C23.3752287,15.9023654 23.6885814,15.427845 24.0037752,14.9663111 L24.0036279,14.9662373 Z M21.2284496,19.4300936 L26.8438333,22.6784664 C26.5559612,23.1698839 26.2620504,23.655546 25.9658566,24.1329441 L20.4089457,20.919546 C20.6744302,20.4222256 20.9462481,19.9260858 21.2284496,19.4301674 L21.2284496,19.4300936 Z M25.4695736,24.9186217 C25.160345,25.4024392 24.8469922,25.8769596 24.5317984,26.3385674 L19.2190155,23.2652159 C19.460345,22.7608858 19.7138256,22.2518334 19.9773953,21.7416004 L25.4695736,24.9186217 Z M18.1309341,25.6849674 C18.3480349,25.1677984 18.578907,24.6409635 18.824655,24.1086683 L24.000093,27.1024781 C23.6614806,27.5823111 23.3229419,28.0456159 22.9844767,28.492614 L18.1309341,25.6849674 Z M27.3051357,21.8736043 L21.6911512,18.6249363 C21.9790969,18.1333713 22.2730078,17.6477829 22.5691279,17.1704586 L28.1246395,20.3840781 C27.8587868,20.8801441 27.585938,21.3780548 27.3051357,21.8736043 Z M30.3968333,15.6293557 C30.1817209,16.1429829 29.9511434,16.6652431 29.7088566,17.1937751 L24.535186,14.2009984 C24.8707791,13.7264781 25.2082868,13.2648703 25.5433643,12.8217829 L30.3968333,15.6293557 Z M29.2569806,13.897146 L27.6525853,12.9690606 L30.8956938,7.34092854 L32.5000891,8.26901398 L29.2569806,13.897146 Z M35.771624,2.54252466 C35.6477558,2.75753825 35.4478876,2.91101398 35.2092829,2.97506058 C34.9692054,3.03947612 34.7195543,3.00671495 34.5063566,2.8821635 C34.0644225,2.6253868 33.9124225,2.05686252 34.1673023,1.61436544 C34.2912442,1.39935184 34.4911124,1.24587612 34.7297171,1.18182951 C34.9683217,1.11778291 35.2180465,1.15054408 35.4325698,1.2747266 C35.6472403,1.39890913 35.8004186,1.59909165 35.8643411,1.83815961 C35.9282636,2.07722757 35.8955659,2.32743728 35.771624,2.54245087 L35.771624,2.54252466 Z" mask="url(#mask-2)"/><path id="Stroke-11" stroke="#A31319" stroke-width=".5" d="M35.8971124,0.47060233 C35.4537791,0.214120777 34.9491008,0.16188 34.4912597,0.284808155 C34.0334186,0.407736311 33.6224147,0.705833398 33.3664302,1.15002757 C32.9899651,1.80333243 33.0544031,2.59107612 33.4688682,3.16594602 C33.5788178,3.31838874 33.6107054,3.51229942 33.5168101,3.67521981 L31.7400891,6.75661398 L30.5561977,6.07180233 L27.323031,11.6808237 C27.0610078,12.1354217 26.4807713,12.2911111 26.0270543,12.0286528 C25.6144302,11.7899538 25.0885426,11.8860975 24.8004496,12.2663188 C23.4230969,14.0837518 22.0049457,16.2203111 20.6532209,18.5684159 C19.3000233,20.9168159 18.1620116,23.2145984 17.2796899,25.3180276 C17.0950659,25.7580897 17.2749031,26.2624936 17.6875271,26.5012664 L17.7681667,26.5478994 C18.222031,26.8103577 18.3774922,27.3918683 18.1153217,27.8465402 L15.9908566,31.5317285 C15.9625039,31.5809441 15.9437984,31.6351771 15.9356977,31.6914023 L15.4862519,34.8203887 C15.4782248,34.876614 15.4595194,34.930847 15.431093,34.9800625 L14.2376279,37.049181 L15.3072248,37.6679538 L16.5007636,35.598614 C16.5290426,35.5494722 16.5665271,35.5062334 16.6110078,35.4711111 L19.0910233,33.5165829 C19.1355039,33.4814606 19.1729884,33.438148 19.2013411,33.3890062 L19.8114767,32.3300975 L19.4299302,31.1646412 L19.9804147,30.2093285 L21.2340465,29.8592858 L21.7988178,28.8793285 L22.883438,29.5068082 C23.0771202,29.6188159 23.3216899,29.5760936 23.458593,29.3989324 C24.919531,27.5078606 26.4346705,25.2467499 27.8745465,22.7455383 C29.3158953,20.244179 30.5131899,17.8002256 31.4172364,15.587445 C31.502,15.3799577 31.4165,15.1462761 31.2226705,15.0342683 L30.0577791,14.3613363 L33.7653566,7.92922757 L32.5409612,7.22095184 L34.4727752,3.86846641 C34.7972481,3.9586334 35.1345349,3.9575266 35.4494341,3.87296738 C35.9073488,3.75003922 36.3182791,3.45201592 36.5742636,3.00782175 C37.0857907,2.11803146 36.7820853,0.982311068 35.897186,0.470454757 L35.8971124,0.47060233 Z M20.6221434,29.0673363 L19.7322364,29.3151849 L19.3685116,29.4173052 L18.4218992,31.0600858 L18.5511434,31.4544742 L18.8034457,32.2255421 L18.446938,32.8442412 L16.4855194,34.3899188 L16.8412171,31.9164509 L19.3772752,27.515313 L20.9816705,28.4433984 L20.6221434,29.0673363 Z M24.0036279,14.9662373 L29.3128023,18.0374489 C29.0713992,18.5417052 28.8179922,19.0508315 28.5547907,19.5624664 L23.0646008,16.3865518 C23.3752287,15.9023654 23.6885814,15.427845 24.0037752,14.9663111 L24.0036279,14.9662373 Z M21.2284496,19.4300936 L26.8438333,22.6784664 C26.5559612,23.1698839 26.2620504,23.655546 25.9658566,24.1329441 L20.4089457,20.919546 C20.6744302,20.4222256 20.9462481,19.9260858 21.2284496,19.4301674 L21.2284496,19.4300936 Z M25.4695736,24.9186217 C25.160345,25.4024392 24.8469922,25.8769596 24.5317984,26.3385674 L19.2190155,23.2652159 C19.460345,22.7608858 19.7138256,22.2518334 19.9773953,21.7416004 L25.4695736,24.9186217 Z M18.1309341,25.6849674 C18.3480349,25.1677984 18.578907,24.6409635 18.824655,24.1086683 L24.000093,27.1024781 C23.6614806,27.5823111 23.3229419,28.0456159 22.9844767,28.492614 L18.1309341,25.6849674 Z M27.3051357,21.8736043 L21.6911512,18.6249363 C21.9790969,18.1333713 22.2730078,17.6477829 22.5691279,17.1704586 L28.1246395,20.3840781 C27.8587868,20.8801441 27.585938,21.3780548 27.3051357,21.8736043 L27.3051357,21.8736043 Z M30.3968333,15.6293557 C30.1817209,16.1429829 29.9511434,16.6652431 29.7088566,17.1937751 L24.535186,14.2009984 C24.8707791,13.7264781 25.2082868,13.2648703 25.5433643,12.8217829 L30.3968333,15.6293557 Z M29.2569806,13.897146 L27.6525853,12.9690606 L30.8956938,7.34092854 L32.5000891,8.26901398 L29.2569806,13.897146 Z M35.771624,2.54252466 C35.6477558,2.75753825 35.4478876,2.91101398 35.2092829,2.97506058 C34.9692054,3.03947612 34.7195543,3.00671495 34.5063566,2.8821635 C34.0644225,2.6253868 33.9124225,2.05686252 34.1673023,1.61436544 C34.2912442,1.39935184 34.4911124,1.24587612 34.7297171,1.18182951 C34.9683217,1.11778291 35.2180465,1.15054408 35.4325698,1.2747266 C35.6472403,1.39890913 35.8004186,1.59909165 35.8643411,1.83815961 C35.9282636,2.07722757 35.8955659,2.32743728 35.771624,2.54245087 L35.771624,2.54252466 Z" mask="url(#mask-2)"/><path id="Fill-12" fill="#D4983B" d="M31.9533089,22.2374155 C31.5342779,22.2383748 31.1113438,22.173 30.6966578,22.0704369 C30.0094174,24.6731049 27.7115221,26.5509689 24.8701384,26.5509689 C21.4625841,26.5509689 18.7999329,23.8539282 18.7999329,20.4398311 C18.7999329,17.8027786 20.3914407,15.6004019 22.6846965,14.7314932 C22.4633981,14.3182893 22.3089678,13.868635 22.2191229,13.4033379 C19.3867973,14.4282311 17.3392159,17.1235748 17.3392159,20.4398311 C17.3392159,24.6866816 20.6896229,27.9281184 24.7559174,27.9281184 C27.504805,27.9281184 29.7093205,26.5228563 30.9124329,24.3702117 L30.9124329,27.6127553 L32.3725609,27.6127553 L32.3725609,22.2142466 C32.2344058,22.2264951 32.0958089,22.2370466 31.9533089,22.2374155" mask="url(#mask-2)"/></g></g></g></svg>