<svg xmlns="http://www.w3.org/2000/svg" xmlns:xlink="http://www.w3.org/1999/xlink" width="18" height="25" version="1.1" viewBox="0 0 18 25"><title>B</title><desc>Created with Sketch.</desc><g id="Symbols" fill="none" fill-rule="evenodd" stroke="none" stroke-width="1"><g id="Footer" fill="#FFF" stroke="#FFF" transform="translate(-1194.000000, -527.000000)"><g id="B"><path d="M5.21524,13.3704795 C4.91224,13.9627414 4.61404,14.5618971 4.33244,15.1531452 C7.56944,15.0694054 10.25064,14.1703676 12.10944,12.5401774 C13.72464,11.1236962 14.65104,9.17010382 14.65104,7.18021741 C14.65104,4.40564988 12.76304,1.41940094 8.61824,1.41940094 C4.11164,1.41940094 1.20004,3.79777547 1.20004,7.47847733 C1.20004,9.71086468 2.45084,11.3094243 4.58664,11.9706246 C5.06944,11.0476612 5.58844,10.0829292 6.13104,9.08352531 C6.62464,8.17475509 7.09084,7.31647211 7.47844,6.56950436 C7.63264,6.27225823 7.99504,6.1579016 8.28904,6.31443231 C8.58224,6.47076025 8.69484,6.83876961 8.54064,7.13581297 C8.14744,7.89312149 7.67864,8.75647347 7.18244,9.67031268 C6.76504,10.4389758 6.28984,11.3138851 5.80604,12.2325905 C6.18884,12.2824695 6.59204,12.30822 7.01364,12.30822 C7.34504,12.30822 7.61364,12.5805266 7.61364,12.9164999 C7.61364,13.2522704 7.34504,13.5247798 7.01364,13.5247798 C6.37944,13.5247798 5.77844,13.4720623 5.21524,13.3704795 M3.77104,16.373152 C2.80584,18.5593101 2.20724,20.4670787 2.65304,21.2318893 C2.69944,21.3113712 2.82204,21.5220389 3.36904,21.5220389 C4.47104,21.5220389 5.77584,19.6503615 5.77584,18.0690364 C5.77584,17.5570675 5.63884,17.1556028 5.36864,16.875794 C5.04824,16.5442814 4.53104,16.3761934 3.83124,16.3761934 C3.81104,16.3761934 3.79084,16.3751796 3.77104,16.373152 M3.36904,22.7385987 C2.35124,22.7385987 1.85604,22.2558272 1.61984,21.8509155 C0.72904,20.3225108 1.93724,17.1659435 4.02264,13.0639064 C1.50924,12.2052179 3.99999997e-05,10.1982997 3.99999997e-05,7.47847733 C3.99999997e-05,5.43850921 0.79744,3.60190933 2.24524,2.30708412 C3.78484,0.930343878 5.98824,0.202841081 8.61824,0.202841081 C10.78964,0.202841081 12.63844,0.935412878 13.96504,2.32127732 C15.18104,3.59217686 15.85104,5.31766426 15.85104,7.18021741 C15.85104,9.52351446 14.77324,11.8124718 12.89444,13.4600994 C11.23384,14.9165243 9.01424,15.8488147 6.38644,16.2085109 C6.77284,16.6973652 6.97584,17.3352481 6.97584,18.0690364 C6.97584,20.5838684 4.99264,22.7385987 3.36904,22.7385987 Z M8.93378,22.7377269 C8.89378,22.7377269 8.85378,22.7336717 8.81578,22.7255613 C8.77778,22.7194785 8.73978,22.7075156 8.70378,22.6912948 C8.66778,22.6768989 8.63178,22.6586505 8.59978,22.6363469 C8.56778,22.614246 8.53578,22.5876845 8.50978,22.5592981 C8.48178,22.5329393 8.45578,22.5004977 8.43378,22.4680561 C8.41178,22.4356145 8.39378,22.3991177 8.37978,22.3626209 C8.36378,22.3263269 8.35178,22.2875997 8.34598,22.2490753 C8.33798,22.2105509 8.33378,22.1699989 8.33378,22.1294469 C8.33378,22.0911253 8.33798,22.0503705 8.34598,22.0118461 C8.35178,21.9733217 8.36378,21.9347973 8.37978,21.8983005 C8.39378,21.8597762 8.41178,21.825307 8.43378,21.7928654 C8.45578,21.7583962 8.48178,21.7281849 8.50978,21.6995958 C8.53578,21.6712094 8.56778,21.6468782 8.59978,21.6245746 C8.63178,21.602271 8.66778,21.5842253 8.70378,21.5678018 C8.73978,21.5536086 8.77778,21.5416457 8.81578,21.5335353 C9.01178,21.4948082 9.21978,21.5596914 9.35778,21.6995958 C9.38578,21.7281849 9.40978,21.7583962 9.43178,21.7928654 C9.45378,21.825307 9.47178,21.8597762 9.48798,21.8983005 C9.50178,21.9347973 9.51378,21.9733217 9.52178,22.0118461 C9.52978,22.0503705 9.53378,22.0911253 9.53378,22.1294469 C9.53378,22.1699989 9.52978,22.2105509 9.52178,22.2490753 C9.51378,22.2875997 9.50178,22.3263269 9.48798,22.3626209 C9.47178,22.3991177 9.45378,22.4356145 9.43178,22.4680561 C9.40978,22.5004977 9.38578,22.5329393 9.35778,22.5592981 C9.32978,22.5876845 9.29978,22.614246 9.26578,22.6363469 C9.23378,22.6586505 9.19778,22.6768989 9.16178,22.6912948 C9.12578,22.7075156 9.08798,22.7194785 9.04978,22.7255613 C9.01178,22.7336717 8.97178,22.7377269 8.93378,22.7377269 Z" transform="translate(1195.000000, 528.000000)"/></g></g></g></svg>