<?xml version="1.0" standalone="no"?>
<!DOCTYPE svg PUBLIC "-//W3C//DTD SVG 20010904//EN"
 "http://www.w3.org/TR/2001/REC-SVG-20010904/DTD/svg10.dtd">
<svg version="1.0" xmlns="http://www.w3.org/2000/svg"
 width="116.000000pt" height="118.000000pt" viewBox="0 0 116.000000 118.000000"
 preserveAspectRatio="xMidYMid meet">

<g transform="translate(0.000000,118.000000) scale(0.100000,-0.100000)"
fill="#000000" stroke="none">
<path d="M0 590 l0 -590 580 0 580 0 0 590 0 590 -580 0 -580 0 0 -590z m714
555 c202 -53 374 -227 421 -426 45 -192 -10 -376 -154 -519 -66 -66 -178 -141
-207 -140 -5 1 9 10 31 22 58 30 136 80 132 85 -2 2 -27 -12 -55 -31 -177
-118 -419 -120 -590 -5 -25 17 -46 28 -49 26 -8 -8 102 -70 167 -94 38 -14 51
-22 31 -19 -72 13 -164 68 -247 151 -125 124 -175 241 -172 405 l1 85 7 -110
c11 -160 51 -255 151 -357 l61 -63 -53 60 c-100 113 -149 235 -149 375 0 131
35 231 119 345 l52 70 -45 -50 c-25 -27 -62 -81 -81 -120 -20 -38 -33 -59 -30
-45 12 43 64 126 112 180 43 48 142 123 180 137 10 3 -17 -17 -60 -46 -43 -29
-76 -55 -74 -58 3 -2 29 14 58 36 107 81 274 118 414 92 96 -18 198 -72 275
-147 215 -207 227 -528 28 -761 l-50 -58 56 60 c201 211 192 548 -20 759 -157
158 -364 204 -589 131 -17 -6 -18 -5 -3 4 59 39 232 52 332 26z m-670 -424
c-4 -17 -9 -30 -11 -27 -3 2 -2 19 2 36 4 17 9 30 11 27 2 -2 1 -18 -2 -36z
m697 -672 c-47 -19 -156 -30 -211 -21 -51 8 -48 8 45 9 55 1 114 6 130 11 38
13 68 14 36 1z"/>
<path d="M451 1094 c-172 -46 -313 -187 -365 -363 -18 -62 -21 -193 -5 -261
52 -225 266 -394 499 -394 454 0 690 537 380 867 -70 75 -148 124 -238 148
-79 23 -195 24 -271 3z m-23 -111 c2 -24 7 -30 19 -26 13 5 13 2 -2 -20 -24
-37 -14 -67 46 -149 33 -44 55 -65 65 -61 17 6 44 -14 44 -34 0 -18 71 -103
86 -103 12 0 86 -77 143 -148 l32 -41 -58 6 c-54 4 -61 8 -105 56 -26 28 -50
62 -53 76 -3 13 -22 43 -41 66 -49 60 -71 57 -164 -19 -118 -97 -108 -91 -129
-72 -10 9 -25 14 -33 11 -8 -3 -20 0 -27 8 -9 11 -8 17 4 27 20 17 19 22 -13
62 -25 32 -30 34 -47 22 -16 -12 -21 -12 -33 0 -20 20 -6 53 28 64 16 6 46 28
67 49 21 21 50 46 66 56 24 16 27 23 27 76 l0 59 -40 7 c-22 4 -40 11 -40 17
0 5 9 7 20 4 11 -3 29 -9 40 -12 14 -4 22 0 27 13 11 31 26 44 47 41 15 -2 22
-11 24 -35z m506 -699 c9 -20 15 -38 14 -40 -2 -1 -18 9 -36 23 -26 20 -30 28
-21 39 17 21 24 18 43 -22z"/>
<path d="M436 815 c7 -34 62 -125 74 -125 32 0 12 45 -55 125 l-25 30 6 -30z"/>
<path d="M310 750 c-28 -25 -52 -38 -63 -36 -12 3 -17 0 -14 -8 6 -15 108
-156 112 -156 14 0 35 14 35 23 0 8 -4 7 -12 -1 -9 -9 -22 4 -56 55 l-45 67
44 37 c24 21 47 39 52 39 4 0 7 5 7 10 0 17 -14 10 -60 -30z"/>
</g>
</svg>
