<?xml version="1.0" encoding="utf-8"?>
<!-- Generator: Adobe Illustrator 21.0.2, SVG Export Plug-In . SVG Version: 6.00 Build 0)  -->
<svg version="1.1" id="Layer_1" xmlns="http://www.w3.org/2000/svg" xmlns:xlink="http://www.w3.org/1999/xlink" x="0px" y="0px"
	 viewBox="0 0 20 16" style="enable-background:new 0 0 20 16;" xml:space="preserve">
<style type="text/css">
	.st0{fill:#FFFFFF;}
</style>
<title>twitter</title>
<desc>Created with Sketch.</desc>
<g id="Symbols">
	<g id="Footer" transform="translate(-751.000000, -532.000000)">
		<g id="twitter" transform="translate(751.000000, 532.000000)">
			<path id="Shape" class="st0" d="M19.7,1.8c-0.6,0.4-1.5,0.6-2.2,0.6c0.9-0.5,1.5-1.2,1.7-2.2c-0.7,0.5-1.6,0.7-2.6,1
				c-0.7-0.7-1.7-1.2-3-1.2c-2.2,0-3.9,1.8-3.9,4.1c0,0.4,0,0.6,0.1,0.9C6.3,4.9,3.3,3.3,1.3,0.8C0.9,1.4,0.8,2,0.8,2.8
				c0,1.4,0.7,2.6,1.8,3.3C2,6.1,1.4,5.9,0.8,5.6l0,0c0,2,1.4,3.6,3.2,3.9C3.6,9.8,3.3,9.8,2.9,9.8c-0.2,0-0.5,0-0.7-0.1
				c0.5,1.6,2,2.7,3.8,2.8c-1.4,1.1-3.1,1.7-5,1.7H0C1.7,15.3,3.9,16,6.2,16c7.4,0,11.5-6.2,11.5-11.5V4C18.4,3.4,19.2,2.7,19.7,1.8
				z"/>
		</g>
	</g>
</g>
</svg>
