<svg xmlns="http://www.w3.org/2000/svg" xmlns:xlink="http://www.w3.org/1999/xlink" id="Layer_1" x="0" y="0" enable-background="new 0 0 16 16" version="1.1" viewBox="0 0 16 16" xml:space="preserve"><style type="text/css">.st0{fill:#fff}</style><title>faceboook</title><desc>Created with Sketch.</desc><g id="Symbols"><g id="Footer" transform="translate(-670.000000, -532.000000)"><g id="faceboook" transform="translate(670.000000, 532.000000)"><path id="facebook" d="M15,0H0.9C0.3,0,0,0.3,0,0.9v14.3C0,15.7,0.3,16,0.9,16h7.6V9.8h-2V7.4h2V5.6 c0-2.1,1.2-3.2,3.1-3.2c0.9,0,1.6,0.1,1.8,0.1v2.2h-1.2c-1,0-1.1,0.5-1.1,1.1v1.5h2.4L13,9.7h-2V16h4.1c0.5,0,0.9-0.3,0.9-0.9 V0.9C15.9,0.3,15.5,0,15,0z" class="st0"/></g></g></g></svg>