<?xml version="1.0" encoding="utf-8"?>
<!-- Generator: Adobe Illustrator 21.0.2, SVG Export Plug-In . SVG Version: 6.00 Build 0)  -->
<svg version="1.1" id="Layer_1" xmlns="http://www.w3.org/2000/svg" xmlns:xlink="http://www.w3.org/1999/xlink" x="0px" y="0px"
	 viewBox="0 0 16 16" style="enable-background:new 0 0 16 16;" xml:space="preserve">
<style type="text/css">
	.st0{fill:#FFFFFF;}
</style>
<title>instagram</title>
<desc>Created with Sketch.</desc>
<g id="Symbols">
	<g id="Footer" transform="translate(-711.000000, -532.000000)">
		<g id="instagram" transform="translate(711.000000, 532.000000)">
			<path id="Shape" class="st0" d="M8,1.6c2,0,2.3,0,3.2,0.1c0.8,0,1.2,0.2,1.4,0.3c0.4,0.2,0.6,0.4,0.9,0.6s0.4,0.5,0.6,0.9
				c0.1,0.3,0.3,0.7,0.3,1.4c0,0.8,0.1,1.1,0.1,3.2s0,2.3-0.1,3.2c0,0.8-0.2,1.2-0.3,1.4c-0.2,0.4-0.4,0.6-0.6,0.9
				c-0.3,0.3-0.5,0.4-0.9,0.6c-0.3,0.1-0.7,0.3-1.4,0.3c-0.8,0-1.1,0.1-3.2,0.1s-2.3,0-3.2-0.1c-0.8,0-1.2-0.2-1.4-0.3
				C3,14,2.8,13.9,2.5,13.6c-0.3-0.3-0.4-0.5-0.6-0.9c-0.1-0.3-0.3-0.7-0.3-1.4c0-0.8-0.1-1.1-0.1-3.2s0-2.3,0.1-3.2
				c0-0.8,0.2-1.2,0.3-1.4C2,3.1,2.2,2.8,2.5,2.6S3,2.1,3.4,2c0.3-0.1,0.7-0.3,1.4-0.3C5.7,1.6,6,1.6,8,1.6L8,1.6z M8,0.2
				c-2.1,0-2.4,0-3.2,0.1C4,0.3,3.4,0.4,2.9,0.6C2.4,0.8,2,1.1,1.5,1.5S0.8,2.4,0.6,2.9S0.3,4,0.3,4.8S0.2,5.9,0.2,8s0,2.4,0.1,3.2
				c0,0.8,0.2,1.4,0.4,1.9c0.2,0.5,0.4,1,0.9,1.4s0.9,0.7,1.4,0.9c0.5,0.2,1.1,0.4,1.9,0.4s1.1,0.1,3.2,0.1s2.4,0,3.2-0.1
				c0.8,0,1.4-0.2,1.9-0.4c0.5-0.2,1-0.4,1.4-0.9s0.7-0.9,0.9-1.4c0.2-0.5,0.4-1.1,0.4-1.9s0.1-1.1,0.1-3.2s0-2.4-0.1-3.2
				c0-0.8-0.2-1.4-0.4-1.9c-0.2-0.5-0.4-1-0.9-1.4s-0.9-0.7-1.4-0.9S12,0.3,11.2,0.3C10.4,0.2,10.1,0.2,8,0.2L8,0.2z"/>
			<path id="Shape_1_" class="st0" d="M8,4C5.8,4,4,5.8,4,8s1.8,4,4,4s4-1.8,4-4S10.2,4,8,4z M8,10.6c-1.4,0-2.6-1.2-2.6-2.6
				S6.6,5.4,8,5.4s2.6,1.2,2.6,2.6S9.4,10.6,8,10.6z"/>
			<ellipse id="Oval" class="st0" cx="12.2" cy="3.8" rx="1" ry="1"/>
		</g>
	</g>
</g>
</svg>
