<svg xmlns="http://www.w3.org/2000/svg" viewBox="0 0 538.04 538.34"><defs><style>.coming-soon{fill:#fff}</style></defs><g><g><path class="coming-soon" d="M97.14 62l2.6 2.88-11.1 10L94.19 81l10.45-9.44 2.57 2.85-10.45 9.44 8.72 9.64-3.39 3.06L82.66 75zM119 67.09a15.41 15.41 0 0 0 2.36 2.74 6.51 6.51 0 0 0 2.45 1.46 5 5 0 0 0 2.7 0 9.7 9.7 0 0 0 3.1-1.54 9.1 9.1 0 0 0 2.48-2.42 5.18 5.18 0 0 0 .87-2.63 6.93 6.93 0 0 0-.57-2.9 17.08 17.08 0 0 0-1.82-3.22l-9.8-14 3.7-2.58 9.66 13.79a21.48 21.48 0 0 1 2.73 5 9.65 9.65 0 0 1 .57 4.41 8.23 8.23 0 0 1-1.66 4 17.28 17.28 0 0 1-4 3.7 18.59 18.59 0 0 1-4.72 2.5 8.13 8.13 0 0 1-4.19.35 8.88 8.88 0 0 1-3.93-1.94 21.51 21.51 0 0 1-3.93-4.36l-9.8-14 3.8-2.61zM165.09 48.22l1.81 3.42-17.25 9.13-13.56-25.63 4-2.13 11.75 22.2zM190.29 38l1.42 3.61-18.16 7.15-10.62-27 4.24-1.67 9.2 23.37zM234.06 2.15l4.72-.84L237 31.09l-5.4 1-9.21-21.81-1 23.64-5.39 1-12.15-27.37 4.92-.88 9.16 22.18.81-24L224 4l9.4 22.14zM270.48 0l.14 3.88-15.52.54.29 8.27 14.61-.51.14 3.84-14.64.51.32 9.11 15.51-.53.14 3.87-20.07.7-1-29zM293.07 1.28a23.25 23.25 0 0 1 3.82.66 10.1 10.1 0 0 1 3.17 1.4 6.15 6.15 0 0 1 2.08 2.41 6.86 6.86 0 0 1 .54 3.68 7.85 7.85 0 0 1-1.22 3.67 6 6 0 0 1-2.46 2.31 7.85 7.85 0 0 1 2.93 2.75 7.15 7.15 0 0 1 .82 4.48 8.83 8.83 0 0 1-1.16 3.86 7.06 7.06 0 0 1-2.49 2.43 9.62 9.62 0 0 1-3.49 1.2 16.92 16.92 0 0 1-4.17.12l-11.48-1 2.47-28.9zm-1.24 25.24a6.55 6.55 0 0 0 4.46-.86 4.42 4.42 0 0 0 1.71-3.42 4.15 4.15 0 0 0-1.15-3.64 7.5 7.5 0 0 0-4.46-1.51l-6.82-.6-.82 9.41zm.73-12.95a6.07 6.07 0 0 0 3.82-.71 4 4 0 0 0 1.67-3.27 3.49 3.49 0 0 0-1.15-3.19 6.22 6.22 0 0 0-3.6-1.32l-6.65-.58-.74 8.5zM317.39 19.41a9.39 9.39 0 0 1-2.17-2.09 7.55 7.55 0 0 1-1.22-2.67 7.08 7.08 0 0 1 0-3.27 6.5 6.5 0 0 1 1.69-3.27 8.23 8.23 0 0 1 3-1.94 11.67 11.67 0 0 1 3.66-.72A14.87 14.87 0 0 1 329.66 7a10.4 10.4 0 0 1 2.89 2.14 9.06 9.06 0 0 1 1.88 3 10.56 10.56 0 0 1 .64 4l-4.3-.93a5.64 5.64 0 0 0-1.94-4A7 7 0 0 0 327 10.1a9.37 9.37 0 0 0-2-.66 8.65 8.65 0 0 0-1.8-.19 6.58 6.58 0 0 0-2 .27 4.54 4.54 0 0 0-1.72.92 3 3 0 0 0-1 1.73 3.33 3.33 0 0 0 .65 3 7.48 7.48 0 0 0 2.78 2l3.21 1.43a34.12 34.12 0 0 1 3.18 1.63 12.08 12.08 0 0 1 2.75 2.15 7.45 7.45 0 0 1 1.69 2.87 7.1 7.1 0 0 1 .07 3.77 7.46 7.46 0 0 1-1.75 3.52 8.7 8.7 0 0 1-3 2.14 11.35 11.35 0 0 1-3.83.87 15.24 15.24 0 0 1-4.14-.32 14.79 14.79 0 0 1-4.35-1.64 11 11 0 0 1-3.13-2.66 9.87 9.87 0 0 1-1.79-3.54 11.09 11.09 0 0 1-.31-4.26l4.38.95a7.38 7.38 0 0 0 1.59 4.92 8 8 0 0 0 4.59 2.53 7.86 7.86 0 0 0 4.77-.24 3.87 3.87 0 0 0 2.45-2.91 3.55 3.55 0 0 0-.08-2 4.64 4.64 0 0 0-1-1.63 7.16 7.16 0 0 0-1.67-1.32 17.5 17.5 0 0 0-2.07-1.06l-3.32-1.46a16.6 16.6 0 0 1-2.76-1.5zM339.49 39.75l8.78-27.64 4.35 1.38-8.79 27.64zM360.68 20.13l1.5-3.58 21.37 9-1.55 3.54-8.55-3.59-9.72 23.17-4.21-1.76 9.72-23.17zM410.56 40.22l-1.9 3.38-13.52-7.6-4.07 7.21 12.75 7.2-1.89 3.34-12.75-7.2-4.48 7.95 13.51 7.63-1.91 3.38-17.48-9.91 14.26-25.25zM432.08 87.61l-2.46 3-15.1-12.37L432.9 55.8l3.52 2.89-15.91 19.44zM464.48 84.5l-13.33 28-3.43-3.57 3-6.05-8.72-9.11-6.14 2.79-3.22-3.34L461 80.87zm-12 14.68L459.05 86l-13.35 6.09zM467 113.88a15.83 15.83 0 0 0-2.68 2.43 6.34 6.34 0 0 0-1.39 2.5 5 5 0 0 0 0 2.69 9.72 9.72 0 0 0 1.62 3.06 9.23 9.23 0 0 0 2.49 2.42 5.2 5.2 0 0 0 2.65.79 6.8 6.8 0 0 0 2.89-.64 16.89 16.89 0 0 0 3.17-1.9l13.73-10.16 2.71 3.66-13.53 10a21.39 21.39 0 0 1-5 2.86 9.68 9.68 0 0 1-4.39.69 8.34 8.34 0 0 1-4-1.55 17.48 17.48 0 0 1-3.8-3.9 18.66 18.66 0 0 1-2.63-4.66 8.3 8.3 0 0 1-.46-4.19 8.91 8.91 0 0 1 1.84-4 21.48 21.48 0 0 1 4.27-4l13.73-10.16 2.71 3.66zM497.39 136.68l-21.08 11.48-2.14-3.94 25.47-13.86 3 5.59-14.93 22.69 21.05-11.45 2.14 3.93L485.47 165l-3-5.58zM502.61 194a11.13 11.13 0 0 1-3.88-1.45 11.92 11.92 0 0 1-3.1-2.81 15.35 15.35 0 0 1-2.2-4 13.62 13.62 0 0 1-.94-5.65 11.59 11.59 0 0 1 1.44-5 14 14 0 0 1 3.55-4.1 19.41 19.41 0 0 1 5.42-3 18.91 18.91 0 0 1 6.09-1.29 13.33 13.33 0 0 1 5.38.89 12.23 12.23 0 0 1 4.33 3 14.35 14.35 0 0 1 3 4.89 13.69 13.69 0 0 1 .91 4.3 11.13 11.13 0 0 1-.55 4 11.56 11.56 0 0 1-2 3.59 13.06 13.06 0 0 1-3.44 2.91l-1.54-4.12a8 8 0 0 0 3.26-4.11 8 8 0 0 0-.27-5.47 8.15 8.15 0 0 0-1.88-3 7.67 7.67 0 0 0-3-1.83 10.25 10.25 0 0 0-3.93-.5 17.87 17.87 0 0 0-9 3.36 10.76 10.76 0 0 0-2.67 3 7.8 7.8 0 0 0-1.1 3.36 8 8 0 0 0 .51 3.52 8.16 8.16 0 0 0 3.39 4.37 7.93 7.93 0 0 0 5.19 1l1.55 4.12a13.38 13.38 0 0 1-4.52.02zM505.73 228.45l-1-4.45 12.69-2.82-3.14-14.18-12.69 2.82-1-4.45 28.31-6.29 1 4.45-11.9 2.61 3.16 14.21 11.87-2.63 1 4.45zM507 238.86l28.8-3.35.53 4.53-28.81 3.35zM532.73 257.93l-24 .39-.08-4.48 29-.47.1 6.35-23.75 13.2 24-.4V277l-29 .48-.1-6.36zM532.77 311.32a11.05 11.05 0 0 1-7.35 3.26l.55-4.36a7.39 7.39 0 0 0 4.35-2.17 8.44 8.44 0 0 0 2.12-4.95 8.63 8.63 0 0 0-.25-3.56 7.51 7.51 0 0 0-1.75-3.05 10.43 10.43 0 0 0-3.24-2.28 15.32 15.32 0 0 0-4.71-1.29 16.8 16.8 0 0 0-4.82 0 10.43 10.43 0 0 0-3.74 1.34 7.79 7.79 0 0 0-2.53 2.48 8.41 8.41 0 0 0-1.21 3.45 12.8 12.8 0 0 0 0 2.84 8 8 0 0 0 .8 2.79 6 6 0 0 0 1.91 2.22 7.3 7.3 0 0 0 3.38 1.19l.63.08 1-7.5 3.84.49-1.55 11.7-14.83-1.89.45-3.53 3.55.25a8.22 8.22 0 0 1-2.59-4.06 14.62 14.62 0 0 1 1.47-10.76 11.71 11.71 0 0 1 3.6-3.71 13.63 13.63 0 0 1 5-2 20.14 20.14 0 0 1 6.18-.1A18.62 18.62 0 0 1 529 290a13.58 13.58 0 0 1 4.33 3.32 12.14 12.14 0 0 1 2.47 4.67 14.37 14.37 0 0 1 .36 5.75 12.86 12.86 0 0 1-3.39 7.58zM512.25 343.51a9.25 9.25 0 0 1 2.31-1.94 7.5 7.5 0 0 1 2.78-1 7.05 7.05 0 0 1 3.25.35 6.55 6.55 0 0 1 3.08 2 8.22 8.22 0 0 1 1.61 3.17 11.68 11.68 0 0 1 .34 3.71 15.27 15.27 0 0 1-2.37 7.16 10.65 10.65 0 0 1-2.43 2.65 9.21 9.21 0 0 1-3.21 1.55 10.62 10.62 0 0 1-4 .21l1.38-4.18a5.64 5.64 0 0 0 4.2-1.5 6.94 6.94 0 0 0 1.33-1.67 10.31 10.31 0 0 0 .87-1.92 9 9 0 0 0 .37-1.77 6.38 6.38 0 0 0-.05-2 4.75 4.75 0 0 0-.73-1.8 3 3 0 0 0-1.62-1.17 3.33 3.33 0 0 0-3 .33 7.63 7.63 0 0 0-2.36 2.61l-1.76 3a34.06 34.06 0 0 1-2 3 12.1 12.1 0 0 1-2.43 2.51 7.63 7.63 0 0 1-3 1.38 8.18 8.18 0 0 1-7.08-2.44 8.83 8.83 0 0 1-1.81-3.25 11.61 11.61 0 0 1-.46-3.9 15.54 15.54 0 0 1 .76-4.09 15 15 0 0 1 2.09-4.16 11.38 11.38 0 0 1 3-2.83 9.81 9.81 0 0 1 3.71-1.4 11.26 11.26 0 0 1 4.27.14l-1.41 4.26a7.37 7.37 0 0 0-5.08 1 9.17 9.17 0 0 0-3.27 9.07 3.89 3.89 0 0 0 2.63 2.74 3.58 3.58 0 0 0 2 .13 4.71 4.71 0 0 0 1.73-.84 7.52 7.52 0 0 0 1.5-1.53 19.08 19.08 0 0 0 1.27-1.94l1.8-3.15a16.15 16.15 0 0 1 1.79-2.49zM486.58 389.59a14 14 0 0 1-3.07-4.55 12.33 12.33 0 0 1-.89-5.23 15.2 15.2 0 0 1 5-10.22 12.13 12.13 0 0 1 4.68-2.52 14 14 0 0 1 5.48-.37 18.38 18.38 0 0 1 5.89 1.81 18.67 18.67 0 0 1 5 3.53 13.75 13.75 0 0 1 3.05 4.55 12.45 12.45 0 0 1 .87 5.23 15.31 15.31 0 0 1-5 10.23 12.52 12.52 0 0 1-4.66 2.51 13.75 13.75 0 0 1-5.46.37 18.14 18.14 0 0 1-5.89-1.81 18.67 18.67 0 0 1-5-3.53zM497 371.22a10.59 10.59 0 0 0-4 .18 8.32 8.32 0 0 0-3.19 1.62 8.52 8.52 0 0 0-2.23 2.88 8.3 8.3 0 0 0-.88 3.48 8.18 8.18 0 0 0 .68 3.52 10.26 10.26 0 0 0 2.32 3.27 15.1 15.1 0 0 0 4 2.75 15.3 15.3 0 0 0 4.64 1.49 10.14 10.14 0 0 0 4-.18 7.89 7.89 0 0 0 3.18-1.63 8.58 8.58 0 0 0 2.2-2.84 8.81 8.81 0 0 0 .92-3.52 8 8 0 0 0-.67-3.51 10.49 10.49 0 0 0-2.32-3.27 15.34 15.34 0 0 0-4-2.75 15.58 15.58 0 0 0-4.65-1.49zM466.49 420.26a14.14 14.14 0 0 1-2.37-5A12.29 12.29 0 0 1 464 410a15.35 15.35 0 0 1 6.46-9.38 12.12 12.12 0 0 1 5-1.8 14.09 14.09 0 0 1 5.47.44 18.48 18.48 0 0 1 5.56 2.66 18.13 18.13 0 0 1 4.46 4.24 13.5 13.5 0 0 1 2.35 4.94 12.18 12.18 0 0 1 .09 5.31 15.18 15.18 0 0 1-6.45 9.37 12.28 12.28 0 0 1-5 1.8 13.67 13.67 0 0 1-5.46-.43 19.88 19.88 0 0 1-10-6.89zm13-16.64a10.22 10.22 0 0 0-4-.41 8.11 8.11 0 0 0-3.4 1.13 8.84 8.84 0 0 0-4 5.83 8.2 8.2 0 0 0 .16 3.58 10.35 10.35 0 0 0 1.81 3.58 16.92 16.92 0 0 0 8 5.46 10.36 10.36 0 0 0 4 .42 8 8 0 0 0 3.39-1.15 8.64 8.64 0 0 0 2.59-2.49 8.75 8.75 0 0 0 1.42-3.34 7.87 7.87 0 0 0-.14-3.57 10.35 10.35 0 0 0-1.81-3.58 15.17 15.17 0 0 0-3.58-3.31 15.45 15.45 0 0 0-4.46-2.15zM467.88 442.75l-17.63-16.28 3-3.29 21.31 19.67-4.32 4.67-26.24-6.84 17.6 16.25-3 3.29-21.3-19.67 4.31-4.67zM413 496.36l-4.58 3.08 2.36-15.85-19.47-7.59 4.49-3 15.65 6.16.95-6.47-5-7.47 3.79-2.55 16.18 24.07-3.79 2.54-7.92-11.78zM380.46 514.15l-1.76-3.46 13.85-7-3.74-7.38-13.06 6.61-1.75-3.44 13.06-6.62-4.06-8.13-13.84 7-1.75-3.46 17.91-9.07 13.1 25.87zM350.61 525.67l-1.33-3.67 14.58-5.32-2.86-7.75-13.75 5-1.25-3.59 13.75-5-3.12-8.56-14.63 5.3-1.33-3.64 18.86-6.89 9.94 27.24zM325.34 531.87a10.42 10.42 0 0 1-4-.37 6.93 6.93 0 0 1-3.15-2.06 9.5 9.5 0 0 1-2-4.26 9.23 9.23 0 0 1-.11-4.53 6.76 6.76 0 0 1 1.86-3.21 10.5 10.5 0 0 1 3.43-2.17 30.69 30.69 0 0 1 4.65-1.46l4.64-1.07-2.55-10.95 4.45-1 6.55 28.21-9.11 2.11a32.36 32.36 0 0 1-4.66.76zm6.17-15.39l-4.91 1.14c-1 .23-1.89.49-2.71.77a6 6 0 0 0-2.05 1.16 3.72 3.72 0 0 0-1.14 1.8 5.36 5.36 0 0 0 .05 2.72 5.89 5.89 0 0 0 1.2 2.6 4 4 0 0 0 1.9 1.18 6.16 6.16 0 0 0 2.41.13 25.15 25.15 0 0 0 2.76-.49l4.79-1.12zM294.58 533.26l.21 3.88-23.13 1.2-.21-3.87 9.27-.49-1.3-25.08 4.55-.24 1.31 25.09zM239.31 507.53l4.55.34-1 13 14.52 1.1 1-13 4.55.34-2.19 28.92-4.55-.34.92-12.13-14.52-1.1-.92 12.13-4.54-.34zM202.79 508.91a13.81 13.81 0 0 1 3.7-4.06 12.08 12.08 0 0 1 4.87-2.1 14 14 0 0 1 5.78.14 14.27 14.27 0 0 1 5.33 2.31 12.16 12.16 0 0 1 3.55 3.95 13.89 13.89 0 0 1 1.65 5.24 19.69 19.69 0 0 1-2.62 11.88 13.71 13.71 0 0 1-3.69 4 12.36 12.36 0 0 1-4.89 2.08 15.35 15.35 0 0 1-11.11-2.45 12.44 12.44 0 0 1-3.54-3.94 13.8 13.8 0 0 1-1.65-5.22 18.26 18.26 0 0 1 .37-6.14 18.54 18.54 0 0 1 2.25-5.69zm20.29 5.76a10.32 10.32 0 0 0-1.11-3.85 8.1 8.1 0 0 0-2.33-2.72 8.44 8.44 0 0 0-3.32-1.49 8.22 8.22 0 0 0-6.85 1.45 10.38 10.38 0 0 0-2.64 3 15.37 15.37 0 0 0-1.72 4.56 15 15 0 0 0-.35 4.85 10.37 10.37 0 0 0 1.11 3.86 7.85 7.85 0 0 0 2.34 2.7 8.64 8.64 0 0 0 3.28 1.46 8.74 8.74 0 0 0 3.63.07 8 8 0 0 0 3.25-1.48 10.47 10.47 0 0 0 2.64-3 16.93 16.93 0 0 0 2.07-9.42zM186.6 509.84a9.1 9.1 0 0 1 1.86 2.37 7.64 7.64 0 0 1 .89 2.81 7.15 7.15 0 0 1-.46 3.24 6.6 6.6 0 0 1-2.13 3 8.17 8.17 0 0 1-3.21 1.5 11.51 11.51 0 0 1-3.72.22 15.5 15.5 0 0 1-3.66-.83 15 15 0 0 1-3.42-1.77 10.24 10.24 0 0 1-2.57-2.51 9.17 9.17 0 0 1-1.45-3.26 10.58 10.58 0 0 1-.08-4l4.13 1.51a5.87 5.87 0 0 0 .28 2.38 6 6 0 0 0 1.09 1.87 6.93 6.93 0 0 0 1.62 1.38 10.12 10.12 0 0 0 1.9.93 9.14 9.14 0 0 0 1.75.43 6.71 6.71 0 0 0 2 0 4.77 4.77 0 0 0 1.83-.68 3 3 0 0 0 1.21-1.57 3.35 3.35 0 0 0-.22-3.05 7.65 7.65 0 0 0-2.48-2.37l-3-1.86a34.62 34.62 0 0 1-2.93-2.06 12 12 0 0 1-2.43-2.5 7.53 7.53 0 0 1-1.28-3.07 7.16 7.16 0 0 1 .46-3.75 7.42 7.42 0 0 1 2.2-3.24 8.77 8.77 0 0 1 3.31-1.7 11.51 11.51 0 0 1 3.92-.34 15.54 15.54 0 0 1 4.06.89 14.85 14.85 0 0 1 4.08 2.22 11.09 11.09 0 0 1 2.73 3.07 9.73 9.73 0 0 1 1.29 3.75 11.32 11.32 0 0 1-.28 4.26l-4.21-1.54a7.37 7.37 0 0 0-.87-5.11 8 8 0 0 0-4.2-3.13 7.83 7.83 0 0 0-4.76-.43 3.89 3.89 0 0 0-2.83 2.54 3.54 3.54 0 0 0-.19 2 4.72 4.72 0 0 0 .78 1.75 7.69 7.69 0 0 0 1.48 1.55 22.12 22.12 0 0 0 1.9 1.33l3.09 1.9a16.23 16.23 0 0 1 2.52 1.87zM136.54 503.56l1.77-3.46 13.81 7.08 3.78-7.37-13-6.68 1.75-3.41 13 6.67 4.15-8.12-13.8-7.07 1.77-3.46 17.87 9.15-13.22 25.82zM102.46 480a10.53 10.53 0 0 1-2.29-3.36 6.86 6.86 0 0 1-.42-3.74 9.52 9.52 0 0 1 2-4.24 9.41 9.41 0 0 1 3.42-3 7 7 0 0 1 3.66-.61 10.65 10.65 0 0 1 3.87 1.27 29.7 29.7 0 0 1 4.08 2.66l3.78 2.89 6.82-8.94 3.63 2.77-17.6 23.05-7.41-5.58a34 34 0 0 1-3.54-3.17zm15.8-5.05l-4-3.06a27.17 27.17 0 0 0-2.33-1.6 6.07 6.07 0 0 0-2.2-.84 3.71 3.71 0 0 0-2.12.27 5.36 5.36 0 0 0-2.06 1.77 5.69 5.69 0 0 0-1.23 2.58 3.86 3.86 0 0 0 .29 2.21 6.27 6.27 0 0 0 1.43 1.95 26.92 26.92 0 0 0 2.15 1.81l3.91 3zM73.52 454.24l2.71-2.78 11.12 10.83 5.77-5.93-10.48-10.22 2.68-2.75L95.8 453.6l6.37-6.53-11.12-10.83 2.71-2.78 14.38 14-20.23 20.79zM53 429.75l3-2.44 9.77 12.06 6.43-5.2-9.2-11.39 3-2.41 9.21 11.38 7.04-5.75-9.76-12 3-2.44 12.63 15.61-22.53 18.19zM38.9 407.9a10.54 10.54 0 0 1-1-3.95 6.94 6.94 0 0 1 .92-3.65 9.68 9.68 0 0 1 3.42-3.3 9.43 9.43 0 0 1 4.25-1.58 6.87 6.87 0 0 1 3.64.72 10.56 10.56 0 0 1 3.17 2.54 30.32 30.32 0 0 1 2.89 3.93l2.53 4 9.52-6 2.42 3.86L46.1 420l-5-7.9a31.26 31.26 0 0 1-2.2-4.2zm16.57.82l-2.68-4.27a27.4 27.4 0 0 0-1.62-2.32 6.08 6.08 0 0 0-1.76-1.56 3.79 3.79 0 0 0-2.08-.49 5.32 5.32 0 0 0-2.55.94 5.7 5.7 0 0 0-2.06 2 3.92 3.92 0 0 0-.5 2.18 6.18 6.18 0 0 0 .66 2.32 25.58 25.58 0 0 0 1.37 2.48l2.61 4.17zM20.84 373.58l3.51-1.65L31 386l7.5-3.53-6.28-13.27 3.47-1.64 6.24 13.25 8.25-3.89-6.61-14 3.51-1.65 8.55 18.16-26.23 12.32zM29.14 347.17l.29.91 1.57 4.75L42.59 349l1.41 4.38-27.57 9-2.86-8.75a34.75 34.75 0 0 1-1.28-5.09 11 11 0 0 1 0-4.13 6.36 6.36 0 0 1 1.71-3.13 8.77 8.77 0 0 1 3.67-2.1 7.81 7.81 0 0 1 5.16-.17 8.18 8.18 0 0 1 3.84 3.12l10.28-10.39 1.59 4.87-9.71 9.69c.1.28.17.56.31.87zM27.45 354l-1.63-5a22.62 22.62 0 0 0-1.06-2.73 6.43 6.43 0 0 0-1.33-2 3.52 3.52 0 0 0-1.79-1 4.78 4.78 0 0 0-2.46.25 4.8 4.8 0 0 0-2.18 1.39 3.78 3.78 0 0 0-.87 1.9 6.55 6.55 0 0 0 .11 2.39A27.45 27.45 0 0 0 17 352l1.6 4.9zM20.16 322.38a9.31 9.31 0 0 1-1.07 2.82 7.61 7.61 0 0 1-2 2.2 7 7 0 0 1-3 1.27 6.58 6.58 0 0 1-3.68-.28 8.3 8.3 0 0 1-2.94-2 11.09 11.09 0 0 1-2.09-3.08 15.07 15.07 0 0 1-1.17-3.57 15.23 15.23 0 0 1-.21-3.82 10.63 10.63 0 0 1 .84-3.5 9.38 9.38 0 0 1 2.05-2.92 10.91 10.91 0 0 1 3.42-2.14l.83 4.33a5.5 5.5 0 0 0-1.9 1.46A5.88 5.88 0 0 0 8.17 315a7.11 7.11 0 0 0-.35 2.1 10.49 10.49 0 0 0 .18 2.15 9.8 9.8 0 0 0 .53 1.75 6.92 6.92 0 0 0 1 1.72 4.85 4.85 0 0 0 1.52 1.22 3.05 3.05 0 0 0 2 .23 3.32 3.32 0 0 0 2.49-1.76 7.58 7.58 0 0 0 .77-3.34l.06-3.52a33.71 33.71 0 0 1 .26-3.57 12.21 12.21 0 0 1 .9-3.37 7.47 7.47 0 0 1 2-2.68 7.24 7.24 0 0 1 3.47-1.55 7.4 7.4 0 0 1 3.91.23 8.84 8.84 0 0 1 3.17 2 11.56 11.56 0 0 1 2.29 3.19 15.26 15.26 0 0 1 1.33 3.94 14.77 14.77 0 0 1 .19 4.65 10.86 10.86 0 0 1-1.23 3.92 9.73 9.73 0 0 1-2.55 3 11.17 11.17 0 0 1-3.81 1.95l-.84-4.4a7.39 7.39 0 0 0 3.94-3.38 9.21 9.21 0 0 0-1.59-9.48 3.89 3.89 0 0 0-3.63-1.12 3.52 3.52 0 0 0-1.8.85 4.62 4.62 0 0 0-1.1 1.58 7.7 7.7 0 0 0-.57 2.06 21.63 21.63 0 0 0-.17 2.31v3.63a16 16 0 0 1-.38 3.07zM.29 266.76a10.56 10.56 0 0 1 1.25-3.87 6.88 6.88 0 0 1 2.7-2.62 9.52 9.52 0 0 1 4.59-1 9.35 9.35 0 0 1 4.45.89 6.82 6.82 0 0 1 2.72 2.53 10.6 10.6 0 0 1 1.37 3.83 30.29 30.29 0 0 1 .39 4.86v4.76l11.24-.08v4.56l-29 .2v-9.32a32.44 32.44 0 0 1 .29-4.74zm13.71 9.4v-5a27.18 27.18 0 0 0-.16-2.82 6.12 6.12 0 0 0-.68-2.25 3.78 3.78 0 0 0-1.51-1.51 5.3 5.3 0 0 0-2.74-.58 5.79 5.79 0 0 0-2.8.6 3.94 3.94 0 0 0-1.57 1.59 6.35 6.35 0 0 0-.66 2.32 25.13 25.13 0 0 0-.12 2.8v4.92zM3 228.07l3.86.44-1.8 15.42 8.23.94 1.65-14.55 3.81.43-1.65 14.55 9.07 1 1.74-15.42 3.86.44-2.26 19.95L.69 248zM9.66 196.83l3.78.89-3.54 15.11 8.1 1.89 3.34-14.26 3.74.88-3.38 14.25 8.88 2.08 3.54-15.11 3.78.89L33.32 223l-28.24-6.61zM43.42 175.67l3.66 1.33-6.62 18.37-27.29-9.82 1.55-4.29 23.64 8.51zM33 139.53l3.47 1.73-6.91 13.89 7.44 3.69 6.52-13.11 3.43 1.71-6.51 13.11 8.16 4.06 6.91-13.9 3.49 1.73-9 18-26-12.91zM47.59 117.53a13.18 13.18 0 0 1 4.79-2.91 11.09 11.09 0 0 1 5.55-.31 17.71 17.71 0 0 1 6.47 2.89 17.91 17.91 0 0 1 5.15 4.89 11.06 11.06 0 0 1 1.85 5.26 13.26 13.26 0 0 1-.87 5.53 27.43 27.43 0 0 1-3 5.69l-4.41 6.58L39.06 129l4.4-6.58a27.53 27.53 0 0 1 4.13-4.89zm8.92 1.24a7.81 7.81 0 0 0-4.13.35 8.87 8.87 0 0 0-3.26 2.24 26.2 26.2 0 0 0-2.64 3.34l-1.76 2.62 17.85 12 1.76-2.62a26.18 26.18 0 0 0 2.07-3.72 8.65 8.65 0 0 0 .84-3.87 7.89 7.89 0 0 0-1.24-3.99 13.82 13.82 0 0 0-4.21-4 13.86 13.86 0 0 0-5.28-2.35z"/></g></g></svg>