<svg xmlns="http://www.w3.org/2000/svg" width="67" height="10" viewBox="0 0 67 10">
    <g fill="none" fill-rule="nonzero" opacity=".3">
        <g fill="#000">
            <path d="M8.768 5.394c0 2.423-1.707 4-4.351 4-2.658 0-4.417-1.577-4.417-4V.13h3.022v5.264c0 .898.652 1.485 1.408 1.485.742 0 1.315-.574 1.315-1.485V.13h3.023v5.264zM17.874 1.081L16.78 3.374c-.925-.508-2.345-1.068-3.14-1.068-.339 0-.56.104-.56.378 0 1.146 4.729.43 4.729 3.739 0 2.032-1.785 2.931-3.843 2.931-1.59 0-3.362-.534-4.573-1.46l1.12-2.266c.938.782 2.554 1.42 3.479 1.42.443 0 .73-.143.73-.469 0-1.185-4.73-.404-4.73-3.609C9.992 1.146 11.53 0 13.901 0c1.446 0 2.944.43 3.973 1.081zM21.613 2.423v1.12h4.273v2.294h-4.273V6.97h4.82v2.293H18.59V.13h7.726v2.293zM31.735 6.892h-1.133v2.37H27.58V.13h4.416c2.475 0 3.895 1.186 3.895 3.27 0 1.33-.508 2.32-1.446 2.892l1.798 2.97H32.83l-1.095-2.37zm.261-2.293c.651 0 1.03-.404 1.03-1.108 0-.677-.379-1.068-1.03-1.068h-1.394V4.6h1.394z"/>
        </g>
        <g fill="#231F20">
            <path d="M44.463 9.256l-1.694-6.305-1.72 6.305h-2.397L35.67.136h2.475l1.785 6.71 1.746-6.71h2.267l1.785 6.71 1.758-6.71h2.371l-3.009 9.12h-2.384zM51.72 7.576l-.665 1.68h-2.384l3.934-9.12h2.384l3.844 9.12h-2.476l-.651-1.68h-3.987zm2.006-5.133l-1.33 3.374h2.633l-1.303-3.374zM63.353 9.256h-2.306V6.377L57.673.137h2.32l2.2 3.973 2.15-3.973h2.32l-3.31 6.175z"/>
        </g>
    </g>
</svg>
