<?xml version="1.0" encoding="UTF-8" standalone="no"?>
<!-- Generator: Gravit.io -->
<svg xmlns="http://www.w3.org/2000/svg" xmlns:xlink="http://www.w3.org/1999/xlink" style="isolation:isolate" viewBox="464.859 278.68 515.923 355.743" width="515.923pt" height="355.743pt"><g><path d=" M 846.7 280.1 C 849.6 281 856.2 287.2 857.1 289.8 C 857.4 290.6 859 290.5 862.5 289.4 C 869.1 287.4 878.1 288 881.8 290.6 C 883.3 291.8 885.4 294.3 886.5 296.2 C 888.3 299.5 888.8 299.8 894 300.2 C 907.5 301.2 914.5 310.1 912 323 C 911.3 326.7 911.4 327.7 912.7 328.5 C 921.8 334.2 923.7 335.9 925.8 340 C 930.2 348.8 928.4 353.7 914.7 370 C 909.4 376.3 905.2 381.6 905.3 381.7 C 905.5 381.8 908.4 380.6 911.9 378.9 C 920.7 374.7 923.3 374.3 925.9 376.9 C 927.1 378.1 928 379.7 928 380.5 C 928 382.9 930 382.3 942.3 376.5 C 948.6 373.5 954.9 371 956.1 371 C 959.7 371 963 374.8 963 379 C 963 381 960.1 397.6 956.6 415.8 C 947.6 462.2 947.8 456.7 954.4 461.8 C 969.8 473.7 981.9 503.7 980.7 527 C 978.4 571.8 950.6 606.1 905.1 620.4 C 872.2 630.7 831.9 627.2 808.6 611.9 C 800.8 606.7 800.6 606.7 796.6 607.9 C 789.1 610.1 784.6 610.9 779 611 C 776 611 765.9 612.1 756.5 613.5 C 747.2 614.8 728.4 617.3 714.9 619 C 688.9 622.2 681.866 620.903 676.266 617.203 C 673.966 615.703 667.8 624.3 662.4 624.7 C 659.2 625 654.5 626.1 652 627.2 C 648.6 628.8 645.9 629.3 640.5 629.1 C 636.7 628.9 632.6 628.8 631.5 628.8 C 630.4 628.7 625.9 629.7 621.5 630.9 C 611 633.7 593.4 635.1 578.6 634.1 C 567.1 633.4 566.6 633.3 564.4 630.5 C 561.3 626.6 559.6 619 560.3 612.1 C 560.6 608.1 562.2 603.5 565.9 596 C 574.8 577.9 575 565.6 567 550.3 C 564.8 546.2 563 541.6 563 540.2 C 563 538.7 564.4 533.7 566 529 C 567.7 524.4 569 520.5 569 520.3 C 569 520.1 562.6 520 554.8 520 C 517.5 520 488 508.3 473.8 488 C 465.4 475.9 462.5 457.1 466.9 443.8 C 472.2 428.3 486.3 417.1 502.9 415.4 L 508.5 414.8 L 508.5 399.6 C 508.6 382.5 510 375 515.5 363.5 C 524.7 344.3 544.4 332.6 570 331.3 C 595.5 329.9 615.3 339.1 627 357.6 C 629.2 361.1 631.5 364 632 364 C 632.5 364 635.7 366.5 639.1 369.5 C 649.2 378.5 654.2 378.3 668.7 367.9 C 681.9 358.4 685.7 356.8 694.3 357.2 L 701.1 357.5 L 706 350.8 C 709.1 346.6 712.6 343.1 715.7 341.3 C 719.9 338.8 721.6 338.5 729.9 338.3 L 739.3 338.1 L 742.5 333.3 C 751.2 320.4 765 313.4 774.6 317 C 778.1 318.4 779.2 317.4 783.7 308.8 C 785.7 305 788.6 301 790.2 299.9 C 794.3 296.9 800.1 296.3 803.4 298.5 C 804.8 299.5 806 299.8 806 299.2 C 806 296.6 817.5 285.9 823.3 283 C 832.9 278.3 838.4 277.6 846.7 280.1 Z  M 829.9 285.3 C 822 288.2 817.9 291.8 807.7 304.3 C 805.6 306.9 803.5 309 802.9 309 C 802.4 309 801.7 307.6 801.3 305.9 C 799.9 298.7 793 301.7 787.6 311.8 C 783.3 320.1 779.7 323.4 776 322.5 C 768.5 320.7 765.3 320.8 761.2 322.9 C 755.4 325.9 750.5 330.4 745.9 337.1 C 743.8 340.2 741.5 343 740.8 343.3 C 740.1 343.5 736.1 343.5 731.9 343.2 C 720.8 342.6 717 344.5 709.1 354.9 L 702.9 363 L 695.7 362.4 C 687.1 361.6 684.4 362.7 671.5 372.1 C 662 379 657.5 381 652 381 C 646.2 381 641.4 378.7 635.5 373.1 C 632.7 370.4 629.5 368 628.4 367.6 C 627.4 367.3 625.4 364.9 624 362.3 C 614.6 344.6 595.2 335.1 571 336.3 C 541 337.8 522.7 351.6 515.4 378 C 514 382.9 513.6 388.3 513.5 399.5 C 513.5 407.7 513.8 415.7 514.2 417.1 L 515 419.7 L 506.7 420.3 C 496 421 488.2 424 481.6 430.1 C 474.2 436.9 470.8 444.3 470.2 454.9 C 469.2 473.8 476.7 488.7 492.8 499.3 C 509.5 510.4 530 515.2 559 514.9 L 574.5 514.8 L 574.2 518.6 C 574 520.7 572.8 525.1 571.4 528.4 C 567.4 538.2 567.3 541.7 570.9 547.2 C 574.8 553.4 576.9 559.5 577.6 567.8 C 578.5 577.4 576.7 585 570.9 597 C 565.4 608.1 564.3 612.9 565.4 620.5 C 566.7 628.8 567.3 629 588.2 629 C 606 628.9 614.5 628 626.4 624.7 C 629.8 623.8 632.8 623.6 636.4 624.2 C 642.4 625.2 646.2 624.5 650.9 621.8 C 653.1 620.6 656.6 619.8 660.3 619.6 C 666.2 619.4 672.3 610 674.2 610 C 675 610 676.7 611.1 678 612.5 C 679.4 614 682.3 615.3 685.6 616 C 691.1 617.2 699.2 616.3 748 609.4 C 757.6 608 771 606.5 777.8 606 C 785.5 605.4 791.2 604.4 793.2 603.4 C 797.9 601 802.7 602.1 811.6 607.8 C 820.6 613.5 834 618.2 846.8 620 C 860.2 622 885.2 620.8 897.2 617.6 C 931.6 608.5 958.2 586.7 969.1 558.7 C 973.7 546.9 976.3 530.8 975.6 519.3 C 974.2 497.5 963.8 475.6 949.4 464.1 C 944.2 459.9 943.1 458.5 943.5 456.7 C 945.7 447.1 958 381.8 958 379.7 C 958 378.2 957.4 376.7 956.6 376.4 C 955.9 376.1 947.9 379.3 938.9 383.4 C 930 387.6 922.5 391 922.5 391 Q 922.4 391 922.3 391 C 922.3 391 922.4 388.5 922.7 385.4 C 923.3 379.8 923.3 379.8 920.9 380.5 C 919.6 380.9 913.4 383.6 907.1 386.6 L 896.702 391.569 C 896.204 391.807 895.909 391.565 896.043 391.03 L 896.5 389.2 C 897.7 384.4 902.7 376.8 912 365.5 C 921.3 354.2 923.8 349.3 922.6 344.4 C 921.6 340.4 915.8 335.4 909.9 333.3 C 905.7 331.8 905 331.2 905.5 329.5 C 906.9 325.1 907.2 313.3 906 311.1 C 904 307.3 896.6 304.7 889.8 305.4 C 884.3 305.9 884 305.9 884 303.7 C 884 300.5 880.4 295.1 877.4 294 C 871.6 291.7 860.9 294 855.9 298.6 C 854.4 300 854.1 299.7 853 295.2 C 851.2 287.7 847.6 284.7 839.7 284.3 C 836.2 284.1 831.9 284.6 829.9 285.3 Z " fill-rule="evenodd" fill="rgb(0,0,0)"/><path d=" M 837 292.8 C 837 295.3 833 306.6 828.5 317 C 820 336.6 817.6 349.7 822.1 352.1 C 827.2 354.8 838 350.3 847.7 341.5 C 853.8 336.1 862.4 323.7 864.1 318 C 865.7 312.6 863.5 309 858.4 309 C 855.2 309 855 308.8 856 306.9 C 857.8 303.6 865.9 299 870 299 C 875.9 299 878.5 302.6 878.5 310.8 C 878.5 316.6 878 318.4 875 323.9 C 871.6 330 871.2 330.3 865.5 332.1 C 862.1 333.1 858.4 334.9 857.2 336 C 854.9 338.2 854.2 342.8 856 344.6 C 857.5 346.1 843.7 356.9 834.6 361.5 C 830.7 363.5 825.2 365.3 822.5 365.6 C 818 366.2 817.1 365.9 814.3 363.6 C 810.4 360.3 808.6 355.2 809.4 349.7 C 809.8 347.4 812.2 338.6 814.9 330.2 C 817.8 321.1 819.4 314.7 818.8 314.4 C 816.5 312.9 806.2 325.7 800.2 337.5 C 797.2 343.6 793.6 354.4 792.6 361.1 C 792.1 364 791.4 364.8 788.4 365.9 C 786.5 366.6 784.7 367 784.5 366.8 C 784.3 366.6 784.9 360.7 785.9 353.7 C 786.8 346.7 787.4 341 787.1 341 C 786.7 341 784.5 343.5 782 346.6 C 774.5 356 769.1 359 763.3 356.9 C 760.1 355.9 758 352.5 758 348.7 C 758.1 345.7 759.817 338.123 762.117 336.023 C 763.917 334.423 765.5 335.3 765.2 339.3 C 764.9 342.6 765.3 344 766.9 345.5 C 771 349.1 773.5 346.9 785.5 329.2 C 795.3 314.6 796.5 313.1 797.3 315.2 C 797.8 316.5 797.8 320.6 797.5 324.5 L 796.8 331.5 L 802.7 322.2 C 810.7 309.3 821.4 298 829.2 294.1 C 836.3 290.5 837 290.4 837 292.8 Z " fill="rgb(0,0,0)" vector-effect="non-scaling-stroke" stroke-width="2" stroke="rgb(0,0,0)" stroke-linejoin="miter" stroke-linecap="square" stroke-miterlimit="3"/><path d=" M 898.337 314.545 C 898.337 314.545 898.337 314.555 898.327 314.555 C 898.15 314.761 897.994 314.996 897.876 315.241 C 897.68 315.632 897.514 316.034 897.367 316.455 C 897.171 317.004 897.004 317.572 896.857 318.14 C 896.857 318.14 896.857 318.14 896.857 318.14 Q 896.593 320.171 895.61 320.49 Q 894.626 320.809 895.408 316.798 C 895.535 315.476 895.701 314.153 895.907 312.84 C 895.976 312.39 896.054 311.939 896.162 311.489 C 896.201 311.332 896.24 311.185 896.299 311.038 C 896.338 310.891 896.416 310.754 896.524 310.636 C 896.661 310.489 896.857 310.411 897.063 310.421 C 897.288 310.44 897.514 310.519 897.7 310.646 C 897.915 310.783 898.121 310.94 898.317 311.107 C 898.826 311.567 899.287 312.076 899.708 312.615 C 900.266 313.262 900.688 314.006 900.972 314.81 C 901.119 315.28 901.226 315.77 901.285 316.259 C 901.354 316.867 901.393 317.474 901.383 318.091 C 901.364 319.786 901.246 321.481 901.03 323.166 C 900.727 325.85 900.384 328.534 900.012 331.218 C 900.002 331.218 900.002 331.218 900.002 331.218 L 899.483 334.715 L 903.382 335.871 C 903.382 335.871 903.382 335.871 903.382 335.871 C 904.959 336.341 906.497 336.919 908.005 337.586 C 909.357 338.173 910.66 338.869 911.914 339.662 C 913.001 340.338 914.02 341.122 914.941 342.004 C 915.735 342.738 916.391 343.591 916.9 344.531 C 916.9 344.541 916.9 344.541 916.91 344.551 Q 917.674 345.738 917.13 346.327 Q 916.587 346.917 914.863 345.413 C 913.834 344.453 912.717 343.61 911.512 342.885 C 910.043 342.013 908.515 341.259 906.928 340.632 C 904.92 339.819 902.872 339.124 900.786 338.516 C 898.131 337.742 895.447 337.047 892.753 336.43 C 890.049 335.773 887.345 335.186 884.622 334.657 C 883.76 334.48 882.888 334.343 882.016 334.226 C 881.428 334.147 880.841 334.098 880.253 334.088 C 880.018 334.088 879.783 334.108 879.548 334.137 C 879.42 334.157 879.293 334.196 879.175 334.255 C 879.107 334.304 879.058 334.372 879.048 334.461 C 879.068 334.578 879.146 334.676 879.254 334.735 C 879.479 334.892 879.743 334.97 880.018 334.97 C 880.459 334.96 880.89 335.068 881.281 335.274 C 881.458 335.362 881.614 335.479 881.742 335.626 C 881.899 335.803 881.987 336.028 881.987 336.263 C 881.967 336.528 881.801 336.763 881.566 336.88 C 881.389 336.968 881.213 337.027 881.027 337.066 C 880.508 337.164 879.988 337.213 879.469 337.204 C 878.979 337.204 878.499 337.174 878.01 337.125 C 877.089 337.008 876.158 336.959 875.227 336.959 C 872.915 336.949 870.623 337.262 868.399 337.87 C 867.42 338.144 866.46 338.497 865.539 338.918 C 864.775 339.271 864.05 339.711 863.394 340.24 L 863.237 340.387 C 863.227 340.387 863.227 340.397 863.227 340.397 C 862.737 340.799 862.277 341.23 861.836 341.69 C 861.728 341.798 861.64 341.925 861.562 342.062 C 861.532 342.121 861.513 342.18 861.513 342.249 C 861.532 342.435 861.601 342.611 861.728 342.748 C 862.012 343.13 862.326 343.493 862.649 343.845 C 863.061 344.286 863.413 344.766 863.707 345.285 C 863.932 345.648 864.06 346.049 864.089 346.471 C 864.109 346.745 864.011 347.019 863.825 347.215 C 863.629 347.411 863.354 347.509 863.08 347.499 C 862.688 347.47 862.316 347.352 861.993 347.147 C 861.523 346.882 861.092 346.569 860.69 346.206 C 859.681 345.305 858.838 344.218 858.221 343.013 C 857.937 342.474 857.712 341.896 857.555 341.308 C 857.408 340.769 857.33 340.211 857.32 339.653 C 857.32 339.094 857.418 338.536 857.614 338.017 C 857.81 337.497 858.133 337.037 858.535 336.665 C 858.907 336.332 859.309 336.028 859.73 335.773 C 860.229 335.46 860.749 335.176 861.278 334.921 C 862.551 334.314 863.864 333.794 865.206 333.373 C 868.35 332.364 871.593 331.688 874.885 331.345 L 880.135 330.797 L 881.517 326.124 C 882.202 323.42 882.917 320.717 883.672 318.032 C 883.73 317.788 883.799 317.552 883.868 317.308 C 884.132 316.279 884.495 315.29 884.945 314.33 C 885.347 313.458 885.846 312.645 886.415 311.88 C 886.895 311.224 887.473 310.656 888.119 310.186 C 888.668 309.764 889.324 309.529 890.01 309.5 C 890.47 309.5 890.911 309.676 891.244 310 C 891.587 310.303 891.783 310.744 891.783 311.195 C 891.646 312.096 891.489 312.987 891.313 313.879 C 891.019 315.397 890.725 316.906 890.402 318.415 C 890.176 319.443 889.912 320.452 889.589 321.451 C 889.51 321.726 889.402 321.98 889.285 322.235 C 889.236 322.333 889.187 322.411 889.118 322.5 C 889.011 322.646 888.844 322.744 888.658 322.754 C 888.442 322.754 888.247 322.637 888.149 322.451 C 888.1 322.372 888.07 322.274 888.051 322.186 C 888.021 321.99 888.011 321.804 888.011 321.608 C 888.031 320.883 888.09 320.158 888.198 319.443 C 888.354 318.277 888.54 317.121 888.756 315.965 C 888.942 315.094 889.04 314.202 889.06 313.311 C 889.069 313.056 889.05 312.811 888.991 312.566 C 888.981 312.586 888.971 312.605 888.962 312.615 C 888.697 312.987 888.491 313.379 888.325 313.791 C 888.168 314.192 888.041 314.594 887.933 315.005 C 887.757 315.662 887.59 316.328 887.433 316.994 C 887.022 318.738 886.65 320.481 886.297 322.235 C 885.944 323.969 885.621 325.722 885.327 327.476 C 885.219 328.132 885.122 328.798 885.033 329.465 C 884.975 329.856 884.935 330.248 884.926 330.65 C 884.935 330.718 884.965 330.787 885.014 330.836 C 885.161 331.003 885.327 331.14 885.513 331.247 C 885.807 331.414 886.111 331.561 886.434 331.688 C 886.836 331.845 887.257 331.982 887.678 332.1 C 888.756 332.394 889.843 332.619 890.95 332.766 C 892.214 332.942 893.478 333.05 894.751 333.099 C 894.81 333.021 894.859 332.932 894.898 332.834 C 895.114 332.364 895.3 331.874 895.456 331.385 C 895.966 329.788 896.407 328.171 896.789 326.545 C 897.249 324.674 897.651 322.793 897.994 320.903 C 898.141 320.08 898.268 319.257 898.376 318.434 C 898.464 317.807 898.523 317.17 898.542 316.543 L 898.542 316.201 C 898.552 315.887 898.532 315.583 898.503 315.28 C 898.484 315.074 898.444 314.868 898.386 314.672 C 898.376 314.623 898.356 314.584 898.337 314.545 Z " fill="rgb(0,0,0)" vector-effect="non-scaling-stroke" stroke-width="0.25" stroke="rgb(0,0,0)" stroke-linejoin="miter" stroke-linecap="square" stroke-miterlimit="3"/><path d=" M 775.84 333.21 C 775.93 333.51 775.98 333.82 775.98 334.13 C 775.95 334.85 775.77 335.53 775.45 336.15 C 775.12 336.81 774.68 337.42 774.15 337.94 C 773.83 338.28 773.49 338.61 773.14 338.92 C 773 339.05 772.86 339.17 772.7 339.27 C 772.44 339.46 772.13 339.56 771.8 339.57 C 771.19 339.57 770.64 339.15 770.48 338.56 C 770.41 338.3 770.38 338.04 770.39 337.77 C 770.39 337.44 769.439 334.205 769.469 333.875 C 769.519 333.405 766.468 331.261 766.758 330.961 C 767.118 330.591 770.728 329.836 771.258 329.836 C 771.888 329.866 774.253 330.461 774.633 330.961 C 775.003 331.421 775.64 332.66 775.84 333.21 Z " fill="rgb(0,0,0)" vector-effect="non-scaling-stroke" stroke-width="3" stroke="rgb(0,0,0)" stroke-linejoin="miter" stroke-linecap="square" stroke-miterlimit="3"/><path d=" M 754.9 339.2 C 753.1 342.8 752.7 345.5 752.4 359.6 C 752 372.5 752.2 376.6 753.4 379.5 C 755.3 384 759.2 385.7 762.6 383.6 C 765 382 768.6 373.6 769.6 366.9 C 770.1 363.8 770.9 362.6 772.9 361.9 C 774.3 361.3 776.4 360.1 777.4 359.2 C 779.2 357.6 781.638 356.412 780.938 359.313 C 780.638 360.912 780.872 365.016 780.472 366.916 C 780.072 369.316 777.872 372.516 773.672 377.016 C 769.819 380.869 766.272 386.216 764.672 389.716 C 762.472 394.416 761.272 395.916 759.772 395.916 C 756.072 395.916 749.259 391.484 746.859 386.484 C 744.759 382.384 744.459 380.284 744.459 371.184 C 744.459 358.484 745.9 350.5 751.9 341.2 C 756.6 334.1 758 333.1 754.9 339.2 Z " fill="rgb(0,0,0)" vector-effect="non-scaling-stroke" stroke-width="3" stroke="rgb(0,0,0)" stroke-linejoin="miter" stroke-linecap="square" stroke-miterlimit="3"/><path d=" M 875.49 346.15 C 874.289 346.257 874.512 337.746 875.32 337.711 C 876.129 337.676 876.691 346.043 875.49 346.15 Z " fill="rgb(0,0,0)" vector-effect="non-scaling-stroke" stroke-width="0.25" stroke="rgb(0,0,0)" stroke-linejoin="miter" stroke-linecap="square" stroke-miterlimit="3"/><path d=" M 888.994 346.905 C 887.267 346.734 890.392 338.499 891.542 338.65 C 892.692 338.8 890.721 347.075 888.994 346.905 Z " fill="rgb(0,0,0)" vector-effect="non-scaling-stroke" stroke-width="0.298" stroke="rgb(0,0,0)" stroke-linejoin="miter" stroke-linecap="square" stroke-miterlimit="3"/><path d=" M 901.584 350.762 L 901.52 350.743 C 899.692 349.877 901.999 342.489 904.134 342.754 C 905.612 343.175 902.935 350.8 901.584 350.762 L 901.584 350.762 Z " fill="rgb(0,0,0)" vector-effect="non-scaling-stroke" stroke-width="0.25" stroke="rgb(0,0,0)" stroke-linejoin="miter" stroke-linecap="square" stroke-miterlimit="3"/><path d=" M 909.553 350.443 C 909.011 350.249 911.022 345.977 911.534 346.23 C 912.046 346.483 910.095 350.636 909.553 350.443 Z " fill="rgb(0,0,0)" vector-effect="non-scaling-stroke" stroke-width="0.25" stroke="rgb(0,0,0)" stroke-linejoin="miter" stroke-linecap="square" stroke-miterlimit="3"/><path d=" M 859.2 375.7 C 861.8 376.6 864 377.6 864 378 C 864 378.3 862.2 379.6 860 381 C 856.2 383.4 856 383.7 856 388.7 C 856 391.6 855.7 394 855.2 394 C 854.8 394 852.8 392.6 850.7 390.9 L 846.9 387.8 L 842 389.4 C 839.3 390.3 836.9 391 836.6 391 C 836.3 391 836.9 388.7 838 385.9 L 840 380.8 L 837 376.7 L 833.9 372.5 L 839.4 372.2 C 844.7 371.9 845.1 371.7 848.2 367.4 L 851.5 362.8 L 852.9 368.4 C 854.3 373.7 854.6 374 859.2 375.7 Z " fill="rgb(0,0,0)"/><path d=" M 736.8 415.7 C 738.3 416.8 740.1 419.5 740.9 421.7 C 742.9 427.2 741 433.5 735.7 439.6 C 725.3 451.4 711.1 451.6 711 439.9 C 711 435.4 714 431.4 718.1 430.5 C 721.5 429.7 724 431.3 724 434.1 C 724 436.7 725.5 436.5 727.9 433.4 C 730.7 429.9 731.3 427.4 730 425 C 726.2 417.9 710.2 425.9 704.9 437.5 C 702.8 442.1 702.4 450 704.2 451.8 C 705.8 453.4 708.619 453.456 711.719 451.656 C 713.119 450.856 715.194 452.781 717.094 452.781 C 718.994 452.681 721.619 452.731 723.719 452.031 C 725.719 451.231 728.094 450.381 728.094 450.781 C 728.094 452.481 722.9 457.5 719 460.1 C 714 463.5 709.5 464.5 703.2 463.6 C 696.4 462.7 693.7 459.6 693.3 452.3 C 693.1 449.1 693.5 444.5 694.2 442.1 C 695.4 438.2 696.2 437.3 701 434.8 C 708.1 431.2 715.4 423.9 717.1 418.8 C 717.8 416.6 719.3 414.4 720.4 413.9 C 724 412.4 733.7 413.4 736.8 415.7 Z " fill="rgb(0,0,0)" vector-effect="non-scaling-stroke" stroke-width="3" stroke="rgb(0,0,0)" stroke-linejoin="miter" stroke-linecap="square" stroke-miterlimit="3"/><path d=" M 516.2 431.1 C 523.9 432.7 532.5 437.6 537.6 443.3 C 540 446 541.9 448.5 541.6 448.7 C 541.4 449 539.5 448.7 537.3 448.1 C 528.3 445.6 515.8 447.8 512 452.7 C 508.9 456.7 509.4 461.6 513.3 465.4 C 517.7 469.8 534.2 476.1 550.5 479.6 C 561.4 481.9 565.75 481.15 578.75 481.15 L 593.812 479.969 L 601.25 477.75 C 612.672 470.815 613.582 470.625 617.15 473.85 C 622.85 477.35 630.15 475.95 634.75 470.55 C 635.75 469.35 639.7 469.6 646.6 468.5 C 656.5 466.9 659.013 466.594 662.513 468.694 C 665.913 470.694 666.013 470.894 664.313 472.594 C 663.413 473.494 661.813 477.994 660.713 482.494 C 659.713 487.094 658.513 490.994 658.113 491.294 C 657.713 491.494 650.3 492.7 644.3 493.5 C 638.4 494.3 627.5 496 620.1 497.2 L 606.7 499.3 L 607.3 508.9 C 607.9 520.1 610.5 528.9 614.9 535.5 C 618.3 540.6 618.7 542.6 616.6 545.5 C 613.4 550.1 611 561.1 611 570.9 C 611 580.4 616.239 591.511 618.539 594.211 C 619.339 595.211 619.239 596.011 617.939 597.311 C 614.839 600.811 615.014 604.567 620.914 610.767 C 622.814 612.767 624.014 614.667 623.414 615.067 C 622.914 615.367 611 616.5 599.6 617.1 C 584.8 618 578.6 618 577.9 617.3 C 576.1 615.5 575.7 607.6 577 603.4 C 577.7 601.2 580.2 595.2 582.6 589.9 C 589.5 574.9 589.4 565.6 582.4 549.9 L 579.8 544.2 L 582.4 536.1 C 585.1 527.6 585.7 518 584.2 508 C 583.4 502.8 585.4 503.2 564 504.4 C 541.7 505.7 523.9 502.8 508.3 495.4 C 490.7 487 479.4 472.9 479.6 459.5 C 479.8 446.2 488.9 435.2 502.9 431.4 C 508.8 429.8 509.8 429.8 516.2 431.1 Z " fill="rgb(0,0,0)"/><path d=" M 852.417 453.083 C 862.517 458.083 867.3 469.3 873.8 486 C 876 491.8 876.4 494.2 875.8 496.5 C 873.6 504.4 872.9 510.8 873 526 C 873 535.1 873.4 545.2 874 548.5 C 875.2 555.5 873.6 561.5 867.2 574 L 863.4 581.5 L 855.7 581.8 L 847.547 581.941 L 848 577.2 C 848 571.2 844.2 565.3 838.3 562.4 L 834.5 560.5 L 840 560.4 C 846.4 560.3 850.7 558.4 854.5 553.8 C 857.4 550.4 860.5 544.1 859.7 543.3 C 859.4 543.1 858.1 544 856.7 545.4 C 849.6 552.5 836.7 549.4 833.9 540 C 833.3 537.9 833 535.1 833.3 533.8 C 833.9 531.7 834.3 531.5 839.4 531.8 C 844.4 532.1 845.1 531.9 848.8 528.6 C 853.7 524.2 856.6 517.5 858.1 507.7 C 860.8 489.7 852.1 476 838 476 C 833.4 476 831.9 476.5 828.9 478.9 C 824.4 482.6 820.7 489.5 817.8 499.5 C 814.5 511.1 814.5 529.5 817.9 539.8 C 821 549.4 825 555.4 829.7 557.9 L 833.5 559.8 L 826.9 559.3 C 819.8 558.7 814.4 559.9 809.8 563.2 L 807.1 565.1 L 805 561 C 803.9 558.8 802 553.1 800.8 548.3 C 798.9 540.7 798.5 536.8 798.5 520 C 798.5 498.8 799.9 489.3 804.6 477.6 C 813.083 450.417 835.117 444.283 852.417 453.083 Z " fill="rgb(0,0,0)"/><path d=" M 917.895 465.574 C 918.795 465.874 920 468.9 920 469.7 C 920 470.8 919.4 470.9 917.8 470.3 C 916.5 469.9 912.9 469.5 909.8 469.5 C 905.159 469.364 903.057 470.095 898.488 476.121 C 896.388 480.021 896.588 488.521 898.788 493.121 C 900.288 496.321 900.388 497.521 899.388 501.021 C 895.888 513.021 893.8 520.7 894.3 530.5 C 895.1 545.6 898.4 554 905.4 558.8 C 916.6 566.3 932.1 558.5 935.4 543.5 L 936.1 540.5 L 934.3 542.7 C 931.8 545.8 925.4 548.3 921.9 547.5 C 917.5 546.5 914 541.7 914 536.5 L 914 532.2 L 916.9 533.6 C 924.7 537.5 931.5 529.4 932.7 515.1 C 933.1 510.4 932.8 506.7 931.6 502.7 C 930.3 498.1 928.416 494.8 929.316 493 C 930.016 491.8 931.516 487.7 932.816 483.9 L 935.016 477 L 939.4 482.6 C 943.6 489 947.9 502.2 949.2 512.7 C 951 527.8 948.2 546.5 942 559.8 C 937.8 568.7 927.4 579.1 919.7 581.9 C 908.3 586.1 897.4 584 891.1 576.4 C 883 566.5 879.9 554.3 879.2 529.8 C 878.6 505.8 881.3 492.7 889.3 480.7 C 891.373 475.556 900.077 466.24 904.995 465.674 C 907.995 464.974 916.095 464.874 917.895 465.574 Z " fill="rgb(0,0,0)"/><path d=" M 950.25 476.063 C 979.05 505.263 971 561.7 935.1 588.8 C 916.6 602.7 896.9 608.7 866 609.7 C 845 610.4 835.4 608.9 824.3 603.5 C 815.4 599.1 810.8 594 809 586.6 C 802.641 565.875 816.366 559.412 832.266 563.812 C 841.766 566.412 849.141 576.937 839 583.2 C 837.4 584.4 836 585.7 836 586.1 C 836 586.5 839.9 587.3 844.6 588 C 854.6 589.4 866.6 588.7 880.1 586 C 889 584.2 891.125 582.237 893.625 583.937 C 901.825 589.637 916.5 588.987 927.5 583.687 C 934.2 580.387 942 571.337 946.5 562.937 C 955 546.937 957.65 516.1 952.75 498 C 950.45 489.7 945 479.2 941.2 474.9 C 939.4 472.9 939.15 468.763 939.15 468.163 C 939.15 466.063 943.35 469.063 950.25 476.063 Z " fill="rgb(0,0,0)"/><path d=" M 585.1 348 C 605.1 351.8 620.5 372 625.6 401.2 C 627.5 412.2 627 430.2 624.6 439.5 C 618.7 461.5 602.6 476.9 584.4 477.8 C 569.6 478.6 556 473.1 545.1 462.1 L 535.844 451.312 L 540.219 451.687 C 546.225 450.894 547.094 445.319 529.594 431.719 C 525.194 428.319 523 424.35 523.4 404.75 C 523.7 391.15 527.1 385.3 528.9 379.8 C 534.7 361.7 548.1 351 568.5 348 C 576 346.9 579.2 346.9 585.1 348 Z  M 562.7 377.1 C 558.1 379.5 553.7 385.4 551.3 392.3 C 549.1 398.8 548.8 418.7 550.9 427 C 555.1 443.9 565.6 454 579 454 C 592.9 454 601.1 444.5 603 426.5 C 604.6 410.5 600.4 386.9 597.5 396 C 597.2 397 595.5 399.1 593.9 400.5 C 588.8 404.7 580.6 403.6 576.3 398 C 574.7 396 574.7 394.2 576.3 394.3 C 579.8 394.4 581.1 393.7 582.6 390.9 C 584.9 386.4 583.7 381.9 579.4 378.1 C 576.6 375.5 575.1 375 571.2 375 C 568.5 375.1 564.9 375.9 562.7 377.1 Z " fill-rule="evenodd" fill="rgb(0,0,0)"/><path d=" M 891.9 349 C 896 350 901.5 352 904.3 353.4 C 907 354.8 909.3 356 909.5 356 C 909.7 356 910.3 354.6 910.9 353 C 911.4 351.3 912.3 350 912.9 350 C 913.5 350 912.8 352.4 911.5 355.2 C 909.8 359.1 907.1 362.3 901.5 367.2 C 897.2 371 893.4 374 892.9 374 C 892.4 374 892 372.9 892 371.5 C 892 366.1 884 362.7 877.6 365.4 C 875.7 366.2 873.9 367.8 873.5 368.9 C 873.2 370.1 872.5 371 872 371 C 870.6 371 861 352.2 861.6 350.6 C 861.9 349.8 863.4 348.7 864.8 348.1 C 869.5 346.4 883.9 346.9 891.9 349 Z  M 867.302 349.316 C 864.002 349.816 863.002 351.616 864.602 354.516 L 865.238 355.73 C 865.494 356.219 866.104 356.419 866.6 356.176 L 867.228 355.868 L 869 355 C 871.2 353.9 874.9 353 877.5 353 C 882.7 353 882.9 354.4 877.8 354.8 C 871.1 355.3 866.5 358.5 869.3 360.9 C 870.1 361.5 872.6 361.3 877 360 L 879.292 359.244 C 880.864 358.725 880.821 358.05 879.195 357.737 L 879 357.7 C 878.464 357.657 874.396 358.219 872.859 358.198 C 870.293 357.073 879.277 355.546 881.766 355.609 C 887.578 355.047 889.904 356.186 894.375 359.531 C 899.156 363.75 903.5 364.6 901 361.5 C 899.5 359.7 895.1 357.1 890.5 355.3 C 888.3 354.5 888 354.1 889.5 354.1 C 892.3 354 899.4 357.4 902 360 C 904 362 904.4 362.1 905.7 360.7 C 907.9 358.5 906.6 357.1 899.1 353.8 C 891.594 349.484 876.802 347.916 867.302 349.316 Z " fill-rule="evenodd" fill="rgb(0,0,0)" vector-effect="non-scaling-stroke" stroke-width="0.25" stroke="rgb(0,0,0)" stroke-linejoin="miter" stroke-linecap="square" stroke-miterlimit="3"/><path d=" M 733.3 352.4 C 734.728 353.035 736.294 353.92 737.654 354.962 C 738.008 355.234 738.631 355.752 738.9 356 C 741.2 358 740.997 358.047 740.297 369.047 C 739.397 383.247 738.719 410.281 738.219 410.781 C 738.019 410.981 734.369 409.981 732.469 409.281 C 728.969 408.181 729.119 409.206 729.119 403.706 L 729 399.8 L 725.9 402.4 C 722.5 405.3 716.1 405.9 711.5 403.8 C 699.8 398.5 703.5 370.6 717.7 356.8 C 723.6 351.1 727.7 349.9 733.3 352.4 Z  M 720.3 364.2 C 715.2 369.5 711 384 712.8 390.4 C 714 394.7 717.9 397.4 721.3 396.1 C 726.4 394.1 731.4 379.3 730.8 367.6 L 730.5 361.5 L 727 361.2 C 724.1 361 722.9 361.5 720.3 364.2 Z " fill-rule="evenodd" fill="rgb(0,0,0)" vector-effect="non-scaling-stroke" stroke-width="3" stroke="rgb(0,0,0)" stroke-linejoin="miter" stroke-linecap="square" stroke-miterlimit="3"/><path d=" M 886.19 371 L 886.2 371 L 886.19 371 C 886.19 371 886.19 371 886.19 371 Z " fill="rgb(0,0,0)"/><path d=" M 831.09 420.01 C 831.52 419.97 831.94 420.12 832.24 420.41 C 832.54 420.73 832.68 421.11 832.67 421.5 C 832.66 421.86 832.346 422.313 832.27 422.78 C 832.194 423.247 832.21 423.22 832.21 423.44 C 832.24 424.35 832.36 425.25 832.59 426.14 C 832.87 427.3 833.22 428.44 833.63 429.55 C 834.06 430.71 834.56 431.84 835.12 432.94 C 835.59 433.87 836.14 434.76 836.78 435.58 C 837.81 436.85 839.09 437.9 840.54 438.66 C 841.9 439.32 843.39 439.67 844.9 439.66 C 845.85 439.66 846.8 439.54 847.73 439.32 C 848.78 439.07 849.81 438.72 850.8 438.28 C 851.94 437.77 853.04 437.19 854.09 436.52 C 855.3 435.75 856.46 434.92 857.57 434.02 C 857.57 434.02 857.57 434.02 857.58 434.02 L 863.58 429.21 L 862.49 436.25 C 862.3 437.47 862.06 438.68 861.75 439.87 C 861.54 440.75 861.23 441.6 860.82 442.41 C 860.5 443.08 860.02 443.66 859.42 444.1 C 858.84 444.49 858.15 444.69 857.45 444.68 C 857.13 444.68 856.81 444.64 856.5 444.58 C 854.78 444.22 853.05 443.91 851.32 443.65 C 849.45 443.38 847.57 443.16 845.69 443.01 C 843.2 442.8 840.7 442.65 838.2 442.53 C 834.63 442.36 831.05 442.22 827.47 442.1 L 808.108 441.485 C 806.454 441.433 806.259 440.692 807.673 439.831 L 813.07 436.55 C 813.87 436.02 814.66 435.45 815.41 434.84 C 816.37 434.06 817.31 433.26 818.23 432.43 C 820.17 430.7 822.02 428.87 823.75 426.94 C 825.18 425.32 826.66 423.75 828.2 422.24 C 828.71 421.73 829.23 421.24 829.78 420.77 C 829.95 420.62 830.12 420.48 830.3 420.35 C 830.53 420.16 830.8 420.04 831.09 420.01 L 831.09 420.01 L 831.09 420.01 L 831.09 420.01 L 831.09 420.01 L 831.09 420.01 L 831.09 420.01 L 831.09 420.01 Z  M 879.9 368.6 C 879.99 368.7 880.04 368.83 880.04 368.97 C 880.08 369.24 880.1 369.47 880.09 369.69 C 880.07 370.47 880.02 371.25 879.94 372.02 C 879.81 373.15 879.67 374.27 879.5 375.39 C 879.04 378.44 878.5 381.47 877.9 384.5 C 876.8 390.17 875.73 395.85 874.68 401.54 C 873.43 408.19 872.21 414.84 871 421.5 C 870.32 425.22 869.61 428.93 868.87 432.64 C 868.35 435.29 867.8 437.95 867.21 440.59 C 866.88 442.19 866.48 443.78 866.03 445.35 C 865.92 445.75 865.78 446.15 865.61 446.53 C 865.57 446.64 865.51 446.74 865.45 446.83 C 865.43 446.88 865.38 446.91 865.32 446.92 C 865.28 446.91 865.25 446.89 865.24 446.85 C 865.2 446.78 865.18 446.7 865.17 446.63 C 865.12 446.36 865.1 446.09 865.1 445.82 L 865.1 445.74 L 865.1 445.68 C 865.1 445.41 865.12 445.14 865.16 444.87 C 865.16 444.87 865.16 444.87 865.16 444.87 L 865.23 444.36 L 865.37 443.4 C 865.6 441.9 865.84 440.41 866.1 438.92 C 866.84 434.54 867.61 430.17 868.4 425.8 C 869.56 419.7 870.68 413.59 871.77 407.48 C 872.89 401.33 873.96 395.17 875 389 C 875.74 384.51 876.52 380.01 877.32 375.53 C 877.58 374.05 877.86 372.58 878.15 371.12 L 878.15 371.11 L 878.43 369.77 C 878.43 369.76 878.43 369.75 878.43 369.75 C 878.47 369.53 878.53 369.31 878.6 369.1 C 878.67 368.87 878.78 368.66 878.93 368.47 C 879.03 368.35 879.17 368.27 879.33 368.26 C 879.56 368.28 879.77 368.41 879.9 368.6 L 879.9 368.6 L 879.9 368.6 L 879.9 368.6 L 879.9 368.6 L 879.9 368.6 Z  M 873.45 444.69 L 873.04 446.53 L 872.99 446.71 L 872.86 447.25 L 872.85 447.29 L 872.83 447.35 C 872.82 447.37 872.82 447.38 872.81 447.4 C 872.78 447.55 872.67 447.68 872.53 447.75 C 872.46 447.79 872.39 447.8 872.32 447.81 L 872.16 447.79 C 872.07 447.76 871.98 447.7 871.92 447.63 L 871.92 447.63 C 871.91 447.61 871.9 447.6 871.89 447.59 L 871.89 447.59 C 871.86 447.54 871.84 447.49 871.82 447.44 C 871.8 447.36 871.79 447.28 871.79 447.21 L 871.79 447.14 C 871.79 447.14 871.79 447.14 871.79 447.13 C 871.8 446.75 871.84 446.37 871.89 446 C 871.89 445.99 871.9 445.99 871.9 445.99 L 872.18 443.84 L 872.18 443.83 C 872.53 441.53 872.89 439.23 873.27 436.93 C 874.43 429.88 875.64 422.84 876.91 415.81 Q 878.89 404.74 883.15 380.14 L 883.5 378.13 C 883.5 378.12 883.5 378.12 883.5 378.11 C 883.75 376.38 884.13 374.67 884.62 373 C 884.78 372.44 884.98 371.89 885.23 371.37 C 885.32 371.18 885.43 371.01 885.56 370.84 C 885.7 370.65 885.92 370.52 886.16 370.5 L 886.19 370.5 C 886.42 370.5 886.64 370.58 886.82 370.73 C 886.98 370.88 887.11 371.07 887.18 371.28 C 887.3 371.65 887.37 372.05 887.37 372.44 L 887.36 372.68 C 887.36 372.68 887.36 372.68 887.36 372.68 C 887.35 373.38 887.29 374.08 887.2 374.78 C 886.88 376.76 886.53 378.74 886.16 380.71 C 885.57 383.89 884.97 387.07 884.36 390.25 C 882.79 398.42 881.19 406.59 879.57 414.75 C 878.07 422.32 876.54 429.88 874.98 437.43 C 874.49 439.85 873.98 442.28 873.45 444.69 L 873.45 444.69 L 873.45 444.69 L 873.45 444.69 Z  M 871.92 447.63 C 871.91 447.62 871.9 447.6 871.89 447.59 L 871.89 447.59 L 871.92 447.63 L 871.92 447.63 L 871.92 447.63 L 871.92 447.63 Z  M 888.3 368.2 C 890.6 369.4 890.5 375.1 888 385 C 884.8 397.4 877 438.2 877.6 439.1 C 878.5 440.7 883.4 440.1 886.8 438 C 893 434.2 898.2 423.7 902.8 405.1 C 905.2 395.6 905.7 394.6 908.9 392.4 C 913.2 389.5 916 389.3 916 391.9 C 916 392.9 915.3 396.8 914.6 400.6 C 913.8 404.4 911.9 413.7 910.4 421.4 L 907.8 435.2 L 909.8 437.2 C 913.5 440.9 922.2 437.5 925.4 431.2 C 926.1 429.7 928.4 421.5 930.5 413 C 935.2 393.3 936.2 391.2 942.5 387.8 C 947.4 385.1 951 384.2 951 385.7 C 951 386.9 946.2 406.9 942.4 421.5 C 940.6 428.6 937.9 440.6 936.6 448 C 930.7 479.5 927.7 490.6 923.2 495.9 C 915.2 505.5 901.9 498.7 901.7 484.9 C 901.6 474.2 912.276 467.518 918.176 475.418 C 920.176 478.018 919.3 479.9 917.3 483.9 C 916.1 486.2 915.6 488.3 916.1 488.6 C 917.4 489.4 921 482.9 921 479.9 C 921 478.4 921.9 473 922.9 467.8 C 924 462.6 925.2 454.8 925.6 450.6 L 926.3 442.8 L 921.7 446.1 C 916.9 449.5 909.1 451 903.6 449.6 C 900.6 448.9 898 444.4 898 440.1 C 898 436.3 896.7 435.5 894.6 437.9 C 894.099 438.443 892.48 441.161 889.617 442.664 C 885.623 444.761 880.311 445.759 882 446.4 C 882.8 446.7 888.2 448.1 894 449.4 C 905.7 452.2 918.5 456.4 920.6 458.1 C 923.7 460.7 922.2 461.9 916.6 461.3 C 908.5 460.5 902.6 461.7 897.1 465.5 L 892.1 468.8 L 885.8 466.5 C 882.3 465.3 876.9 463.7 873.7 463 C 869 462.1 867.2 461.1 864.5 458.2 C 857.1 450 842.6 444.2 832.5 445.4 C 825 446.3 815.9 451.2 810.3 457.4 C 805.7 462.6 805.3 462.8 799 463.4 C 795.4 463.8 790.6 464.3 788.2 464.6 L 783.9 465.2 L 784.5 479.4 C 785.2 498.5 785.8 502.4 788.7 509.9 C 791 515.6 791.1 516.8 790 519.4 C 785.8 529.7 784.1 535.5 783 543.3 C 781.1 557.2 782.8 565.8 788.8 572.2 C 791 574.6 791.4 576.1 791.8 583 C 792.2 589.3 792 591 790.9 591.1 C 790.1 591.1 788.8 591.3 788 591.4 C 787.2 591.6 781.6 592 775.5 592.4 C 769.5 592.8 762.5 593.3 760.1 593.7 C 755 594.4 754 593.4 754 587.3 C 754 584.4 755.2 580.8 758.3 575 L 762.5 566.8 L 762.5 551.1 C 762.5 535.9 762.4 535.2 759.8 530.1 C 756.5 523.8 756.4 523 758.9 515.9 C 761.6 508.4 762.4 497.7 761.5 482.6 C 760.9 471.3 760.6 469.9 759.1 470.5 C 758.2 470.9 753.7 472.1 749 473.1 C 734.9 476.2 735.6 475.4 736.4 486.8 C 737.4 500.5 739.6 512.3 742.7 519.8 L 745.2 526.3 L 743 535.4 C 740.5 545.5 739 559.2 739.7 565.4 C 740.6 574.4 741.2 576.3 744.4 579.8 C 746.9 582.6 747.9 584.8 748.5 588.7 L 749.2 593.9 L 744.8 594.4 C 717.9 597.9 713.8 598.2 712.8 597.2 C 712.2 596.6 711.5 593.9 711.2 591.1 C 710.8 586.9 711.1 585.7 713.4 582.8 C 719.3 575 720.3 566 717.1 550.4 C 715.3 541.9 712.7 534.7 709.9 530.9 C 708.9 529.5 709.1 528.2 711.1 523.9 C 713.4 518.8 713.5 517.6 713.4 499.7 C 713.3 489.3 712.8 480.5 712.4 480 C 711.9 479.5 705.9 480.4 699 482 C 692.1 483.6 685.7 484.9 684.8 485 C 683.6 485 682.5 483.1 681 478.3 C 679.7 474.5 677.9 470.5 676.8 469.4 C 674.9 467.3 674.9 467.2 677.6 465.1 C 679.1 464 681.4 463 682.9 462.9 C 684.3 462.9 686.4 462.5 687.5 462.1 C 689 461.5 689.9 461.9 691.4 463.8 C 692.5 465.1 695.2 467.1 697.4 468.1 C 708.2 473 722.5 467.8 731.9 455.7 C 735.8 450.6 736.5 450.1 741.3 449.5 C 744.2 449.1 751.4 448 757.4 446.9 C 763.4 445.9 770.2 445 772.4 445 C 774.7 444.9 779.2 444.4 782.5 443.7 L 788.4 442.4 L 782.4 440.2 C 773.6 437 768.7 433.1 765.7 426.8 C 757.7 410.1 764.4 387.1 780.4 376.1 C 797.7 364.1 825.8 367.9 828.6 382.6 C 829.6 387.7 826.9 398.2 823.2 403.4 C 817 412.4 807.7 416.2 800 413 C 793.1 410.1 790.7 401.2 795 394.2 C 800 386 814.9 386.5 815 394.9 C 815.1 397.4 815.1 397.4 816.5 395.6 C 818.8 392.5 818.4 386.6 815.6 383.3 C 813.4 380.8 812.5 380.5 806.8 380.5 C 790.6 380.6 777 394.9 777 412.1 C 777 421.8 780.4 426.5 789.4 429.6 C 805.5 435 819.3 427.5 833.8 405.3 C 838.1 398.8 839.8 397.1 842.2 396.6 C 848 395.4 848.1 395.6 845.8 401.2 C 842.6 409.3 839.9 421.1 840.4 424.9 C 840.7 426.7 841.7 429.1 842.6 430.1 C 844.6 432.4 850 432.6 853.8 430.6 C 861.6 426.5 864.8 419 870.1 391.6 C 875 366.5 875.5 365.4 882.3 366.5 C 884.6 366.9 887.3 367.6 888.3 368.2 L 888.3 368.2 L 888.3 368.2 L 888.3 368.2 L 888.3 368.2 L 888.3 368.2 L 888.3 368.2 L 888.3 368.2 Z  M 872.35 450.95 L 872.35 451.16 L 872.35 451.29 C 872.35 451.8 872.29 452.32 872.18 452.82 C 872.15 452.97 872.09 453.12 872.02 453.26 C 871.93 453.5 871.7 453.67 871.44 453.69 C 871.16 453.68 870.92 453.48 870.85 453.21 C 870.81 453.07 870.78 452.94 870.77 452.8 C 870.72 452.43 870.7 452.05 870.7 451.68 L 870.7 451.5 L 870.7 451.29 C 870.7 450.84 870.73 450.39 870.79 449.94 C 870.81 449.78 870.84 449.63 870.9 449.47 C 870.97 449.21 871.2 449.02 871.47 448.99 L 871.5 448.99 C 871.69 448.99 871.87 449.08 871.99 449.22 C 872.07 449.32 872.13 449.42 872.17 449.54 C 872.29 450 872.35 450.48 872.35 450.95 Z " fill-rule="evenodd" fill="rgb(0,0,0)"/><path d=" M 698.6 374.5 C 700.5 376.6 700.6 377.6 700.2 387.6 C 699.8 396.3 699.3 399.4 697.5 403 C 694.5 408.9 691.2 412.3 686.1 414.9 C 679.7 418.2 679.5 424.6 685.7 426.7 C 689.9 428.1 694.3 426.5 698.8 421.8 C 704.1 416.4 705.7 412.7 704.2 409.5 C 702.6 405.9 704.2 405.7 710 408.6 C 715.1 411.2 715.044 410.188 714.344 413.688 C 714.044 415.788 712.644 418.987 711.344 420.987 C 706.744 428.088 691.9 436.7 684.8 435.6 C 682.1 435.1 681 435.3 681 436.2 C 680.8 440.8 677.9 453.3 676.1 456.7 C 673.7 461.6 669.6 465 666.4 465 C 663.4 465 658.4 460.6 656 455.9 C 651.2 446.6 649.7 428.2 652.1 408.7 C 652.7 403.9 653 399.5 652.8 399 C 652.3 397.6 648 400.1 645.7 403.1 C 644.2 405.2 643.4 409 642.4 419.1 C 640.7 435.4 638.7 445.6 634.9 457.5 C 631.8 467.2 629.5 470.6 625.3 471.6 C 623.2 472.2 619.572 470.013 617.672 467.813 C 615.472 465.313 615.372 464.913 616.872 462.913 C 617.672 461.813 618.872 459.813 619.572 458.513 C 620.172 457.313 621.272 456.313 621.972 456.313 C 622.772 456.313 626.6 456.8 627.3 455.2 C 630.5 449 634.8 425.7 635.7 409.7 L 636.3 398.9 L 633.2 395.7 C 630 392.4 627 384.7 627 379.7 C 627 376.3 628.3 376.2 630.4 379.5 C 632.7 383.1 640.1 387 645.6 387.6 C 648.7 388 654 387.4 659.8 386.2 C 668.2 384.5 669 384.4 668.5 385.9 C 666.1 392.1 661.8 410 660.8 417.6 C 658.2 439.2 665.3 453.1 672.3 440.1 C 675.6 434.1 675.6 432.9 672.5 423.6 C 669.6 415 669.3 407.5 671.5 398.2 C 674.3 386.3 680.6 376.9 688.3 373.1 C 693 370.8 695.5 371.1 698.6 374.5 Z  M 686.2 384.5 C 682.7 388.4 681.2 392.9 680.3 401.2 C 679.8 406.1 680 407.1 681.4 407.6 C 685.5 409.2 692 400.8 694.1 391.2 C 696.3 381.5 692 377.8 686.2 384.5 Z " fill-rule="evenodd" fill="rgb(0,0,0)" vector-effect="non-scaling-stroke" stroke-width="3" stroke="rgb(0,0,0)" stroke-linejoin="miter" stroke-linecap="square" stroke-miterlimit="3"/><path d=" M 679.5 491.8 C 684.8 508.1 690.3 528.4 698.6 561.5 C 702.9 578.7 705.4 588.1 707.3 594.1 L 708.7 598.7 L 698.9 601.4 C 693.5 602.8 688 604 686.5 604 C 684.2 604 684 603.7 684.7 601.2 C 686.6 594.7 684 570 681.1 566.8 C 680.8 566.4 677.1 568.3 672.9 571 C 664.2 576.6 664.9 575.1 662.9 593.7 L 661.7 605 L 658.9 605 C 657.3 605 653.9 606.3 651.3 607.9 C 643.7 612.5 639 613.5 632.5 612.1 C 628.4 611.2 625.8 609.8 622.9 607 C 620.6 604.9 619 602.6 619.2 602 C 619.4 601.3 621.4 600.2 623.5 599.4 C 625.7 598.7 628.8 596.6 630.3 594.8 C 633.6 590.9 639.4 580.1 638.3 579.8 C 637.8 579.8 634.9 579.6 631.7 579.6 C 626.4 579.5 625.5 579.2 623 576.3 C 617 569.7 618.2 560.8 626.1 552.6 C 630.7 547.8 631 547.6 631 550.1 C 631 555.6 640.1 564.3 644.2 562.7 C 645.2 562.4 646.7 558.3 648.4 550.8 C 651.7 536.5 658.3 508.5 662.4 491 C 665.3 478.2 665.648 475.016 668.848 472.816 C 670.748 471.516 672.648 470.816 673.048 471.216 C 673.448 471.716 676.3 482.3 679.5 491.8 Z  M 668.6 512.6 C 666.6 524.8 665.3 557 666.8 557 C 668.1 557 676.3 551.5 678.2 549.3 C 679.9 547.5 679.9 547 677.5 538.9 C 676.2 534.3 674.2 526.3 673.1 521.2 C 670.5 509.3 669.5 507.3 668.6 512.6 Z " fill-rule="evenodd" fill="rgb(0,0,0)"/></g></svg>