<?xml version="1.0" encoding="UTF-8"?>
<svg version="1.1" id="Layer_1" xmlns="http://www.w3.org/2000/svg" xmlns:xlink="http://www.w3.org/1999/xlink" x="0px" y="0px" viewBox="0 0 600 392" style="enable-background:new 0 0 600 392;" xml:space="preserve">
<style type="text/css">
   display: inline;
   fill: #000000;
   fill-opacity: 1;
   stroke: none;
</style>
   
    <g
       id="g2588"
       style="display:inline;fill:#000000">
      <path
         id="path2117"
         transform="scale(0.74999999)"
         style="display:inline;fill:#000000;fill-opacity:0.97272728;stroke:none;stroke-width:0.13333334"
         d="m 588.29102,141.17773 c -3.23151,0.87579 -5.00931,4.08744 -6.00782,7.04297 -2.12568,6.46788 -2.59481,13.35241 -4.53515,19.85742 -3.08539,13.85252 -4.45659,28.22716 -10.02735,41.39844 -2.63461,6.03003 -5.80936,12.16952 -11.21875,16.17578 -4.78914,3.20531 -11.62614,3.81025 -16.44336,0.36328 -3.16593,-2.37765 -4.14087,-6.58146 -3.84765,-10.35546 0.14182,-9.87823 3.81495,-19.17564 6.96289,-28.40625 0.5598,-1.69012 1.10487,-3.40034 1.46875,-5.13672 -0.2545,-1.51379 -2.17761,-1.67939 -3.35742,-1.23438 -4.43687,0.78362 -7.72932,4.26108 -10.25196,7.75781 -6.964,9.24748 -12.74465,19.60236 -21.68945,27.17188 -7.68797,6.63365 -17.38223,11.53183 -27.67969,11.67773 -8.32737,0.24787 -17.0102,-2.2017 -23.22656,-7.93945 -5.02257,-4.72959 -7.36215,-11.75213 -7.17578,-18.54492 0.16115,-9.53263 3.75602,-18.92377 9.66016,-26.38867 7.43937,-9.45507 18.97315,-16.00961 31.1289,-15.97852 3.30932,0.0797 6.70063,0.62539 9.57227,2.34571 4.89373,3.45956 6.52176,10.20683 5.04101,15.83007 -0.68196,2.77436 -1.98372,5.40009 -3.8125,7.59766 0.80804,-4.262 -0.63104,-9.0549 -4.08203,-11.80859 -3.11881,-2.36808 -7.35291,-2.80331 -11.11328,-2.0879 -6.07224,1.16441 -11.45211,5.67699 -13.29102,11.63672 -2.30374,6.77487 0.44937,14.89043 6.41016,18.84961 3.52663,2.40311 8.03563,2.83168 12.17969,2.32032 6.1823,-0.83648 11.75001,-4.26614 15.98437,-8.7461 7.46671,-7.73316 11.7229,-18.57012 11.21875,-29.33594 -0.33422,-4.91165 -2.35888,-9.91944 -6.36718,-12.95703 -5.46747,-4.5325 -12.52071,-6.67402 -19.47852,-7.48828 -9.40121,-0.98332 -18.98708,0.57341 -27.78906,3.91797 -10.72619,4.29432 -19.72493,12.45519 -25.41797,22.46875 -7.30384,12.35795 -10.11567,27.61566 -6.46289,41.61524 2.10066,7.93798 6.48314,15.62688 13.50195,20.16015 4.60056,3.01456 9.85196,4.78025 14.76953,7.18359 1.3016,1.46985 -0.32139,4.0518 -2.19531,3.70118 -20.07336,2.92389 -40.34377,4.68102 -60.18945,9.00976 -4.76931,1.84508 -7.71185,6.26389 -10.84961,10.04297 -5.80796,7.41645 -14.25741,12.54759 -23.3125,14.92383 -8.11332,2.06669 -17.15794,1.35163 -24.29688,-3.24805 -2.30156,-1.36956 -4.08661,-3.43895 -6.3457,-4.85351 -1.82732,-1.08864 -4.07598,-1.36692 -6.11328,-0.7461 -3.40851,0.6924 -6.66846,2.00363 -9.82813,3.41211 -1.62225,1.02594 -2.42088,3.45004 -1.11914,5.04102 1.30919,2.22718 2.83791,4.36119 3.62891,6.84961 1.90431,4.59053 3.36237,9.46084 6.26172,13.5625 12.82084,-1.49339 25.1851,-5.63103 38.03125,-6.90625 0.55358,17.3185 2.58381,34.75738 0.0898,52.01758 -0.58949,4.71397 -3.23671,8.92456 -3.97851,13.61132 -0.17648,3.26536 1.66953,6.11934 3.20312,8.83985 4.649,10.27441 7.69547,21.29645 8.70117,32.52929 0.57586,7.78683 0.12511,15.79747 -2.57226,23.17774 -2.4796,5.61539 -6.62885,10.64989 -7.34766,16.91992 -0.46612,3.38383 0.20003,7.377 3.10156,9.52539 2.93228,1.78588 6.50451,0.91848 9.6543,0.33984 7.07809,-1.4451 14.36112,-1.53229 21.50391,-2.60546 5.196,-0.6378 10.39194,-1.27385 15.58789,-1.91211 -0.40194,-8.23807 -4.30502,-15.821 -8.98438,-22.4336 -3.07577,-4.96878 -3.30214,-10.95623 -3.88281,-16.60351 -0.82013,-13.55347 2.35957,-26.86136 4.88086,-40.07617 0.87492,-4.63615 1.97111,-9.4761 0.69922,-14.15039 -1.70578,-7.07485 -4.79654,-13.75375 -6.23828,-20.89454 -0.77772,-3.7092 -1.24879,-7.46674 -1.91407,-11.19726 -1.4885,-9.61496 -2.25772,-19.47815 -0.82226,-29.14063 1.05528,-2.64886 4.04386,-3.56257 6.51953,-4.36328 6.82743,-2.09145 14.17812,-2.23541 20.76172,-5.15429 2.88694,-0.74025 5.93859,1.98894 5.62109,4.93164 0.26722,4.25814 0.42496,8.525 0.80078,12.77539 1.04103,16.77538 -0.20295,33.84792 -5.23047,49.93945 -0.6599,2.22068 -0.15921,4.56148 0.72657,6.64062 2.25174,6.26648 5.86715,12.2975 5.93359,19.13868 -0.0612,3.017 -0.44229,6.02209 -0.31445,9.04492 0.0563,9.59018 1.11166,19.42985 -1.63282,28.76562 -1.72589,5.73131 -5.39406,10.60987 -7.68945,16.10352 -1.92884,4.85689 -2.4874,10.51442 -0.375,15.4043 0.63558,0.91164 1.87662,0.36058 2.78711,0.57617 10.65769,0.39722 21.18475,-1.86519 31.82813,-1.95117 4.07401,-0.159 8.37103,-0.16525 12.08789,-2.04493 1.55328,-1.14772 1.21098,-3.32448 1.27343,-5.00976 -0.0385,-3.91639 -0.0585,-7.8973 -1.20117,-11.67774 -1.04349,-3.91301 -3.04646,-7.51233 -5.58789,-10.64648 -4.82597,-7.08791 -6.46716,-15.86358 -6.08789,-24.31641 0.32557,-12.59432 3.74527,-24.8432 8.00781,-36.62109 1.04846,-3.18119 2.18328,-6.38474 2.5586,-9.72656 0.2397,-4.21396 -1.46585,-8.17595 -3.07227,-11.96875 -4.10274,-11.36835 -3.99545,-23.63742 -4.38672,-35.57813 -0.13637,-5.80358 -0.53273,-11.60318 -1.06445,-17.3789 0.22617,-3.08492 3.34999,-5.2861 6.31836,-5.13868 4.71828,-0.35954 9.52015,0.0533 14.16797,-0.93945 5.72013,-0.98195 11.39989,-3.4979 15.13281,-8.07617 3.11207,-3.44223 6.34325,-6.93912 10.50977,-9.125 14.26516,-8.92576 33.52253,-9.46613 48.01562,-0.78516 8.14767,4.60834 16.42856,9.3994 22.91797,16.11524 5.39495,5.58319 10.5123,19.12047 12.73633,19.5 2.22403,0.37953 9.30995,-8.70473 14.78125,-11.86524 7.06847,-4.08311 14.77944,-7.48707 22.82226,-8.88281 4.8552,-0.84256 14.72313,3.36976 14.77735,0.40625 0.0542,-2.96351 -33.26133,-13.86779 -47.61914,-19.10156 -1.00548,-0.42076 -2.01015,-0.84291 -3.01563,-1.26367 16.17119,-6.90134 11.87197,-9.07515 18.60156,-12.57813 0.25095,-0.0899 0.5187,-0.12052 0.78321,-0.082 1.5196,0.29128 2.19987,1.96982 2.09179,3.37305 0.0671,4.39243 0.97051,8.34835 4.06641,10.43359 6.9588,4.68711 18.55822,3.30955 25.16797,-0.34375 3.0976,-1.74133 5.93122,-3.9163 8.88672,-5.88867 -3.1255,15.03039 -2.23694,35.75547 -8.125,48.55469 -1.49519,1.36237 -4.19809,0.4014 -4.66797,-1.51758 -2.98845,-4.21663 -9.24008,-6.07459 -13.84961,-3.46094 -4.86139,3.5428 -6.87252,9.98058 -6.2207,15.80469 0.7051,7.24328 5.30325,14.30234 12.23828,16.92578 5.68612,1.90733 12.25004,-0.73666 15.61328,-5.5586 4.83609,-5.72432 6.68545,-13.18146 8.39844,-20.30273 4.84041,-20.69269 8.93479,-41.54895 13.49023,-62.30469 3.92095,-18.14077 8.19341,-36.21436 13.01563,-54.13086 0.69642,-3.23981 1.15572,-6.53035 1.31836,-9.84179 -11.23795,1.61826 -20.68954,11.25177 -22.27344,22.46289 -3.02828,11.4182 -4.76517,23.22283 -8.88281,34.30859 -1.75867,4.41925 -4.03244,8.87502 -7.78125,11.93164 -4.11442,3.01506 -9.98076,3.93669 -14.52735,1.39258 -3.06109,-1.98964 -3.84761,-6.31958 -2.57617,-9.53906 3.35745,-17.75432 7.92196,-35.32959 9.55664,-53.36719 -5.81381,-0.19593 -11.05047,4.02025 -13.23633,9.22461 -2.82256,6.41057 -3.43925,13.49647 -5.73242,20.07422 -2.74736,9.6868 -5.82987,19.63355 -12.21875,27.61133 -3.56275,4.43817 -8.26935,8.34619 -13.98047,9.46875 -2.60021,0.29628 -5.64055,-1.56861 -5.48242,-4.4043 0.0107,-2.99756 1.20555,-5.83489 1.37891,-8.81641 4.32348,-26.4192 11.5091,-52.32011 14.8789,-78.90039 -0.44602,-3.13941 -3.61232,-5.08937 -6.54101,-5.42383 -2.36227,-0.44437 -4.77592,-0.56839 -7.17578,-0.53125 z m 0.13281,2.74219 c 0.23593,0.007 0.48633,0.15703 0.73633,0.45703 0.8,0.66667 -0.39935,9.59922 -2.66602,21.19922 -2.13333,10.93334 -6.26588,33.20065 -9.19922,49.33399 -5.06666,27.33333 -7.73385,38.13372 -7.86719,32.40039 -0.13333,-1.2 2.00039,-13.20132 4.40039,-26.66797 2.53336,-13.33335 6.53215,-35.46641 8.79883,-49.06641 2.26666,-13.6 4.40078,-25.46653 4.80078,-26.5332 0.25,-0.75 0.60287,-1.13505 0.9961,-1.12305 z m 9.13672,3.65625 c 0.93333,0 1.06601,1.86694 0.66601,4.9336 -2,13.06668 -18.93256,97.86744 -19.19922,96.80078 -0.26666,-0.66667 2.80078,-19.46719 6.80078,-41.86719 4.00002,-22.26667 7.86549,-44.93425 8.79883,-50.26758 0.8,-5.2 2.1336,-9.59961 2.9336,-9.59961 z m -73.33399,64.46875 c 0.93581,6.27941 2.62589,14.67907 6.63867,20.54102 7.06119,8.23644 17.36276,7.48262 29.36133,-2.14258 l 5.33399,-4.26563 c 0.43739,5.2684 0.22628,18.02581 -5.89453,17.55665 -8.64337,-1.20093 -15.76132,-1.5342 -23.64844,-2.23047 -14.01172,-1.23694 -39.41097,1.12345 -42.05664,-3.45899 0.74907,-1.29743 4.67021,-2.55217 6.79883,-4.13476 5.22828,-3.88713 10.26847,-8.26641 14.53515,-13.06641 4.26666,-4.8 8.3983,-8.79883 8.93164,-8.79883 z m -211.53645,70.23894 c -6.31149,1.15484 -11.15313,6.91469 -12.14323,13.14844 -4.05145,17.49612 -8.2181,34.96534 -12.2211,52.47277 -3.9316,16.91347 -7.8533,33.8384 -12.3382,50.61303 -0.51536,1.58563 -2.07711,3.28231 -3.89668,2.77475 -2.37818,-0.85352 -4.38542,-2.46467 -6.37215,-3.98034 -4.19403,-3.57349 -7.20389,-8.72914 -7.56771,-14.28906 -0.94856,-1.26564 -2.9261,-0.69834 -3.73056,0.44224 -2.72049,2.57138 -5.34121,5.25289 -7.72176,8.13844 -4.24296,5.49973 -7.02362,12.51325 -6.0025,19.52802 0.84762,4.76531 3.44809,9.24975 7.24172,12.24556 3.37601,2.45142 7.78098,3.2583 11.8487,2.47331 1.7603,-0.17628 4.08878,-0.02 4.95516,1.79573 0.70051,1.95468 -0.91272,3.66203 -1.85168,5.20548 -2.42204,4.37086 -4.8156,8.87364 -8.4736,12.35083 -2.87168,2.85011 -6.45609,4.98415 -10.3655,6.04605 -1.80679,0.68764 -3.84126,2.3286 -3.53999,4.49355 0.61721,1.87244 2.18827,3.20388 3.33003,4.75327 8.69293,9.78704 24.24885,12.44358 35.6902,6.15772 4.84062,-2.64991 9.54609,-5.95738 15.12032,-6.80886 1.54512,-0.24513 3.12401,-0.29728 4.67916,-0.1156 0.89345,-5.19788 1.16964,-10.52661 1.65896,-15.79265 0.63025,-7.45676 1.40696,-14.97667 3.62489,-22.14745 4.48548,-5.63046 11.17695,-8.68663 17.375,-12.01043 0.6012,-0.73221 2.12059,-0.59284 2.13616,0.51679 3.82472,13.77949 5.41271,28.3125 3.67451,42.54762 -0.61306,1.51755 -0.95891,3.56022 0.27682,4.85159 0.89527,1.08348 2.37684,0.93916 3.60539,0.71561 10.46827,-1.17673 20.47457,-4.68098 30.64045,-7.29566 0.0764,-0.92847 -0.56718,-1.78104 -0.68124,-2.70962 -14.39922,-48.36306 -24.07354,-98.04537 -40.14348,-145.92408 -2.24856,-6.61729 -4.55864,-13.21683 -7.15965,-19.70485 -0.4072,-0.45604 -1.06961,-0.55339 -1.64844,-0.49219 z m -3.41147,54.10417 c 1.13227,1.12128 0.94355,2.89904 1.43563,4.31795 3.05187,13.62088 6.86347,27.05717 9.97584,40.66381 -2.61753,4.70747 -7.52295,7.3386 -11.94601,10.06344 -1.04026,0.63372 -2.06746,1.30784 -3.09306,1.97563 -0.56504,-18.93307 0.41396,-37.92879 2.9323,-56.69271 0.14877,-0.20593 0.43956,-0.47644 0.6953,-0.32812 z m 30.84831,-190.8978 c -14.74847,2.28759 -23.99941,16.54823 -28.60937,29.63087 -5.50839,14.9323 -5.41724,31.76724 0.59765,46.46484 2.77239,5.9352 1.57256,12.58592 -2.30859,17.71289 -1.2791,3.43731 -6.1736,6.23141 -7.81836,1.40235 -7.59546,-18.43684 -1.92705,-38.76552 2.46095,-57.30664 0.96827,-6.26447 4.37085,-12.22846 4.90819,-18.42579 -2.56979,-4.11219 -8.54279,-0.28928 -12.23639,-0.35307 -10.99243,2.5625 -23.21383,4.26162 -33.08001,-2.60396 -4.69326,-1.72037 -5.88668,-7.70744 -10.4668,-9.2207 -5.02064,0.46728 -3.53618,7.26049 -2.9961,10.68554 1.68168,8.02003 5.46791,15.76062 11.77735,21.1543 -1.19467,24.46441 -3.45696,49.36686 -11.36524,72.62109 -0.78539,4.12297 -5.94543,3.48575 -7.15625,7.40625 -1.51634,4.02956 -7.88259,8.50958 -3.68359,12.98438 2.45592,3.99398 7.24427,7.12022 11.85937,4.54297 9.25812,-4.28001 10.78164,-15.91256 13.93332,-24.48092 6.53926,-20.19737 7.40344,-41.52036 10.75419,-62.31401 0.61759,-4.35922 3.97339,-7.69848 7.76757,-9.58398 -2.30541,23.90176 -5.44969,49.26394 3.22266,72.4043 3.23696,7.08948 9.06289,15.11782 17.44141,15.76562 10.87607,-1.91397 15.86744,-13.94564 17.84569,-23.57422 1.48323,-5.14199 2.14784,-11.15295 3.25978,-15.95312 12.7325,2.0732 25.06076,-5.04352 34.73089,-12.61454 6.02721,-5.19622 10.75517,-13.42818 9.77301,-21.52804 -3.05826,-4.59914 -9.21694,-6.22986 -14.16797,-8.06641 -5.16367,-1.21844 -5.00867,5.20328 -2.98047,8.14063 -0.43522,7.37176 -7.06988,12.75468 -12.52344,17.00586 -4.60937,3.90826 -15.7301,2.66316 -14.6289,-4.89649 3.03172,-6.42733 11.49262,-7.38653 15.4453,-13.26953 7.9636,-8.41011 9.83816,-20.2112 9.75203,-31.345 0.16561,-6.88571 1.83713,-15.7958 -5.09772,-20.155 -1.80684,-1.44542 -4.07759,-2.32896 -6.41016,-2.23047 z m -2.00587,16.64844 c 3.72427,2.52157 1.74186,8.45209 1.11915,12.20117 -2.23315,7.43315 -5.53419,16.52782 -13.34179,19.38868 -2.7919,-0.47629 -0.22328,-5.00862 -0.83985,-6.61133 0.91961,-9.12079 3.30781,-21.4218 13.06249,-24.97852 z m 48.18751,-43.91015 c -11.19021,1.42179 -18.74433,11.56772 -24.25587,20.54492 -7.31986,13.64558 -12.00538,30.79822 -5.8164,45.71484 4.96716,11.04559 21.27249,12.4909 29.76369,4.86719 0.16452,4.50132 -1.38447,11.95335 4.61913,13.37109 2.88787,0.90406 9.15255,3.93898 9.61719,-1.16014 2.56521,-23.35475 5.19892,-46.81188 5.63476,-70.30861 -0.80583,-6.84095 -8.59548,-9.93652 -14.14648,-12.2832 -1.74922,-0.53494 -3.58427,-0.82544 -5.41602,-0.74609 z m -1.71484,17.33203 c 5.87538,-0.97324 3.18324,6.65947 3.85083,10.51543 -0.79067,11.11052 -2.58944,23.70201 -10.80396,31.86738 -6.81391,2.79215 -11.06538,-6.6208 -9.74218,-12.1875 1.35535,-10.75406 4.301,-23.09552 13.57422,-29.75195 0.9708,-0.45471 2.06949,-0.48637 3.12109,-0.44336 z m 195.8073,-21.26367 c -4.80544,0.21447 -10.02102,0.0101 -14.15336,2.87615 -1.2253,0.76558 -2.39956,2.30837 -1.70076,3.79819 1.24206,4.15458 3.31816,7.97965 5.15148,11.90067 2.38146,4.76831 4.911,9.49925 8.06462,13.80519 0.73044,0.72047 1.98019,0.40739 2.36719,-0.51041 0.99559,-1.53651 1.37376,-3.59175 3.09052,-4.55525 5.58169,-4.55506 14.63837,-4.20574 19.69971,0.97912 1.53276,1.68785 2.09538,4.01305 2.0342,6.2454 0.0617,1.04564 0.83118,2.60318 2.11306,2.10677 1.57503,-0.66628 2.6802,-2.0542 4.08942,-2.98592 6.14662,-4.96001 12.2878,-10.05317 17.18061,-16.28854 2.69627,-3.74388 4.87964,-7.98051 5.63883,-12.55366 -0.0195,-0.81173 -0.97184,-1.18871 -1.53645,-0.62761 -1.60108,1.13344 -2.01874,3.22309 -2.739,4.93476 -0.32136,0.88663 -0.68191,1.76383 -1.17507,2.57045 -4.70192,-2.18749 -9.25698,-4.71391 -14.17922,-6.39552 -10.84001,-3.94408 -22.42976,-5.48972 -33.94578,-5.29979 z m 0.39062,3.85156 c 13.04427,0.2047 26.38304,2.09221 38.1276,8.04948 1.85403,1.07795 4.00774,1.97868 5.28582,3.76309 0.46969,1.44809 -0.83784,2.74806 -1.94727,3.46347 -1.02369,0.4567 -1.91364,-0.41016 -2.52931,-1.1178 -4.6897,-4.3635 -10.68988,-7.36329 -16.9759,-8.63741 -0.79402,-0.0856 -1.89011,-0.0913 -2.3802,0.59375 -0.0133,1.16612 1.44381,1.33986 2.25466,1.74318 5.36887,2.26572 11.04615,4.59661 14.92888,9.12624 0.37438,0.33204 0.57074,1.29971 -0.18616,1.21652 -2.84745,-0.47089 -5.31336,-2.11182 -7.87128,-3.35358 -4.22545,-2.28167 -8.695,-4.46194 -13.59726,-4.59421 -3.28135,-0.28328 -6.62596,-0.38023 -9.89083,-0.1095 -0.49147,0.52127 0.27445,1.24856 0.84823,1.00264 1.32046,0.20101 2.66149,0.2534 3.96428,0.56246 -4.53699,1.3519 -9.08219,2.96834 -13.8474,3.22017 -1.06738,0.15035 -2.23862,-0.42467 -2.43646,-1.5535 -0.31226,-1.40656 1.02311,-2.32573 1.9805,-3.08734 3.01644,-1.93603 6.64149,-2.52318 10.14574,-2.88845 1.60158,-0.25571 3.3196,-0.37795 4.76699,-1.12578 0.62797,-0.56821 0.26248,-1.5496 -0.53385,-1.66146 -1.92811,-0.67943 -4.02756,-0.50833 -6.03907,-0.53385 -5.36019,0.312 -10.43748,2.40249 -15.04948,5.04167 -0.79808,-1.01033 -1.30732,-2.22131 -1.88167,-3.36368 -0.64862,-1.39329 -0.53842,-3.38176 0.965,-4.17799 2.21431,-1.37209 4.93887,-1.06505 7.41779,-1.40911 1.49121,-0.10494 2.98696,-0.1209 4.48065,-0.16901 z m -396.83593,-2.13542 c -12.56807,0.77051 -25.27388,3.44736 -36.25876,9.83254 -9.97971,5.74744 -17.89024,14.82574 -22.59802,25.30548 -3.78899,8.14242 -5.60254,17.1114 -5.78407,26.08144 -0.44044,9.52595 -0.59073,19.06811 -0.4492,28.60268 0.16526,4.47942 0.36285,9.04004 1.77723,13.32158 1.08989,2.7887 3.28668,4.91568 5.68805,6.60418 7.49893,6.1609 15.11733,12.59914 20.0605,21.093 1.48997,2.62382 2.74225,5.8776 1.52625,8.85148 -1.10849,2.67856 -4.10877,3.8056 -6.78658,4.12382 -1.5601,0.21433 -3.13823,0.22982 -4.70406,0.38433 6.87462,6.97276 13.69202,14.25835 22.33494,19.07185 13.1023,7.61052 28.94437,10.71803 43.87601,7.7172 12.00839,-2.63502 22.55977,-10.12893 30.24765,-19.58581 9.7212,-11.96139 15.65127,-26.92061 16.95742,-42.26545 0.86384,-9.05343 0.97193,-18.17732 0.47281,-27.25539 -0.96079,-14.05213 -4.51847,-27.88523 -10.17831,-40.75856 -5.28817,-11.78413 -12.8624,-22.84273 -23.26986,-30.67713 -7.06607,-5.31632 -15.44199,-8.90237 -24.21682,-9.989 -2.87865,-0.39953 -5.78984,-0.57431 -8.69518,-0.45824 z m -5.08855,34.95313 c 3.99803,-0.0883 7.90729,1.69355 10.61204,4.60997 3.62512,3.25339 6.41365,8.04382 5.76312,13.06406 -0.41305,3.75694 -2.30519,7.64834 -5.76137,9.45592 -1.73658,0.68953 -3.64096,0.62744 -5.47576,0.75546 -0.4947,1.22048 0.74618,2.23396 1.28621,3.21306 4.55845,6.21465 14.09409,8.29706 20.61687,4.04248 2.91873,-1.94195 5.22266,-4.79552 6.44109,-8.08338 0.47423,-1.20549 1.96628,-2.20078 3.19488,-1.40913 1.61401,1.08753 1.9816,3.1958 2.59875,4.91092 2.00036,6.69408 2.53154,13.71079 3.0698,20.64468 0.70425,11.53444 0.20641,23.38289 -3.61358,34.38399 -2.57174,7.2793 -7.16104,14.21482 -14.04664,18.0183 -7.9673,4.43502 -17.80508,4.80308 -26.39374,2.04471 -7.25236,-2.3918 -13.45347,-7.3762 -17.90604,-13.52164 -5.61727,-7.63629 -9.04832,-16.75784 -10.55712,-26.08075 -1.14018,-7.62568 -1.10014,-15.36657 -0.97467,-23.05689 0.22523,-6.03289 0.5834,-12.12525 2.06283,-17.99697 1.9462,-6.74916 5.6339,-12.97738 10.53648,-17.99372 3.61693,-3.54822 8.36552,-5.9334 13.4054,-6.57968 1.70106,-0.26679 3.42058,-0.38862 5.14145,-0.42139 z m 502.59949,138.36719 c 38.4,38.93333 29.2,111.6 -18.66667,147.73333 -24.66667,18.53334 -50.93334,26.53334 -92.13334,27.86667 -28,0.93333 -40.8,-1.06667 -55.6,-8.26667 -11.86666,-5.86666 -18,-12.66666 -20.4,-22.53333 -4.93333,-20.66667 8.8,-33.2 30,-27.33333 12.66667,3.46666 18.4,16.53333 10,22.8 -2.13333,1.6 -4,3.33333 -4,3.86666 0,0.53334 5.2,1.6 11.46667,2.53334 13.33333,1.86666 29.33333,0.93333 47.33333,-2.66667 11.86667,-2.4 12.4,-2.4 15.73334,-0.13333 10.93333,7.6 30.13333,7.86666 44.8,0.8 8.93333,-4.4 22.4,-18.4 28.4,-29.6 11.33333,-21.33334 15.46667,-60.93334 8.93333,-85.06667 -3.06666,-11.06667 -11.33333,-28.4 -16.4,-34.13334 -2.4,-2.66666 -4.26666,-5.6 -4.26666,-6.4 0,-2.8 5.6,1.2 14.8,10.53334 z m -52.24207,-16.71029 c -7.39267,0.25136 -14.11796,4.15564 -19.54297,8.93554 -5.44525,4.80643 -10.49002,10.27423 -13.69531,16.86329 -6.16474,11.8667 -8.85827,25.22588 -9.63281,38.49609 -0.90342,14.28541 0.0381,28.60411 1.14843,42.84961 1.01076,10.32168 3.03146,20.68814 7.38672,30.15625 3.62668,7.80198 9.13773,15.09374 16.81641,19.25 6.7679,3.65294 14.83368,4.34645 22.33984,3.09765 9.51939,-1.60649 18.31107,-6.49631 25.14258,-13.24804 6.17137,-5.98627 11.411,-12.97207 15.09375,-20.76367 6.00144,-12.45318 8.59098,-26.25282 9.66602,-39.95313 0.58253,-8.45057 0.62233,-16.98073 -0.64063,-25.375 -2.38664,-17.04443 -8.55265,-33.70855 -18.86914,-47.56445 -2.64595,9.89449 -7.00689,19.22663 -9.86719,29.04883 0.96812,8.21768 4.00636,16.27226 3.05469,24.64062 -1.122,6.6396 -2.1799,13.67175 -6.33398,19.20117 -2.63071,3.64284 -7.96163,5.47085 -12.05079,3.27149 -2.1375,-0.98402 -4.05691,-2.63274 -6.38867,-3.07422 -1.06398,0.54976 -0.27444,1.85539 -0.41992,2.74609 -0.14483,2.92694 -0.47267,5.90116 0.26367,8.78125 1.09978,5.40355 4.25789,10.74486 9.38086,13.16602 3.9741,1.79105 8.68003,1.42204 12.54883,-0.4668 1.45104,-0.53055 2.83844,-1.29463 4.41602,-1.35156 0.62165,0.8363 -0.36891,1.7151 -0.57618,2.5293 -4.50701,9.4487 -15.08817,15.85318 -25.59179,14.72265 -6.10558,-0.69941 -11.44247,-4.69843 -14.70899,-9.79101 -5.20268,-7.61479 -6.96241,-16.9327 -7.375,-25.99805 -0.37289,-7.00152 -0.3012,-14.03263 0.16602,-21.02539 1.19221,-8.93258 5.63334,-17.33515 5.4043,-26.50391 -0.87175,-2.72254 -2.15069,-5.31778 -2.71485,-8.14062 -1.65609,-6.64422 -1.62844,-14.19458 2.09375,-20.16602 2.365,-3.77917 6.53415,-6.67286 11.08203,-6.79297 5.44667,-0.51386 10.77949,1.41882 16.21875,1.10352 2.0465,-0.88675 2.15103,-3.76409 0.96094,-5.38867 -1.43519,-2.39696 -4.41717,-3.54427 -7.12305,-3.10938 -2.55182,0.007 -5.10011,-0.20131 -7.65234,-0.14648 z m -98.61783,-21.03711 c -11.58375,0.39872 -22.49127,6.3341 -30.21772,14.78113 -9.55268,10.11844 -15.30645,23.27777 -18.32647,36.74063 -4.13808,18.16066 -3.89796,36.9384 -3.23782,55.44569 0.2234,6.90969 0.32965,13.88012 1.86186,20.65399 2.04064,10.24297 5.51664,20.22843 10.61807,29.35773 9.15276,-8.24948 22.55249,-10.82412 34.33316,-7.73785 6.73667,1.58188 13.12075,5.68463 16.41033,11.89719 2.5452,4.57924 3.3661,10.0549 2.42838,15.19744 0.03,1.76477 1.92104,2.91178 3.5555,2.64364 5.14708,0.28361 10.26927,-2.16094 15.3728,-0.69783 2.87243,0.87581 5.91494,-1.1162 6.99184,-3.77004 2.00047,-3.69228 3.34843,-7.73576 5.58014,-11.28949 4.65521,-8.93378 8.26617,-18.79547 7.97628,-29.00608 -0.19108,-4.24591 -1.40423,-8.39886 -1.26483,-12.66827 -0.84781,-18.9544 -1.4516,-38.18347 2.40061,-56.86516 0.5653,-2.40726 1.3763,-4.92066 0.64247,-7.39055 -2.21064,-11.60621 -7.74608,-22.22505 -13.8694,-32.21144 -6.40807,-10.61985 -16.30381,-19.45063 -28.24492,-23.23796 -4.19551,-1.32615 -8.60895,-1.9686 -13.01028,-1.84277 z m 1.97396,37.14062 c 5.26297,-0.18754 10.63879,1.35446 14.73177,4.71094 7.0607,5.65386 10.99614,14.74522 11.25676,23.73072 0.12187,5.61042 -0.42433,11.24217 -1.46437,16.74314 -1.50947,7.54382 -4.48583,15.0964 -10.10927,20.5409 -1.98029,1.85744 -4.23174,3.56044 -6.78518,4.50045 -4.34407,0.1168 -8.97384,-1.05431 -13.06639,0.93233 -2.20365,1.33711 -2.4846,4.19815 -2.46949,6.53159 -0.0768,8.33556 5.8469,16.02118 13.53953,18.8711 5.71893,2.21774 12.38416,1.55032 17.66192,-1.52774 0.49125,-0.0948 2.04885,-1.3698 1.61877,-0.44488 -3.33648,8.22796 -11.97196,13.57591 -20.70421,13.90783 -7.05644,0.39728 -14.53297,-2.21761 -18.98621,-7.85159 -4.74656,-6.14928 -7.81946,-13.43892 -9.89847,-20.87996 -3.91896,-14.60572 -3.23979,-30.11931 -0.51257,-44.87135 1.23318,-6.31181 3.45688,-12.38646 5.93602,-18.31098 2.14935,-4.79739 4.86467,-9.553 8.95972,-12.93146 2.92644,-2.27241 6.57806,-3.60893 10.29167,-3.65104 z M 93.091147,224.125 c -15.409046,1.73155 -29.943545,11.66992 -36.289673,25.97464 -4.491165,10.26384 -3.574407,22.51087 1.471469,32.37443 5.752862,11.57451 15.75695,20.48681 26.679627,27.08876 15.52182,9.40348 33.40809,14.36485 51.3941,15.969 17.81008,1.72979 35.72865,0.67961 53.53875,-0.47975 2.07006,-0.0176 3.56909,1.9752 3.63917,3.9225 0.21001,2.57584 -0.0192,5.18584 0.47585,7.74201 0.70408,4.46468 0.4742,9.02077 0.1072,13.50708 -0.90097,9.35289 -3.54377,18.42707 -6.63894,27.26071 1.4e-4,1.01689 0.88882,1.76037 1.15866,2.71093 5.16447,10.4816 9.25834,21.85007 9.29223,33.66823 0.0471,7.66621 -2.44273,15.08057 -5.67064,21.94351 -3.61871,8.37885 -8.10229,16.63714 -9.35531,25.78165 -0.53573,4.66672 -0.26593,9.6266 2.04902,13.81495 2.3918,2.37613 6.05114,2.26321 9.16417,1.94794 5.59368,-0.46849 11.21801,-0.29384 16.81375,-0.7387 11.41861,-0.58718 22.88421,-0.9457 34.19656,-2.73007 1.42998,-1.92752 0.47718,-4.60996 -1.15892,-6.09408 -3.08219,-3.73956 -7.21819,-6.97603 -8.55807,-11.83423 -0.82239,-3.17801 0.14928,-6.75777 2.55153,-9.00874 1.02258,-1.76108 -0.0747,-3.8103 -0.84712,-5.4452 -1.331,-2.54531 -3.03158,-5.12814 -2.95122,-8.11698 -0.75924,-5.44541 -1.67127,-10.88492 -1.78888,-16.39445 -0.57248,-13.53565 1.69421,-27.45525 8.28653,-39.41361 0.81523,-1.4239 0.73516,-3.04743 0.35792,-4.60501 -1.25732,-5.89989 -5.90441,-10.2005 -8.20708,-15.63958 -1.47697,-3.18567 -2.13896,-6.6527 -3.0896,-10.01051 -2.24383,-9.23487 -2.46711,-18.78228 -3.09249,-28.22147 21.5339,-3.80156 43.30189,-6.18813 64.77605,-10.29688 4.51304,-8.06584 4.05188,-17.96925 8.98697,-25.85677 0.7588,-0.90244 1.78404,-2.24043 0.93238,-3.41209 -1.33174,-2.95763 -4.65482,-4.0554 -7.43934,-5.17358 -3.24965,-1.25146 -6.80477,-0.29706 -10.18298,-0.14572 -7.29078,0.69076 -14.58659,2.02856 -21.31266,5.02046 -5.39514,7.34109 -16.83676,9.29544 -24.28385,3.98437 -2.86761,-1.49816 -6.23499,-0.59604 -9.12448,0.35131 -5.48968,2.09058 -10.32577,5.62976 -15.80651,7.78701 -4.51308,1.91789 -9.44285,2.79331 -14.34608,2.58753 -6.36741,-0.0851 -12.72336,-0.75068 -19.09466,-0.51414 -13.7029,-0.30148 -27.3202,-2.5928 -40.53792,-6.1383 -12.32224,-3.37232 -24.30792,-8.00525 -35.62244,-13.94012 -4.612531,-3.05614 -7.153173,-9.3985 -5.027763,-14.66772 1.643813,-3.676 5.520843,-5.55569 9.100383,-6.86938 8.07818,-2.88519 16.88416,-2.20156 25.18762,-0.77396 1.97378,0.23042 3.95318,1.04776 5.93856,0.64873 1.17741,-0.73151 0.99514,-2.42452 0.19672,-3.36873 -1.81756,-3.44998 -4.8317,-5.98131 -7.46356,-8.7846 -10.0786,-9.48458 -23.6466,-15.38426 -37.542973,-15.49714 -0.287371,0.0285 -0.574742,0.0572 -0.862114,0.0857 z M 379.59897,202.79427 c -3.10935,0.52741 -5.50838,2.92024 -6.90193,5.63421 -2.20089,3.96914 -3.31318,8.77927 -6.96728,11.76408 -1.2595,1.17386 -2.34234,2.55611 -3.72908,3.62636 -5.93677,5.01223 -13.58317,7.83835 -18.7229,13.80466 -0.89543,1.3722 -1.32814,3.02422 -1.85638,4.57225 -2.21053,7.4896 -2.04348,16.03321 1.91583,22.92087 0.69404,1.27068 2.11273,1.907 3.26173,2.70622 5.93834,3.58132 13.41908,3.6792 19.89804,1.60211 6.54282,-2.05124 12.38538,-6.09812 16.7539,-11.36725 2.8356,-3.13975 5.86407,-6.71667 6.07259,-11.14976 -0.0191,-0.61992 -0.0659,-1.2231 0.53878,-1.59543 4.56407,-4.9288 10.20066,-9.19515 12.95374,-15.50353 0.69958,-1.69839 1.1711,-3.47222 1.79077,-5.19968 2.03621,-7.21596 -1.46187,-15.3677 -7.79496,-19.2431 -2.92155,-1.86229 -6.45116,-2.62058 -9.88799,-2.36508 -2.43834,-0.15474 -4.88329,-0.16193 -7.32486,-0.20693 z m 3.60677,12.40885 c 2.51079,-0.0544 5.03476,1.44644 5.8988,3.81438 1.53156,3.99293 0.13227,8.9926 -3.22432,11.68042 -0.81927,0.54188 -1.71749,1.1734 -2.69984,1.27112 -1.27572,-0.46901 -1.62028,-2.02849 -2.31349,-3.06493 -0.86804,-1.68983 -2.26452,-3.68323 -4.41388,-3.52669 -1.00082,0.14588 -1.9763,0.38278 -2.98754,0.48637 -4.33388,0.70799 -7.74527,4.33509 -8.85088,8.48972 -1.56421,5.2164 -0.20752,11.57041 4.26627,14.95204 0.9785,0.74589 2.08048,1.32524 3.24414,1.72049 -2.99261,2.7428 -7.11441,4.28814 -11.18489,4.54167 -2.63381,0.14976 -5.80076,-0.63479 -6.98667,-3.25011 -1.04892,-2.10744 -0.37832,-4.46476 -0.38616,-6.69305 0.66008,-10.34931 7.01708,-19.8586 15.63848,-25.41363 4.2008,-2.71316 9.01085,-4.51828 13.99998,-5.0078 z m 178.39427,-62.26978 c 3.46666,1.2 6.4,2.53333 6.4,3.06666 0,0.4 -2.4,2.13334 -5.33334,4 -5.06666,3.2 -5.33333,3.6 -5.33333,10.26667 0,3.86667 -0.4,7.06667 -1.06667,7.06667 -0.53333,0 -3.2,-1.86667 -6,-4.13334 l -5.06666,-4.13333 -6.53334,2.13333 c -3.6,1.2 -6.8,2.13334 -7.2,2.13334 -0.4,0 0.4,-3.06667 1.86667,-6.8 l 2.66667,-6.8 -4,-5.46667 -4.13334,-5.6 7.33334,-0.4 c 7.06666,-0.4 7.6,-0.66667 11.73333,-6.4 l 4.4,-6.13333 1.86667,7.46666 c 1.86666,7.06667 2.26666,7.46667 8.4,9.73334 z m 68.12396,-38.93855 c -2.50852,0.62638 -3.47727,4.42635 -1.44271,6.08854 1.5246,0.52737 2.74435,-1.11005 2.87504,-2.47015 0.54267,-1.14691 0.69112,-3.13189 -0.78453,-3.63102 -0.21215,-0.0524 -0.43737,-0.0421 -0.6478,0.0127 z m -6.94271,-4.40885 c -3.40705,0.76775 -6.08492,4.27255 -5.80155,7.76943 0.57234,1.34448 2.75856,1.29106 3.29728,-0.0633 1.82772,-2.09116 2.89519,-4.90352 2.75947,-7.64886 -0.0715,-0.0553 -0.16717,-0.0751 -0.2552,-0.0573 z m -16.05469,-5.35938 c -3.10087,1.5813 -4.23196,5.41035 -3.74102,8.65911 0.19399,1.22232 1.1302,2.32413 2.33216,2.656 1.7539,-2.93564 3.53903,-6.38053 2.58074,-9.89584 -0.20242,-0.54094 -0.38399,-1.55364 -1.17188,-1.41927 z m -23.67187,0.26303 c -1.81648,1.01762 -1.90321,3.45286 -1.40717,5.21111 0.0484,1.36903 2.13272,2.51582 2.99361,1.15349 0.84276,-1.60738 0.61637,-3.61364 -0.005,-5.25777 -0.2473,-0.56072 -0.86872,-1.51435 -1.58158,-1.10683 z M 424.19531,96.289064 c -6.58984,4.571576 -10.08456,12.997846 -13.76301,20.039066 -6.26011,15.07882 -7.17449,32.24514 -4.41667,48.1927 2.83256,8.71868 10.59676,19.64703 20.9375,17.70573 6.8983,-4.8755 8.03393,-14.97014 13.98698,-20.53385 6.79511,-7.89045 15.36716,-15.645 15.5054,-26.95065 2.05344,-3.24478 0.54054,-10.33235 -4.17988,-7.06758 -4.23152,4.14367 -12.41062,4.99638 -12.63021,12.32031 -1.74156,7.44196 -3.12507,16.80651 -9.40624,21.75521 -7.91197,1.06355 -8.85191,-9.75881 -8.59636,-15.40885 0.97408,-15.44457 -2.0284,-32.02811 5.61979,-46.1875 0.70445,-1.987571 -0.8482,-4.429295 -3.0573,-3.864586 z m 22.40886,-4.466145 c -3.00354,0.963736 -4.42623,4.267408 -4.62762,7.195424 -0.17073,2.028407 -0.0703,4.175297 0.71616,6.054577 2.22687,1.46149 5.26691,0.39206 6.7727,-1.61377 2.14325,-2.44034 3.24529,-6.233909 1.62418,-9.229327 -0.90853,-1.518646 -2.67234,-2.64174 -4.48542,-2.406904 z M 602.01563,64.544272 c -3.39552,0.707224 -5.44678,3.833949 -6.77598,6.792562 -2.70351,6.479287 -3.69543,13.482335 -5.92366,20.120483 -0.21657,0.690719 -0.30358,1.555475 -0.7691,2.081747 -9.22286,0.902873 -18.72916,1.993268 -27.0137,6.439957 -2.50066,1.216369 -4.49025,4.035479 -3.75325,6.896209 0.58935,3.97591 3.33216,7.49002 6.82709,9.37619 0.92472,0.49926 2.43756,0.14696 2.44924,-1.08968 0.12547,-2.09468 -1.85642,-3.41234 -2.89696,-4.99849 -0.30374,-0.43645 -0.67436,-1.02661 -0.15309,-1.45733 1.34828,-1.81396 3.41653,-2.92302 5.36879,-3.97154 5.60953,-2.64838 11.98589,-2.73884 18.05666,-2.28389 1.25708,0.006 2.70691,0.0588 3.72979,-0.75257 0.68557,-1.06224 -0.40096,-2.484973 -1.60431,-2.33782 -0.77573,-0.08219 -1.57692,-0.238156 -2.18474,-0.763744 1.61333,-0.725459 3.36196,0.03552 5.0277,0.09287 8.10551,1.202548 16.025,3.404464 23.93562,5.482974 7.51609,2.09816 15.14539,5.00015 20.79265,10.58641 1.25624,1.1147 2.4264,2.5147 3.92892,3.23357 0.79711,-0.48008 10e-4,-1.37201 -0.23076,-1.95416 -1.68798,-4.00693 -4.27298,-7.84745 -8.13784,-10.02394 -5.12672,-3.51977 -11.21461,-5.29518 -17.11317,-7.042728 -0.56468,-0.768908 0.13472,-1.66757 0.0657,-2.505537 1.02051,-7.656421 2.50783,-15.348244 2.01077,-23.104054 -0.63154,-3.125452 -2.64389,-6.13821 -5.61229,-7.486029 -1.12577,-0.08391 -1.67305,1.1687 -1.63736,2.127029 -0.77119,4.759863 -1.40819,9.579875 -1.55597,14.390466 0.51114,0.794926 1.69,-0.03955 1.63116,-0.822728 0.80182,-3.31859 1.3565,-6.773496 3.08237,-9.771023 0.52031,5.665265 -1.28019,11.159025 -2.38211,16.645074 -0.63834,2.775716 -1.46454,5.513977 -2.55538,8.149197 -4.30775,-0.274733 -8.85206,-0.494939 -12.6771,-2.708333 -0.99029,-1.116784 -0.0345,-2.594734 0.007,-3.862199 1.07767,-6.668314 2.21773,-13.36694 4.38708,-19.78103 0.62365,-0.252205 0.39923,0.747119 0.36801,1.079632 -0.34782,3.662816 -1.58749,7.26595 -1.11801,10.980263 0.53311,0.905271 2.08801,0.211224 1.97656,-0.765624 1.51607,-4.957296 2.65944,-10.074063 3.09153,-15.233233 -0.29296,-1.12425 -1.51658,-1.841574 -2.64101,-1.758955 z M 484.11198,84.494793 c -6.13085,1.901797 -4.55367,-6.478013 -4.41405,-9.984376 -0.0175,-1.913631 -2.11372,-5.142135 -3.53907,-1.656249 -11.46391,13.364004 -18.23055,30.586202 -32.21615,41.791662 -8.37601,0.49363 -7.95317,-9.13827 -7.90364,-14.55989 -5.72096,2.85342 -7.65988,10.57048 -9.39062,16.23698 -0.9671,10.56995 12.179,16.12528 19.96874,9.68489 7.78162,-5.16014 12.78435,-13.35674 18.92708,-20.18489 0.36175,11.7232 -3.90584,23.65755 -3.09896,35.02864 6.08775,0.64558 11.1418,-4.37582 10.77606,-10.45833 5.28625,-24.14926 17.68526,-46.67305 36.03124,-63.364584 -2.95583,19.51636 -13.35336,37.633884 -14.19531,57.294274 0.60349,10.60434 12.15131,19.22432 22.08073,14.11198 15.54152,-4.76568 28.8168,-14.74807 39.27448,-26.91354 -2.29597,-4.6659 -1.9399,-10.87856 3.37239,-13.343755 7.39907,-4.723818 18.55969,-4.561261 21.73177,-14.3125 5.58823,-9.553257 8.37423,-24.453983 -0.63021,-32.596355 -9.12675,-3.600448 -20.40257,2.647019 -24.98176,10.588543 0.69769,2.629871 5.76556,0.337757 7.84375,2.440104 7.0714,3.260419 3.79725,12.047565 0.57106,16.927288 -9.53704,18.69615 -24.91469,36.821935 -46.0669,41.366465 -5.97392,0.99414 -11.27563,-4.88468 -8.96875,-10.71094 2.21037,-25.255772 24.11832,-62.323911 22.47136,-71.132813 -10.63364,-5.700995 -42.98653,37.0874 -47.64324,43.747396 z m 48.30013,-62.89909 c -17.4868,1.369295 -32.5226,13.080481 -42.82226,26.60547 -1.07412,1.345785 -3.38338,-1.788511 -5.2793,-1.550782 -9.44978,-2.165358 -18.81422,3.859862 -22.90234,12.251952 -3.44239,4.593585 -4.6419,11.681509 -9.84571,14.457033 -14.68793,-5.902642 -30.61593,2.87604 -40.54135,13.587197 -4.52654,3.955814 -7.02938,10.565043 -11.37249,13.896927 -11.39329,0.53992 -24.5734,-1.460239 -33.83422,6.88111 -6.52484,5.18345 -11.10729,12.26779 -15.99608,18.89648 -10.1662,-1.01471 -21.11052,-0.90341 -29.8418,5.16797 -11.67492,6.26048 -21.21465,17.73953 -34.86718,19.5293 -11.01628,-0.50954 -17.31086,-11.48129 -26.23634,-16.39453 -7.5224,-10.77354 -15.00973,-22.10498 -26.34925,-29.31093 C 208.13338,89.175312 176.08743,88.417145 148.5879,96.498047 125.91165,103.18806 106.48467,120.39504 98.423828,142.79492 90.3269,161.86426 92.314675,183.09066 92,203.26954 c -21.763406,0.57396 -43.036253,13.15005 -52.523438,32.99413 -9.985342,20.86612 -6.17011,46.61137 5.554688,65.96289 17.77933,26.51523 49.914494,38.6946 80.36884,43.03218 15.4223,2.4073 31.06118,1.98794 46.61163,2.25493 -2.46922,8.58369 -7.1774,17.02391 -7.1875,26.08789 3.77048,12.76149 12.86488,23.99247 12.8457,37.71289 1.30012,17.35854 -9.07104,32.64578 -14.90625,48.51758 -3.49773,11.88611 -2.62832,26.50678 5.95508,36.07031 6.31671,4.67331 15.11256,2.51639 22.40625,3.77539 21.50014,0.98598 43.15874,-1.09471 63.9043,-6.90428 10.69604,-1.28886 22.35294,2.43908 32.39258,-3.18556 6.99692,-3.4365 15.56371,-1.22242 22.1621,-5.36914 2.67384,-1.80697 4.2329,-5.5127 6.98633,-6.77538 11.71527,8.14144 26.80609,4.14776 39.94808,3.3876 32.81404,-3.37728 65.33656,-9.37479 98.20036,-12.16495 9.73082,0.31876 18.98571,-3.40441 28.35156,-4.91211 9.52307,4.6922 17.9496,11.71708 28.20703,15.09179 36.93803,13.77412 78.65973,13.23379 115.9407,1.00945 39.33952,-12.71648 74.44798,-41.71254 89.16118,-81.00502 10.53472,-27.19809 12.75759,-58.09435 2.87263,-85.82737 -6.56105,-19.4882 -17.07113,-38.79644 -34.37489,-50.64385 -2.07935,-7.78021 1.55408,-16.02336 2.36238,-23.83331 4.9999,-27.26205 11.32034,-54.37502 14.74114,-81.87762 -0.0169,-7.78268 -8.80471,-15.11623 -16.19728,-10.60743 -10.37143,3.53687 -20.22248,10.00575 -30.4746,12.82423 -1.245,-6.4124 -8.52751,-10.57592 -14.56055,-7.60744 -3.99639,1.31868 -7.77669,3.19304 -11.57227,4.99024 8.87094,-12.08908 21.53098,-22.54806 25.73634,-37.46094 1.88025,-11.38755 -6.20571,-22.075707 -15.84218,-27.257233 -2.37784,-1.911675 -7.2621,-2.834223 -5.39025,-6.899017 3.09776,-11.317286 -0.54105,-25.254203 -11.72462,-30.654296 -6.13734,-3.817213 -14.94238,-2.322411 -21.44413,-4.483985 -3.86229,-6.30038 -7.46808,-14.048446 -15.62813,-14.615625 -8.21724,-1.645157 -16.53379,0.119507 -24.46094,2.201172 -5.16105,-8.335944 -13.78616,-15.304985 -24.01562,-15.404297 -1.3285,-0.10772 -2.66182,-0.154237 -3.99414,-0.09767 z m 1.37695,11.414063 c 7.53645,-0.600866 15.78479,3.326721 17.15429,11.373047 0.6383,3.118328 1.99974,11.23541 6.84767,7.880858 7.59871,-6.480508 18.24321,-9.19063 27.59492,-4.983982 4.33693,3.101816 5.97269,8.303605 6.67383,13.230466 3.87198,3.851193 11.40965,-0.66544 16.15702,0.673439 6.35943,0.58056 15.72432,3.491395 14.7168,11.548828 0.71811,7.134266 -1.12678,13.983823 -1.63868,20.78125 2.88232,5.261497 10.55741,4.62426 14.59962,8.593748 6.16893,3.61703 11.3816,11.34327 6.98828,18.33594 -9.49091,17.70056 -26.8981,30.64347 -33.48828,50.00586 -3.87338,8.63273 -0.18711,8.00916 6.37862,3.86582 9.43538,-4.16848 19.67073,-10.10353 28.90849,-12.83262 0.2091,4.62785 -2.34003,10.08328 0.29492,14.38281 15.354,-6.37301 30.2199,-14.86245 45.89453,-19.81053 1.00285,7.33721 -2.34625,14.84248 -3.00901,22.19644 -4.99964,28.1292 -10.81852,56.19756 -15.9148,84.25472 2.51525,7.2635 10.87929,10.21776 15.42186,16.06054 19.64779,21.45956 29.31364,51.09799 27.21875,79.81836 -1.93135,28.80225 -13.55496,57.21861 -34.58221,77.30661 -24.45804,23.7788 -57.63719,39.00746 -91.49787,41.37308 -27.35326,2.53356 -55.76694,0.70948 -80.8711,-11.70116 -10.25122,-4.48054 -20.14621,-15.02815 -32.31444,-11.70312 -14.21717,5.63921 -30.04265,4.02092 -44.92798,6.63472 -31.47067,3.56637 -62.83703,9.86604 -94.37281,11.63284 -6.74042,0.23104 -13.10108,-2.62515 -17.76953,-7.33788 -5.25707,-3.73908 -12.451,2.57056 -12.50195,8.18164 -4.1526,5.18632 -12.03865,2.33692 -17.68945,4.59374 -7.01384,2.26834 -13.57715,7.21472 -21.40879,5.18847 -13.36593,-2.99793 -25.92518,4.59943 -39.19552,4.96093 -16.6309,1.18867 -33.47561,2.03468 -50.11054,0.16896 -6.57508,-1.25653 -5.25902,-9.81101 -5.99023,-14.62694 0.55279,-16.79847 13.12903,-30.07052 15.875,-46.47852 3.35689,-16.8549 -0.46641,-34.89895 -10.10156,-49.10156 -4.52069,-10.77349 4.51935,-20.53278 5.99609,-31.00587 0.73971,-3.30863 0.6834,-6.72558 1.04102,-10.08398 -36.09672,0.63027 -74.89047,1.54072 -106.666226,-18.20361 -18.202759,-10.25167 -31.831311,-29.23905 -32.534835,-50.50487 -1.324,-14.74006 2.680426,-30.85202 14.53504,-40.7505 11.951583,-11.82426 29.557108,-12.81546 45.305311,-13.47858 -0.32728,-3.54334 -2.30726,-9.13044 -1.87367,-13.74213 -0.45974,-19.85627 -1.70465,-40.93851 8.16155,-59.03039 9.53285,-20.89636 30.98389,-34.06512 53.30628,-36.94646 25.97199,-4.401633 56.42893,0.24177 74.48531,21.46904 6.23984,6.12612 7.97296,16.40684 16.47069,20.16406 8.71205,7.2367 17.58791,17.15968 30.00195,16.63672 15.83045,-0.30506 26.92174,-13.70042 39.81054,-20.92578 8.49271,-6.22366 19.31756,-3.71147 28.95508,-2.99024 8.22728,-9.05521 13.74792,-22.74315 26.66017,-26.05468 8.00853,-1.83591 16.5301,1.28552 24.36132,-0.81836 8.03906,-8.36486 13.29982,-19.643161 23.95117,-25.353518 6.92421,-5.685228 15.76575,-2.884852 23.57619,-1.677734 9.80713,-1.580962 12.96321,-12.82803 17.90233,-19.939454 2.39224,-2.881675 6.26655,-9.339601 10.60547,-6.996093 1.96853,2.776877 1.68805,10.121592 6.77148,8.345703 11.33013,-9.856418 18.57302,-25.12721 33.43164,-30.603516 3.87164,-1.724312 8.23704,-1.894512 12.40625,-1.976562 z"
         inkscape:connector-curvature="0" />
    </g>
  </g>
</svg>
