<?xml version="1.0" encoding="UTF-8" standalone="no"?><!-- Generator: Gravit.io --><svg xmlns="http://www.w3.org/2000/svg" xmlns:xlink="http://www.w3.org/1999/xlink" style="isolation:isolate" viewBox="0 0 520 360" width="520pt" height="360pt"><g style="isolation:isolate"><path d=" M 416.469 90.327 C 414.045 90.984 412.712 93.392 411.963 95.609 C 410.369 100.46 410.017 105.623 408.562 110.502 C 406.248 120.891 405.219 131.672 401.041 141.551 C 399.065 146.073 396.684 150.678 392.627 153.683 C 389.035 156.087 383.907 156.54 380.295 153.955 C 377.92 152.172 377.189 149.019 377.409 146.189 C 377.515 138.78 380.27 131.807 382.631 124.884 C 383.051 123.616 383.46 122.334 383.733 121.031 C 383.542 119.896 382.099 119.772 381.214 120.106 C 377.887 120.693 375.417 123.301 373.525 125.924 C 368.302 132.859 363.967 140.626 357.258 146.303 C 351.492 151.278 344.222 154.952 336.499 155.061 C 330.253 155.247 323.741 153.41 319.079 149.106 C 315.312 145.559 313.557 140.292 313.697 135.198 C 313.818 128.048 316.514 121.005 320.942 115.406 C 326.522 108.315 335.172 103.399 344.289 103.422 C 346.771 103.482 349.314 103.891 351.468 105.182 C 355.138 107.776 356.359 112.837 355.249 117.054 C 354.737 119.135 353.761 121.104 352.389 122.752 C 352.995 119.556 351.916 115.961 349.328 113.896 C 346.989 112.12 343.813 111.794 340.993 112.33 C 336.439 113.203 332.404 116.588 331.025 121.058 C 329.297 126.139 331.362 132.225 335.832 135.195 C 338.477 136.997 341.859 137.319 344.967 136.935 C 349.604 136.308 353.779 133.736 356.955 130.376 C 362.555 124.576 365.747 116.448 365.369 108.374 C 365.119 104.69 363.6 100.934 360.594 98.656 C 356.493 95.256 351.203 93.65 345.985 93.04 C 338.934 92.302 331.745 93.47 325.143 95.978 C 317.099 99.199 310.349 105.319 306.08 112.83 C 300.602 122.098 298.493 133.541 301.233 144.041 C 302.808 149.995 306.095 155.761 311.359 159.161 C 314.809 161.422 318.748 162.746 322.436 164.549 C 323.412 165.651 322.195 167.588 320.79 167.325 C 305.735 169.518 290.532 170.836 275.648 174.082 C 272.071 175.466 269.864 178.78 267.51 181.614 C 263.154 187.177 256.817 191.025 250.026 192.807 C 243.941 194.357 237.158 193.821 231.803 190.371 C 230.077 189.344 228.738 187.792 227.044 186.731 C 225.674 185.915 223.987 185.706 222.459 186.171 C 219.903 186.691 217.458 187.674 215.088 188.731 C 213.871 189.5 213.272 191.318 214.249 192.511 C 215.231 194.182 216.377 195.782 216.97 197.648 C 218.399 201.091 219.492 204.744 221.667 207.82 C 231.282 206.7 240.555 203.597 250.19 202.641 C 250.605 215.63 252.128 228.709 250.257 241.654 C 249.815 245.189 247.83 248.347 247.274 251.862 C 247.141 254.311 248.526 256.452 249.676 258.492 C 253.163 266.198 255.447 274.465 256.202 282.889 C 256.634 288.729 256.296 294.737 254.273 300.273 C 252.413 304.484 249.301 308.26 248.762 312.962 C 248.412 315.5 248.912 318.495 251.088 320.106 C 253.287 321.446 255.966 320.795 258.329 320.361 C 263.637 319.278 269.1 319.212 274.457 318.407 C 278.354 317.929 282.251 317.452 286.148 316.973 C 285.846 310.795 282.919 305.107 279.409 300.148 C 277.102 296.421 276.933 291.931 276.497 287.695 C 275.882 277.53 278.267 267.549 280.158 257.638 C 280.814 254.161 281.636 250.531 280.682 247.025 C 279.403 241.719 277.085 236.71 276.003 231.355 C 275.42 228.573 275.067 225.754 274.568 222.957 C 273.452 215.745 272.875 208.348 273.951 201.101 C 274.743 199.114 276.984 198.429 278.841 197.829 C 283.961 196.26 289.474 196.152 294.412 193.963 C 296.577 193.408 298.866 195.455 298.628 197.662 C 298.828 200.855 298.947 204.055 299.229 207.243 C 300.009 219.825 299.076 232.629 295.306 244.698 C 294.811 246.363 295.186 248.119 295.851 249.678 C 297.539 254.378 300.251 258.901 300.301 264.032 C 300.255 266.295 299.969 268.549 300.065 270.816 C 300.107 278.009 300.899 285.388 298.84 292.39 C 297.546 296.689 294.795 300.348 293.073 304.468 C 291.627 308.11 291.208 312.354 292.792 316.021 C 293.269 316.705 294.2 316.291 294.882 316.453 C 302.876 316.751 310.771 315.054 318.753 314.99 C 321.809 314.871 325.032 314.866 327.819 313.456 C 328.984 312.595 328.728 310.963 328.774 309.699 C 328.746 306.761 328.731 303.776 327.874 300.94 C 327.091 298.006 325.589 295.306 323.683 292.956 C 320.063 287.64 318.832 281.058 319.117 274.718 C 319.361 265.273 321.926 256.086 325.123 247.252 C 325.909 244.867 326.76 242.464 327.042 239.958 C 327.221 236.797 325.942 233.826 324.737 230.981 C 321.66 222.455 321.741 213.253 321.447 204.297 C 321.345 199.945 321.048 195.595 320.649 191.263 C 320.819 188.95 323.161 187.299 325.388 187.409 C 328.926 187.14 332.528 187.449 336.014 186.705 C 340.304 185.968 344.564 184.081 347.363 180.648 C 349.697 178.066 352.121 175.443 355.246 173.804 C 365.945 167.109 380.388 166.704 391.257 173.215 C 397.368 176.671 403.579 180.264 408.446 185.301 C 412.492 189.489 416.33 199.642 417.998 199.926 C 419.666 200.211 424.981 193.398 429.084 191.027 C 434.385 187.965 440.169 185.412 446.201 184.365 C 449.842 183.733 457.243 186.893 457.284 184.67 C 457.324 182.447 432.338 174.269 421.569 170.344 C 420.815 170.028 420.062 169.712 419.308 169.396 C 431.436 164.22 428.212 162.59 433.259 159.962 C 433.447 159.895 433.648 159.872 433.846 159.901 C 434.986 160.119 435.496 161.378 435.415 162.431 C 435.465 165.725 436.143 168.692 438.465 170.256 C 443.684 173.771 452.384 172.738 457.341 169.998 C 459.664 168.692 461.789 167.061 464.006 165.582 C 461.662 176.854 462.328 192.398 457.912 201.998 C 456.791 203.019 454.764 202.299 454.411 200.859 C 452.17 197.697 447.481 196.304 444.024 198.264 C 440.378 200.921 438.87 205.749 439.358 210.117 C 439.887 215.55 443.336 220.844 448.537 222.812 C 452.802 224.242 457.725 222.259 460.247 218.643 C 463.874 214.349 465.261 208.757 466.546 203.416 C 470.176 187.896 473.247 172.254 476.664 156.687 C 479.604 143.081 482.809 129.526 486.425 116.089 C 486.948 113.659 487.292 111.191 487.414 108.708 C 478.986 109.921 471.897 117.146 470.709 125.555 C 468.438 134.118 467.135 142.972 464.047 151.286 C 462.728 154.601 461.023 157.942 458.211 160.235 C 455.125 162.496 450.725 163.187 447.315 161.279 C 445.02 159.787 444.43 156.54 445.383 154.125 C 447.901 140.809 451.325 127.628 452.551 114.1 C 448.19 113.953 444.263 117.115 442.624 121.018 C 440.507 125.826 440.044 131.14 438.324 136.074 C 436.264 143.339 433.952 150.799 429.16 156.782 C 426.488 160.111 422.958 163.042 418.675 163.884 C 416.725 164.106 414.444 162.707 414.563 160.581 C 414.571 158.332 415.467 156.204 415.597 153.968 C 418.84 134.154 424.229 114.728 426.756 94.793 C 426.422 92.438 424.047 90.976 421.851 90.725 C 420.079 90.392 418.269 90.299 416.469 90.327 L 416.469 90.327 Z  M 416.568 92.383 C 416.745 92.389 416.933 92.501 417.121 92.726 C 417.721 93.226 416.821 99.926 415.121 108.626 C 413.521 116.826 410.422 133.526 408.222 145.626 C 404.422 166.126 402.421 174.226 402.321 169.926 C 402.221 169.026 403.822 160.025 405.622 149.925 C 407.522 139.925 410.521 123.326 412.221 113.126 C 413.921 102.926 415.521 94.026 415.821 93.226 C 416.009 92.663 416.274 92.374 416.568 92.383 L 416.568 92.383 Z  M 423.421 95.126 C 424.121 95.126 424.221 96.526 423.921 98.826 C 422.421 108.626 409.721 172.226 409.521 171.426 C 409.321 170.926 411.622 156.826 414.622 140.026 C 417.622 123.326 420.521 106.325 421.221 102.325 C 421.821 98.425 422.821 95.126 423.421 95.126 Z  M 368.421 143.477 C 369.122 148.187 370.39 154.486 373.4 158.883 C 378.695 165.06 386.422 164.495 395.421 157.276 L 399.421 154.077 C 399.749 158.028 399.591 167.596 395 167.244 C 388.518 166.343 383.179 166.094 377.264 165.571 C 366.755 164.644 347.706 166.414 345.721 162.977 C 346.283 162.004 349.224 161.063 350.82 159.876 C 354.742 156.961 358.522 153.676 361.722 150.076 C 364.922 146.476 368.021 143.477 368.421 143.477 L 368.421 143.477 Z " fill-rule="evenodd" fill="rgb(0,0,0)" fill-opacity="0.97272728"/><path d=" M 209.768 196.156 C 205.035 197.022 201.403 201.342 200.661 206.018 C 197.622 219.14 194.497 232.242 191.495 245.372 C 188.546 258.057 185.605 270.751 182.241 283.332 C 181.855 284.521 180.683 285.794 179.319 285.413 C 177.535 284.773 176.03 283.565 174.54 282.428 C 171.394 279.748 169.137 275.881 168.864 271.711 C 168.152 270.762 166.669 271.187 166.066 272.043 C 164.026 273.971 162.06 275.982 160.275 278.146 C 157.092 282.271 155.007 287.531 155.773 292.793 C 156.408 296.366 158.359 299.73 161.204 301.977 C 163.736 303.815 167.04 304.42 170.091 303.832 C 171.411 303.699 173.157 303.817 173.807 305.178 C 174.332 306.644 173.122 307.925 172.418 309.083 C 170.602 312.361 168.806 315.738 166.063 318.346 C 163.909 320.483 161.221 322.084 158.289 322.88 C 156.934 323.396 155.408 324.627 155.634 326.25 C 156.097 327.655 157.275 328.653 158.131 329.815 C 164.651 337.156 176.318 339.148 184.899 334.434 C 188.53 332.446 192.059 329.966 196.239 329.327 C 197.398 329.143 198.582 329.104 199.749 329.24 C 200.419 325.342 200.626 321.345 200.993 317.396 C 201.466 311.803 202.048 306.163 203.712 300.785 C 207.076 296.562 212.094 294.27 216.743 291.777 C 217.194 291.228 218.333 291.333 218.345 292.165 C 221.213 302.5 222.404 313.399 221.101 324.076 C 220.641 325.214 220.382 326.746 221.308 327.714 C 221.98 328.527 223.091 328.419 224.012 328.251 C 231.864 327.369 239.368 324.74 246.993 322.779 C 247.05 322.083 246.567 321.444 246.482 320.747 C 235.682 284.475 228.427 247.213 216.374 211.304 C 214.688 206.341 212.955 201.391 211.005 196.525 C 210.699 196.183 210.202 196.11 209.768 196.156 L 209.768 196.156 Z  M 207.21 236.734 C 208.059 237.575 207.917 238.909 208.286 239.973 C 210.575 250.189 213.434 260.266 215.768 270.471 C 213.805 274.001 210.126 275.975 206.809 278.018 C 206.028 278.494 205.258 278.999 204.489 279.5 C 204.065 265.3 204.799 251.053 206.688 236.981 C 206.8 236.826 207.018 236.623 207.21 236.734 L 207.21 236.734 Z " fill-rule="evenodd" fill="rgb(0,0,0)" fill-opacity="0.97272728"/><path d=" M 230.346 93.561 C 219.284 95.277 212.346 105.972 208.889 115.784 C 204.757 126.983 204.826 139.61 209.337 150.633 C 211.416 155.084 210.516 160.072 207.606 163.918 C 206.646 166.496 202.975 168.591 201.742 164.969 C 196.045 151.142 200.297 135.895 203.588 121.989 C 204.314 117.291 206.866 112.818 207.269 108.17 C 205.341 105.086 200.862 107.953 198.091 107.905 C 189.847 109.827 180.681 111.101 173.281 105.952 C 169.761 104.662 168.866 100.172 165.431 99.037 C 161.666 99.387 162.779 104.482 163.184 107.051 C 164.445 113.066 167.285 118.871 172.017 122.917 C 171.121 141.265 169.424 159.942 163.493 177.382 C 162.904 180.475 159.034 179.997 158.126 182.937 C 156.989 185.959 152.214 189.319 155.363 192.675 C 157.205 195.671 160.797 198.015 164.258 196.083 C 171.201 192.873 172.344 184.148 174.708 177.722 C 179.612 162.574 180.26 146.582 182.774 130.986 C 183.237 127.717 185.754 125.213 188.599 123.798 C 186.87 141.725 184.512 160.746 191.016 178.102 C 193.444 183.419 197.813 189.44 204.097 189.926 C 212.254 188.49 215.998 179.467 217.482 172.245 C 218.594 168.389 219.092 163.88 219.926 160.28 C 229.476 161.835 238.722 156.498 245.975 150.819 C 250.495 146.922 254.041 140.748 253.304 134.673 C 251.011 131.224 246.392 130.001 242.678 128.624 C 238.806 127.71 238.922 132.526 240.443 134.729 C 240.117 140.258 235.141 144.295 231.05 147.483 C 227.593 150.415 219.253 149.481 220.079 143.811 C 222.352 138.991 228.698 138.271 231.663 133.859 C 237.635 127.551 239.041 118.701 238.977 110.35 C 239.101 105.186 240.355 98.503 235.153 95.234 C 233.798 94.15 232.095 93.487 230.346 93.561 L 230.346 93.561 Z  M 228.841 106.047 C 231.635 107.939 230.148 112.386 229.681 115.198 C 228.006 120.773 225.53 127.594 219.674 129.74 C 217.58 129.383 219.507 125.983 219.045 124.781 C 219.734 117.941 221.525 108.715 228.841 106.047 L 228.841 106.047 Z " fill-rule="evenodd" fill="rgb(0,0,0)" fill-opacity="0.97272728"/><path d=" M 264.982 73.115 C 256.589 74.181 250.924 81.791 246.79 88.523 C 241.3 98.758 237.786 111.622 242.428 122.81 C 246.153 131.094 258.382 132.178 264.751 126.46 C 264.874 129.836 263.712 135.425 268.215 136.488 C 270.381 137.166 275.079 139.443 275.428 135.618 C 277.352 118.102 279.327 100.509 279.654 82.887 C 279.05 77.756 273.207 75.434 269.044 73.674 C 267.732 73.273 266.356 73.055 264.982 73.115 Z  M 263.696 86.114 C 268.102 85.384 266.083 91.108 266.584 94 C 265.991 102.333 264.642 111.777 258.481 117.901 C 253.371 119.995 250.182 112.935 251.174 108.76 C 252.191 100.695 254.4 91.439 261.355 86.446 C 262.083 86.105 262.907 86.082 263.696 86.114 L 263.696 86.114 Z " fill-rule="evenodd" fill="rgb(0,0,0)" fill-opacity="0.97272728"/><path d=" M 410.551 70.166 C 406.947 70.327 403.036 70.174 399.936 72.323 C 399.017 72.897 398.137 74.054 398.661 75.172 C 399.592 78.288 401.149 81.157 402.524 84.097 C 404.311 87.674 406.208 91.222 408.573 94.451 C 409.121 94.992 410.058 94.757 410.348 94.068 C 411.095 92.916 411.379 91.375 412.666 90.652 C 416.852 87.236 423.645 87.498 427.441 91.386 C 428.59 92.652 429.012 94.396 428.967 96.07 C 429.013 96.855 429.59 98.023 430.551 97.65 C 431.733 97.151 432.562 96.11 433.618 95.411 C 438.228 91.691 442.834 87.871 446.504 83.195 C 448.526 80.387 450.164 77.209 450.733 73.779 C 450.718 73.171 450.004 72.888 449.581 73.309 C 448.38 74.159 448.067 75.726 447.526 77.01 C 447.285 77.675 447.015 78.333 446.645 78.938 C 443.119 77.297 439.702 75.402 436.011 74.141 C 427.881 71.183 419.188 70.024 410.551 70.166 L 410.551 70.166 Z  M 410.844 73.055 C 420.628 73.208 430.632 74.624 439.44 79.092 C 440.831 79.9 442.446 80.576 443.404 81.914 C 443.757 83 442.776 83.975 441.944 84.512 C 441.176 84.854 440.509 84.204 440.047 83.673 C 436.53 80.401 432.03 78.151 427.315 77.195 C 426.72 77.131 425.897 77.127 425.53 77.641 C 425.52 78.515 426.613 78.646 427.221 78.948 C 431.248 80.647 435.505 82.396 438.418 85.793 C 438.698 86.042 438.846 86.768 438.278 86.705 C 436.142 86.352 434.293 85.121 432.374 84.19 C 429.205 82.479 425.853 80.843 422.177 80.744 C 419.715 80.532 417.207 80.459 414.758 80.662 C 414.39 81.053 414.964 81.599 415.395 81.414 C 416.385 81.565 417.391 81.604 418.368 81.836 C 414.965 82.85 411.556 84.062 407.982 84.251 C 407.182 84.364 406.303 83.933 406.155 83.086 C 405.921 82.031 406.922 81.342 407.64 80.77 C 409.903 79.318 412.621 78.878 415.25 78.604 C 416.451 78.412 417.739 78.321 418.825 77.76 C 419.296 77.334 419.022 76.598 418.424 76.514 C 416.978 76.004 415.404 76.132 413.895 76.113 C 409.875 76.347 406.067 77.915 402.608 79.895 C 402.009 79.137 401.628 78.229 401.197 77.372 C 400.71 76.327 400.793 74.835 401.921 74.238 C 403.581 73.209 405.625 73.44 407.484 73.181 C 408.602 73.103 409.724 73.091 410.844 73.055 L 410.844 73.055 Z " fill-rule="evenodd" fill="rgb(0,0,0)" fill-opacity="0.97272728"/><path d=" M 113.217 71.453 C 103.791 72.031 94.262 74.039 86.023 78.828 C 78.539 83.138 72.606 89.947 69.075 97.807 C 66.233 103.913 64.873 110.64 64.737 117.368 C 64.406 124.512 64.294 131.669 64.4 138.82 C 64.524 142.179 64.672 145.6 65.733 148.811 C 66.55 150.902 68.198 152.498 69.999 153.764 C 75.623 158.385 81.337 163.213 85.044 169.584 C 86.162 171.552 87.101 173.992 86.189 176.222 C 85.358 178.231 83.107 179.077 81.099 179.315 C 79.929 179.476 78.745 179.488 77.571 179.604 C 82.727 184.833 87.84 190.297 94.322 193.907 C 104.149 199.615 116.03 201.946 127.229 199.695 C 136.235 197.719 144.149 192.099 149.915 185.006 C 157.206 176.035 161.653 164.816 162.633 153.307 C 163.281 146.517 163.362 139.674 162.988 132.865 C 162.267 122.326 159.599 111.951 155.354 102.296 C 151.388 93.458 145.707 85.164 137.901 79.289 C 132.602 75.301 126.32 72.612 119.739 71.797 C 117.58 71.497 115.396 71.366 113.217 71.453 L 113.217 71.453 Z  M 109.401 97.668 C 112.4 97.602 115.331 98.938 117.36 101.125 C 120.079 103.566 122.17 107.158 121.682 110.924 C 121.373 113.741 119.953 116.66 117.361 118.015 C 116.059 118.533 114.631 118.486 113.255 118.582 C 112.883 119.497 113.814 120.258 114.219 120.992 C 117.638 125.653 124.79 127.215 129.682 124.024 C 131.871 122.567 133.599 120.427 134.513 117.961 C 134.868 117.057 135.987 116.311 136.909 116.904 C 138.119 117.72 138.395 119.301 138.858 120.588 C 140.358 125.608 140.757 130.871 141.16 136.071 C 141.688 144.722 141.315 153.608 138.45 161.859 C 136.521 167.319 133.079 172.52 127.915 175.373 C 121.94 178.699 114.561 178.975 108.12 176.906 C 102.68 175.112 98.03 171.374 94.69 166.765 C 90.477 161.038 87.904 154.197 86.772 147.205 C 85.917 141.485 85.947 135.68 86.041 129.912 C 86.21 125.387 86.479 120.818 87.588 116.414 C 89.048 111.352 91.814 106.681 95.491 102.919 C 98.204 100.258 101.765 98.469 105.545 97.984 C 106.821 97.784 108.11 97.693 109.401 97.668 L 109.401 97.668 Z " fill-rule="evenodd" fill="rgb(0,0,0)" fill-opacity="0.97272728"/><path d=" M 486.351 201.443 C 515.151 230.643 508.251 285.143 472.351 312.243 C 453.851 326.143 434.151 332.143 403.251 333.143 C 382.251 333.843 372.651 332.343 361.551 326.943 C 352.651 322.543 348.051 317.443 346.251 310.043 C 342.551 294.543 352.851 285.143 368.751 289.543 C 378.251 292.143 382.551 301.943 376.251 306.643 C 374.651 307.843 373.251 309.143 373.251 309.543 C 373.251 309.943 377.151 310.743 381.851 311.443 C 391.851 312.843 403.851 312.143 417.351 309.443 C 426.251 307.643 426.651 307.643 429.151 309.343 C 437.351 315.043 451.751 315.243 462.751 309.943 C 469.451 306.643 479.551 296.143 484.051 287.743 C 492.551 271.743 495.651 242.043 490.751 223.943 C 488.451 215.643 482.251 202.643 478.451 198.343 C 476.651 196.343 475.251 194.143 475.251 193.543 C 475.251 191.443 479.451 194.443 486.351 201.443 L 486.351 201.443 Z " fill="rgb(0,0,0)" fill-opacity="0.97272728"/><path d=" M 447.169 188.911 C 441.625 189.099 436.581 192.027 432.512 195.612 C 428.428 199.217 424.644 203.318 422.24 208.26 C 417.617 217.16 415.597 227.179 415.016 237.132 C 414.338 247.846 415.044 258.585 415.877 269.269 C 416.635 277.01 418.151 284.785 421.417 291.886 C 424.137 297.738 428.27 303.207 434.029 306.324 C 439.105 309.063 445.155 309.584 450.784 308.647 C 457.924 307.442 464.518 303.775 469.641 298.711 C 474.27 294.221 478.199 288.982 480.962 283.138 C 485.463 273.798 487.405 263.449 488.211 253.173 C 488.648 246.835 488.678 240.438 487.731 234.142 C 485.941 221.359 481.316 208.861 473.579 198.469 C 471.594 205.89 468.324 212.889 466.178 220.255 C 466.904 226.419 469.183 232.46 468.469 238.736 C 467.628 243.716 466.834 248.99 463.719 253.137 C 461.746 255.869 457.748 257.24 454.681 255.59 C 453.078 254.852 451.638 253.616 449.889 253.285 C 449.091 253.697 449.683 254.676 449.574 255.344 C 449.466 257.539 449.22 259.77 449.772 261.93 C 450.597 265.983 452.965 269.989 456.808 271.805 C 459.788 273.148 463.318 272.871 466.219 271.455 C 467.308 271.057 468.348 270.484 469.531 270.441 C 469.998 271.068 469.255 271.727 469.099 272.338 C 465.719 279.424 457.783 284.228 449.905 283.38 C 445.326 282.855 441.324 279.856 438.874 276.037 C 434.972 270.326 433.652 263.337 433.342 256.538 C 433.063 251.287 433.116 246.014 433.467 240.769 C 434.361 234.07 437.692 227.768 437.52 220.891 C 436.866 218.849 435.907 216.903 435.484 214.786 C 434.242 209.803 434.263 204.14 437.054 199.661 C 438.828 196.827 441.955 194.657 445.366 194.566 C 449.451 194.181 453.45 195.631 457.53 195.394 C 459.065 194.729 459.143 192.571 458.251 191.353 C 457.174 189.555 454.938 188.694 452.908 189.021 C 450.994 189.026 449.083 188.87 447.169 188.911 L 447.169 188.911 Z " fill="rgb(0,0,0)" fill-opacity="0.97272728"/><path d=" M 373.206 173.133 C 364.518 173.432 356.337 177.883 350.542 184.219 C 343.378 191.808 339.063 201.677 336.798 211.774 C 333.694 225.395 333.874 239.478 334.369 253.358 C 334.537 258.541 334.616 263.769 335.766 268.849 C 337.296 276.531 339.903 284.02 343.729 290.867 C 350.594 284.68 360.643 282.749 369.479 285.064 C 374.531 286.25 379.32 289.327 381.787 293.987 C 383.696 297.421 384.311 301.528 383.608 305.385 C 383.631 306.708 385.049 307.569 386.275 307.368 C 390.135 307.58 393.977 305.747 397.804 306.844 C 399.959 307.501 402.24 306.007 403.048 304.017 C 404.548 301.247 405.559 298.215 407.233 295.55 C 410.725 288.849 413.433 281.453 413.215 273.795 C 413.072 270.611 412.162 267.496 412.267 264.294 C 411.631 250.078 411.178 235.656 414.067 221.645 C 414.491 219.839 415.099 217.954 414.549 216.102 C 412.891 207.397 408.74 199.433 404.147 191.943 C 399.341 183.979 391.919 177.355 382.963 174.515 C 379.817 173.52 376.507 173.038 373.206 173.133 L 373.206 173.133 Z  M 374.686 200.988 C 378.633 200.848 382.665 202.004 385.735 204.522 C 391.031 208.762 393.982 215.58 394.178 222.32 C 394.269 226.527 393.859 230.751 393.079 234.877 C 391.947 240.535 389.715 246.199 385.497 250.283 C 384.012 251.676 382.324 252.953 380.408 253.658 C 377.15 253.746 373.678 252.867 370.609 254.357 C 368.956 255.36 368.745 257.506 368.757 259.256 C 368.699 265.508 373.142 271.272 378.911 273.409 C 383.2 275.072 388.199 274.572 392.158 272.263 C 392.526 272.192 393.694 271.236 393.372 271.93 C 390.869 278.101 384.393 282.112 377.844 282.361 C 372.551 282.659 366.944 280.697 363.604 276.472 C 360.044 271.86 357.739 266.393 356.18 260.812 C 353.241 249.858 353.75 238.222 355.796 227.158 C 356.72 222.425 358.388 217.869 360.248 213.425 C 361.86 209.827 363.896 206.26 366.967 203.727 C 369.162 202.022 371.901 201.02 374.686 200.988 L 374.686 200.988 Z " fill-rule="evenodd" fill="rgb(0,0,0)" fill-opacity="0.97272728"/><path d=" M 45.069 152.537 C 33.512 153.836 22.611 161.29 17.852 172.018 C 14.483 179.716 15.171 188.901 18.955 196.299 C 23.27 204.98 30.773 211.664 38.965 216.616 C 50.606 223.668 64.021 227.389 77.511 228.592 C 90.868 229.89 104.307 229.102 117.665 228.232 C 119.217 228.219 120.341 229.714 120.394 231.174 C 120.552 233.106 120.38 235.064 120.751 236.981 C 121.279 240.329 121.107 243.746 120.831 247.111 C 120.156 254.126 118.173 260.931 115.852 267.557 C 115.852 268.319 116.519 268.877 116.721 269.59 C 120.594 277.451 123.665 285.977 123.69 294.841 C 123.726 300.591 121.858 306.151 119.437 311.299 C 116.723 317.583 113.361 323.777 112.421 330.635 C 112.019 334.135 112.221 337.855 113.958 340.996 C 115.751 342.778 118.496 342.694 120.831 342.457 C 125.026 342.106 129.244 342.237 133.441 341.903 C 142.005 341.463 150.604 341.194 159.088 339.856 C 160.161 338.41 159.446 336.398 158.219 335.285 C 155.908 332.48 152.806 330.053 151.801 326.409 C 151.184 324.026 151.913 321.341 153.714 319.653 C 154.481 318.332 153.658 316.795 153.079 315.569 C 152.081 313.66 150.805 311.723 150.866 309.481 C 150.296 305.397 149.612 301.317 149.524 297.185 C 149.095 287.034 150.795 276.594 155.739 267.625 C 156.35 266.557 156.29 265.339 156.007 264.171 C 155.064 259.746 151.579 256.521 149.852 252.442 C 148.744 250.052 148.248 247.452 147.535 244.934 C 145.852 238.008 145.684 230.847 145.215 223.768 C 161.366 220.916 177.692 219.127 193.797 216.045 C 197.182 209.996 196.836 202.568 200.538 196.652 C 201.107 195.976 201.876 194.972 201.237 194.093 C 200.238 191.875 197.746 191.052 195.657 190.213 C 193.22 189.275 190.554 189.99 188.02 190.104 C 182.552 190.622 177.08 191.625 172.036 193.869 C 167.989 199.375 159.408 200.841 153.823 196.857 C 151.672 195.734 149.147 196.41 146.979 197.121 C 142.862 198.689 139.235 201.343 135.125 202.961 C 131.74 204.4 128.042 205.056 124.365 204.902 C 119.589 204.838 114.823 204.339 110.044 204.516 C 99.767 204.29 89.554 202.572 79.641 199.913 C 70.399 197.383 61.41 193.909 52.924 189.457 C 49.464 187.165 47.559 182.409 49.153 178.457 C 50.386 175.7 53.294 174.29 55.978 173.305 C 62.037 171.141 68.641 171.653 74.869 172.724 C 76.349 172.897 77.834 173.51 79.323 173.211 C 80.206 172.662 80.069 171.392 79.47 170.684 C 78.107 168.097 75.847 166.198 73.873 164.096 C 66.314 156.982 56.138 152.557 45.715 152.473 C 45.5 152.494 45.284 152.516 45.069 152.537 L 45.069 152.537 Z " fill="rgb(0,0,0)" fill-opacity="0.97272728"/><path d=" M 259.95 136.539 C 257.618 136.935 255.819 138.729 254.773 140.765 C 253.123 143.742 252.288 147.349 249.548 149.588 C 248.603 150.468 247.791 151.505 246.751 152.308 C 242.299 156.067 236.564 158.186 232.709 162.661 C 232.037 163.69 231.713 164.929 231.317 166.09 C 229.659 171.707 229.784 178.115 232.754 183.281 C 233.274 184.234 234.338 184.711 235.2 185.311 C 239.654 187.997 245.264 188.07 250.123 186.512 C 255.03 184.974 259.412 181.939 262.689 177.987 C 264.815 175.632 267.087 172.949 267.243 169.624 C 267.229 169.159 267.194 168.707 267.647 168.428 C 271.07 164.731 275.298 161.531 277.363 156.8 C 277.887 155.526 278.241 154.196 278.706 152.9 C 280.233 147.488 277.609 141.375 272.859 138.468 C 270.668 137.071 268.021 136.503 265.443 136.694 C 263.615 136.578 261.781 136.573 259.95 136.539 L 259.95 136.539 Z  M 262.655 145.846 C 264.538 145.805 266.431 146.931 267.079 148.707 C 268.228 151.701 267.178 155.451 264.661 157.467 C 264.046 157.873 263.373 158.347 262.636 158.42 C 261.679 158.068 261.421 156.899 260.901 156.121 C 260.25 154.854 259.202 153.359 257.59 153.476 C 256.84 153.586 256.108 153.764 255.35 153.841 C 252.099 154.372 249.541 157.093 248.712 160.209 C 247.538 164.121 248.556 168.886 251.911 171.423 C 252.645 171.982 253.472 172.416 254.344 172.713 C 252.1 174.77 249.009 175.929 245.956 176.119 C 243.98 176.232 241.605 175.643 240.716 173.682 C 239.929 172.101 240.432 170.333 240.426 168.662 C 240.921 160.9 245.689 153.768 252.155 149.602 C 255.306 147.567 258.913 146.213 262.655 145.846 Z " fill-rule="evenodd" fill="rgb(0,0,0)" fill-opacity="0.97272728"/><path d=" M 396.451 99.143 C 399.051 100.043 401.251 101.043 401.251 101.443 C 401.251 101.743 399.451 103.043 397.251 104.443 C 393.451 106.843 393.251 107.143 393.251 112.143 C 393.251 115.043 392.951 117.443 392.451 117.443 C 392.051 117.443 390.051 116.043 387.951 114.343 L 384.151 111.243 L 379.251 112.843 C 376.551 113.743 374.151 114.443 373.851 114.443 C 373.551 114.443 374.151 112.143 375.251 109.343 L 377.251 104.243 L 374.251 100.143 L 371.151 95.943 L 376.651 95.643 C 381.951 95.343 382.351 95.143 385.451 90.843 L 388.751 86.243 L 390.151 91.843 C 391.551 97.143 391.851 97.443 396.451 99.143 L 396.451 99.143 Z " fill="rgb(0,0,0)" fill-opacity="0.97272728"/><path d=" M 447.544 69.939 C 445.662 70.409 444.936 73.259 446.462 74.506 C 447.605 74.901 448.52 73.673 448.618 72.653 C 449.025 71.793 449.136 70.304 448.029 69.93 C 447.87 69.891 447.701 69.898 447.544 69.94 L 447.544 69.939 Z " fill="rgb(0,0,0)" fill-opacity="0.97272728"/><path d=" M 442.337 66.633 C 439.781 67.209 437.773 69.837 437.985 72.46 C 438.415 73.468 440.054 73.428 440.458 72.412 C 441.829 70.844 442.63 68.735 442.528 66.676 C 442.474 66.634 442.403 66.619 442.337 66.633 L 442.337 66.633 Z " fill="rgb(0,0,0)" fill-opacity="0.97272728"/><path d=" M 430.296 62.613 C 427.97 63.799 427.122 66.671 427.49 69.108 C 427.635 70.024 428.337 70.851 429.239 71.1 C 430.554 68.898 431.893 66.314 431.174 63.678 C 431.023 63.272 430.886 62.513 430.296 62.613 Z " fill="rgb(0,0,0)" fill-opacity="0.97272728"/><path d=" M 412.542 62.811 C 411.179 63.574 411.114 65.4 411.486 66.719 C 411.523 67.746 413.086 68.606 413.731 67.584 C 414.363 66.379 414.194 64.874 413.728 63.641 C 413.542 63.22 413.076 62.505 412.542 62.811 L 412.542 62.811 Z " fill="rgb(0,0,0)" fill-opacity="0.97272728"/><path d=" M 293.397 56.66 C 288.455 60.089 285.834 66.409 283.075 71.69 C 278.38 82.999 277.694 95.873 279.762 107.834 C 281.887 114.373 287.71 122.569 295.465 121.113 C 300.639 117.457 301.491 109.886 305.956 105.713 C 311.052 99.795 317.481 93.979 317.585 85.5 C 319.125 83.066 317.99 77.751 314.45 80.199 C 311.276 83.307 305.142 83.947 304.977 89.44 C 303.671 95.021 302.633 102.044 297.922 105.756 C 291.988 106.554 291.284 98.437 291.475 94.199 C 292.206 82.616 289.954 70.178 295.69 59.559 C 296.218 58.068 295.054 56.237 293.397 56.66 L 293.397 56.66 Z " fill="rgb(0,0,0)" fill-opacity="0.97272728"/><path d=" M 310.204 53.311 C 307.951 54.033 306.884 56.511 306.733 58.707 C 306.605 60.228 306.68 61.839 307.27 63.248 C 308.94 64.344 311.22 63.542 312.35 62.038 C 313.957 60.208 314.784 57.362 313.568 55.116 C 312.886 53.977 311.564 53.134 310.204 53.311 L 310.204 53.311 Z " fill="rgb(0,0,0)" fill-opacity="0.97272728"/><path d=" M 426.762 32.852 C 424.216 33.382 422.677 35.727 421.68 37.946 C 419.653 42.805 418.909 48.058 417.238 53.036 C 417.075 53.554 417.01 54.203 416.661 54.598 C 409.744 55.275 402.614 56.093 396.4 59.428 C 394.525 60.34 393.033 62.454 393.586 64.6 C 394.028 67.582 396.085 70.217 398.706 71.632 C 399.399 72.006 400.534 71.742 400.543 70.815 C 400.637 69.244 399.15 68.255 398.37 67.066 C 398.142 66.739 397.864 66.296 398.255 65.973 C 399.266 64.612 400.818 63.781 402.282 62.994 C 406.489 61.008 411.271 60.94 415.824 61.281 C 416.767 61.286 417.854 61.325 418.622 60.717 C 419.136 59.92 418.321 58.853 417.418 58.963 C 416.837 58.902 416.236 58.785 415.78 58.391 C 416.99 57.847 418.301 58.417 419.551 58.46 C 425.63 59.362 431.569 61.014 437.502 62.573 C 443.139 64.146 448.861 66.323 453.097 70.512 C 454.039 71.348 454.917 72.398 456.044 72.938 C 456.641 72.577 456.044 71.909 455.87 71.472 C 454.604 68.467 452.666 65.586 449.767 63.954 C 445.922 61.314 441.356 59.983 436.932 58.672 C 436.509 58.095 437.033 57.421 436.982 56.793 C 437.747 51.05 438.862 45.282 438.49 39.465 C 438.016 37.121 436.507 34.861 434.28 33.85 C 433.436 33.787 433.026 34.727 433.052 35.445 C 432.474 39.015 431.996 42.63 431.885 46.238 C 432.269 46.835 433.153 46.209 433.109 45.621 C 433.71 43.132 434.126 40.541 435.421 38.293 C 435.811 42.542 434.46 46.662 433.634 50.777 C 433.155 52.859 432.536 54.912 431.717 56.889 C 428.487 56.683 425.078 56.518 422.21 54.857 C 421.467 54.02 422.184 52.911 422.215 51.961 C 423.023 46.96 423.878 41.936 425.505 37.125 C 425.973 36.936 425.805 37.685 425.781 37.935 C 425.52 40.682 424.591 43.384 424.943 46.17 C 425.342 46.849 426.509 46.328 426.425 45.596 C 427.562 41.878 428.42 38.04 428.744 34.171 C 428.524 33.328 427.606 32.79 426.763 32.852 L 426.762 32.852 Z " fill="rgb(0,0,0)" fill-opacity="0.97272728"/><path d=" M 338.335 47.815 C 333.736 49.241 334.919 42.956 335.024 40.326 C 335.011 38.891 333.439 36.47 332.37 39.084 C 323.772 49.107 318.697 62.024 308.208 70.428 C 301.926 70.798 302.243 63.574 302.28 59.508 C 297.989 61.648 296.535 67.436 295.237 71.686 C 294.512 79.613 304.371 83.78 310.213 78.949 C 316.05 75.079 319.802 68.932 324.409 63.811 C 324.68 72.603 321.479 81.554 322.085 90.082 C 326.65 90.566 330.441 86.8 330.167 82.238 C 334.131 64.126 343.431 47.234 357.19 34.715 C 354.973 49.352 347.175 62.94 346.544 77.686 C 346.996 85.639 355.657 92.104 363.104 88.27 C 374.76 84.695 384.717 77.209 392.56 68.084 C 390.838 64.585 391.105 59.926 395.089 58.077 C 400.639 54.534 409.009 54.656 411.388 47.342 C 415.579 40.177 417.669 29.002 410.915 22.895 C 404.07 20.195 395.613 24.88 392.179 30.836 C 392.702 32.809 396.503 31.09 398.062 32.666 C 403.365 35.112 400.91 41.702 398.49 45.362 C 391.337 59.384 379.804 72.978 363.94 76.387 C 359.46 77.132 355.483 72.723 357.213 68.354 C 358.871 49.412 375.302 21.611 374.067 15.004 C 366.092 10.728 341.827 42.82 338.335 47.815 L 338.335 47.815 Z " fill="rgb(0,0,0)" fill-opacity="0.97272728"/><path d=" M 374.56 0.64 C 361.445 1.667 350.168 10.451 342.443 20.594 C 341.637 21.604 339.905 19.253 338.483 19.431 C 331.396 17.807 324.373 22.326 321.307 28.62 C 318.725 32.065 317.825 37.381 313.922 39.463 C 302.907 35.036 290.961 41.62 283.516 49.653 C 280.122 52.62 278.244 57.577 274.987 60.076 C 266.442 60.481 256.557 58.981 249.611 65.237 C 244.718 69.124 241.281 74.438 237.614 79.409 C 229.99 78.648 221.781 78.732 215.233 83.285 C 206.477 87.981 199.322 96.59 189.083 97.932 C 180.82 97.55 176.099 89.321 169.405 85.636 C 163.764 77.556 158.148 69.058 149.643 63.653 C 131.351 51.325 107.316 50.756 86.692 56.817 C 69.684 61.834 55.114 74.74 49.068 91.54 C 42.996 105.842 44.487 121.761 44.251 136.896 C 27.928 137.326 11.973 146.758 4.858 161.641 C -2.631 177.291 0.23 196.6 9.024 211.113 C 22.359 231 46.46 240.134 69.301 243.387 C 80.867 245.193 92.597 244.878 104.259 245.079 C 102.407 251.516 98.876 257.847 98.869 264.645 C 101.697 274.216 108.517 282.639 108.503 292.929 C 109.478 305.948 101.7 317.414 97.323 329.317 C 94.7 338.232 95.352 349.198 101.79 356.37 C 106.527 359.875 113.124 358.257 118.594 359.202 C 134.719 359.941 150.963 358.381 166.523 354.023 C 174.545 353.057 183.287 355.853 190.817 351.634 C 196.065 349.057 202.49 350.718 207.439 347.607 C 209.444 346.252 210.613 343.473 212.678 342.526 C 221.465 348.632 232.783 345.637 242.639 345.067 C 267.25 342.534 291.642 338.036 316.29 335.943 C 323.588 336.182 330.529 333.39 337.553 332.259 C 344.696 335.778 351.016 341.047 358.709 343.578 C 386.412 353.908 417.703 353.503 445.664 344.335 C 475.169 334.797 501.5 313.05 512.535 283.581 C 520.436 263.182 522.103 240.01 514.689 219.21 C 509.769 204.594 501.886 190.113 488.908 181.228 C 487.349 175.392 490.074 169.21 490.68 163.353 C 494.43 142.906 499.17 122.571 501.736 101.944 C 501.723 96.107 495.132 90.607 489.588 93.989 C 481.809 96.641 474.421 101.493 466.732 103.607 C 465.798 98.798 460.336 95.675 455.812 97.901 C 452.814 98.89 449.979 100.296 447.132 101.644 C 453.786 92.577 463.281 84.733 466.435 73.548 C 467.845 65.008 461.78 56.992 454.553 53.105 C 452.77 51.672 449.106 50.98 450.51 47.931 C 452.834 39.443 450.105 28.991 441.717 24.94 C 437.114 22.078 430.51 23.199 425.634 21.577 C 422.737 16.852 420.033 11.041 413.913 10.616 C 407.75 9.382 401.512 10.705 395.567 12.267 C 391.696 6.015 385.227 0.788 377.555 0.713 C 376.559 0.633 375.559 0.598 374.56 0.64 L 374.56 0.64 Z  M 375.592 9.201 C 381.245 8.75 387.431 11.696 388.458 17.731 C 388.937 20.069 389.958 26.157 393.594 23.641 C 399.293 18.781 407.276 16.748 414.29 19.903 C 417.543 22.23 418.77 26.131 419.295 29.826 C 422.199 32.714 427.853 29.327 431.413 30.331 C 436.183 30.767 443.206 32.95 442.451 38.993 C 442.989 44.343 441.606 49.481 441.222 54.579 C 443.384 58.525 449.14 58.047 452.171 61.024 C 456.798 63.737 460.708 69.531 457.413 74.776 C 450.295 88.051 437.239 97.759 432.296 112.28 C 429.391 118.755 432.156 118.287 437.08 115.18 C 444.157 112.053 451.834 107.602 458.762 105.555 C 458.919 109.026 457.007 113.118 458.983 116.342 C 470.499 111.563 481.648 105.195 493.404 101.484 C 494.156 106.987 491.644 112.616 491.147 118.132 C 487.397 139.229 483.033 160.28 479.211 181.323 C 481.097 186.77 487.371 188.986 490.777 193.368 C 505.513 209.463 512.763 231.692 511.192 253.232 C 509.743 274.834 501.025 296.146 485.255 311.212 C 466.911 329.046 442.027 340.468 416.631 342.242 C 396.116 344.142 374.806 342.774 355.978 333.466 C 348.29 330.105 340.868 322.195 331.742 324.689 C 321.079 328.918 309.21 327.704 298.046 329.665 C 274.443 332.339 250.919 337.064 227.267 338.389 C 222.211 338.562 217.441 336.42 213.94 332.886 C 209.997 330.081 204.601 334.814 204.563 339.022 C 201.449 342.912 195.534 340.775 191.296 342.467 C 186.036 344.169 181.113 347.878 175.239 346.359 C 165.215 344.11 155.796 349.808 145.843 350.079 C 133.37 350.971 120.736 351.605 108.26 350.206 C 103.329 349.264 104.316 342.848 103.767 339.236 C 104.182 326.637 113.614 316.683 115.673 304.377 C 118.191 291.736 115.324 278.203 108.097 267.551 C 104.707 259.471 111.487 252.151 112.594 244.296 C 113.149 241.815 113.107 239.252 113.375 236.733 C 86.303 237.206 57.207 237.889 33.375 223.081 C 19.723 215.392 9.502 201.151 8.974 185.202 C 7.981 174.147 10.985 162.063 19.876 154.639 C 28.839 145.771 42.043 145.028 53.855 144.53 C 53.609 141.873 52.124 137.682 52.449 134.224 C 52.105 119.331 51.171 103.52 58.57 89.951 C 65.72 74.279 81.808 64.402 98.55 62.241 C 118.029 58.94 140.872 62.422 154.414 78.343 C 159.094 82.937 160.394 90.648 166.767 93.466 C 173.301 98.893 179.958 106.336 189.269 105.943 C 201.141 105.715 209.46 95.668 219.127 90.249 C 225.496 85.581 233.615 87.465 240.843 88.006 C 247.013 81.215 251.154 70.949 260.838 68.465 C 266.844 67.088 273.236 69.43 279.109 67.852 C 285.138 61.578 289.084 53.119 297.072 48.836 C 302.266 44.573 308.897 46.673 314.754 47.578 C 322.11 46.392 324.477 37.957 328.181 32.624 C 329.975 30.462 332.881 25.619 336.135 27.377 C 337.612 29.459 337.401 34.968 341.214 33.636 C 349.712 26.243 355.144 14.79 366.288 10.683 C 369.191 9.39 372.465 9.262 375.592 9.201 L 375.592 9.201 Z " fill-rule="evenodd" fill="rgb(0,0,0)" fill-opacity="0.97272728"/></g></svg>