<?xml version="1.0" encoding="UTF-8" standalone="no"?>
<!-- Generator: Gravit.io -->

<svg
   xmlns:dc="http://purl.org/dc/elements/1.1/"
   xmlns:cc="http://creativecommons.org/ns#"
   xmlns:rdf="http://www.w3.org/1999/02/22-rdf-syntax-ns#"
   xmlns:svg="http://www.w3.org/2000/svg"
   xmlns="http://www.w3.org/2000/svg"
   xmlns:sodipodi="http://sodipodi.sourceforge.net/DTD/sodipodi-0.dtd"
   xmlns:inkscape="http://www.inkscape.org/namespaces/inkscape"
   style="isolation:isolate"
   viewBox="0 0 520 360"
   width="520pt"
   height="360pt"
   version="1.1"
   id="svg46"
   sodipodi:docname="oc-tattoo-logo.svg"
   inkscape:version="0.92.3 (2405546, 2018-03-11)">
  <metadata
     id="metadata52">
    <rdf:RDF>
      <cc:Work
         rdf:about="">
        <dc:format>image/svg+xml</dc:format>
        <dc:type
           rdf:resource="http://purl.org/dc/dcmitype/StillImage" />
        <dc:title></dc:title>
      </cc:Work>
    </rdf:RDF>
  </metadata>
  <defs
     id="defs50" />
  <sodipodi:namedview
     pagecolor="#ffffff"
     bordercolor="#666666"
     borderopacity="1"
     objecttolerance="10"
     gridtolerance="10"
     guidetolerance="10"
     inkscape:pageopacity="0"
     inkscape:pageshadow="2"
     inkscape:window-width="1366"
     inkscape:window-height="714"
     id="namedview48"
     showgrid="false"
     inkscape:zoom="0.50656466"
     inkscape:cx="113.57769"
     inkscape:cy="237.73865"
     inkscape:window-x="0"
     inkscape:window-y="24"
     inkscape:window-maximized="1"
     inkscape:current-layer="g44" />
  <g
     style="isolation:isolate"
     id="g44">
    <path
       d="m 416.469,90.327 c -2.424,0.657 -3.757,3.065 -4.506,5.282 -1.594,4.851 -1.946,10.014 -3.401,14.893 -2.314,10.389 -3.343,21.17 -7.521,31.049 -1.976,4.522 -4.357,9.127 -8.414,12.132 -3.592,2.404 -8.72,2.857 -12.332,0.272 -2.375,-1.783 -3.106,-4.936 -2.886,-7.766 0.106,-7.409 2.861,-14.382 5.222,-21.305 0.42,-1.268 0.829,-2.55 1.102,-3.853 -0.191,-1.135 -1.634,-1.259 -2.519,-0.925 -3.327,0.587 -5.797,3.195 -7.689,5.818 -5.223,6.935 -9.558,14.702 -16.267,20.379 -5.766,4.975 -13.036,8.649 -20.759,8.758 -6.246,0.186 -12.758,-1.651 -17.42,-5.955 -3.767,-3.547 -5.522,-8.814 -5.382,-13.908 0.121,-7.15 2.817,-14.193 7.245,-19.792 5.58,-7.091 14.23,-12.007 23.347,-11.984 2.482,0.06 5.025,0.469 7.179,1.76 3.67,2.594 4.891,7.655 3.781,11.872 -0.512,2.081 -1.488,4.05 -2.86,5.698 0.606,-3.196 -0.473,-6.791 -3.061,-8.856 -2.339,-1.776 -5.515,-2.102 -8.335,-1.566 -4.554,0.873 -8.589,4.258 -9.968,8.728 -1.728,5.081 0.337,11.167 4.807,14.137 2.645,1.802 6.027,2.124 9.135,1.74 4.637,-0.627 8.812,-3.199 11.988,-6.559 5.6,-5.8 8.792,-13.928 8.414,-22.002 -0.25,-3.684 -1.769,-7.44 -4.775,-9.718 -4.101,-3.4 -9.391,-5.006 -14.609,-5.616 -7.051,-0.738 -14.24,0.43 -20.842,2.938 -8.044,3.221 -14.794,9.341 -19.063,16.852 -5.478,9.268 -7.587,20.711 -4.847,31.211 1.575,5.954 4.862,11.72 10.126,15.12 3.45,2.261 7.389,3.585 11.077,5.388 0.976,1.102 -0.241,3.039 -1.646,2.776 -15.055,2.193 -30.258,3.511 -45.142,6.757 -3.577,1.384 -5.784,4.698 -8.138,7.532 -4.356,5.563 -10.693,9.411 -17.484,11.193 -6.085,1.55 -12.868,1.014 -18.223,-2.436 -1.726,-1.027 -3.065,-2.579 -4.759,-3.64 -1.37,-0.816 -3.057,-1.025 -4.585,-0.56 -2.556,0.52 -5.001,1.503 -7.371,2.56 -1.217,0.769 -1.816,2.587 -0.839,3.78 0.982,1.671 2.128,3.271 2.721,5.137 1.429,3.443 2.522,7.096 4.697,10.172 9.615,-1.12 18.888,-4.223 28.523,-5.179 0.415,12.989 1.938,26.068 0.067,39.013 -0.442,3.535 -2.427,6.693 -2.983,10.208 -0.133,2.449 1.252,4.59 2.402,6.63 3.487,7.706 5.771,15.973 6.526,24.397 0.432,5.84 0.094,11.848 -1.929,17.384 -1.86,4.211 -4.972,7.987 -5.511,12.689 -0.35,2.538 0.15,5.533 2.326,7.144 2.199,1.34 4.878,0.689 7.241,0.255 5.308,-1.083 10.771,-1.149 16.128,-1.954 3.897,-0.478 7.794,-0.955 11.691,-1.434 -0.302,-6.178 -3.229,-11.866 -6.739,-16.825 -2.307,-3.727 -2.476,-8.217 -2.912,-12.453 -0.615,-10.165 1.77,-20.146 3.661,-30.057 0.656,-3.477 1.478,-7.107 0.524,-10.613 -1.279,-5.306 -3.597,-10.315 -4.679,-15.67 -0.583,-2.782 -0.936,-5.601 -1.435,-8.398 -1.116,-7.212 -1.693,-14.609 -0.617,-21.856 0.792,-1.987 3.033,-2.672 4.89,-3.272 5.12,-1.569 10.633,-1.677 15.571,-3.866 2.165,-0.555 4.454,1.492 4.216,3.699 0.2,3.193 0.319,6.393 0.601,9.581 0.78,12.582 -0.153,25.386 -3.923,37.455 -0.495,1.665 -0.12,3.421 0.545,4.98 1.688,4.7 4.4,9.223 4.45,14.354 -0.046,2.263 -0.332,4.517 -0.236,6.784 0.042,7.193 0.834,14.572 -1.225,21.574 -1.294,4.299 -4.045,7.958 -5.767,12.078 -1.446,3.642 -1.865,7.886 -0.281,11.553 0.477,0.684 1.408,0.27 2.09,0.432 7.994,0.298 15.889,-1.399 23.871,-1.463 3.056,-0.119 6.279,-0.124 9.066,-1.534 1.165,-0.861 0.909,-2.493 0.955,-3.757 -0.028,-2.938 -0.043,-5.923 -0.9,-8.759 -0.783,-2.934 -2.285,-5.634 -4.191,-7.984 -3.62,-5.316 -4.851,-11.898 -4.566,-18.238 0.244,-9.445 2.809,-18.632 6.006,-27.466 0.786,-2.385 1.637,-4.788 1.919,-7.294 0.179,-3.161 -1.1,-6.132 -2.305,-8.977 -3.077,-8.526 -2.996,-17.728 -3.29,-26.684 -0.102,-4.352 -0.399,-8.702 -0.798,-13.034 0.17,-2.313 2.512,-3.964 4.739,-3.854 3.538,-0.269 7.14,0.04 10.626,-0.704 4.29,-0.737 8.55,-2.624 11.349,-6.057 2.334,-2.582 4.758,-5.205 7.883,-6.844 10.699,-6.695 25.142,-7.1 36.011,-0.589 6.111,3.456 12.322,7.049 17.189,12.086 4.046,4.188 7.884,14.341 9.552,14.625 1.668,0.285 6.983,-6.528 11.086,-8.899 5.301,-3.062 11.085,-5.615 17.117,-6.662 3.641,-0.632 11.042,2.528 11.083,0.305 0.04,-2.223 -24.946,-10.401 -35.715,-14.326 -0.754,-0.316 -1.507,-0.632 -2.261,-0.948 12.128,-5.176 8.904,-6.806 13.951,-9.434 0.188,-0.067 0.389,-0.09 0.587,-0.061 1.14,0.218 1.65,1.477 1.569,2.53 0.05,3.294 0.728,6.261 3.05,7.825 5.219,3.515 13.919,2.482 18.876,-0.258 2.323,-1.306 4.448,-2.937 6.665,-4.416 -2.344,11.272 -1.678,26.816 -6.094,36.416 -1.121,1.021 -3.148,0.301 -3.501,-1.139 -2.241,-3.162 -6.93,-4.555 -10.387,-2.595 -3.646,2.657 -5.154,7.485 -4.666,11.853 0.529,5.433 3.978,10.727 9.179,12.695 4.265,1.43 9.188,-0.553 11.71,-4.169 3.627,-4.294 5.014,-9.886 6.299,-15.227 3.63,-15.52 6.701,-31.162 10.118,-46.729 2.94,-13.606 6.145,-27.161 9.761,-40.598 0.523,-2.43 0.867,-4.898 0.989,-7.381 -8.428,1.213 -15.517,8.438 -16.705,16.847 -2.271,8.563 -3.574,17.417 -6.662,25.731 -1.319,3.315 -3.024,6.656 -5.836,8.949 -3.086,2.261 -7.486,2.952 -10.896,1.044 -2.295,-1.492 -2.885,-4.739 -1.932,-7.154 2.518,-13.316 5.942,-26.497 7.168,-40.025 -4.361,-0.147 -8.288,3.015 -9.927,6.918 -2.117,4.808 -2.58,10.122 -4.3,15.056 -2.06,7.265 -4.372,14.725 -9.164,20.708 -2.672,3.329 -6.202,6.26 -10.485,7.102 -1.95,0.222 -4.231,-1.177 -4.112,-3.303 0.008,-2.249 0.904,-4.377 1.034,-6.613 3.243,-19.814 8.632,-39.24 11.159,-59.175 -0.334,-2.355 -2.709,-3.817 -4.905,-4.068 -1.772,-0.333 -3.582,-0.426 -5.382,-0.398 z m 0.099,2.056 c 0.177,0.006 0.365,0.118 0.553,0.343 0.6,0.5 -0.3,7.2 -2,15.9 -1.6,8.2 -4.699,24.9 -6.899,37 -3.8,20.5 -5.801,28.6 -5.901,24.3 -0.1,-0.9 1.501,-9.901 3.301,-20.001 1.9,-10 4.899,-26.599 6.599,-36.799 1.7,-10.2 3.3,-19.1 3.6,-19.9 0.188,-0.563 0.453,-0.852 0.747,-0.843 z m 6.853,2.743 c 0.7,0 0.8,1.4 0.5,3.7 -1.5,9.8 -14.2,73.4 -14.4,72.6 -0.2,-0.5 2.101,-14.6 5.101,-31.4 3,-16.7 5.899,-33.701 6.599,-37.701 0.6,-3.9 1.6,-7.199 2.2,-7.199 z m -55,48.351 c 0.701,4.71 1.969,11.009 4.979,15.406 5.295,6.177 13.022,5.612 22.021,-1.607 l 4,-3.199 c 0.328,3.951 0.17,13.519 -4.421,13.167 -6.482,-0.901 -11.821,-1.15 -17.736,-1.673 -10.509,-0.927 -29.558,0.843 -31.543,-2.594 0.562,-0.973 3.503,-1.914 5.099,-3.101 3.922,-2.915 7.702,-6.2 10.902,-9.8 3.2,-3.6 6.299,-6.599 6.699,-6.599 z"
       id="path2"
       inkscape:connector-curvature="0"
       style="opacity:1;fill:#070707;fill-opacity:1;fill-rule:evenodd"
       inkscape:export-xdpi="95.32695"
       inkscape:export-ydpi="95.32695" />
    <path
       d="m 209.768,196.156 c -4.733,0.866 -8.365,5.186 -9.107,9.862 -3.039,13.122 -6.164,26.224 -9.166,39.354 -2.949,12.685 -5.89,25.379 -9.254,37.96 -0.386,1.189 -1.558,2.462 -2.922,2.081 -1.784,-0.64 -3.289,-1.848 -4.779,-2.985 -3.146,-2.68 -5.403,-6.547 -5.676,-10.717 -0.712,-0.949 -2.195,-0.524 -2.798,0.332 -2.04,1.928 -4.006,3.939 -5.791,6.103 -3.183,4.125 -5.268,9.385 -4.502,14.647 0.635,3.573 2.586,6.937 5.431,9.184 2.532,1.838 5.836,2.443 8.887,1.855 1.32,-0.133 3.066,-0.015 3.716,1.346 0.525,1.466 -0.685,2.747 -1.389,3.905 -1.816,3.278 -3.612,6.655 -6.355,9.263 -2.154,2.137 -4.842,3.738 -7.774,4.534 -1.355,0.516 -2.881,1.747 -2.655,3.37 0.463,1.405 1.641,2.403 2.497,3.565 6.52,7.341 18.187,9.333 26.768,4.619 3.631,-1.988 7.16,-4.468 11.34,-5.107 1.159,-0.184 2.343,-0.223 3.51,-0.087 0.67,-3.898 0.877,-7.895 1.244,-11.844 0.473,-5.593 1.055,-11.233 2.719,-16.611 3.364,-4.223 8.382,-6.515 13.031,-9.008 0.451,-0.549 1.59,-0.444 1.602,0.388 2.868,10.335 4.059,21.234 2.756,31.911 -0.46,1.138 -0.719,2.67 0.207,3.638 0.672,0.813 1.783,0.705 2.704,0.537 7.852,-0.882 15.356,-3.511 22.981,-5.472 0.057,-0.696 -0.426,-1.335 -0.511,-2.032 -10.8,-36.272 -18.055,-73.534 -30.108,-109.443 -1.686,-4.963 -3.419,-9.913 -5.369,-14.779 -0.306,-0.342 -0.803,-0.415 -1.237,-0.369 z m -2.558,40.578 c 0.849,0.841 0.707,2.175 1.076,3.239 2.289,10.216 5.148,20.293 7.482,30.498 -1.963,3.53 -5.642,5.504 -8.959,7.547 -0.781,0.476 -1.551,0.981 -2.32,1.482 -0.424,-14.2 0.31,-28.447 2.199,-42.519 0.112,-0.155 0.33,-0.358 0.522,-0.247 z"
       id="path4"
       inkscape:connector-curvature="0"
       style="opacity:1;fill:#070707;fill-opacity:1;fill-rule:evenodd"
       inkscape:export-xdpi="95.32695"
       inkscape:export-ydpi="95.32695" />
    <path
       d="m 230.346,93.561 c -11.062,1.716 -18,12.411 -21.457,22.223 -4.132,11.199 -4.063,23.826 0.448,34.849 2.079,4.451 1.179,9.439 -1.731,13.285 -0.96,2.578 -4.631,4.673 -5.864,1.051 -5.697,-13.827 -1.445,-29.074 1.846,-42.98 0.726,-4.698 3.278,-9.171 3.681,-13.819 -1.928,-3.084 -6.407,-0.217 -9.178,-0.265 -8.244,1.922 -17.41,3.196 -24.81,-1.953 -3.52,-1.29 -4.415,-5.78 -7.85,-6.915 -3.765,0.35 -2.652,5.445 -2.247,8.014 1.261,6.015 4.101,11.82 8.833,15.866 -0.896,18.348 -2.593,37.025 -8.524,54.465 -0.589,3.093 -4.459,2.615 -5.367,5.555 -1.137,3.022 -5.912,6.382 -2.763,9.738 1.842,2.996 5.434,5.34 8.895,3.408 6.943,-3.21 8.086,-11.935 10.45,-18.361 4.904,-15.148 5.552,-31.14 8.066,-46.736 0.463,-3.269 2.98,-5.773 5.825,-7.188 -1.729,17.927 -4.087,36.948 2.417,54.304 2.428,5.317 6.797,11.338 13.081,11.824 8.157,-1.436 11.901,-10.459 13.385,-17.681 1.112,-3.856 1.61,-8.365 2.444,-11.965 9.55,1.555 18.796,-3.782 26.049,-9.461 4.52,-3.897 8.066,-10.071 7.329,-16.146 -2.293,-3.449 -6.912,-4.672 -10.626,-6.049 -3.872,-0.914 -3.756,3.902 -2.235,6.105 -0.326,5.529 -5.302,9.566 -9.393,12.754 -3.457,2.932 -11.797,1.998 -10.971,-3.672 2.273,-4.82 8.619,-5.54 11.584,-9.952 5.972,-6.308 7.378,-15.158 7.314,-23.509 0.124,-5.164 1.378,-11.847 -3.824,-15.116 -1.355,-1.084 -3.058,-1.747 -4.807,-1.673 z m -1.505,12.486 c 2.794,1.892 1.307,6.339 0.84,9.151 -1.675,5.575 -4.151,12.396 -10.007,14.542 -2.094,-0.357 -0.167,-3.757 -0.629,-4.959 0.689,-6.84 2.48,-16.066 9.796,-18.734 z"
       id="path6"
       inkscape:connector-curvature="0"
       style="opacity:1;fill:#070707;fill-opacity:1;fill-rule:evenodd"
       inkscape:export-xdpi="95.32695"
       inkscape:export-ydpi="95.32695" />
    <path
       d="m 264.982,73.115 c -8.393,1.066 -14.058,8.676 -18.192,15.408 -5.49,10.235 -9.004,23.099 -4.362,34.287 3.725,8.284 15.954,9.368 22.323,3.65 0.123,3.376 -1.039,8.965 3.464,10.028 2.166,0.678 6.864,2.955 7.213,-0.87 1.924,-17.516 3.899,-35.109 4.226,-52.731 -0.604,-5.131 -6.447,-7.453 -10.61,-9.213 -1.312,-0.401 -2.688,-0.619 -4.062,-0.559 z m -1.286,12.999 c 4.406,-0.73 2.387,4.994 2.888,7.886 -0.593,8.333 -1.942,17.777 -8.103,23.901 -5.11,2.094 -8.299,-4.966 -7.307,-9.141 1.017,-8.065 3.226,-17.321 10.181,-22.314 0.728,-0.341 1.552,-0.364 2.341,-0.332 z"
       id="path8"
       inkscape:connector-curvature="0"
       style="opacity:1;fill:#070707;fill-opacity:1;fill-rule:evenodd"
       inkscape:export-xdpi="95.32695"
       inkscape:export-ydpi="95.32695" />
    <path
       d="m 410.551,70.166 c -3.604,0.161 -7.515,0.008 -10.615,2.157 -0.919,0.574 -1.799,1.731 -1.275,2.849 0.931,3.116 2.488,5.985 3.863,8.925 1.787,3.577 3.684,7.125 6.049,10.354 0.548,0.541 1.485,0.306 1.775,-0.383 0.747,-1.152 1.031,-2.693 2.318,-3.416 4.186,-3.416 10.979,-3.154 14.775,0.734 1.149,1.266 1.571,3.01 1.526,4.684 0.046,0.785 0.623,1.953 1.584,1.58 1.182,-0.499 2.011,-1.54 3.067,-2.239 4.61,-3.72 9.216,-7.54 12.886,-12.216 2.022,-2.808 3.66,-5.986 4.229,-9.416 -0.015,-0.608 -0.729,-0.891 -1.152,-0.47 -1.201,0.85 -1.514,2.417 -2.055,3.701 -0.241,0.665 -0.511,1.323 -0.881,1.928 -3.526,-1.641 -6.943,-3.536 -10.634,-4.797 -8.13,-2.958 -16.823,-4.117 -25.46,-3.975 z m 0.293,2.889 c 9.784,0.153 19.788,1.569 28.596,6.037 1.391,0.808 3.006,1.484 3.964,2.822 0.353,1.086 -0.628,2.061 -1.46,2.598 -0.768,0.342 -1.435,-0.308 -1.897,-0.839 -3.517,-3.272 -8.017,-5.522 -12.732,-6.478 -0.595,-0.064 -1.418,-0.068 -1.785,0.446 -0.01,0.874 1.083,1.005 1.691,1.307 4.027,1.699 8.284,3.448 11.197,6.845 0.28,0.249 0.428,0.975 -0.14,0.912 -2.136,-0.353 -3.985,-1.584 -5.904,-2.515 -3.169,-1.711 -6.521,-3.347 -10.197,-3.446 -2.462,-0.212 -4.97,-0.285 -7.419,-0.082 -0.368,0.391 0.206,0.937 0.637,0.752 0.99,0.151 1.996,0.19 2.973,0.422 -3.403,1.014 -6.812,2.226 -10.386,2.415 -0.8,0.113 -1.679,-0.318 -1.827,-1.165 -0.234,-1.055 0.767,-1.744 1.485,-2.316 2.263,-1.452 4.981,-1.892 7.61,-2.166 1.201,-0.192 2.489,-0.283 3.575,-0.844 0.471,-0.426 0.197,-1.162 -0.401,-1.246 -1.446,-0.51 -3.02,-0.382 -4.529,-0.401 -4.02,0.234 -7.828,1.802 -11.287,3.782 -0.599,-0.758 -0.98,-1.666 -1.411,-2.523 -0.487,-1.045 -0.404,-2.537 0.724,-3.134 1.66,-1.029 3.704,-0.798 5.563,-1.057 1.118,-0.078 2.24,-0.09 3.36,-0.126 z"
       id="path10"
       inkscape:connector-curvature="0"
       style="opacity:1;fill:#070707;fill-opacity:1;fill-rule:evenodd"
       inkscape:export-xdpi="95.32695"
       inkscape:export-ydpi="95.32695" />
    <path
       d="m 113.217,71.453 c -9.426,0.578 -18.955,2.586 -27.194,7.375 -7.484,4.31 -13.417,11.119 -16.948,18.979 -2.842,6.106 -4.202,12.833 -4.338,19.561 -0.331,7.144 -0.443,14.301 -0.337,21.452 0.124,3.359 0.272,6.78 1.333,9.991 0.817,2.091 2.465,3.687 4.266,4.953 5.624,4.621 11.338,9.449 15.045,15.82 1.118,1.968 2.057,4.408 1.145,6.638 -0.831,2.009 -3.082,2.855 -5.09,3.093 -1.17,0.161 -2.354,0.173 -3.528,0.289 5.156,5.229 10.269,10.693 16.751,14.303 9.827,5.708 21.708,8.039 32.907,5.788 9.006,-1.976 16.92,-7.596 22.686,-14.689 7.291,-8.971 11.738,-20.19 12.718,-31.699 0.648,-6.79 0.729,-13.633 0.355,-20.442 -0.721,-10.539 -3.389,-20.914 -7.634,-30.569 -3.966,-8.838 -9.647,-17.132 -17.453,-23.007 -5.299,-3.988 -11.581,-6.677 -18.162,-7.492 -2.159,-0.3 -4.343,-0.431 -6.522,-0.344 z m -3.816,26.215 c 2.999,-0.066 5.93,1.27 7.959,3.457 2.719,2.441 4.81,6.033 4.322,9.799 -0.309,2.817 -1.729,5.736 -4.321,7.091 -1.302,0.518 -2.73,0.471 -4.106,0.567 -0.372,0.915 0.559,1.676 0.964,2.41 3.419,4.661 10.571,6.223 15.463,3.032 2.189,-1.457 3.917,-3.597 4.831,-6.063 0.355,-0.904 1.474,-1.65 2.396,-1.057 1.21,0.816 1.486,2.397 1.949,3.684 1.5,5.02 1.899,10.283 2.302,15.483 0.528,8.651 0.155,17.537 -2.71,25.788 -1.929,5.46 -5.371,10.661 -10.535,13.514 -5.975,3.326 -13.354,3.602 -19.795,1.533 -5.44,-1.794 -10.09,-5.532 -13.43,-10.141 -4.213,-5.727 -6.786,-12.568 -7.918,-19.56 -0.855,-5.72 -0.825,-11.525 -0.731,-17.293 0.169,-4.525 0.438,-9.094 1.547,-13.498 1.46,-5.062 4.226,-9.733 7.903,-13.495 2.713,-2.661 6.274,-4.45 10.054,-4.935 1.276,-0.2 2.565,-0.291 3.856,-0.316 z"
       id="path12"
       inkscape:connector-curvature="0"
       style="opacity:1;fill:#070707;fill-opacity:1;fill-rule:evenodd"
       inkscape:export-xdpi="95.32695"
       inkscape:export-ydpi="95.32695" />
    <path
       d="m 486.351,201.443 c 28.8,29.2 21.9,83.7 -14,110.8 -18.5,13.9 -38.2,19.9 -69.1,20.9 -21,0.7 -30.6,-0.8 -41.7,-6.2 -8.9,-4.4 -13.5,-9.5 -15.3,-16.9 -3.7,-15.5 6.6,-24.9 22.5,-20.5 9.5,2.6 13.8,12.4 7.5,17.1 -1.6,1.2 -3,2.5 -3,2.9 0,0.4 3.9,1.2 8.6,1.9 10,1.4 22,0.7 35.5,-2 8.9,-1.8 9.3,-1.8 11.8,-0.1 8.2,5.7 22.6,5.9 33.6,0.6 6.7,-3.3 16.8,-13.8 21.3,-22.2 8.5,-16 11.6,-45.7 6.7,-63.8 -2.3,-8.3 -8.5,-21.3 -12.3,-25.6 -1.8,-2 -3.2,-4.2 -3.2,-4.8 0,-2.1 4.2,0.9 11.1,7.9 z"
       id="path14"
       inkscape:connector-curvature="0"
       style="opacity:1;fill:#070707;fill-opacity:1"
       inkscape:export-xdpi="95.32695"
       inkscape:export-ydpi="95.32695" />
    <path
       d="m 447.169,188.911 c -5.544,0.188 -10.588,3.116 -14.657,6.701 -4.084,3.605 -7.868,7.706 -10.272,12.648 -4.623,8.9 -6.643,18.919 -7.224,28.872 -0.678,10.714 0.028,21.453 0.861,32.137 0.758,7.741 2.274,15.516 5.54,22.617 2.72,5.852 6.853,11.321 12.612,14.438 5.076,2.739 11.126,3.26 16.755,2.323 7.14,-1.205 13.734,-4.872 18.857,-9.936 4.629,-4.49 8.558,-9.729 11.321,-15.573 4.501,-9.34 6.443,-19.689 7.249,-29.965 0.437,-6.338 0.467,-12.735 -0.48,-19.031 -1.79,-12.783 -6.415,-25.281 -14.152,-35.673 -1.985,7.421 -5.255,14.42 -7.401,21.786 0.726,6.164 3.005,12.205 2.291,18.481 -0.841,4.98 -1.635,10.254 -4.75,14.401 -1.973,2.732 -5.971,4.103 -9.038,2.453 -1.603,-0.738 -3.043,-1.974 -4.792,-2.305 -0.798,0.412 -0.206,1.391 -0.315,2.059 -0.108,2.195 -0.354,4.426 0.198,6.586 0.825,4.053 3.193,8.059 7.036,9.875 2.98,1.343 6.51,1.066 9.411,-0.35 1.089,-0.398 2.129,-0.971 3.312,-1.014 0.467,0.627 -0.276,1.286 -0.432,1.897 -3.38,7.086 -11.316,11.89 -19.194,11.042 -4.579,-0.525 -8.581,-3.524 -11.031,-7.343 -3.902,-5.711 -5.222,-12.7 -5.532,-19.499 -0.279,-5.251 -0.226,-10.524 0.125,-15.769 0.894,-6.699 4.225,-13.001 4.053,-19.878 -0.654,-2.042 -1.613,-3.988 -2.036,-6.105 -1.242,-4.983 -1.221,-10.646 1.57,-15.125 1.774,-2.834 4.901,-5.004 8.312,-5.095 4.085,-0.385 8.084,1.065 12.164,0.828 1.535,-0.665 1.613,-2.823 0.721,-4.041 -1.077,-1.798 -3.313,-2.659 -5.343,-2.332 -1.914,0.005 -3.825,-0.151 -5.739,-0.11 z"
       id="path16"
       inkscape:connector-curvature="0"
       style="opacity:1;fill:#070707;fill-opacity:1"
       inkscape:export-xdpi="95.32695"
       inkscape:export-ydpi="95.32695" />
    <path
       d="m 373.206,173.133 c -8.688,0.299 -16.869,4.75 -22.664,11.086 -7.164,7.589 -11.479,17.458 -13.744,27.555 -3.104,13.621 -2.924,27.704 -2.429,41.584 0.168,5.183 0.247,10.411 1.397,15.491 1.53,7.682 4.137,15.171 7.963,22.018 6.865,-6.187 16.914,-8.118 25.75,-5.803 5.052,1.186 9.841,4.263 12.308,8.923 1.909,3.434 2.524,7.541 1.821,11.398 0.023,1.323 1.441,2.184 2.667,1.983 3.86,0.212 7.702,-1.621 11.529,-0.524 2.155,0.657 4.436,-0.837 5.244,-2.827 1.5,-2.77 2.511,-5.802 4.185,-8.467 3.492,-6.701 6.2,-14.097 5.982,-21.755 -0.143,-3.184 -1.053,-6.299 -0.948,-9.501 -0.636,-14.216 -1.089,-28.638 1.8,-42.649 0.424,-1.806 1.032,-3.691 0.482,-5.543 -1.658,-8.705 -5.809,-16.669 -10.402,-24.159 -4.806,-7.964 -12.228,-14.588 -21.184,-17.428 -3.146,-0.995 -6.456,-1.477 -9.757,-1.382 z m 1.48,27.855 c 3.947,-0.14 7.979,1.016 11.049,3.534 5.296,4.24 8.247,11.058 8.443,17.798 0.091,4.207 -0.319,8.431 -1.099,12.557 -1.132,5.658 -3.364,11.322 -7.582,15.406 -1.485,1.393 -3.173,2.67 -5.089,3.375 -3.258,0.088 -6.73,-0.791 -9.799,0.699 -1.653,1.003 -1.864,3.149 -1.852,4.899 -0.058,6.252 4.385,12.016 10.154,14.153 4.289,1.663 9.288,1.163 13.247,-1.146 0.368,-0.071 1.536,-1.027 1.214,-0.333 -2.503,6.171 -8.979,10.182 -15.528,10.431 -5.293,0.298 -10.9,-1.664 -14.24,-5.889 -3.56,-4.612 -5.865,-10.079 -7.424,-15.66 -2.939,-10.954 -2.43,-22.59 -0.384,-33.654 0.924,-4.733 2.592,-9.289 4.452,-13.733 1.612,-3.598 3.648,-7.165 6.719,-9.698 2.195,-1.705 4.934,-2.707 7.719,-2.739 z"
       id="path18"
       inkscape:connector-curvature="0"
       style="opacity:1;fill:#070707;fill-opacity:1;fill-rule:evenodd"
       inkscape:export-xdpi="95.32695"
       inkscape:export-ydpi="95.32695" />
    <path
       d="m 45.069,152.537 c -11.557,1.299 -22.458,8.753 -27.217,19.481 -3.369,7.698 -2.681,16.883 1.103,24.281 4.315,8.681 11.818,15.365 20.01,20.317 11.641,7.052 25.056,10.773 38.546,11.976 13.357,1.298 26.796,0.51 40.154,-0.36 1.552,-0.013 2.676,1.482 2.729,2.942 0.158,1.932 -0.014,3.89 0.357,5.807 0.528,3.348 0.356,6.765 0.08,10.13 -0.675,7.015 -2.658,13.82 -4.979,20.446 0,0.762 0.667,1.32 0.869,2.033 3.873,7.861 6.944,16.387 6.969,25.251 0.036,5.75 -1.832,11.31 -4.253,16.458 -2.714,6.284 -6.076,12.478 -7.016,19.336 -0.402,3.5 -0.2,7.22 1.537,10.361 1.793,1.782 4.538,1.698 6.873,1.461 4.195,-0.351 8.413,-0.22 12.61,-0.554 8.564,-0.44 17.163,-0.709 25.647,-2.047 1.073,-1.446 0.358,-3.458 -0.869,-4.571 -2.311,-2.805 -5.413,-5.232 -6.418,-8.876 -0.617,-2.383 0.112,-5.068 1.913,-6.756 0.767,-1.321 -0.056,-2.858 -0.635,-4.084 -0.998,-1.909 -2.274,-3.846 -2.213,-6.088 -0.57,-4.084 -1.254,-8.164 -1.342,-12.296 -0.429,-10.151 1.271,-20.591 6.215,-29.56 0.611,-1.068 0.551,-2.286 0.268,-3.454 -0.943,-4.425 -4.428,-7.65 -6.155,-11.729 -1.108,-2.39 -1.604,-4.99 -2.317,-7.508 -1.683,-6.926 -1.851,-14.087 -2.32,-21.166 16.151,-2.852 32.477,-4.641 48.582,-7.723 3.385,-6.049 3.039,-13.477 6.741,-19.393 0.569,-0.676 1.338,-1.68 0.699,-2.559 -0.999,-2.218 -3.491,-3.041 -5.58,-3.88 -2.437,-0.938 -5.103,-0.223 -7.637,-0.109 -5.468,0.518 -10.94,1.521 -15.984,3.765 -4.047,5.506 -12.628,6.972 -18.213,2.988 -2.151,-1.123 -4.676,-0.447 -6.844,0.264 -4.117,1.568 -7.744,4.222 -11.854,5.84 -3.385,1.439 -7.083,2.095 -10.76,1.941 -4.776,-0.064 -9.542,-0.563 -14.321,-0.386 -10.277,-0.226 -20.49,-1.944 -30.403,-4.603 -9.242,-2.53 -18.231,-6.004 -26.717,-10.456 -3.46,-2.292 -5.365,-7.048 -3.771,-11 1.233,-2.757 4.141,-4.167 6.825,-5.152 6.059,-2.164 12.663,-1.652 18.891,-0.581 1.48,0.173 2.965,0.786 4.454,0.487 0.883,-0.549 0.746,-1.819 0.147,-2.527 -1.363,-2.587 -3.623,-4.486 -5.597,-6.588 -7.559,-7.114 -17.735,-11.539 -28.158,-11.623 -0.215,0.021 -0.431,0.043 -0.646,0.064 z"
       id="path20"
       inkscape:connector-curvature="0"
       style="opacity:1;fill:#070707;fill-opacity:1"
       inkscape:export-xdpi="95.32695"
       inkscape:export-ydpi="95.32695" />
    <path
       d="m 259.95,136.539 c -2.332,0.396 -4.131,2.19 -5.177,4.226 -1.65,2.977 -2.485,6.584 -5.225,8.823 -0.945,0.88 -1.757,1.917 -2.797,2.72 -4.452,3.759 -10.187,5.878 -14.042,10.353 -0.672,1.029 -0.996,2.268 -1.392,3.429 -1.658,5.617 -1.533,12.025 1.437,17.191 0.52,0.953 1.584,1.43 2.446,2.03 4.454,2.686 10.064,2.759 14.923,1.201 4.907,-1.538 9.289,-4.573 12.566,-8.525 2.126,-2.355 4.398,-5.038 4.554,-8.363 -0.014,-0.465 -0.049,-0.917 0.404,-1.196 3.423,-3.697 7.651,-6.897 9.716,-11.628 0.524,-1.274 0.878,-2.604 1.343,-3.9 1.527,-5.412 -1.097,-11.525 -5.847,-14.432 -2.191,-1.397 -4.838,-1.965 -7.416,-1.774 -1.828,-0.116 -3.662,-0.121 -5.493,-0.155 z m 2.705,9.307 c 1.883,-0.041 3.776,1.085 4.424,2.861 1.149,2.994 0.099,6.744 -2.418,8.76 -0.615,0.406 -1.288,0.88 -2.025,0.953 -0.957,-0.352 -1.215,-1.521 -1.735,-2.299 -0.651,-1.267 -1.699,-2.762 -3.311,-2.645 -0.75,0.11 -1.482,0.288 -2.24,0.365 -3.251,0.531 -5.809,3.252 -6.638,6.368 -1.174,3.912 -0.156,8.677 3.199,11.214 0.734,0.559 1.561,0.993 2.433,1.29 -2.244,2.057 -5.335,3.216 -8.388,3.406 -1.976,0.113 -4.351,-0.476 -5.24,-2.437 -0.787,-1.581 -0.284,-3.349 -0.29,-5.02 0.495,-7.762 5.263,-14.894 11.729,-19.06 3.151,-2.035 6.758,-3.389 10.5,-3.756 z"
       id="path22"
       inkscape:connector-curvature="0"
       style="opacity:1;fill:#070707;fill-opacity:1;fill-rule:evenodd"
       inkscape:export-xdpi="95.32695"
       inkscape:export-ydpi="95.32695" />
    <path
       d="m 396.451,99.143 c 2.6,0.9 4.8,1.9 4.8,2.3 0,0.3 -1.8,1.6 -4,3 -3.8,2.4 -4,2.7 -4,7.7 0,2.9 -0.3,5.3 -0.8,5.3 -0.4,0 -2.4,-1.4 -4.5,-3.1 l -3.8,-3.1 -4.9,1.6 c -2.7,0.9 -5.1,1.6 -5.4,1.6 -0.3,0 0.3,-2.3 1.4,-5.1 l 2,-5.1 -3,-4.1 -3.1,-4.2 5.5,-0.3 c 5.3,-0.3 5.7,-0.5 8.8,-4.8 l 3.3,-4.6 1.4,5.6 c 1.4,5.3 1.7,5.6 6.3,7.3 z"
       id="path24"
       inkscape:connector-curvature="0"
       style="opacity:1;fill:#070707;fill-opacity:1"
       inkscape:export-xdpi="95.32695"
       inkscape:export-ydpi="95.32695" />
    <path
       d="m 447.544,69.939 c -1.882,0.47 -2.608,3.32 -1.082,4.567 1.143,0.395 2.058,-0.833 2.156,-1.853 0.407,-0.86 0.518,-2.349 -0.589,-2.723 -0.159,-0.039 -0.328,-0.032 -0.485,0.01 z"
       id="path26"
       inkscape:connector-curvature="0"
       style="opacity:1;fill:#070707;fill-opacity:1"
       inkscape:export-xdpi="95.32695"
       inkscape:export-ydpi="95.32695" />
    <path
       d="m 442.337,66.633 c -2.556,0.576 -4.564,3.204 -4.352,5.827 0.43,1.008 2.069,0.968 2.473,-0.048 1.371,-1.568 2.172,-3.677 2.07,-5.736 -0.054,-0.042 -0.125,-0.057 -0.191,-0.043 z"
       id="path28"
       inkscape:connector-curvature="0"
       style="opacity:1;fill:#070707;fill-opacity:1"
       inkscape:export-xdpi="95.32695"
       inkscape:export-ydpi="95.32695" />
    <path
       d="m 430.296,62.613 c -2.326,1.186 -3.174,4.058 -2.806,6.495 0.145,0.916 0.847,1.743 1.749,1.992 1.315,-2.202 2.654,-4.786 1.935,-7.422 -0.151,-0.406 -0.288,-1.165 -0.878,-1.065 z"
       id="path30"
       inkscape:connector-curvature="0"
       style="opacity:1;fill:#070707;fill-opacity:1"
       inkscape:export-xdpi="95.32695"
       inkscape:export-ydpi="95.32695" />
    <path
       d="m 412.542,62.811 c -1.363,0.763 -1.428,2.589 -1.056,3.908 0.037,1.027 1.6,1.887 2.245,0.865 0.632,-1.205 0.463,-2.71 -0.003,-3.943 -0.186,-0.421 -0.652,-1.136 -1.186,-0.83 z"
       id="path32"
       inkscape:connector-curvature="0"
       style="opacity:1;fill:#070707;fill-opacity:1"
       inkscape:export-xdpi="95.32695"
       inkscape:export-ydpi="95.32695" />
    <path
       d="m 293.397,56.66 c -4.942,3.429 -7.563,9.749 -10.322,15.03 -4.695,11.309 -5.381,24.183 -3.313,36.144 2.125,6.539 7.948,14.735 15.703,13.279 5.174,-3.656 6.026,-11.227 10.491,-15.4 5.096,-5.918 11.525,-11.734 11.629,-20.213 1.54,-2.434 0.405,-7.749 -3.135,-5.301 -3.174,3.108 -9.308,3.748 -9.473,9.241 -1.306,5.581 -2.344,12.604 -7.055,16.316 -5.934,0.798 -6.638,-7.319 -6.447,-11.557 0.731,-11.583 -1.521,-24.021 4.215,-34.64 0.528,-1.491 -0.636,-3.322 -2.293,-2.899 z"
       id="path34"
       inkscape:connector-curvature="0"
       style="opacity:1;fill:#070707;fill-opacity:1"
       inkscape:export-xdpi="95.32695"
       inkscape:export-ydpi="95.32695" />
    <path
       d="m 310.204,53.311 c -2.253,0.722 -3.32,3.2 -3.471,5.396 -0.128,1.521 -0.053,3.132 0.537,4.541 1.67,1.096 3.95,0.294 5.08,-1.21 1.607,-1.83 2.434,-4.676 1.218,-6.922 -0.682,-1.139 -2.004,-1.982 -3.364,-1.805 z"
       id="path36"
       inkscape:connector-curvature="0"
       style="opacity:1;fill:#070707;fill-opacity:1"
       inkscape:export-xdpi="95.32695"
       inkscape:export-ydpi="95.32695" />
    <path
       d="m 426.762,32.852 c -2.546,0.53 -4.085,2.875 -5.082,5.094 -2.027,4.859 -2.771,10.112 -4.442,15.09 -0.163,0.518 -0.228,1.167 -0.577,1.562 -6.917,0.677 -14.047,1.495 -20.261,4.83 -1.875,0.912 -3.367,3.026 -2.814,5.172 0.442,2.982 2.499,5.617 5.12,7.032 0.693,0.374 1.828,0.11 1.837,-0.817 0.094,-1.571 -1.393,-2.56 -2.173,-3.749 -0.228,-0.327 -0.506,-0.77 -0.115,-1.093 1.011,-1.361 2.563,-2.192 4.027,-2.979 4.207,-1.986 8.989,-2.054 13.542,-1.713 0.943,0.005 2.03,0.044 2.798,-0.564 0.514,-0.797 -0.301,-1.864 -1.204,-1.754 -0.581,-0.061 -1.182,-0.178 -1.638,-0.572 1.21,-0.544 2.521,0.026 3.771,0.069 6.079,0.902 12.018,2.554 17.951,4.113 5.637,1.573 11.359,3.75 15.595,7.939 0.942,0.836 1.82,1.886 2.947,2.426 0.597,-0.361 0,-1.029 -0.174,-1.466 -1.266,-3.005 -3.204,-5.886 -6.103,-7.518 -3.845,-2.64 -8.411,-3.971 -12.835,-5.282 -0.423,-0.577 0.101,-1.251 0.05,-1.879 0.765,-5.743 1.88,-11.511 1.508,-17.328 -0.474,-2.344 -1.983,-4.604 -4.21,-5.615 -0.844,-0.063 -1.254,0.877 -1.228,1.595 -0.578,3.57 -1.056,7.185 -1.167,10.793 0.384,0.597 1.268,-0.029 1.224,-0.617 0.601,-2.489 1.017,-5.08 2.312,-7.328 0.39,4.249 -0.961,8.369 -1.787,12.484 -0.479,2.082 -1.098,4.135 -1.917,6.112 -3.23,-0.206 -6.639,-0.371 -9.507,-2.032 -0.743,-0.837 -0.026,-1.946 0.005,-2.896 0.808,-5.001 1.663,-10.025 3.29,-14.836 0.468,-0.189 0.3,0.56 0.276,0.81 -0.261,2.747 -1.19,5.449 -0.838,8.235 0.399,0.679 1.566,0.158 1.482,-0.574 1.137,-3.718 1.995,-7.556 2.319,-11.425 -0.22,-0.843 -1.138,-1.381 -1.981,-1.319 z"
       id="path38"
       inkscape:connector-curvature="0"
       style="opacity:1;fill:#070707;fill-opacity:1"
       inkscape:export-xdpi="95.32695"
       inkscape:export-ydpi="95.32695" />
    <path
       d="m 338.335,47.815 c -4.599,1.426 -3.416,-4.859 -3.311,-7.489 -0.013,-1.435 -1.585,-3.856 -2.654,-1.242 -8.598,10.023 -13.673,22.94 -24.162,31.344 -6.282,0.37 -5.965,-6.854 -5.928,-10.92 -4.291,2.14 -5.745,7.928 -7.043,12.178 -0.725,7.927 9.134,12.094 14.976,7.263 5.837,-3.87 9.589,-10.017 14.196,-15.138 0.271,8.792 -2.93,17.743 -2.324,26.271 4.565,0.484 8.356,-3.282 8.082,-7.844 3.964,-18.112 13.264,-35.004 27.023,-47.523 -2.217,14.637 -10.015,28.225 -10.646,42.971 0.452,7.953 9.113,14.418 16.56,10.584 11.656,-3.575 21.613,-11.061 29.456,-20.186 -1.722,-3.499 -1.455,-8.158 2.529,-10.007 5.55,-3.543 13.92,-3.421 16.299,-10.735 4.191,-7.165 6.281,-18.34 -0.473,-24.447 -6.845,-2.7 -15.302,1.985 -18.736,7.941 0.523,1.973 4.324,0.254 5.883,1.83 5.303,2.446 2.848,9.036 0.428,12.696 -7.153,14.022 -18.686,27.616 -34.55,31.025 -4.48,0.745 -8.457,-3.664 -6.727,-8.033 1.658,-18.942 18.089,-46.743 16.854,-53.35 -7.975,-4.276 -32.24,27.816 -35.732,32.811 z"
       id="path40"
       inkscape:connector-curvature="0"
       style="opacity:1;fill:#070707;fill-opacity:1"
       inkscape:export-xdpi="95.32695"
       inkscape:export-ydpi="95.32695" />
    <path
       d="m 374.56,0.64 c -13.115,1.027 -24.392,9.811 -32.117,19.954 -0.806,1.01 -2.538,-1.341 -3.96,-1.163 -7.087,-1.624 -14.11,2.895 -17.176,9.189 -2.582,3.445 -3.482,8.761 -7.385,10.843 -11.015,-4.427 -22.961,2.157 -30.406,10.19 -3.394,2.967 -5.272,7.924 -8.529,10.423 -8.545,0.405 -18.43,-1.095 -25.376,5.161 -4.893,3.887 -8.33,9.201 -11.997,14.172 -7.624,-0.761 -15.833,-0.677 -22.381,3.876 -8.756,4.696 -15.911,13.305 -26.15,14.647 C 180.82,97.55 176.099,89.321 169.405,85.636 163.764,77.556 158.148,69.058 149.643,63.653 131.351,51.325 107.316,50.756 86.692,56.817 69.684,61.834 55.114,74.74 49.068,91.54 c -6.072,14.302 -4.581,30.221 -4.817,45.356 -16.323,0.43 -32.278,9.862 -39.393,24.745 -7.489,15.65 -4.628,34.959 4.166,49.472 13.335,19.887 37.436,29.021 60.277,32.274 11.566,1.806 23.296,1.491 34.958,1.692 -1.852,6.437 -5.383,12.768 -5.39,19.566 2.828,9.571 9.648,17.994 9.634,28.284 0.975,13.019 -6.803,24.485 -11.18,36.388 -2.623,8.915 -1.971,19.881 4.467,27.053 4.737,3.505 11.334,1.887 16.804,2.832 16.125,0.739 32.369,-0.821 47.929,-5.179 8.022,-0.966 16.764,1.83 24.294,-2.389 5.248,-2.577 11.673,-0.916 16.622,-4.027 2.005,-1.355 3.174,-4.134 5.239,-5.081 8.787,6.106 20.105,3.111 29.961,2.541 24.611,-2.533 49.003,-7.031 73.651,-9.124 7.298,0.239 14.239,-2.553 21.263,-3.684 7.143,3.519 13.463,8.788 21.156,11.319 27.703,10.33 58.994,9.925 86.955,0.757 29.505,-9.538 55.836,-31.285 66.871,-60.754 7.901,-20.399 9.568,-43.571 2.154,-64.371 -4.92,-14.616 -12.803,-29.097 -25.781,-37.982 -1.559,-5.836 1.166,-12.018 1.772,-17.875 3.75,-20.447 8.49,-40.782 11.056,-61.409 -0.013,-5.837 -6.604,-11.337 -12.148,-7.955 -7.779,2.652 -15.167,7.504 -22.856,9.618 -0.934,-4.809 -6.396,-7.932 -10.92,-5.706 -2.998,0.989 -5.833,2.395 -8.68,3.743 6.654,-9.067 16.149,-16.911 19.303,-28.096 1.41,-8.54 -4.655,-16.556 -11.882,-20.443 -1.783,-1.433 -5.447,-2.125 -4.043,-5.174 2.324,-8.488 -0.405,-18.94 -8.793,-22.991 -4.603,-2.862 -11.207,-1.741 -16.083,-3.363 -2.897,-4.725 -5.601,-10.536 -11.721,-10.961 -6.163,-1.234 -12.401,0.089 -18.346,1.651 C 391.696,6.015 385.227,0.788 377.555,0.713 376.559,0.633 375.559,0.598 374.56,0.64 Z m 1.032,8.561 c 5.653,-0.451 11.839,2.495 12.866,8.53 0.479,2.338 1.5,8.426 5.136,5.91 5.699,-4.86 13.682,-6.893 20.696,-3.738 3.253,2.327 4.48,6.228 5.005,9.923 2.904,2.888 8.558,-0.499 12.118,0.505 4.77,0.436 11.793,2.619 11.038,8.662 0.538,5.35 -0.845,10.488 -1.229,15.586 2.162,3.946 7.918,3.468 10.949,6.445 4.627,2.713 8.537,8.507 5.242,13.752 -7.118,13.275 -20.174,22.983 -25.117,37.504 -2.905,6.475 -0.14,6.007 4.784,2.9 7.077,-3.127 14.754,-7.578 21.682,-9.625 0.157,3.471 -1.755,7.563 0.221,10.787 11.516,-4.779 22.665,-11.147 34.421,-14.858 0.752,5.503 -1.76,11.132 -2.257,16.648 -3.75,21.097 -8.114,42.148 -11.936,63.191 1.886,5.447 8.16,7.663 11.566,12.045 14.736,16.095 21.986,38.324 20.415,59.864 -1.449,21.602 -10.167,42.914 -25.937,57.98 -18.344,17.834 -43.228,29.256 -68.624,31.03 -20.515,1.9 -41.825,0.532 -60.653,-8.776 -7.688,-3.361 -15.11,-11.271 -24.236,-8.777 -10.663,4.229 -22.532,3.015 -33.696,4.976 -23.603,2.674 -47.127,7.399 -70.779,8.724 -5.056,0.173 -9.826,-1.969 -13.327,-5.503 -3.943,-2.805 -9.339,1.928 -9.377,6.136 -3.114,3.89 -9.029,1.753 -13.267,3.445 -5.26,1.702 -10.183,5.411 -16.057,3.892 -10.024,-2.249 -19.443,3.449 -29.396,3.72 -12.473,0.892 -25.107,1.526 -37.583,0.127 -4.931,-0.942 -3.944,-7.358 -4.493,-10.97 0.415,-12.599 9.847,-22.553 11.906,-34.859 2.518,-12.641 -0.349,-26.174 -7.576,-36.826 -3.39,-8.08 3.39,-15.4 4.497,-23.255 0.555,-2.481 0.513,-5.044 0.781,-7.563 -27.072,0.473 -56.168,1.156 -80,-13.652 -13.652,-7.689 -23.873,-21.93 -24.401,-37.879 -0.993,-11.055 2.011,-23.139 10.902,-30.563 8.963,-8.868 22.167,-9.611 33.979,-10.109 -0.246,-2.657 -1.731,-6.848 -1.406,-10.306 -0.344,-14.893 -1.278,-30.704 6.121,-44.273 7.15,-15.672 23.238,-25.549 39.98,-27.71 19.479,-3.301 42.322,0.181 55.864,16.102 4.68,4.594 5.98,12.305 12.353,15.123 6.534,5.427 13.191,12.87 22.502,12.477 11.872,-0.228 20.191,-10.275 29.858,-15.694 6.369,-4.668 14.488,-2.784 21.716,-2.243 6.17,-6.791 10.311,-17.057 19.995,-19.541 6.006,-1.377 12.398,0.965 18.271,-0.613 6.029,-6.274 9.975,-14.733 17.963,-19.016 5.194,-4.263 11.825,-2.163 17.682,-1.258 7.356,-1.186 9.723,-9.621 13.427,-14.954 1.794,-2.162 4.7,-7.005 7.954,-5.247 1.477,2.082 1.266,7.591 5.079,6.259 8.498,-7.393 13.93,-18.846 25.074,-22.953 2.903,-1.293 6.177,-1.421 9.304,-1.482 z"
       id="path42"
       inkscape:connector-curvature="0"
       style="opacity:1;fill:#070707;fill-opacity:1;fill-rule:evenodd"
       inkscape:export-xdpi="95.32695"
       inkscape:export-ydpi="95.32695" />
  </g>
</svg>
