<?xml version="1.0" encoding="UTF-8" standalone="no"?><!-- Generator: Gravit.io --><svg xmlns="http://www.w3.org/2000/svg" xmlns:xlink="http://www.w3.org/1999/xlink" style="isolation:isolate" viewBox="464.809 278.63 1024.1 706.174" width="1024.1pt" height="706.174pt"><defs><clipPath id="_clipPath_WSpspJqYDhuNbxGgrSuTtaSoAlrAEUdl"><rect x="464.809" y="278.63" width="1024.1" height="706.174"/></clipPath></defs><g clip-path="url(#_clipPath_WSpspJqYDhuNbxGgrSuTtaSoAlrAEUdl)"><g><path d=" M 1222.734 281.499 C 1228.49 283.285 1241.589 295.591 1243.376 300.751 C 1243.971 302.339 1247.147 302.141 1254.093 299.957 C 1267.193 295.988 1285.056 297.179 1292.4 302.339 C 1295.377 304.721 1299.545 309.683 1301.728 313.454 C 1305.301 320.004 1306.293 320.599 1316.614 321.393 C 1343.409 323.378 1357.303 341.042 1352.341 366.646 C 1350.951 373.99 1351.15 375.975 1353.73 377.563 C 1371.792 388.876 1375.563 392.25 1379.731 400.388 C 1388.464 417.854 1384.891 427.579 1357.699 459.931 C 1347.18 472.436 1338.844 482.955 1339.042 483.153 C 1339.439 483.352 1345.195 480.97 1352.142 477.596 C 1369.608 469.26 1374.769 468.466 1379.929 473.626 C 1382.311 476.008 1384.097 479.184 1384.097 480.772 C 1384.097 485.535 1388.067 484.344 1412.48 472.833 C 1424.984 466.878 1437.488 461.916 1439.87 461.916 C 1447.015 461.916 1453.565 469.458 1453.565 477.795 C 1453.565 481.764 1447.809 514.712 1440.862 550.835 C 1422.999 642.929 1423.396 632.013 1436.496 642.135 C 1467.061 665.754 1491.077 725.298 1488.696 771.544 C 1484.131 860.462 1428.953 928.541 1338.646 956.923 C 1273.346 977.366 1193.359 970.42 1147.113 940.052 C 1131.632 929.731 1131.235 929.731 1123.296 932.113 C 1108.41 936.48 1099.478 938.067 1088.363 938.266 C 1082.409 938.266 1062.363 940.449 1043.706 943.228 C 1025.247 945.808 987.933 950.77 961.138 954.144 C 909.534 960.496 897.427 960.297 886.312 952.953 C 881.747 949.976 881.35 950.175 875.197 957.32 C 869.441 964.068 867.655 964.664 856.937 965.458 C 850.585 966.053 841.257 968.236 836.295 970.42 C 829.547 973.595 824.188 974.588 813.47 974.191 C 805.928 973.794 797.79 973.595 795.607 973.595 C 793.424 973.397 784.492 975.382 775.759 977.763 C 754.919 983.321 719.986 986.099 690.611 984.115 C 667.786 982.725 666.794 982.527 662.427 976.969 C 656.274 969.229 652.9 954.144 654.29 940.449 C 654.885 932.51 658.061 923.38 665.405 908.494 C 683.069 872.569 683.466 848.156 667.588 817.789 C 663.221 809.652 659.649 800.522 659.649 797.743 C 659.649 794.766 662.427 784.842 665.603 775.513 C 668.977 766.383 671.557 758.642 671.557 758.245 C 671.557 757.849 658.855 757.65 643.373 757.65 C 569.341 757.65 510.789 734.428 482.605 694.137 C 465.933 670.121 460.177 632.807 468.91 606.409 C 479.43 575.645 507.415 553.415 540.363 550.041 L 551.478 548.85 L 551.478 518.681 C 551.676 484.741 554.455 469.855 565.371 447.03 C 583.631 408.922 622.732 385.7 673.542 383.12 C 724.154 380.341 763.453 398.601 786.675 435.32 C 791.042 442.267 795.607 448.023 796.599 448.023 C 797.592 448.023 803.943 452.985 810.691 458.939 C 830.738 476.802 840.662 476.405 869.441 455.763 C 895.64 436.908 903.182 433.732 920.252 434.526 L 933.748 435.122 L 943.474 421.823 C 949.627 413.487 956.573 406.541 962.726 402.968 C 971.062 398.006 974.436 397.411 990.91 397.014 L 1009.567 396.617 L 1015.919 387.09 C 1033.186 361.486 1060.576 347.592 1079.63 354.738 C 1086.577 357.516 1088.76 355.531 1097.692 338.462 C 1101.661 330.92 1107.417 322.981 1110.593 320.798 C 1118.731 314.843 1130.242 313.652 1136.792 318.019 C 1139.571 320.004 1141.953 320.599 1141.953 319.408 C 1141.953 314.248 1164.778 293.011 1176.29 287.255 C 1195.344 277.926 1206.26 276.537 1222.734 281.499 Z  M 1189.389 291.82 C 1173.709 297.576 1165.572 304.721 1145.327 329.531 C 1141.159 334.691 1136.991 338.859 1135.8 338.859 C 1134.808 338.859 1133.418 336.08 1132.624 332.706 C 1129.846 318.416 1116.15 324.37 1105.433 344.417 C 1096.898 360.89 1089.753 367.44 1082.409 365.654 C 1067.523 362.081 1061.172 362.28 1053.034 366.448 C 1041.522 372.402 1031.797 381.334 1022.667 394.632 C 1018.499 400.785 1013.934 406.342 1012.544 406.938 C 1011.155 407.334 1003.216 407.334 994.88 406.739 C 972.849 405.548 965.306 409.319 949.627 429.961 L 937.321 446.038 L 923.03 444.847 C 905.961 443.259 900.602 445.442 874.998 464.099 C 856.143 477.795 847.211 481.764 836.295 481.764 C 824.783 481.764 815.256 477.199 803.546 466.084 C 797.989 460.725 791.637 455.962 789.454 455.168 C 787.469 454.572 783.5 449.809 780.721 444.649 C 762.064 409.518 723.559 390.662 675.527 393.044 C 615.983 396.021 579.662 423.411 565.173 475.81 C 562.394 485.535 561.6 496.253 561.401 518.483 C 561.401 534.758 561.997 550.636 562.791 553.415 L 564.379 558.576 L 547.905 559.766 C 526.668 561.156 511.186 567.11 498.087 579.217 C 483.399 592.714 476.651 607.401 475.46 628.44 C 473.475 665.953 488.361 695.526 520.316 716.565 C 553.462 738.596 594.151 748.123 651.709 747.528 L 682.474 747.329 L 681.878 754.871 C 681.481 759.039 679.1 767.772 676.321 774.322 C 668.382 793.773 668.183 800.72 675.328 811.636 C 683.069 823.942 687.237 836.049 688.627 852.523 C 690.413 871.577 686.84 886.661 675.328 910.479 C 664.412 932.51 662.229 942.037 664.412 957.121 C 666.992 973.595 668.183 973.992 709.665 973.992 C 744.995 973.794 761.865 972.007 785.484 965.458 C 792.233 963.671 798.187 963.274 805.332 964.465 C 817.241 966.45 824.783 965.061 834.112 959.702 C 838.478 957.32 845.425 955.732 852.769 955.335 C 864.479 954.938 870.036 951.564 870.036 945.213 C 870.036 942.037 876.586 936.281 880.357 936.281 C 881.945 936.281 885.319 938.464 887.9 941.243 C 890.678 944.22 896.434 946.801 902.984 948.19 C 913.9 950.572 929.977 948.785 1026.835 935.09 C 1045.889 932.312 1072.485 929.334 1085.982 928.342 C 1101.265 927.151 1112.578 925.166 1116.547 923.182 C 1125.876 918.418 1135.403 920.601 1153.068 931.915 C 1170.931 943.228 1197.527 952.556 1222.932 956.129 C 1249.528 960.099 1299.148 957.717 1322.966 951.366 C 1391.242 933.304 1444.038 890.036 1465.672 834.461 C 1474.802 811.041 1479.963 779.086 1478.573 756.261 C 1475.795 712.992 1455.153 669.525 1426.572 646.7 C 1416.251 638.364 1414.068 635.585 1414.861 632.013 C 1419.228 612.959 1443.641 483.352 1443.641 479.184 C 1443.641 476.207 1442.45 473.23 1440.862 472.634 C 1439.473 472.039 1423.595 478.39 1405.731 486.528 C 1388.067 494.864 1373.181 501.612 1372.982 501.612 C 1372.784 501.612 1372.982 496.65 1373.578 490.497 C 1374.769 479.382 1374.769 479.382 1370.005 480.772 C 1367.425 481.566 1355.119 486.925 1342.615 492.879 L 1320.187 503.597 L 1321.576 498.039 C 1323.958 488.512 1333.882 473.428 1352.341 451 C 1370.799 428.572 1375.761 418.846 1373.379 409.121 C 1371.395 401.182 1359.883 391.258 1348.172 387.09 C 1339.836 384.112 1338.447 382.922 1339.439 379.547 C 1342.218 370.814 1342.814 347.394 1340.432 343.027 C 1336.462 335.485 1321.775 330.325 1308.278 331.714 C 1297.362 332.706 1296.766 332.706 1296.766 328.34 C 1296.766 321.988 1289.621 311.271 1283.667 309.087 C 1272.155 304.522 1250.918 309.087 1240.994 318.217 C 1238.017 320.996 1237.421 320.401 1235.238 311.469 C 1231.665 296.583 1224.52 290.629 1208.84 289.835 C 1201.893 289.438 1193.359 290.43 1189.389 291.82 Z " fill-rule="evenodd" fill="rgb(0,0,0)" vector-effect="non-scaling-stroke" stroke-width="0.1" stroke="rgb(0,0,0)" stroke-linejoin="miter" stroke-linecap="square" stroke-miterlimit="3"/><path d=" M 1203.481 306.706 C 1203.481 311.668 1195.542 334.096 1186.611 354.738 C 1169.74 393.639 1164.976 419.64 1173.908 424.404 C 1184.03 429.763 1205.466 420.831 1224.719 403.365 C 1236.826 392.647 1253.895 368.036 1257.269 356.722 C 1260.445 346.004 1256.078 338.859 1245.956 338.859 C 1239.604 338.859 1239.207 338.462 1241.192 334.691 C 1244.765 328.141 1260.842 319.011 1268.979 319.011 C 1280.69 319.011 1285.85 326.157 1285.85 342.432 C 1285.85 353.944 1284.858 357.516 1278.903 368.433 C 1272.155 380.54 1271.361 381.135 1260.048 384.708 C 1253.3 386.693 1245.956 390.265 1243.574 392.449 C 1239.009 396.815 1237.62 405.945 1241.192 409.518 C 1244.169 412.495 1216.779 433.931 1198.718 443.061 C 1190.977 447.03 1180.061 450.603 1174.702 451.198 C 1165.77 452.389 1163.984 451.794 1158.427 447.229 C 1150.686 440.679 1147.113 430.557 1148.701 419.64 C 1149.495 415.075 1154.258 397.609 1159.617 380.937 C 1165.373 362.875 1168.549 350.173 1167.358 349.577 C 1162.793 346.6 1142.35 372.005 1130.441 395.426 C 1124.487 407.533 1117.341 428.969 1115.357 442.267 C 1114.364 448.023 1112.975 449.611 1107.02 451.794 C 1103.249 453.183 1099.677 453.977 1099.28 453.58 C 1098.883 453.183 1100.074 441.473 1102.058 427.579 C 1103.845 413.686 1105.036 402.372 1104.44 402.372 C 1103.646 402.372 1099.28 407.334 1094.318 413.487 C 1079.432 432.144 1068.714 438.099 1057.202 433.931 C 1050.851 431.946 1046.683 425.198 1046.683 417.655 C 1046.881 411.701 1053.233 398.204 1057.798 394.036 C 1061.37 390.861 1061.569 391.059 1060.973 398.998 C 1060.378 405.548 1061.172 408.327 1064.347 411.304 C 1072.485 418.449 1077.447 414.083 1101.265 378.952 C 1120.715 349.974 1123.097 346.997 1124.685 351.165 C 1125.677 353.745 1125.677 361.883 1125.082 369.623 L 1123.693 383.517 L 1135.403 365.058 C 1151.281 339.455 1172.519 317.026 1188 309.286 C 1202.092 302.141 1203.481 301.942 1203.481 306.706 Z " fill="rgb(0,0,0)" vector-effect="non-scaling-stroke" stroke-width="0.1" stroke="rgb(0,0,0)" stroke-linejoin="miter" stroke-linecap="square" stroke-miterlimit="3"/><path d=" M 1310.66 343.226 C 1310.461 344.615 1309.271 351.165 1307.881 357.715 C 1304.904 370.616 1303.912 367.043 1306.492 353.15 C 1308.08 344.814 1306.492 341.836 1303.713 348.188 C 1301.927 352.554 1296.766 378.357 1296.766 382.723 C 1296.766 385.502 1306.492 388.28 1318.004 388.677 C 1319.79 388.677 1326.141 362.677 1326.34 354.142 C 1326.538 346.004 1323.363 347.791 1320.981 357.119 L 1318.798 365.654 L 1319.988 354.738 C 1320.584 348.783 1321.378 343.424 1321.973 342.829 C 1322.569 342.233 1324.752 344.02 1326.935 346.798 C 1331.103 351.76 1331.103 356.325 1327.332 383.715 L 1326.141 391.655 L 1334.874 394.235 C 1347.974 398.204 1358.295 404.754 1361.669 411.304 L 1364.646 417.258 L 1359.089 411.899 C 1351.15 404.357 1338.447 399.197 1313.836 393.441 C 1291.011 388.082 1284.858 387.487 1284.858 390.464 C 1284.858 391.456 1286.247 392.449 1287.835 392.449 C 1289.423 392.449 1290.812 393.242 1290.812 394.036 C 1290.812 394.83 1287.636 395.227 1283.865 394.83 C 1272.552 393.441 1259.452 396.418 1253.498 401.38 C 1248.338 405.945 1248.139 405.945 1251.91 410.113 C 1256.674 415.472 1254.49 418.052 1249.33 413.487 C 1242.979 407.731 1240.795 399.395 1244.963 395.624 C 1249.925 391.059 1264.216 386.494 1277.514 385.105 L 1288.827 383.914 L 1291.804 373.792 C 1293.194 368.234 1295.377 360.295 1296.568 355.928 C 1298.751 347.592 1303.912 340.844 1308.08 340.844 C 1309.469 340.844 1310.66 342.035 1310.66 343.226 Z " fill="rgb(0,0,0)" vector-effect="non-scaling-stroke" stroke-width="0.1" stroke="rgb(0,0,0)" stroke-linejoin="miter" stroke-linecap="square" stroke-miterlimit="3"/><path d=" M 1318.004 371.013 C 1317.408 372.601 1316.813 372.005 1316.813 369.822 C 1316.614 367.639 1317.21 366.448 1317.805 367.242 C 1318.401 367.837 1318.599 369.623 1318.004 371.013 Z " fill="rgb(0,0,0)" vector-effect="non-scaling-stroke" stroke-width="0.1" stroke="rgb(0,0,0)" stroke-linejoin="miter" stroke-linecap="square" stroke-miterlimit="3"/><path d=" M 1079.829 387.685 C 1080.424 389.471 1079.233 392.449 1077.05 394.632 C 1073.279 398.403 1073.279 398.403 1074.073 391.456 C 1074.867 384.112 1077.646 382.326 1079.829 387.685 Z " fill="rgb(0,0,0)" vector-effect="non-scaling-stroke" stroke-width="0.1" stroke="rgb(0,0,0)" stroke-linejoin="miter" stroke-linecap="square" stroke-miterlimit="3"/><path d=" M 1040.53 398.8 C 1036.957 405.945 1036.163 411.304 1035.568 439.29 C 1034.774 464.893 1035.171 473.031 1037.553 478.787 C 1041.324 487.718 1049.065 491.093 1055.813 486.925 C 1060.576 483.749 1067.722 467.077 1069.706 453.779 C 1070.699 447.626 1072.287 445.244 1076.256 443.855 C 1079.035 442.664 1083.203 440.282 1085.188 438.496 C 1088.76 435.32 1088.959 435.32 1087.569 441.076 C 1086.974 444.252 1085.783 450.206 1084.989 453.977 C 1084.195 458.741 1079.829 465.092 1071.493 474.023 C 1064.347 481.566 1056.805 492.284 1053.63 499.23 C 1049.263 508.559 1046.881 511.536 1043.904 511.536 C 1036.56 511.536 1027.43 504.192 1022.667 494.268 C 1018.499 486.131 1017.903 481.963 1017.903 463.901 C 1017.903 438.694 1022.667 421.228 1034.576 402.769 C 1043.904 388.677 1046.683 386.693 1040.53 398.8 Z " fill="rgb(0,0,0)" vector-effect="non-scaling-stroke" stroke-width="0.1" stroke="rgb(0,0,0)" stroke-linejoin="miter" stroke-linecap="square" stroke-miterlimit="3"/><path d=" M 1280.293 408.724 C 1279.896 411.304 1279.499 409.716 1279.499 405.35 C 1279.3 400.983 1279.697 398.998 1280.293 400.785 C 1280.69 402.769 1280.69 406.342 1280.293 408.724 Z " fill="rgb(0,0,0)" vector-effect="non-scaling-stroke" stroke-width="0.1" stroke="rgb(0,0,0)" stroke-linejoin="miter" stroke-linecap="square" stroke-miterlimit="3"/><path d=" M 1314.63 406.541 C 1312.446 413.686 1310.66 416.266 1310.66 412.098 C 1310.66 407.136 1313.042 400.388 1314.63 400.388 C 1315.622 400.388 1315.622 403.166 1314.63 406.541 Z " fill="rgb(0,0,0)" vector-effect="non-scaling-stroke" stroke-width="0.1" stroke="rgb(0,0,0)" stroke-linejoin="miter" stroke-linecap="square" stroke-miterlimit="3"/><path d=" M 1335.271 414.281 C 1333.287 417.457 1331.302 419.64 1330.905 419.243 C 1329.912 418.251 1336.065 408.327 1337.653 408.327 C 1338.249 408.327 1337.058 410.907 1335.271 414.281 Z " fill="rgb(0,0,0)" vector-effect="non-scaling-stroke" stroke-width="0.1" stroke="rgb(0,0,0)" stroke-linejoin="miter" stroke-linecap="square" stroke-miterlimit="3"/><path d=" M 1348.569 419.64 C 1346.188 423.61 1345.791 422.419 1347.577 417.258 C 1348.371 415.472 1349.363 414.48 1349.76 415.075 C 1350.356 415.472 1349.76 417.655 1348.569 419.64 Z " fill="rgb(0,0,0)" vector-effect="non-scaling-stroke" stroke-width="0.1" stroke="rgb(0,0,0)" stroke-linejoin="miter" stroke-linecap="square" stroke-miterlimit="3"/><path d=" M 1247.544 471.245 C 1252.704 473.031 1257.071 475.016 1257.071 475.81 C 1257.071 476.405 1253.498 478.985 1249.131 481.764 C 1241.589 486.528 1241.192 487.123 1241.192 497.047 C 1241.192 502.803 1240.597 507.566 1239.604 507.566 C 1238.811 507.566 1234.841 504.788 1230.673 501.414 L 1223.131 495.261 L 1213.405 498.436 C 1208.046 500.223 1203.283 501.612 1202.687 501.612 C 1202.092 501.612 1203.283 497.047 1205.466 491.49 L 1209.436 481.367 L 1203.481 473.23 L 1197.328 464.893 L 1208.245 464.298 C 1218.764 463.703 1219.558 463.306 1225.711 454.771 L 1232.261 445.641 L 1235.039 456.756 C 1237.818 467.275 1238.414 467.871 1247.544 471.245 Z " fill="rgb(0,0,0)" vector-effect="non-scaling-stroke" stroke-width="0.1" stroke="rgb(0,0,0)" stroke-linejoin="miter" stroke-linecap="square" stroke-miterlimit="3"/><path d=" M 1004.605 550.636 C 1007.582 552.82 1011.155 558.179 1012.743 562.545 C 1016.712 573.461 1012.941 585.966 1002.422 598.073 C 981.78 621.493 953.596 621.89 953.398 598.668 C 953.398 589.737 959.352 581.798 967.49 580.011 C 974.238 578.423 979.2 581.599 979.2 587.157 C 979.2 592.317 982.177 591.92 986.941 585.767 C 992.498 578.82 993.689 573.858 991.109 569.095 C 983.566 555.003 951.81 570.881 941.29 593.905 C 937.122 603.035 936.328 618.715 939.901 622.287 C 943.077 625.463 951.214 625.264 957.367 621.692 C 960.146 620.104 965.505 618.715 969.276 618.715 C 973.047 618.516 979.597 617.325 983.765 615.936 C 987.735 614.348 991.109 613.951 991.109 614.745 C 991.109 618.119 977.017 633.601 969.276 638.761 C 959.352 645.509 950.42 647.494 937.916 645.708 C 924.42 643.922 919.061 637.769 918.267 623.28 C 917.87 616.928 918.664 607.798 920.053 603.035 C 922.435 595.294 924.023 593.508 933.55 588.546 C 947.642 581.401 962.131 566.912 965.505 556.789 C 966.894 552.423 969.871 548.056 972.055 547.064 C 979.2 544.087 998.452 546.071 1004.605 550.636 Z " fill="rgb(0,0,0)" vector-effect="non-scaling-stroke" stroke-width="0.1" stroke="rgb(0,0,0)" stroke-linejoin="miter" stroke-linecap="square" stroke-miterlimit="3"/><path d=" M 566.76 581.202 C 582.043 584.378 599.113 594.103 609.235 605.417 C 613.998 610.776 617.77 615.737 617.174 616.134 C 616.777 616.73 613.006 616.134 608.639 614.944 C 590.776 609.982 565.966 614.348 558.424 624.074 C 552.271 632.013 553.264 641.738 561.005 649.28 C 569.738 658.014 602.487 670.518 634.839 677.464 C 656.473 682.03 665.603 683.022 691.405 683.022 L 722.17 683.22 L 736.063 676.274 C 759.087 664.762 760.873 664.365 767.621 668.533 C 778.935 675.48 793.424 672.701 802.554 661.983 C 804.538 659.601 811.882 657.617 825.577 655.433 C 845.227 652.258 845.822 652.258 852.769 656.426 C 859.517 660.395 859.716 660.792 856.341 664.166 C 854.555 665.953 851.379 674.884 849.196 683.816 C 847.211 692.946 844.83 700.687 844.036 701.282 C 843.242 701.679 832.921 703.465 821.012 705.053 C 809.302 706.641 787.668 710.015 772.98 712.397 L 746.384 716.565 L 747.575 735.619 C 748.766 757.849 753.926 775.315 762.659 788.414 C 769.408 798.537 770.201 802.506 766.033 808.262 C 759.682 817.392 754.919 839.225 754.919 858.676 C 754.919 877.531 758.69 898.57 763.255 903.929 C 764.843 905.914 764.644 907.502 762.064 910.082 C 755.911 917.029 758.491 926.159 770.201 938.464 C 773.973 942.434 776.354 946.205 775.163 946.999 C 774.171 947.594 754.919 949.182 732.292 950.373 C 702.917 952.16 690.611 952.16 689.222 950.77 C 685.649 947.198 684.855 931.518 687.436 923.182 C 688.825 918.815 693.787 906.906 698.551 896.387 C 712.246 866.615 712.047 848.156 698.154 816.995 L 692.993 805.682 L 698.154 789.605 C 703.512 772.734 704.703 753.68 701.726 733.833 C 700.138 723.512 704.108 724.306 661.633 726.687 C 617.373 729.268 582.043 723.512 551.081 708.824 C 516.148 692.152 493.72 664.166 494.117 637.57 C 494.514 611.172 512.576 589.34 540.363 581.798 C 552.073 578.622 554.058 578.622 566.76 581.202 Z " fill="rgb(0,0,0)" vector-effect="non-scaling-stroke" stroke-width="0.1" stroke="rgb(0,0,0)" stroke-linejoin="miter" stroke-linecap="square" stroke-miterlimit="3"/><path d=" M 1229.085 627.646 C 1249.131 637.57 1263.62 657.021 1276.522 690.167 C 1280.888 701.679 1281.682 706.442 1280.491 711.007 C 1276.125 726.687 1274.735 739.39 1274.934 769.559 C 1274.934 787.62 1275.728 807.667 1276.919 814.217 C 1279.3 828.11 1276.125 840.019 1263.422 864.829 L 1255.88 879.715 L 1240.597 880.31 L 1225.314 880.906 L 1225.314 871.18 C 1225.314 859.271 1217.772 847.561 1206.061 841.805 L 1198.519 838.034 L 1209.436 837.836 C 1222.138 837.637 1230.673 833.866 1238.215 824.736 C 1243.971 817.988 1250.124 805.483 1248.536 803.896 C 1247.941 803.499 1245.36 805.285 1242.582 808.064 C 1228.49 822.156 1202.886 816.003 1197.328 797.346 C 1196.138 793.178 1195.542 787.62 1196.138 785.04 C 1197.328 780.872 1198.122 780.475 1208.245 781.071 C 1218.169 781.666 1219.558 781.269 1226.902 774.719 C 1236.627 765.986 1242.383 752.688 1245.36 733.237 C 1250.719 697.511 1233.452 670.319 1205.466 670.319 C 1196.336 670.319 1193.359 671.312 1187.404 676.075 C 1178.473 683.419 1171.129 697.114 1165.373 716.962 C 1158.823 739.985 1158.823 776.506 1165.572 796.949 C 1171.725 816.003 1179.664 827.912 1188.992 832.874 L 1196.534 836.645 L 1183.435 835.652 C 1169.343 834.461 1158.625 836.843 1149.495 843.393 L 1144.136 847.164 L 1139.968 839.026 C 1137.785 834.66 1134.014 823.347 1131.632 813.82 C 1127.861 798.735 1127.067 790.995 1127.067 757.65 C 1127.067 715.572 1129.846 696.717 1139.174 673.495 C 1157.037 629.433 1194.748 610.18 1229.085 627.646 Z " fill="rgb(0,0,0)" vector-effect="non-scaling-stroke" stroke-width="0.1" stroke="rgb(0,0,0)" stroke-linejoin="miter" stroke-linecap="square" stroke-miterlimit="3"/><path d=" M 1365.043 653.647 C 1366.83 654.242 1368.219 656.227 1368.219 657.815 C 1368.219 659.998 1367.028 660.197 1363.852 659.006 C 1361.272 658.212 1354.127 657.418 1347.974 657.418 C 1335.668 657.418 1329.119 661.586 1323.164 673.296 C 1318.996 681.037 1319.393 697.908 1323.76 707.038 C 1326.737 713.389 1326.935 715.771 1324.95 722.718 C 1318.004 746.535 1316.217 759.039 1317.21 778.49 C 1318.798 808.461 1325.347 825.133 1339.241 834.66 C 1361.471 849.546 1392.235 834.064 1398.785 804.293 L 1400.174 798.338 L 1396.601 802.705 C 1391.639 808.858 1378.937 813.82 1371.99 812.232 C 1363.257 810.247 1356.31 800.72 1356.31 790.399 L 1356.31 781.864 L 1362.066 784.643 C 1377.547 792.384 1391.044 776.307 1393.426 747.925 C 1394.22 738.596 1393.624 731.252 1391.242 723.313 C 1388.662 714.183 1388.464 711.007 1390.25 707.435 C 1391.639 705.053 1394.617 696.915 1397.197 689.373 L 1401.563 675.678 L 1406.724 683.419 C 1415.06 696.122 1423.595 722.321 1426.175 743.161 C 1429.747 773.131 1424.19 810.247 1411.884 836.645 C 1403.548 854.309 1382.906 874.951 1367.623 880.509 C 1344.997 888.845 1323.363 884.677 1310.858 869.592 C 1294.782 849.943 1288.629 825.728 1287.239 777.101 C 1286.049 729.466 1291.407 703.465 1307.286 679.648 C 1313.439 670.319 1331.699 655.83 1339.439 653.845 C 1345.394 652.456 1361.471 652.258 1365.043 653.647 Z " fill="rgb(0,0,0)" vector-effect="non-scaling-stroke" stroke-width="0.1" stroke="rgb(0,0,0)" stroke-linejoin="miter" stroke-linecap="square" stroke-miterlimit="3"/><path d=" M 1425.976 674.289 C 1483.138 732.245 1469.443 840.416 1398.189 894.204 C 1361.471 921.792 1322.37 933.701 1261.04 935.686 C 1219.36 937.075 1200.306 934.098 1178.274 923.38 C 1160.61 914.647 1151.48 904.525 1147.907 889.837 C 1140.563 859.073 1161.007 840.416 1192.565 849.149 C 1211.42 854.309 1219.955 873.76 1207.451 883.089 C 1204.275 885.471 1201.496 888.051 1201.496 888.845 C 1201.496 889.639 1209.237 891.226 1218.566 892.616 C 1238.414 895.394 1262.231 894.005 1289.026 888.646 C 1306.69 885.074 1307.484 885.074 1312.446 888.448 C 1328.722 899.761 1357.303 900.158 1379.135 889.639 C 1392.433 883.089 1412.48 862.248 1421.411 845.576 C 1438.282 813.82 1444.435 754.871 1434.709 718.947 C 1430.144 702.473 1417.839 676.671 1410.296 668.136 C 1406.724 664.166 1403.945 659.8 1403.945 658.609 C 1403.945 654.441 1412.281 660.395 1425.976 674.289 Z " fill="rgb(0,0,0)" vector-effect="non-scaling-stroke" stroke-width="0.1" stroke="rgb(0,0,0)" stroke-linejoin="miter" stroke-linecap="square" stroke-miterlimit="3"/><path d=" M 703.512 416.266 C 743.208 423.808 773.774 463.901 783.897 521.857 C 787.668 543.69 786.675 579.416 781.912 597.874 C 770.201 641.54 738.246 672.106 702.123 673.892 C 672.748 675.48 645.755 664.563 624.121 642.731 L 611.22 629.631 L 619.754 629.036 C 641.19 627.448 631.068 606.012 596.334 579.019 C 587.601 572.271 586.211 564.331 587.005 525.43 C 587.601 498.436 588.395 490.299 591.967 479.382 C 603.479 443.458 630.075 422.22 670.565 416.266 C 685.451 414.083 691.802 414.083 703.512 416.266 Z  M 659.053 474.023 C 649.923 478.787 641.19 490.497 636.427 504.192 C 632.06 517.093 631.465 556.591 635.633 573.064 C 643.969 606.607 664.809 626.654 691.405 626.654 C 718.994 626.654 735.269 607.798 739.04 572.072 C 742.216 540.315 733.88 493.474 728.124 511.536 C 727.528 513.521 724.154 517.689 720.979 520.468 C 710.856 528.804 694.581 526.62 686.046 515.506 C 682.871 511.536 682.871 507.963 686.046 508.162 C 692.993 508.36 695.573 506.971 698.551 501.414 C 703.116 492.482 700.734 483.55 692.199 476.008 C 686.642 470.848 683.665 469.855 675.924 469.855 C 670.565 470.054 663.42 471.642 659.053 474.023 Z " fill-rule="evenodd" fill="rgb(0,0,0)" vector-effect="non-scaling-stroke" stroke-width="0.1" stroke="rgb(0,0,0)" stroke-linejoin="miter" stroke-linecap="square" stroke-miterlimit="3"/><path d=" M 1312.446 418.251 C 1320.584 420.236 1331.5 424.205 1337.058 426.984 C 1342.417 429.763 1346.982 432.144 1347.379 432.144 C 1347.776 432.144 1348.966 429.366 1350.157 426.19 C 1351.15 422.816 1352.936 420.236 1354.127 420.236 C 1355.318 420.236 1353.928 424.999 1351.348 430.557 C 1347.974 438.297 1342.615 444.649 1331.5 454.374 C 1322.966 461.916 1315.423 467.871 1314.431 467.871 C 1313.439 467.871 1312.645 465.687 1312.645 462.909 C 1312.645 452.191 1296.766 445.442 1284.064 450.801 C 1280.293 452.389 1276.72 455.565 1275.926 457.748 C 1275.331 460.13 1273.941 461.916 1272.949 461.916 C 1270.17 461.916 1251.116 424.602 1252.307 421.426 C 1252.903 419.839 1255.88 417.655 1258.658 416.465 C 1267.987 413.09 1296.568 414.083 1312.446 418.251 Z  M 1262.43 419.64 C 1255.88 420.633 1253.895 424.205 1257.071 429.961 L 1259.254 434.129 L 1266.995 430.16 C 1271.361 427.976 1278.705 426.19 1283.865 426.19 C 1294.186 426.19 1294.583 428.969 1284.461 429.763 C 1271.163 430.755 1262.033 437.106 1267.59 441.87 C 1269.178 443.061 1274.14 442.664 1282.873 440.084 L 1295.774 436.511 L 1286.842 435.518 C 1281.88 435.122 1284.262 434.923 1292.003 435.122 C 1303.713 435.32 1308.08 436.511 1318.202 442.068 C 1330.111 448.817 1335.47 449.214 1330.508 443.061 C 1327.531 439.488 1318.798 434.328 1309.668 430.755 C 1305.301 429.167 1304.706 428.373 1307.683 428.373 C 1313.24 428.175 1327.332 434.923 1332.493 440.084 C 1336.462 444.053 1337.256 444.252 1339.836 441.473 C 1344.203 437.106 1341.623 434.328 1326.737 427.778 C 1311.057 420.633 1281.285 416.861 1262.43 419.64 Z " fill-rule="evenodd" fill="rgb(0,0,0)" vector-effect="non-scaling-stroke" stroke-width="0.1" stroke="rgb(0,0,0)" stroke-linejoin="miter" stroke-linecap="square" stroke-miterlimit="3"/><path d=" M 997.658 424.999 C 1001.231 426.587 1006.193 429.763 1008.773 432.144 C 1013.338 436.114 1013.537 436.709 1012.147 458.542 C 1010.361 486.726 1005.002 543.888 1004.01 544.88 C 1003.613 545.277 1000.04 544.682 996.269 543.293 C 989.322 541.109 989.124 540.911 989.124 529.995 L 989.124 519.078 L 982.971 524.239 C 976.223 529.995 963.52 531.185 954.39 527.017 C 931.168 516.498 938.512 461.122 966.696 433.732 C 978.406 422.419 986.544 420.037 997.658 424.999 Z  M 971.856 448.42 C 961.734 458.939 953.398 487.718 956.97 500.421 C 959.352 508.956 967.093 514.315 973.841 511.734 C 983.963 507.765 993.887 478.39 992.696 455.168 L 992.101 443.061 L 985.154 442.465 C 979.398 442.068 977.017 443.061 971.856 448.42 Z " fill-rule="evenodd" fill="rgb(0,0,0)" vector-effect="non-scaling-stroke" stroke-width="0.1" stroke="rgb(0,0,0)" stroke-linejoin="miter" stroke-linecap="square" stroke-miterlimit="3"/><path d=" M 1305.301 456.359 C 1309.866 458.741 1309.668 470.054 1304.706 489.703 C 1298.354 514.315 1282.873 595.294 1284.064 597.08 C 1285.85 600.256 1295.576 599.065 1302.324 594.897 C 1314.63 587.355 1324.95 566.515 1334.08 529.598 C 1338.844 510.742 1339.836 508.757 1346.188 504.391 C 1354.722 498.635 1360.28 498.238 1360.28 503.398 C 1360.28 505.383 1358.89 513.124 1357.501 520.666 C 1355.913 528.208 1352.142 546.667 1349.165 561.95 L 1344.004 589.34 L 1347.974 593.309 C 1355.318 600.653 1372.585 593.905 1378.937 581.401 C 1380.326 578.423 1384.891 562.148 1389.059 545.277 C 1398.388 506.177 1400.372 502.009 1412.877 495.261 C 1422.602 489.902 1429.747 488.115 1429.747 491.093 C 1429.747 493.474 1420.22 533.17 1412.678 562.148 C 1409.106 576.24 1403.747 600.058 1401.166 614.745 C 1389.456 677.266 1383.502 699.297 1374.57 709.817 C 1358.692 728.871 1332.294 715.374 1331.897 687.984 C 1331.699 666.747 1351.15 657.021 1362.86 672.701 C 1366.83 677.861 1366.83 678.06 1362.86 685.999 C 1360.478 690.564 1359.486 694.732 1360.478 695.328 C 1363.058 696.915 1370.204 684.014 1370.204 678.06 C 1370.204 675.083 1371.99 664.365 1373.975 654.044 C 1376.158 643.723 1378.54 628.242 1379.334 619.906 L 1380.723 604.424 L 1371.593 610.974 C 1362.066 617.722 1346.585 620.699 1335.668 617.921 C 1329.714 616.531 1324.553 607.6 1324.553 599.065 C 1324.553 591.523 1321.973 589.935 1317.805 594.699 C 1315.423 597.279 1314.828 600.058 1315.82 603.829 L 1317.21 609.386 L 1307.484 608.195 C 1297.163 607.004 1287.041 609.386 1292.797 611.569 C 1294.385 612.165 1305.103 614.944 1316.614 617.524 C 1339.836 623.081 1365.242 631.417 1369.41 634.791 C 1375.563 639.952 1372.585 642.334 1361.471 641.143 C 1345.394 639.555 1333.684 641.937 1322.767 649.479 L 1312.843 656.029 L 1300.339 651.464 C 1293.392 649.082 1282.674 645.906 1276.323 644.517 C 1266.995 642.731 1263.422 640.746 1258.063 634.99 C 1243.376 618.715 1214.596 607.203 1194.55 609.585 C 1179.664 611.371 1161.602 621.096 1150.487 633.402 C 1141.357 643.723 1140.563 644.12 1128.059 645.311 C 1120.914 646.105 1111.387 647.097 1106.623 647.693 L 1098.089 648.883 L 1099.28 677.068 C 1100.669 714.977 1101.86 722.718 1107.616 737.604 C 1112.181 748.917 1112.379 751.299 1110.196 756.459 C 1101.86 776.902 1098.486 788.414 1096.303 803.896 C 1092.531 831.484 1095.906 848.553 1107.814 861.256 C 1112.181 866.02 1112.975 868.997 1113.769 882.692 C 1114.563 895.196 1114.166 898.57 1111.982 898.769 C 1110.395 898.769 1107.814 899.166 1106.227 899.364 C 1104.639 899.761 1093.524 900.555 1081.417 901.349 C 1069.508 902.143 1055.614 903.135 1050.851 903.929 C 1040.728 905.318 1038.744 903.334 1038.744 891.226 C 1038.744 885.471 1041.125 878.325 1047.278 866.814 L 1055.614 850.538 L 1055.614 819.377 C 1055.614 789.208 1055.416 787.819 1050.255 777.696 C 1043.706 765.192 1043.507 763.604 1048.469 749.512 C 1053.828 734.626 1055.416 713.389 1053.63 683.419 C 1052.439 660.991 1051.843 658.212 1048.866 659.403 C 1047.08 660.197 1038.148 662.579 1028.82 664.563 C 1000.834 670.716 1002.223 669.128 1003.811 691.755 C 1005.796 718.947 1010.163 742.367 1016.315 757.253 L 1021.277 770.154 L 1016.911 788.216 C 1011.949 808.262 1008.972 835.454 1010.361 847.76 C 1012.147 865.623 1013.338 869.394 1019.69 876.341 C 1024.652 881.898 1026.636 886.264 1027.827 894.005 L 1029.217 904.326 L 1020.484 905.318 C 967.093 912.265 958.955 912.861 956.97 910.876 C 955.779 909.685 954.39 904.326 953.795 898.769 C 953.001 890.433 953.596 888.051 958.161 882.295 C 969.871 866.814 971.856 848.95 965.505 817.988 C 961.932 801.117 956.772 786.826 951.214 779.284 C 949.23 776.506 949.627 773.925 953.596 765.391 C 958.161 755.268 958.36 752.887 958.161 717.359 C 957.963 696.717 956.97 679.251 956.176 678.258 C 955.184 677.266 943.275 679.052 929.58 682.228 C 915.885 685.404 903.182 687.984 901.396 688.182 C 899.014 688.182 896.831 684.411 893.854 674.884 C 891.274 667.342 887.701 659.403 885.518 657.22 C 881.747 653.052 881.747 652.853 887.106 648.685 C 890.083 646.502 894.648 644.517 897.625 644.318 C 900.404 644.318 904.572 643.525 906.755 642.731 C 909.732 641.54 911.519 642.334 914.496 646.105 C 916.679 648.685 922.038 652.655 926.404 654.639 C 947.84 664.365 976.223 654.044 994.88 630.028 C 1002.62 619.906 1004.01 618.913 1013.537 617.722 C 1019.293 616.928 1033.583 614.745 1045.492 612.562 C 1057.401 610.577 1070.897 608.791 1075.264 608.791 C 1079.829 608.592 1088.76 607.6 1095.31 606.21 L 1107.02 603.63 L 1095.112 599.264 C 1077.646 592.912 1067.92 585.172 1061.966 572.668 C 1046.087 539.522 1059.385 493.871 1091.142 472.039 C 1125.479 448.221 1181.252 455.763 1186.809 484.94 C 1188.794 495.062 1183.435 515.903 1176.091 526.223 C 1163.785 544.087 1145.327 551.629 1130.044 545.277 C 1116.349 539.522 1111.585 521.857 1120.12 507.963 C 1130.044 491.688 1159.617 492.68 1159.816 509.353 C 1160.014 514.315 1160.014 514.315 1162.793 510.742 C 1167.358 504.589 1166.564 492.879 1161.007 486.329 C 1156.64 481.367 1154.854 480.772 1143.541 480.772 C 1111.387 480.97 1084.394 509.353 1084.394 543.491 C 1084.394 562.744 1091.142 572.072 1109.005 578.225 C 1140.96 588.943 1168.35 574.057 1197.13 529.995 C 1205.665 517.093 1209.039 513.719 1213.802 512.727 C 1225.314 510.345 1225.512 510.742 1220.947 521.857 C 1214.596 537.934 1209.237 561.354 1210.23 568.896 C 1210.825 572.469 1212.81 577.233 1214.596 579.217 C 1218.566 583.782 1229.284 584.179 1236.826 580.21 C 1252.307 572.072 1258.658 557.186 1269.178 502.803 C 1278.903 452.985 1279.896 450.801 1293.392 452.985 C 1297.957 453.779 1303.316 455.168 1305.301 456.359 Z  M 1286.049 458.145 C 1285.453 459.733 1282.277 477.398 1278.903 497.642 C 1275.529 517.887 1269.575 550.835 1265.804 570.683 C 1262.231 590.729 1259.055 608.592 1259.254 610.379 C 1259.452 618.913 1263.422 602.836 1270.964 562.148 C 1275.331 538.132 1281.484 504.986 1284.659 488.711 C 1288.033 471.443 1289.82 458.145 1288.629 457.153 C 1287.636 455.962 1286.644 456.359 1286.049 458.145 Z  M 1296.766 476.207 C 1295.377 484.146 1289.621 517.887 1283.667 551.033 C 1277.712 584.378 1273.147 612.363 1273.544 613.356 C 1273.941 614.944 1299.148 488.711 1302.125 469.26 C 1302.721 464.695 1302.522 461.916 1301.133 461.916 C 1299.942 461.916 1297.957 468.466 1296.766 476.207 Z  M 1178.671 574.255 C 1172.32 581.401 1162.595 590.134 1157.037 593.706 L 1146.915 599.859 L 1184.626 601.05 C 1218.566 602.241 1228.093 603.035 1242.582 606.012 C 1247.742 607.004 1250.124 603.432 1252.109 591.126 L 1253.498 582.195 L 1245.559 588.546 C 1227.497 603.035 1212.016 604.027 1201.496 591.325 C 1195.741 584.179 1190.183 567.11 1192.565 563.141 C 1193.16 562.148 1192.962 561.156 1191.969 561.156 C 1191.176 561.156 1185.023 567.11 1178.671 574.255 Z  M 1271.361 621.692 C 1271.361 624.868 1271.758 626.058 1272.353 624.074 C 1272.75 622.287 1272.75 619.509 1272.353 618.119 C 1271.758 616.928 1271.361 618.318 1271.361 621.692 Z " fill-rule="evenodd" fill="rgb(0,0,0)" vector-effect="non-scaling-stroke" stroke-width="0.1" stroke="rgb(0,0,0)" stroke-linejoin="miter" stroke-linecap="square" stroke-miterlimit="3"/><path d=" M 928.786 468.863 C 932.557 473.031 932.756 475.016 931.962 494.864 C 931.168 512.131 930.176 518.284 926.603 525.43 C 920.649 537.14 914.099 543.888 903.976 549.049 C 891.274 555.598 890.877 568.301 903.182 572.469 C 911.519 575.248 920.252 572.072 929.183 562.744 C 939.703 552.026 942.878 544.682 939.901 538.331 C 936.725 531.185 939.901 530.788 951.413 536.544 C 961.535 541.705 961.734 541.903 960.344 548.85 C 959.749 553.018 956.97 559.369 954.39 563.339 C 945.26 577.431 915.488 592.317 901.396 590.134 C 896.037 589.141 893.854 589.538 893.854 591.325 C 893.457 600.455 887.701 625.264 884.128 632.013 C 879.365 641.738 871.227 648.487 864.876 648.487 C 858.922 648.487 848.998 639.753 844.234 630.425 C 834.707 611.966 831.73 575.446 836.493 536.743 C 837.684 527.216 838.28 518.483 837.883 517.49 C 836.89 514.712 828.356 519.674 823.791 525.628 C 820.814 529.796 819.226 537.338 817.241 557.385 C 813.867 589.737 809.897 609.982 802.355 633.601 C 796.202 652.853 791.637 659.601 783.301 661.586 C 779.133 662.777 777.148 661.785 773.377 657.418 C 769.011 652.456 768.812 651.662 771.789 647.693 C 773.377 645.509 775.759 641.54 777.148 638.96 C 778.339 636.578 780.522 634.593 781.912 634.593 C 783.5 634.593 785.881 632.211 787.271 629.036 C 793.622 616.73 802.157 570.484 803.943 538.728 L 805.134 517.292 L 798.981 510.941 C 792.63 504.391 786.675 489.108 786.675 479.184 C 786.675 472.436 789.255 472.237 793.424 478.787 C 797.989 485.932 812.676 493.673 823.592 494.864 C 829.745 495.658 840.265 494.467 851.776 492.085 C 868.449 488.711 870.036 488.512 869.044 491.49 C 864.281 503.795 855.746 539.323 853.761 554.407 C 848.601 597.279 862.693 624.868 876.586 599.065 C 883.136 587.157 883.136 584.775 876.983 566.316 C 871.227 549.247 870.632 534.361 874.998 515.903 C 880.556 492.284 893.06 473.626 908.343 466.084 C 917.671 461.519 922.633 462.115 928.786 468.863 Z  M 904.175 488.711 C 897.228 496.452 894.251 505.383 892.465 521.857 C 891.472 531.582 891.869 533.567 894.648 534.56 C 902.785 537.735 915.687 521.063 919.855 502.009 C 924.221 482.757 915.687 475.413 904.175 488.711 Z " fill-rule="evenodd" fill="rgb(0,0,0)" vector-effect="non-scaling-stroke" stroke-width="0.1" stroke="rgb(0,0,0)" stroke-linejoin="miter" stroke-linecap="square" stroke-miterlimit="3"/><path d=" M 890.877 701.679 C 901.396 734.031 912.312 774.322 928.786 840.019 C 937.321 874.157 942.283 892.814 946.054 904.723 L 948.833 913.853 L 929.382 919.212 C 918.664 921.991 907.747 924.372 904.77 924.372 C 900.205 924.372 899.808 923.777 901.198 918.815 C 904.969 905.914 899.808 856.89 894.052 850.538 C 893.457 849.744 886.113 853.515 877.777 858.874 C 860.509 869.989 861.899 867.012 857.929 903.929 L 855.547 926.357 L 849.99 926.357 C 846.814 926.357 840.066 928.937 834.906 932.113 C 819.821 941.243 810.493 943.228 797.592 940.449 C 789.454 938.663 784.293 935.884 778.538 930.327 C 773.973 926.159 770.797 921.594 771.194 920.403 C 771.591 919.014 775.56 916.83 779.728 915.242 C 784.095 913.853 790.248 909.685 793.225 906.112 C 799.775 898.372 811.287 876.936 809.103 876.341 C 808.111 876.341 802.355 875.944 796.004 875.944 C 785.484 875.745 783.698 875.15 778.736 869.394 C 766.827 856.294 769.209 838.629 784.889 822.354 C 794.019 812.827 794.614 812.43 794.614 817.392 C 794.614 828.309 812.676 845.576 820.814 842.401 C 822.798 841.805 825.776 833.668 829.15 818.782 C 835.7 790.399 848.799 734.825 856.937 700.091 C 862.693 674.686 863.487 673.296 869.838 668.93 C 873.609 666.35 877.38 664.96 878.174 665.754 C 878.968 666.747 884.525 682.823 890.877 701.679 Z  M 869.243 742.963 C 865.273 767.177 862.693 831.087 865.67 831.087 C 868.25 831.087 884.525 820.171 888.297 815.804 C 891.671 812.232 891.671 811.239 886.907 795.163 C 884.327 786.033 880.357 770.154 878.174 760.032 C 873.014 736.413 871.029 732.443 869.243 742.963 Z " fill-rule="evenodd" fill="rgb(0,0,0)" vector-effect="non-scaling-stroke" stroke-width="0.1" stroke="rgb(0,0,0)" stroke-linejoin="miter" stroke-linecap="square" stroke-miterlimit="3"/></g></g></svg>