<svg xmlns="http://www.w3.org/2000/svg" xmlns:xlink="http://www.w3.org/1999/xlink" id="Layer_1" x="0" y="0" enable-background="new 0 0 1093 319" version="1.1" viewBox="0 0 1093 319" xml:space="preserve"><style type="text/css">.st0{fill:#0f0f0f}</style><title>Merch</title><desc>Created with Sketch.</desc><g><path d="M334.8,270.6V72.2c0-29.1,3.9-33.2,28.3-34.4v-8c-16.4,0.8-44.3,1.2-70.9,1.2h-34.8l-65.6,168.8L116.3,29.8 c-23,0.8-52,1.2-82.8,1.2c-11.9,0-25.2-0.4-33.2-1.2v8c24,1.2,28.5,5.3,28.5,34.4v170.5c0,45.1-4.1,57-28.5,62.3v8 c8-0.8,21.3-1.2,33.2-1.2c14.8,0,34.2,0.4,44.9,1.2v-8c-38.1-5.3-40.4-16.8-40.4-70.3V55.8l112.7,256.8h6.4l96.5-246.9v204.9 c0,29.1-5.3,33.2-32.4,34.4v8c15.2-0.8,42.4-1.2,71.1-1.2c26.6,0,54.5,0.4,70.9,1.2v-8C339.1,303.8,334.8,299.7,334.8,270.6z" class="st0"/><path d="M1070.2,275.9V167.5c0-27.3-3.7-42.2-11.7-51.8c-7.6-9.2-20.7-16-45.1-16c-28.9,0-50.8,8.8-63.7,30.1V0.1 c-19.9,4.1-42.8,5.7-69.5,5.7c-8,0-16.4-0.4-24.8-1.2V13c16.8,0,22.5,11.1,22.5,35.2v227.7c0,22.3-6.1,28.7-22.5,28.7v8.4 c11.5-0.4,37.5-1.6,60-1.6c20.9,0,42.8,1.2,52.7,1.6v-8.4c-13.5,0-18.4-6.4-18.4-28.7V149.3c0-16.8,14.1-28.7,28.9-28.7 c13.9,0,19.5,8.4,19.5,25.2v130.1c0,22.3-4.9,28.7-18.4,28.7v8.4c10.7-0.4,34.4-1.6,56.8-1.6c20.7,0,45.1,1.2,55.9,1.6v-8.4 C1076,304.6,1070.2,298.2,1070.2,275.9z" class="st0"/><path d="M858.4,248.2c-17.6,24.4-37.5,26.8-48.4,26.8c-23.4,0-50-14.6-50-71.1c0-40,8.4-92.4,46.5-92.4 c7.2,0,12.3,2,16,4.7c-17.6,4.9-32.8,20.1-32.8,40c0,21.3,13.3,36.1,36.7,36.1c22.5,0,38.5-17,38.5-38.9c0-18.4-9.6-33.2-24-41.6 c-10.7-6.4-29.5-12.1-52.7-12.1c-36.4,0-67.6,12.9-85.9,41.6c0-0.4,0-0.7,0-1.1c0-18.4-8-40.4-36.7-40.4 c-23.2,0-41.2,9.8-51.8,30.1v-28.7c-19.9,3.9-42.8,5.5-69.5,5.5c-8,0-16.4-0.4-24.8-1.2v8.4c16.8,0,22.5,11.1,22.5,35.2v127 c0,22.3-6.1,28.7-22.5,28.7v8.4c12.3-0.4,40-1.6,64.1-1.6c25.6,0,52.3,1.2,64.6,1.6v-8.4c-24.2,0-34.4-7.2-34.4-32.8V151.9 c0-16,10.5-30.1,23.6-35.7c4.1-2,8.4-2.7,12.9-2.7c-12.1,8-20.5,19.1-20.5,37.3c0,17.2,12.1,28.7,35.7,28.7 c9.6,0,17.8-2.9,24.1-8.3c-2.9,11.3-4.4,24.1-4.4,38.3c0,80.7,43,109.2,96.5,109.2c47.7,0,73.6-35.7,83.6-68L858.4,248.2z" class="st0"/><path d="M521.6,248.2c-17.6,24.4-37.7,26.8-48.4,26.8c-21.7,0-46.1-14.6-46.1-71.1c0-4.9,0-9.8,0.4-14.5h103.3 c0-64.5-28.9-89.6-75.6-89.6c-58,0-102.9,32.8-102.9,109.8c0,80.7,41.2,109.2,92.6,109.2c47.5,0,73.4-35.7,83.6-68L521.6,248.2z M452.3,109.1c14.8,0,20.5,33.6,20.1,72.7h-46.3C428.9,128.8,438.2,109.1,452.3,109.1z" class="st0"/></g></svg>