<svg xmlns="http://www.w3.org/2000/svg" xmlns:xlink="http://www.w3.org/1999/xlink" id="Layer_1" x="0" y="0" enable-background="new 0 0 1290 295" version="1.1" viewBox="0 0 1290 295" xml:space="preserve"><style type="text/css">.st0{fill:#0f0f0f}</style><title>Contact</title><desc>Created with Sketch.</desc><g><path d="M361.7,75.7c-62.1,0-102.9,28.9-102.9,109.8c0,80.7,40.8,109.2,102.9,109.2c61.9,0,102.7-28.5,102.7-109.2 C464.5,104.6,423.7,75.7,361.7,75.7z M361.7,286.7c-16,0-28.1-29.7-28.1-101.2c0-71.7,12.1-101.8,28.1-101.8s27.9,30.1,27.9,101.8 C389.7,257,377.8,286.7,361.7,286.7z" class="st0"/><path d="M674,251.9V143.5c0-27.3-3.7-42.2-11.7-51.8c-7.6-9.2-20.7-16-45.1-16c-28.7,0-50.8,8.8-63.7,30.1V77.1 c-19.9,3.9-42.8,5.5-69.5,5.5c-8,0-16.4-0.4-24.8-1.2v8.4c16.8,0,22.5,11.1,22.5,35.2v127c0,22.3-6.1,28.7-22.5,28.7v8.4 c11.5-0.4,37.7-1.6,60-1.6c20.9,0,42.8,1.2,52.9,1.6v-8.4c-13.7,0-18.6-6.4-18.6-28.7V125.3c0-16.8,14.1-28.7,28.9-28.7 c13.9,0,19.5,8.4,19.5,25.2v130.1c0,22.3-4.7,28.7-18.4,28.7v8.4c10.7-0.4,34.4-1.6,56.8-1.6c20.7,0,45.1,1.2,55.9,1.6v-8.4 C680,280.6,674,274.2,674,251.9z" class="st0"/><path d="M167.7,12.6c13.1,0,26,4.7,37.1,11.9c26.8,17.6,33.2,42.8,36.9,81.2h9.2c0-50.4,0.4-78.7,1.6-100h-9.2 c-1.4,16.4-4.7,23.8-10.2,23.8c-2.3,0-4.9-1.2-7.8-3.5c-17.6-13.5-38.5-26-73.6-26C62.8,0.1,0.5,60.3,0.5,149.7 c0,91.6,60.4,144.9,150.8,144.9c34.4,0,54.3-12.1,74-26c3.3-2.1,6.1-3.3,8.2-3.3c5.7,0,8.4,7.2,9.8,23.6h9.2 c-1.2-22.1-1.6-51.6-1.6-103.9h-9.2c-3.7,43.6-10.2,70.3-36.9,86.7c-11.1,7.2-24,11.9-37.1,11.9c-61.3,0-75.2-75.6-75.2-135.5 C92.5,88.2,106.4,12.6,167.7,12.6z" class="st0"/><path d="M1283.6,258.1c-7.2,8.8-16,11.7-21.5,11.7c-9,0-12.1-4.1-12.1-14.5V89.8h39.3v-8H1250V16.5 c-21.1,12.5-43.6,17.6-72.1,17.6v47.7h-30.3v8h30.3v135.5c0,27.7,2.1,44.1,13.7,55.7c9.2,9.2,23.6,13.7,41.2,13.7 c27.5,0,45.7-12.5,56.8-31.6L1283.6,258.1z" class="st0"/><path d="M1111,250.9c-23.4,0-50-14.6-50-71.1c0-40,8.4-92.4,46.5-92.4c7.2,0,12.3,2,16,4.7 c-17.6,4.9-32.8,20.1-32.8,40c0,21.3,13.3,36.1,36.7,36.1c22.5,0,38.5-17,38.5-38.9c0-18.4-9.6-33.2-24-41.6 c-10.7-6.4-29.5-12.1-52.7-12.1c-58,0-102.9,32.8-102.9,109.8c0,80.7,43,109.2,96.5,109.2c47.7,0,73.6-35.7,83.6-68l-6.8-2.5 C1141.8,248.6,1121.9,250.9,1111,250.9z" class="st0"/><path d="M981.4,276.1c-4.3,0-6.1-4.3-6.1-17.2v-107c0-27.7-2-44.5-13.1-56.1c-15.2-16-37.3-20.1-65.2-20.1 s-47.7,4.5-64.1,12.9c-14.3,7.6-24.8,19.9-24.8,36.7c0,19.7,12.9,35,32.8,35c23.2,0,38.5-14.8,38.5-33.6c0-18.2-9.6-29.7-26.8-36.1 c5.9-3.9,14.3-6.8,21.1-6.8c25.6,0,29.7,20.5,29.7,32.8v35.7c0,18-24.4,26-55.7,37.1c-35.2,11.5-50.8,29.3-50.8,56.4 c0,7.2,1.3,13.8,3.7,19.6c-5,3.2-9.9,4.4-13.4,4.4c-9,0-12.1-4.1-12.1-14.5V89.8h39.3v-8h-39.3V16.5C754,29,731.5,34.1,703,34.1 v47.7h-30.3v8H703v135.5c0,27.7,2.1,44.1,13.7,55.7c9.2,9.2,23.6,13.7,41.2,13.7c21.4,0,37.1-7.5,48.2-19.8 c8.5,10.6,22.5,16.9,41.1,16.9c24.8,0,46.1-11.9,57.2-30.3c0.4,16,11.1,30.3,41.2,30.3c22.9,0,39.3-3.9,52-14.6l-3.9-6.8 C990.2,273,986.3,276.1,981.4,276.1z M903.5,253.1c-4.9,5.1-9.2,6.6-14.8,6.6c-11.5,0-20.3-7.4-20.3-28.3 c0-19.5,7.6-33.6,19.5-45.1c5.7-5.7,12.3-12.1,15.6-17.6V253.1z" class="st0"/></g></svg>