<?xml version="1.0" encoding="utf-8"?>
<!-- Generator: Adobe Illustrator 21.0.2, SVG Export Plug-In . SVG Version: 6.00 Build 0)  -->
<svg version="1.1" id="Layer_1" xmlns="https://www.w3.org/2000/svg" xmlns:xlink="https://www.w3.org/1999/xlink" x="0px" y="0px"
	 viewBox="0 0 1056 290" style="enable-background:new 0 0 1056 290;" xml:space="preserve">
<style type="text/css">
	.st0{fill:#0F0F0F;}
</style>
<title>Tattoo</title>
<desc>Created with Sketch.</desc>
<g>
	<path class="st0" d="M423.7,271.1c-4.3,0-6.1-4.3-6.1-17.2v-107c0-27.7-2-44.5-13.1-56.1c-15.2-16-37.3-20.1-65.2-20.1
		s-47.7,4.5-64.1,12.9c-6.5,3.5-12.3,7.9-16.6,13.4c-0.2-5.2-0.3-11-0.3-16.9c0-15.6,0.8-47.7,2.7-79.3C223.2,2,168.3,2,130.8,2
		C93.1,2,38.1,2,0,0.8c2,31.6,2.7,63.7,2.7,79.3c0,11.1-0.4,21.9-1.2,28.7h9.2C29.7,33.2,60.3,10,89.6,10H90v228.9
		c0,32.8-7.6,37.1-44.3,37.1v8c18-0.4,49-1.2,82.2-1.2c35,0,68.9,0.8,87.7,1.2v-8c-36.7,0-44.3-4.3-44.3-37.1V10h0.4
		c28.7,0,60,23.6,78.7,98.8h1.9c-1.2,3.6-1.8,7.4-1.8,11.5c0,19.7,12.9,35,32.8,35c23.2,0,38.5-14.8,38.5-33.6
		c0-18.2-9.6-29.7-26.8-36.1c5.9-3.9,14.3-6.8,21.1-6.8c25.6,0,29.7,20.5,29.7,32.8v35.7c0,18-24.4,26-55.7,37.1
		c-35.2,11.5-50.8,29.3-50.8,56.4c0,27.5,18.4,45.9,50.4,45.9c24.8,0,46.1-11.9,57.2-30.3c0.4,16,11.1,30.3,41.2,30.3
		c22.9,0,39.3-3.9,52-14.6l-3.9-6.8C432.5,268,428.6,271.1,423.7,271.1z M345.8,248.1L345.8,248.1c-4.9,5.1-9.2,6.6-14.8,6.6
		c-11.5,0-20.3-7.4-20.3-28.3c0-19.5,7.6-33.6,19.5-45.1c5.7-5.7,12.3-12.1,15.6-17.6V248.1z"/>
	<path class="st0" d="M635.2,264.9c-9,0-12.1-4.1-12.1-14.5V84.8h39.3v-8h-39.3V11.5c-21.1,12.5-43.5,17.6-72,17.6v47.7h-30.3h-3.4
		V11.5c-21.1,12.5-43.6,17.6-72.1,17.6v47.7H415v8h30.3v135.5c0,27.7,2.1,44.1,13.7,55.7c9.2,9.2,23.6,13.7,41.2,13.7
		c26.2,0,43.9-11.3,55.2-29c2.1,6,5.1,11,9.4,15.3c9.2,9.2,23.6,13.7,41.2,13.7c27.5,0,45.7-12.5,56.8-31.6l-6.1-4.9
		C649.5,261.9,640.7,264.9,635.2,264.9z M551,253.1c-7.2,8.8-16,11.7-21.5,11.7c-9,0-12.1-4.1-12.1-14.5V84.8h3.4h30.3v135.5
		c0,14.5,0.6,25.9,2.8,35.2L551,253.1z"/>
	<path class="st0" d="M953.2,70.7c-57.3,0-96.5,24.6-102.2,91.9c-5.7-67.3-44.9-91.9-102-91.9c-62.1,0-102.9,28.9-102.9,109.8
		c0,80.7,40.8,109.2,102.9,109.2c57.1,0,96.3-24.3,102-91.3c5.7,67.1,44.9,91.3,102.2,91.3c61.9,0,102.7-28.5,102.7-109.2
		C1056,99.6,1015.1,70.7,953.2,70.7z M749,281.7c-16,0-28.1-29.7-28.1-101.2c0-71.7,12.1-101.8,28.1-101.8s28,30.1,28,101.8
		C777,252,765,281.7,749,281.7z M953.2,281.7c-16,0-28.1-29.7-28.1-101.2c0-71.7,12.1-101.8,28.1-101.8s27.9,30.1,27.9,101.8
		C981.2,252,969.2,281.7,953.2,281.7z"/>
</g>
</svg>
