<?xml version="1.0" encoding="UTF-8" standalone="no"?><!-- Generator: Gravit.io --><svg xmlns="http://www.w3.org/2000/svg" xmlns:xlink="http://www.w3.org/1999/xlink" style="isolation:isolate" viewBox="586.763 414.579 199.489 259.515" width="199.489pt" height="259.515pt"><path d=" M 703.512 416.266 C 743.208 423.808 773.774 463.901 783.897 521.857 C 787.668 543.69 786.675 579.416 781.912 597.874 C 770.201 641.54 738.246 672.106 702.123 673.892 C 672.748 675.48 645.755 664.563 624.121 642.731 L 611.22 629.631 L 619.754 629.036 C 641.19 627.448 631.068 606.012 596.334 579.019 C 587.601 572.271 586.211 564.331 587.005 525.43 C 587.601 498.436 588.395 490.299 591.967 479.382 C 603.479 443.458 630.075 422.22 670.565 416.266 C 685.451 414.083 691.802 414.083 703.512 416.266 Z  M 659.053 474.023 C 649.923 478.787 641.19 490.497 636.427 504.192 C 632.06 517.093 631.465 556.591 635.633 573.064 C 643.969 606.607 664.809 626.654 691.405 626.654 C 718.994 626.654 735.269 607.798 739.04 572.072 C 742.216 540.315 733.88 493.474 728.124 511.536 C 727.528 513.521 724.154 517.689 720.979 520.468 C 710.856 528.804 694.581 526.62 686.046 515.506 C 682.871 511.536 682.871 507.963 686.046 508.162 C 692.993 508.36 695.573 506.971 698.551 501.414 C 703.116 492.482 700.734 483.55 692.199 476.008 C 686.642 470.848 683.665 469.855 675.924 469.855 C 670.565 470.054 663.42 471.642 659.053 474.023 Z " fill-rule="evenodd" fill="rgb(0,0,0)" vector-effect="non-scaling-stroke" stroke-width="0.1" stroke="rgb(0,0,0)" stroke-linejoin="miter" stroke-linecap="square" stroke-miterlimit="3"/></svg>