<?xml version="1.0" encoding="UTF-8" standalone="no"?><!-- Generator: Gravit.io --><svg xmlns="http://www.w3.org/2000/svg" xmlns:xlink="http://www.w3.org/1999/xlink" style="isolation:isolate" viewBox="464.809 278.63 1024.1 706.174" width="1024.1pt" height="706.174pt"><path d=" M 1222.734 281.499 C 1228.49 283.285 1241.589 295.591 1243.376 300.751 C 1243.971 302.339 1247.147 302.141 1254.093 299.957 C 1267.193 295.988 1285.056 297.179 1292.4 302.339 C 1295.377 304.721 1299.545 309.683 1301.728 313.454 C 1305.301 320.004 1306.293 320.599 1316.614 321.393 C 1343.409 323.378 1357.303 341.042 1352.341 366.646 C 1350.951 373.99 1351.15 375.975 1353.73 377.563 C 1371.792 388.876 1375.563 392.25 1379.731 400.388 C 1388.464 417.854 1384.891 427.579 1357.699 459.931 C 1347.18 472.436 1338.844 482.955 1339.042 483.153 C 1339.439 483.352 1345.195 480.97 1352.142 477.596 C 1369.608 469.26 1374.769 468.466 1379.929 473.626 C 1382.311 476.008 1384.097 479.184 1384.097 480.772 C 1384.097 485.535 1388.067 484.344 1412.48 472.833 C 1424.984 466.878 1437.488 461.916 1439.87 461.916 C 1447.015 461.916 1453.565 469.458 1453.565 477.795 C 1453.565 481.764 1447.809 514.712 1440.862 550.835 C 1422.999 642.929 1423.396 632.013 1436.496 642.135 C 1467.061 665.754 1491.077 725.298 1488.696 771.544 C 1484.131 860.462 1428.953 928.541 1338.646 956.923 C 1273.346 977.366 1193.359 970.42 1147.113 940.052 C 1131.632 929.731 1131.235 929.731 1123.296 932.113 C 1108.41 936.48 1099.478 938.067 1088.363 938.266 C 1082.409 938.266 1062.363 940.449 1043.706 943.228 C 1025.247 945.808 987.933 950.77 961.138 954.144 C 909.534 960.496 897.427 960.297 886.312 952.953 C 881.747 949.976 881.35 950.175 875.197 957.32 C 869.441 964.068 867.655 964.664 856.937 965.458 C 850.585 966.053 841.257 968.236 836.295 970.42 C 829.547 973.595 824.188 974.588 813.47 974.191 C 805.928 973.794 797.79 973.595 795.607 973.595 C 793.424 973.397 784.492 975.382 775.759 977.763 C 754.919 983.321 719.986 986.099 690.611 984.115 C 667.786 982.725 666.794 982.527 662.427 976.969 C 656.274 969.229 652.9 954.144 654.29 940.449 C 654.885 932.51 658.061 923.38 665.405 908.494 C 683.069 872.569 683.466 848.156 667.588 817.789 C 663.221 809.652 659.649 800.522 659.649 797.743 C 659.649 794.766 662.427 784.842 665.603 775.513 C 668.977 766.383 671.557 758.642 671.557 758.245 C 671.557 757.849 658.855 757.65 643.373 757.65 C 569.341 757.65 510.789 734.428 482.605 694.137 C 465.933 670.121 460.177 632.807 468.91 606.409 C 479.43 575.645 507.415 553.415 540.363 550.041 L 551.478 548.85 L 551.478 518.681 C 551.676 484.741 554.455 469.855 565.371 447.03 C 583.631 408.922 622.732 385.7 673.542 383.12 C 724.154 380.341 763.453 398.601 786.675 435.32 C 791.042 442.267 795.607 448.023 796.599 448.023 C 797.592 448.023 803.943 452.985 810.691 458.939 C 830.738 476.802 840.662 476.405 869.441 455.763 C 895.64 436.908 903.182 433.732 920.252 434.526 L 933.748 435.122 L 943.474 421.823 C 949.627 413.487 956.573 406.541 962.726 402.968 C 971.062 398.006 974.436 397.411 990.91 397.014 L 1009.567 396.617 L 1015.919 387.09 C 1033.186 361.486 1060.576 347.592 1079.63 354.738 C 1086.577 357.516 1088.76 355.531 1097.692 338.462 C 1101.661 330.92 1107.417 322.981 1110.593 320.798 C 1118.731 314.843 1130.242 313.652 1136.792 318.019 C 1139.571 320.004 1141.953 320.599 1141.953 319.408 C 1141.953 314.248 1164.778 293.011 1176.29 287.255 C 1195.344 277.926 1206.26 276.537 1222.734 281.499 Z  M 1189.389 291.82 C 1173.709 297.576 1165.572 304.721 1145.327 329.531 C 1141.159 334.691 1136.991 338.859 1135.8 338.859 C 1134.808 338.859 1133.418 336.08 1132.624 332.706 C 1129.846 318.416 1116.15 324.37 1105.433 344.417 C 1096.898 360.89 1089.753 367.44 1082.409 365.654 C 1067.523 362.081 1061.172 362.28 1053.034 366.448 C 1041.522 372.402 1031.797 381.334 1022.667 394.632 C 1018.499 400.785 1013.934 406.342 1012.544 406.938 C 1011.155 407.334 1003.216 407.334 994.88 406.739 C 972.849 405.548 965.306 409.319 949.627 429.961 L 937.321 446.038 L 923.03 444.847 C 905.961 443.259 900.602 445.442 874.998 464.099 C 856.143 477.795 847.211 481.764 836.295 481.764 C 824.783 481.764 815.256 477.199 803.546 466.084 C 797.989 460.725 791.637 455.962 789.454 455.168 C 787.469 454.572 783.5 449.809 780.721 444.649 C 762.064 409.518 723.559 390.662 675.527 393.044 C 615.983 396.021 579.662 423.411 565.173 475.81 C 562.394 485.535 561.6 496.253 561.401 518.483 C 561.401 534.758 561.997 550.636 562.791 553.415 L 564.379 558.576 L 547.905 559.766 C 526.668 561.156 511.186 567.11 498.087 579.217 C 483.399 592.714 476.651 607.401 475.46 628.44 C 473.475 665.953 488.361 695.526 520.316 716.565 C 553.462 738.596 594.151 748.123 651.709 747.528 L 682.474 747.329 L 681.878 754.871 C 681.481 759.039 679.1 767.772 676.321 774.322 C 668.382 793.773 668.183 800.72 675.328 811.636 C 683.069 823.942 687.237 836.049 688.627 852.523 C 690.413 871.577 686.84 886.661 675.328 910.479 C 664.412 932.51 662.229 942.037 664.412 957.121 C 666.992 973.595 668.183 973.992 709.665 973.992 C 744.995 973.794 761.865 972.007 785.484 965.458 C 792.233 963.671 798.187 963.274 805.332 964.465 C 817.241 966.45 824.783 965.061 834.112 959.702 C 838.478 957.32 845.425 955.732 852.769 955.335 C 864.479 954.938 870.036 951.564 870.036 945.213 C 870.036 942.037 876.586 936.281 880.357 936.281 C 881.945 936.281 885.319 938.464 887.9 941.243 C 890.678 944.22 896.434 946.801 902.984 948.19 C 913.9 950.572 929.977 948.785 1026.835 935.09 C 1045.889 932.312 1072.485 929.334 1085.982 928.342 C 1101.265 927.151 1112.578 925.166 1116.547 923.182 C 1125.876 918.418 1135.403 920.601 1153.068 931.915 C 1170.931 943.228 1197.527 952.556 1222.932 956.129 C 1249.528 960.099 1299.148 957.717 1322.966 951.366 C 1391.242 933.304 1444.038 890.036 1465.672 834.461 C 1474.802 811.041 1479.963 779.086 1478.573 756.261 C 1475.795 712.992 1455.153 669.525 1426.572 646.7 C 1416.251 638.364 1414.068 635.585 1414.861 632.013 C 1419.228 612.959 1443.641 483.352 1443.641 479.184 C 1443.641 476.207 1442.45 473.23 1440.862 472.634 C 1439.473 472.039 1423.595 478.39 1405.731 486.528 C 1388.067 494.864 1373.181 501.612 1372.982 501.612 C 1372.784 501.612 1372.982 496.65 1373.578 490.497 C 1374.769 479.382 1374.769 479.382 1370.005 480.772 C 1367.425 481.566 1355.119 486.925 1342.615 492.879 L 1320.187 503.597 L 1321.576 498.039 C 1323.958 488.512 1333.882 473.428 1352.341 451 C 1370.799 428.572 1375.761 418.846 1373.379 409.121 C 1371.395 401.182 1359.883 391.258 1348.172 387.09 C 1339.836 384.112 1338.447 382.922 1339.439 379.547 C 1342.218 370.814 1342.814 347.394 1340.432 343.027 C 1336.462 335.485 1321.775 330.325 1308.278 331.714 C 1297.362 332.706 1296.766 332.706 1296.766 328.34 C 1296.766 321.988 1289.621 311.271 1283.667 309.087 C 1272.155 304.522 1250.918 309.087 1240.994 318.217 C 1238.017 320.996 1237.421 320.401 1235.238 311.469 C 1231.665 296.583 1224.52 290.629 1208.84 289.835 C 1201.893 289.438 1193.359 290.43 1189.389 291.82 Z " fill-rule="evenodd" fill="rgb(0,0,0)" vector-effect="non-scaling-stroke" stroke-width="0.1" stroke="rgb(0,0,0)" stroke-linejoin="miter" stroke-linecap="square" stroke-miterlimit="3"/></svg>