<?xml version="1.0" encoding="UTF-8" standalone="no"?><!-- Generator: Gravit.io --><svg xmlns="http://www.w3.org/2000/svg" xmlns:xlink="http://www.w3.org/1999/xlink" style="isolation:isolate" viewBox="769.738 463.086 191.271 199.015" width="191.271pt" height="199.015pt"><path d=" M 928.786 468.863 C 932.557 473.031 932.756 475.016 931.962 494.864 C 931.168 512.131 930.176 518.284 926.603 525.43 C 920.649 537.14 914.099 543.888 903.976 549.049 C 891.274 555.598 890.877 568.301 903.182 572.469 C 911.519 575.248 920.252 572.072 929.183 562.744 C 939.703 552.026 942.878 544.682 939.901 538.331 C 936.725 531.185 939.901 530.788 951.413 536.544 C 961.535 541.705 961.734 541.903 960.344 548.85 C 959.749 553.018 956.97 559.369 954.39 563.339 C 945.26 577.431 915.488 592.317 901.396 590.134 C 896.037 589.141 893.854 589.538 893.854 591.325 C 893.457 600.455 887.701 625.264 884.128 632.013 C 879.365 641.738 871.227 648.487 864.876 648.487 C 858.922 648.487 848.998 639.753 844.234 630.425 C 834.707 611.966 831.73 575.446 836.493 536.743 C 837.684 527.216 838.28 518.483 837.883 517.49 C 836.89 514.712 828.356 519.674 823.791 525.628 C 820.814 529.796 819.226 537.338 817.241 557.385 C 813.867 589.737 809.897 609.982 802.355 633.601 C 796.202 652.853 791.637 659.601 783.301 661.586 C 779.133 662.777 777.148 661.785 773.377 657.418 C 769.011 652.456 768.812 651.662 771.789 647.693 C 773.377 645.509 775.759 641.54 777.148 638.96 C 778.339 636.578 780.522 634.593 781.912 634.593 C 783.5 634.593 785.881 632.211 787.271 629.036 C 793.622 616.73 802.157 570.484 803.943 538.728 L 805.134 517.292 L 798.981 510.941 C 792.63 504.391 786.675 489.108 786.675 479.184 C 786.675 472.436 789.255 472.237 793.424 478.787 C 797.989 485.932 812.676 493.673 823.592 494.864 C 829.745 495.658 840.265 494.467 851.776 492.085 C 868.449 488.711 870.036 488.512 869.044 491.49 C 864.281 503.795 855.746 539.323 853.761 554.407 C 848.601 597.279 862.693 624.868 876.586 599.065 C 883.136 587.157 883.136 584.775 876.983 566.316 C 871.227 549.247 870.632 534.361 874.998 515.903 C 880.556 492.284 893.06 473.626 908.343 466.084 C 917.671 461.519 922.633 462.115 928.786 468.863 Z  M 904.175 488.711 C 897.228 496.452 894.251 505.383 892.465 521.857 C 891.472 531.582 891.869 533.567 894.648 534.56 C 902.785 537.735 915.687 521.063 919.855 502.009 C 924.221 482.757 915.687 475.413 904.175 488.711 Z " fill-rule="evenodd" fill="rgb(0,0,0)" vector-effect="non-scaling-stroke" stroke-width="0.1" stroke="rgb(0,0,0)" stroke-linejoin="miter" stroke-linecap="square" stroke-miterlimit="3"/></svg>