<?xml version="1.0" encoding="UTF-8" standalone="no"?><!-- Generator: Gravit.io --><svg xmlns="http://www.w3.org/2000/svg" xmlns:xlink="http://www.w3.org/1999/xlink" style="isolation:isolate" viewBox="940.52 422.493 72.435 122.558" width="72.435pt" height="122.558pt"><path d=" M 997.658 424.999 C 1001.231 426.587 1006.193 429.763 1008.773 432.144 C 1013.338 436.114 1013.537 436.709 1012.147 458.542 C 1010.361 486.726 1005.002 543.888 1004.01 544.88 C 1003.613 545.277 1000.04 544.682 996.269 543.293 C 989.322 541.109 989.124 540.911 989.124 529.995 L 989.124 519.078 L 982.971 524.239 C 976.223 529.995 963.52 531.185 954.39 527.017 C 931.168 516.498 938.512 461.122 966.696 433.732 C 978.406 422.419 986.544 420.037 997.658 424.999 Z  M 971.856 448.42 C 961.734 458.939 953.398 487.718 956.97 500.421 C 959.352 508.956 967.093 514.315 973.841 511.734 C 983.963 507.765 993.887 478.39 992.696 455.168 L 992.101 443.061 L 985.154 442.465 C 979.398 442.068 977.017 443.061 971.856 448.42 Z " fill-rule="evenodd" fill="rgb(0,0,0)" vector-effect="non-scaling-stroke" stroke-width="0.1" stroke="rgb(0,0,0)" stroke-linejoin="miter" stroke-linecap="square" stroke-miterlimit="3"/></svg>