<?xml version="1.0" encoding="UTF-8" standalone="no"?><!-- Generator: Gravit.io --><svg xmlns="http://www.w3.org/2000/svg" xmlns:xlink="http://www.w3.org/1999/xlink" style="isolation:isolate" viewBox="771.11 665.481 177.772 276.18" width="177.772pt" height="276.18pt"><path d=" M 890.877 701.679 C 901.396 734.031 912.312 774.322 928.786 840.019 C 937.321 874.157 942.283 892.814 946.054 904.723 L 948.833 913.853 L 929.382 919.212 C 918.664 921.991 907.747 924.372 904.77 924.372 C 900.205 924.372 899.808 923.777 901.198 918.815 C 904.969 905.914 899.808 856.89 894.052 850.538 C 893.457 849.744 886.113 853.515 877.777 858.874 C 860.509 869.989 861.899 867.012 857.929 903.929 L 855.547 926.357 L 849.99 926.357 C 846.814 926.357 840.066 928.937 834.906 932.113 C 819.821 941.243 810.493 943.228 797.592 940.449 C 789.454 938.663 784.293 935.884 778.538 930.327 C 773.973 926.159 770.797 921.594 771.194 920.403 C 771.591 919.014 775.56 916.83 779.728 915.242 C 784.095 913.853 790.248 909.685 793.225 906.112 C 799.775 898.372 811.287 876.936 809.103 876.341 C 808.111 876.341 802.355 875.944 796.004 875.944 C 785.484 875.745 783.698 875.15 778.736 869.394 C 766.827 856.294 769.209 838.629 784.889 822.354 C 794.019 812.827 794.614 812.43 794.614 817.392 C 794.614 828.309 812.676 845.576 820.814 842.401 C 822.798 841.805 825.776 833.668 829.15 818.782 C 835.7 790.399 848.799 734.825 856.937 700.091 C 862.693 674.686 863.487 673.296 869.838 668.93 C 873.609 666.35 877.38 664.96 878.174 665.754 C 878.968 666.747 884.525 682.823 890.877 701.679 Z  M 869.243 742.963 C 865.273 767.177 862.693 831.087 865.67 831.087 C 868.25 831.087 884.525 820.171 888.297 815.804 C 891.671 812.232 891.671 811.239 886.907 795.163 C 884.327 786.033 880.357 770.154 878.174 760.032 C 873.014 736.413 871.029 732.443 869.243 742.963 Z " fill-rule="evenodd" fill="rgb(0,0,0)" vector-effect="non-scaling-stroke" stroke-width="0.1" stroke="rgb(0,0,0)" stroke-linejoin="miter" stroke-linecap="square" stroke-miterlimit="3"/></svg>