<?xml version="1.0" encoding="UTF-8" standalone="no"?><!-- Generator: Gravit.io --><svg xmlns="http://www.w3.org/2000/svg" xmlns:xlink="http://www.w3.org/1999/xlink" style="isolation:isolate" viewBox="1286.93 652.549 140.462 232.338" width="140.462pt" height="232.338pt"><path d=" M 1365.043 653.647 C 1366.83 654.242 1368.219 656.227 1368.219 657.815 C 1368.219 659.998 1367.028 660.197 1363.852 659.006 C 1361.272 658.212 1354.127 657.418 1347.974 657.418 C 1335.668 657.418 1329.119 661.586 1323.164 673.296 C 1318.996 681.037 1319.393 697.908 1323.76 707.038 C 1326.737 713.389 1326.935 715.771 1324.95 722.718 C 1318.004 746.535 1316.217 759.039 1317.21 778.49 C 1318.798 808.461 1325.347 825.133 1339.241 834.66 C 1361.471 849.546 1392.235 834.064 1398.785 804.293 L 1400.174 798.338 L 1396.601 802.705 C 1391.639 808.858 1378.937 813.82 1371.99 812.232 C 1363.257 810.247 1356.31 800.72 1356.31 790.399 L 1356.31 781.864 L 1362.066 784.643 C 1377.547 792.384 1391.044 776.307 1393.426 747.925 C 1394.22 738.596 1393.624 731.252 1391.242 723.313 C 1388.662 714.183 1388.464 711.007 1390.25 707.435 C 1391.639 705.053 1394.617 696.915 1397.197 689.373 L 1401.563 675.678 L 1406.724 683.419 C 1415.06 696.122 1423.595 722.321 1426.175 743.161 C 1429.747 773.131 1424.19 810.247 1411.884 836.645 C 1403.548 854.309 1382.906 874.951 1367.623 880.509 C 1344.997 888.845 1323.363 884.677 1310.858 869.592 C 1294.782 849.943 1288.629 825.728 1287.239 777.101 C 1286.049 729.466 1291.407 703.465 1307.286 679.648 C 1313.439 670.319 1331.699 655.83 1339.439 653.845 C 1345.394 652.456 1361.471 652.258 1365.043 653.647 Z " fill="rgb(0,0,0)" vector-effect="non-scaling-stroke" stroke-width="0.1" stroke="rgb(0,0,0)" stroke-linejoin="miter" stroke-linecap="square" stroke-miterlimit="3"/></svg>