<?xml version="1.0" encoding="UTF-8" standalone="no"?><!-- Generator: Gravit.io --><svg xmlns="http://www.w3.org/2000/svg" xmlns:xlink="http://www.w3.org/1999/xlink" style="isolation:isolate" viewBox="1046.533 303.319 239.467 150.514" width="239.467pt" height="150.514pt"><path d=" M 1203.481 306.706 C 1203.481 311.668 1195.542 334.096 1186.611 354.738 C 1169.74 393.639 1164.976 419.64 1173.908 424.404 C 1184.03 429.763 1205.466 420.831 1224.719 403.365 C 1236.826 392.647 1253.895 368.036 1257.269 356.722 C 1260.445 346.004 1256.078 338.859 1245.956 338.859 C 1239.604 338.859 1239.207 338.462 1241.192 334.691 C 1244.765 328.141 1260.842 319.011 1268.979 319.011 C 1280.69 319.011 1285.85 326.157 1285.85 342.432 C 1285.85 353.944 1284.858 357.516 1278.903 368.433 C 1272.155 380.54 1271.361 381.135 1260.048 384.708 C 1253.3 386.693 1245.956 390.265 1243.574 392.449 C 1239.009 396.815 1237.62 405.945 1241.192 409.518 C 1244.169 412.495 1216.779 433.931 1198.718 443.061 C 1190.977 447.03 1180.061 450.603 1174.702 451.198 C 1165.77 452.389 1163.984 451.794 1158.427 447.229 C 1150.686 440.679 1147.113 430.557 1148.701 419.64 C 1149.495 415.075 1154.258 397.609 1159.617 380.937 C 1165.373 362.875 1168.549 350.173 1167.358 349.577 C 1162.793 346.6 1142.35 372.005 1130.441 395.426 C 1124.487 407.533 1117.341 428.969 1115.357 442.267 C 1114.364 448.023 1112.975 449.611 1107.02 451.794 C 1103.249 453.183 1099.677 453.977 1099.28 453.58 C 1098.883 453.183 1100.074 441.473 1102.058 427.579 C 1103.845 413.686 1105.036 402.372 1104.44 402.372 C 1103.646 402.372 1099.28 407.334 1094.318 413.487 C 1079.432 432.144 1068.714 438.099 1057.202 433.931 C 1050.851 431.946 1046.683 425.198 1046.683 417.655 C 1046.881 411.701 1053.233 398.204 1057.798 394.036 C 1061.37 390.861 1061.569 391.059 1060.973 398.998 C 1060.378 405.548 1061.172 408.327 1064.347 411.304 C 1072.485 418.449 1077.447 414.083 1101.265 378.952 C 1120.715 349.974 1123.097 346.997 1124.685 351.165 C 1125.677 353.745 1125.677 361.883 1125.082 369.623 L 1123.693 383.517 L 1135.403 365.058 C 1151.281 339.455 1172.519 317.026 1188 309.286 C 1202.092 302.141 1203.481 301.942 1203.481 306.706 Z " fill="rgb(0,0,0)" vector-effect="non-scaling-stroke" stroke-width="0.1" stroke="rgb(0,0,0)" stroke-linejoin="miter" stroke-linecap="square" stroke-miterlimit="3"/></svg>