<?xml version="1.0" encoding="UTF-8" standalone="no"?><!-- Generator: Gravit.io --><svg xmlns="http://www.w3.org/2000/svg" xmlns:xlink="http://www.w3.org/1999/xlink" style="isolation:isolate" viewBox="493.962 579.186 364.673 372.732" width="364.673pt" height="372.732pt"><path d=" M 566.76 581.202 C 582.043 584.378 599.113 594.103 609.235 605.417 C 613.998 610.776 617.77 615.737 617.174 616.134 C 616.777 616.73 613.006 616.134 608.639 614.944 C 590.776 609.982 565.966 614.348 558.424 624.074 C 552.271 632.013 553.264 641.738 561.005 649.28 C 569.738 658.014 602.487 670.518 634.839 677.464 C 656.473 682.03 665.603 683.022 691.405 683.022 L 722.17 683.22 L 736.063 676.274 C 759.087 664.762 760.873 664.365 767.621 668.533 C 778.935 675.48 793.424 672.701 802.554 661.983 C 804.538 659.601 811.882 657.617 825.577 655.433 C 845.227 652.258 845.822 652.258 852.769 656.426 C 859.517 660.395 859.716 660.792 856.341 664.166 C 854.555 665.953 851.379 674.884 849.196 683.816 C 847.211 692.946 844.83 700.687 844.036 701.282 C 843.242 701.679 832.921 703.465 821.012 705.053 C 809.302 706.641 787.668 710.015 772.98 712.397 L 746.384 716.565 L 747.575 735.619 C 748.766 757.849 753.926 775.315 762.659 788.414 C 769.408 798.537 770.201 802.506 766.033 808.262 C 759.682 817.392 754.919 839.225 754.919 858.676 C 754.919 877.531 758.69 898.57 763.255 903.929 C 764.843 905.914 764.644 907.502 762.064 910.082 C 755.911 917.029 758.491 926.159 770.201 938.464 C 773.973 942.434 776.354 946.205 775.163 946.999 C 774.171 947.594 754.919 949.182 732.292 950.373 C 702.917 952.16 690.611 952.16 689.222 950.77 C 685.649 947.198 684.855 931.518 687.436 923.182 C 688.825 918.815 693.787 906.906 698.551 896.387 C 712.246 866.615 712.047 848.156 698.154 816.995 L 692.993 805.682 L 698.154 789.605 C 703.512 772.734 704.703 753.68 701.726 733.833 C 700.138 723.512 704.108 724.306 661.633 726.687 C 617.373 729.268 582.043 723.512 551.081 708.824 C 516.148 692.152 493.72 664.166 494.117 637.57 C 494.514 611.172 512.576 589.34 540.363 581.798 C 552.073 578.622 554.058 578.622 566.76 581.202 Z " fill="rgb(0,0,0)" vector-effect="non-scaling-stroke" stroke-width="0.1" stroke="rgb(0,0,0)" stroke-linejoin="miter" stroke-linecap="square" stroke-miterlimit="3"/></svg>