<?xml version="1.0" encoding="UTF-8" standalone="no"?>
<svg width="111px" height="37px" viewBox="0 0 111 37" version="1.1" xmlns="http://www.w3.org/2000/svg" xmlns:xlink="http://www.w3.org/1999/xlink">
    <!-- Generator: Sketch 42 (36781) - http://www.bohemiancoding.com/sketch -->
    <title>LOADING</title>
    <desc>Created with Sketch.</desc>
    <defs></defs>
    <g id="Maquettes" stroke="none" stroke-width="1" fill="none" fill-rule="evenodd">
        <g id="Loading" transform="translate(-561.000000, -417.000000)" fill="#FFFFFF">
            <g id="Group" transform="translate(559.000000, 411.000000)">
                <path d="M2.45800084,42 L10.7780022,42 L10.7780022,39.3479996 L5.37000131,39.3479996 L5.37000131,6.69199421 L2.45800084,6.69199421 L2.45800084,42 Z M18.1100006,36.175999 L18.1100006,12.5159952 C18.1100006,8.56399452 20.034001,6.37999416 23.0500014,6.37999416 C26.0660019,6.37999416 27.9900023,8.56399452 27.9900023,12.5159952 L27.9900023,36.175999 C27.9900023,40.1279997 26.0660019,42.3120001 23.0500014,42.3120001 C20.034001,42.3120001 18.1100006,40.1279997 18.1100006,36.175999 Z M21.0220011,12.3859951 L21.0220011,36.3059991 C21.0220011,38.8019995 21.7240012,39.6599996 23.0500014,39.6599996 C24.3760017,39.6599996 25.0780018,38.8019995 25.0780018,36.3059991 L25.0780018,12.3859951 C25.0780018,9.88999474 24.3760017,9.0319946 23.0500014,9.0319946 C21.7240012,9.0319946 21.0220011,9.88999474 21.0220011,12.3859951 Z M35.2180003,42 L39.0140009,6.69199421 L42.9140016,6.69199421 L46.6060022,42 L43.8240017,42 L43.1220016,34.9539988 L38.7540009,34.9539988 L38.0780008,42 L35.2180003,42 Z M40.9640012,12.3599951 L39.0140009,32.3019984 L42.8360016,32.3019984 L40.9640012,12.3599951 Z M54.0940003,42 L54.0940003,6.69199421 L58.0980009,6.69199421 C61.3480015,6.69199421 63.7140018,8.87599457 63.7140018,12.8279952 L63.7140018,35.863999 C63.7140018,39.8159996 61.3480015,42 58.0980009,42 L54.0940003,42 Z M58.0980009,9.34399465 L57.0060007,9.34399465 L57.0060007,39.3479996 L58.0980009,39.3479996 C59.6840012,39.3479996 60.8020014,38.4899994 60.8020014,35.993999 L60.8020014,12.6979952 C60.8020014,10.2019948 59.6840012,9.34399465 58.0980009,9.34399465 Z M72.0860001,42 L74.9980006,42 L74.9980006,6.69199421 L72.0860001,6.69199421 L72.0860001,42 Z M90.5980011,42 L94.4460017,42 L94.4460017,6.69199421 L91.6380012,6.69199421 L91.6380012,34.0439987 L87.2700005,6.69199421 L83.4219999,6.69199421 L83.4219999,42 L86.2300003,42 L86.2300003,14.6479955 L90.5980011,42 Z M112.594001,42 L112.594001,23.0719969 L107.706,23.0719969 L107.706,25.7239973 L109.682001,25.7239973 L109.682001,36.3059991 C109.682001,38.8019995 109.006001,39.6599996 107.706,39.6599996 C106.406,39.6599996 105.73,38.8019995 105.73,36.3059991 L105.73,12.3859951 C105.73,9.88999474 106.406,9.0319946 107.706,9.0319946 C109.006001,9.0319946 109.682001,9.88999474 109.682001,12.3859951 L109.682001,17.2479959 L112.594001,17.2479959 L112.594001,12.5159952 C112.594001,8.56399452 110.696001,6.37999416 107.706,6.37999416 C104.716,6.37999416 102.818,8.56399452 102.818,12.5159952 L102.818,36.9559992 C102.818,40.4399997 104.404,42.3120001 106.848,42.3120001 C108.382001,42.3120001 109.370001,41.5579999 110.020001,40.5179998 L110.332001,42 L112.594001,42 Z" id="LOADING"></path>
            </g>
        </g>
    </g>
</svg>