{
    "accessors" : [
        {
            "bufferView" : 0,
            "componentType" : 5121,
            "count" : 672,
            "max" : [
                149
            ],
            "min" : [
                0
            ],
            "type" : "SCALAR"
        },
        {
            "bufferView" : 1,
            "componentType" : 5126,
            "count" : 150,
            "max" : [
                3.6513376235961914,
                1.0515750646591187,
                -28.052677154541016
            ],
            "min" : [
                -5.435083866119385,
                -1.0939587354660034,
                -48.651878356933594
            ],
            "type" : "VEC3"
        },
        {
            "bufferView" : 2,
            "componentType" : 5126,
            "count" : 150,
            "max" : [
                0.1987670511007309,
                0.999847412109375,
                0.4772179424762726
            ],
            "min" : [
                -0.965300440788269,
                0.2610858380794525,
                -0.6381725668907166
            ],
            "type" : "VEC3"
        },
        {
            "bufferView" : 3,
            "componentType" : 5126,
            "count" : 150,
            "max" : [
                0.6145480871200562,
                0.692301869392395
            ],
            "min" : [
                0.2889688014984131,
                6.282329559326172e-05
            ],
            "type" : "VEC2"
        },
        {
            "bufferView" : 4,
            "componentType" : 5121,
            "count" : 540,
            "max" : [
                124
            ],
            "min" : [
                0
            ],
            "type" : "SCALAR"
        },
        {
            "bufferView" : 5,
            "componentType" : 5126,
            "count" : 125,
            "max" : [
                1.7472738027572632,
                1.2238932847976685,
                -28.26945686340332
            ],
            "min" : [
                -5.8816704750061035,
                -1.0713673830032349,
                -47.692543029785156
            ],
            "type" : "VEC3"
        },
        {
            "bufferView" : 6,
            "componentType" : 5126,
            "count" : 125,
            "max" : [
                0.6865749359130859,
                0.999969482421875,
                0.8504592776298523
            ],
            "min" : [
                -0.6308175921440125,
                0.40064698457717896,
                -0.18832972645759583
            ],
            "type" : "VEC3"
        },
        {
            "bufferView" : 7,
            "componentType" : 5126,
            "count" : 125,
            "max" : [
                0.9998667240142822,
                0.8268636465072632,
                0.1117243841290474,
                1.0
            ],
            "min" : [
                0.5560047030448914,
                -0.6696982979774475,
                -0.7243854999542236,
                1.0
            ],
            "type" : "VEC4"
        },
        {
            "bufferView" : 8,
            "componentType" : 5126,
            "count" : 125,
            "max" : [
                0.29082047939300537,
                0.6985764503479004
            ],
            "min" : [
                0.0035746307112276554,
                -0.00018846988677978516
            ],
            "type" : "VEC2"
        },
        {
            "bufferView" : 9,
            "componentType" : 5121,
            "count" : 72,
            "max" : [
                19
            ],
            "min" : [
                0
            ],
            "type" : "SCALAR"
        },
        {
            "bufferView" : 10,
            "componentType" : 5126,
            "count" : 20,
            "max" : [
                4.785513877868652,
                -1.004225492477417,
                -27.39055633544922
            ],
            "min" : [
                -5.624032974243164,
                -3.3516266345977783,
                -45.21647644042969
            ],
            "type" : "VEC3"
        },
        {
            "bufferView" : 11,
            "componentType" : 5126,
            "count" : 20,
            "max" : [
                -0.02545243687927723,
                0.9996337890625,
                0.013397625647485256
            ],
            "min" : [
                -0.2768639326095581,
                0.9504074454307556,
                -0.15991699695587158
            ],
            "type" : "VEC3"
        },
        {
            "bufferView" : 12,
            "componentType" : 5126,
            "count" : 20,
            "max" : [
                -0.0021026553586125374,
                0.144140362739563,
                0.9999890327453613,
                1.0
            ],
            "min" : [
                -0.0682595893740654,
                -0.016319498419761658,
                0.9883760809898376,
                1.0
            ],
            "type" : "VEC4"
        },
        {
            "bufferView" : 13,
            "componentType" : 5126,
            "count" : 20,
            "max" : [
                0.9982243776321411,
                0.9765756130218506
            ],
            "min" : [
                0.5393475294113159,
                0.7000318765640259
            ],
            "type" : "VEC2"
        },
        {
            "bufferView" : 14,
            "componentType" : 5121,
            "count" : 252,
            "max" : [
                69
            ],
            "min" : [
                0
            ],
            "type" : "SCALAR"
        },
        {
            "bufferView" : 15,
            "componentType" : 5126,
            "count" : 70,
            "max" : [
                4.785513877868652,
                -0.23728793859481812,
                -27.062429428100586
            ],
            "min" : [
                -5.723781585693359,
                -4.599427700042725,
                -47.281734466552734
            ],
            "type" : "VEC3"
        },
        {
            "bufferView" : 16,
            "componentType" : 5126,
            "count" : 70,
            "max" : [
                -0.02545243687927723,
                0.9996337890625,
                0.04818872734904289
            ],
            "min" : [
                -0.887539267539978,
                0.4604022204875946,
                -0.15991699695587158
            ],
            "type" : "VEC3"
        },
        {
            "bufferView" : 17,
            "componentType" : 5126,
            "count" : 70,
            "max" : [
                0.9766590595245361,
                0.21473246812820435,
                0.9999984502792358,
                1.0
            ],
            "min" : [
                -0.0682595893740654,
                -0.049287762492895126,
                0.005210621748119593,
                1.0
            ],
            "type" : "VEC4"
        },
        {
            "bufferView" : 18,
            "componentType" : 5126,
            "count" : 70,
            "max" : [
                0.9982243776321411,
                1.0002479553222656
            ],
            "min" : [
                0.0011607434134930372,
                0.46781712770462036
            ],
            "type" : "VEC2"
        },
        {
            "bufferView" : 19,
            "componentType" : 5121,
            "count" : 984,
            "max" : [
                214
            ],
            "min" : [
                0
            ],
            "type" : "SCALAR"
        },
        {
            "bufferView" : 20,
            "componentType" : 5126,
            "count" : 215,
            "max" : [
                6.3292036056518555,
                1.0358240604400635,
                -27.878408432006836
            ],
            "min" : [
                -9.604456901550293,
                -2.7493631839752197,
                -47.10654830932617
            ],
            "type" : "VEC3"
        },
        {
            "bufferView" : 21,
            "componentType" : 5126,
            "count" : 215,
            "max" : [
                0.3716849386692047,
                0.99920654296875,
                0.6853541731834412
            ],
            "min" : [
                -0.904171884059906,
                0.4271065294742584,
                -0.670247495174408
            ],
            "type" : "VEC3"
        },
        {
            "bufferView" : 22,
            "componentType" : 5126,
            "count" : 215,
            "max" : [
                -0.4791671931743622,
                0.39540958404541016,
                0.1060633435845375,
                1.0
            ],
            "min" : [
                -0.9999333620071411,
                -0.8776564598083496,
                -0.13644732534885406,
                1.0
            ],
            "type" : "VEC4"
        },
        {
            "bufferView" : 23,
            "componentType" : 5126,
            "count" : 215,
            "max" : [
                0.9981372356414795,
                0.4644131064414978
            ],
            "min" : [
                0.6021038293838501,
                0.00011485815048217773
            ],
            "type" : "VEC2"
        },
        {
            "bufferView" : 24,
            "componentType" : 5121,
            "count" : 6,
            "max" : [
                3
            ],
            "min" : [
                0
            ],
            "type" : "SCALAR"
        },
        {
            "bufferView" : 25,
            "componentType" : 5126,
            "count" : 4,
            "max" : [
                4.385455131530762,
                -1.8896061182022095,
                -27.222843170166016
            ],
            "min" : [
                -4.702917098999023,
                -3.887814521789551,
                -42.7264518737793
            ],
            "type" : "VEC3"
        },
        {
            "bufferView" : 26,
            "componentType" : 5126,
            "count" : 4,
            "max" : [
                -0.2147282361984253,
                0.9766533374786377,
                -0.0
            ],
            "min" : [
                -0.2147282361984253,
                0.9766533374786377,
                -0.0
            ],
            "type" : "VEC3"
        },
        {
            "bufferView" : 27,
            "componentType" : 5126,
            "count" : 4,
            "max" : [
                -0.002289146650582552,
                -0.0005033015040680766,
                0.9999972581863403,
                1.0
            ],
            "min" : [
                -0.0022893804125487804,
                -0.0005033529596403241,
                0.9999972581863403,
                1.0
            ],
            "type" : "VEC4"
        },
        {
            "bufferView" : 28,
            "componentType" : 5126,
            "count" : 4,
            "max" : [
                0.8728775978088379,
                0.6313521862030029
            ],
            "min" : [
                0.6162288188934326,
                0.4769243001937866
            ],
            "type" : "VEC2"
        },
        {
            "bufferView" : 29,
            "componentType" : 5121,
            "count" : 6,
            "max" : [
                3
            ],
            "min" : [
                0
            ],
            "type" : "SCALAR"
        },
        {
            "bufferView" : 30,
            "componentType" : 5126,
            "count" : 4,
            "max" : [
                3.5896472930908203,
                -2.803284168243408,
                -27.062429428100586
            ],
            "min" : [
                -4.579681873321533,
                -4.599427700042725,
                -42.7264518737793
            ],
            "type" : "VEC3"
        },
        {
            "bufferView" : 31,
            "componentType" : 5126,
            "count" : 4,
            "max" : [
                -0.2147282361984253,
                0.9766533374786377,
                -0.0
            ],
            "min" : [
                -0.2147282361984253,
                0.9766533374786377,
                -0.0
            ],
            "type" : "VEC3"
        },
        {
            "bufferView" : 32,
            "componentType" : 5126,
            "count" : 4,
            "max" : [
                0.9766590595245361,
                0.21473246812820435,
                0.005210679490119219,
                1.0
            ],
            "min" : [
                0.9766590595245361,
                0.21473246812820435,
                0.005210621748119593,
                1.0
            ],
            "type" : "VEC4"
        },
        {
            "bufferView" : 33,
            "componentType" : 5126,
            "count" : 4,
            "max" : [
                0.9980934858322144,
                0.6993837356567383
            ],
            "min" : [
                0.8735787868499756,
                0.46781712770462036
            ],
            "type" : "VEC2"
        }
    ],
    "asset" : {
        "generator" : "Khronos Blender glTF 2.0 exporter",
        "version" : "2.0"
    },
    "bufferViews" : [
        {
            "buffer" : 0,
            "byteLength" : 672,
            "byteOffset" : 0,
            "target" : 34963
        },
        {
            "buffer" : 0,
            "byteLength" : 1800,
            "byteOffset" : 672,
            "target" : 34962
        },
        {
            "buffer" : 0,
            "byteLength" : 1800,
            "byteOffset" : 2472,
            "target" : 34962
        },
        {
            "buffer" : 0,
            "byteLength" : 1200,
            "byteOffset" : 4272,
            "target" : 34962
        },
        {
            "buffer" : 0,
            "byteLength" : 540,
            "byteOffset" : 5472,
            "target" : 34963
        },
        {
            "buffer" : 0,
            "byteLength" : 1500,
            "byteOffset" : 6012,
            "target" : 34962
        },
        {
            "buffer" : 0,
            "byteLength" : 1500,
            "byteOffset" : 7512,
            "target" : 34962
        },
        {
            "buffer" : 0,
            "byteLength" : 2000,
            "byteOffset" : 9012,
            "target" : 34962
        },
        {
            "buffer" : 0,
            "byteLength" : 1000,
            "byteOffset" : 11012,
            "target" : 34962
        },
        {
            "buffer" : 0,
            "byteLength" : 72,
            "byteOffset" : 12012,
            "target" : 34963
        },
        {
            "buffer" : 0,
            "byteLength" : 240,
            "byteOffset" : 12084,
            "target" : 34962
        },
        {
            "buffer" : 0,
            "byteLength" : 240,
            "byteOffset" : 12324,
            "target" : 34962
        },
        {
            "buffer" : 0,
            "byteLength" : 320,
            "byteOffset" : 12564,
            "target" : 34962
        },
        {
            "buffer" : 0,
            "byteLength" : 160,
            "byteOffset" : 12884,
            "target" : 34962
        },
        {
            "buffer" : 0,
            "byteLength" : 252,
            "byteOffset" : 13044,
            "target" : 34963
        },
        {
            "buffer" : 0,
            "byteLength" : 840,
            "byteOffset" : 13296,
            "target" : 34962
        },
        {
            "buffer" : 0,
            "byteLength" : 840,
            "byteOffset" : 14136,
            "target" : 34962
        },
        {
            "buffer" : 0,
            "byteLength" : 1120,
            "byteOffset" : 14976,
            "target" : 34962
        },
        {
            "buffer" : 0,
            "byteLength" : 560,
            "byteOffset" : 16096,
            "target" : 34962
        },
        {
            "buffer" : 0,
            "byteLength" : 984,
            "byteOffset" : 16656,
            "target" : 34963
        },
        {
            "buffer" : 0,
            "byteLength" : 2580,
            "byteOffset" : 17640,
            "target" : 34962
        },
        {
            "buffer" : 0,
            "byteLength" : 2580,
            "byteOffset" : 20220,
            "target" : 34962
        },
        {
            "buffer" : 0,
            "byteLength" : 3440,
            "byteOffset" : 22800,
            "target" : 34962
        },
        {
            "buffer" : 0,
            "byteLength" : 1720,
            "byteOffset" : 26240,
            "target" : 34962
        },
        {
            "buffer" : 0,
            "byteLength" : 6,
            "byteOffset" : 27960,
            "target" : 34963
        },
        {
            "buffer" : 0,
            "byteLength" : 48,
            "byteOffset" : 27968,
            "target" : 34962
        },
        {
            "buffer" : 0,
            "byteLength" : 48,
            "byteOffset" : 28016,
            "target" : 34962
        },
        {
            "buffer" : 0,
            "byteLength" : 64,
            "byteOffset" : 28064,
            "target" : 34962
        },
        {
            "buffer" : 0,
            "byteLength" : 32,
            "byteOffset" : 28128,
            "target" : 34962
        },
        {
            "buffer" : 0,
            "byteLength" : 6,
            "byteOffset" : 28160,
            "target" : 34963
        },
        {
            "buffer" : 0,
            "byteLength" : 48,
            "byteOffset" : 28168,
            "target" : 34962
        },
        {
            "buffer" : 0,
            "byteLength" : 48,
            "byteOffset" : 28216,
            "target" : 34962
        },
        {
            "buffer" : 0,
            "byteLength" : 64,
            "byteOffset" : 28264,
            "target" : 34962
        },
        {
            "buffer" : 0,
            "byteLength" : 32,
            "byteOffset" : 28328,
            "target" : 34962
        }
    ],
    "buffers" : [
        {
            "byteLength" : 28360,
            "uri" : "hair.bin"
        }
    ],
    "meshes" : [
        {
            "name" : "2.003",
            "primitives" : [
                {
                    "attributes" : {
                        "NORMAL" : 2,
                        "POSITION" : 1,
                        "TEXCOORD_0" : 3
                    },
                    "indices" : 0
                }
            ]
        },
        {
            "name" : "1.003",
            "primitives" : [
                {
                    "attributes" : {
                        "NORMAL" : 6,
                        "POSITION" : 5,
                        "TANGENT" : 7,
                        "TEXCOORD_0" : 8
                    },
                    "indices" : 4
                }
            ]
        },
        {
            "name" : "5.002",
            "primitives" : [
                {
                    "attributes" : {
                        "NORMAL" : 11,
                        "POSITION" : 10,
                        "TANGENT" : 12,
                        "TEXCOORD_0" : 13
                    },
                    "indices" : 9
                }
            ]
        },
        {
            "name" : "4.002",
            "primitives" : [
                {
                    "attributes" : {
                        "NORMAL" : 16,
                        "POSITION" : 15,
                        "TANGENT" : 17,
                        "TEXCOORD_0" : 18
                    },
                    "indices" : 14
                }
            ]
        },
        {
            "name" : "3.002",
            "primitives" : [
                {
                    "attributes" : {
                        "NORMAL" : 21,
                        "POSITION" : 20,
                        "TANGENT" : 22,
                        "TEXCOORD_0" : 23
                    },
                    "indices" : 19
                }
            ]
        },
        {
            "name" : "6.002",
            "primitives" : [
                {
                    "attributes" : {
                        "NORMAL" : 26,
                        "POSITION" : 25,
                        "TANGENT" : 27,
                        "TEXCOORD_0" : 28
                    },
                    "indices" : 24
                }
            ]
        },
        {
            "name" : "7.002",
            "primitives" : [
                {
                    "attributes" : {
                        "NORMAL" : 31,
                        "POSITION" : 30,
                        "TANGENT" : 32,
                        "TEXCOORD_0" : 33
                    },
                    "indices" : 29
                }
            ]
        }
    ],
    "nodes" : [
        {
            "mesh" : 6,
            "name" : "0",
            "rotation" : [
                0.7071068286895752,
                0.0,
                -0.0,
                0.7071067094802856
            ],
            "translation" : [
                0.0007314868271350861,
                0.02908722311258316,
                0.12824200093746185
            ]
        },
        {
            "mesh" : 5,
            "name" : "1",
            "rotation" : [
                0.7071068286895752,
                0.0,
                -0.0,
                0.7071067094802856
            ],
            "scale" : [
                0.10000000149011612,
                0.10000000149011612,
                0.10000000149011612
            ],
            "translation" : [
                0.0007314868271350861,
                0.02908722311258316,
                0.12824200093746185
            ]
        },
        {
            "mesh" : 2,
            "name" : "2",
            "rotation" : [
                0.7071068286895752,
                0.0,
                -0.0,
                0.7071067094802856
            ],
            "scale" : [
                0.10000000149011612,
                0.10000000149011612,
                0.10000000149011612
            ],
            "translation" : [
                0.0007314868271350861,
                0.02908722311258316,
                0.12824200093746185
            ]
        },
        {
            "mesh" : 3,
            "name" : "3",
            "rotation" : [
                0.7071068286895752,
                0.0,
                -0.0,
                0.7071067094802856
            ],
            "scale" : [
                0.10000000149011612,
                0.10000000149011612,
                0.10000000149011612
            ],
            "translation" : [
                0.0007314868271350861,
                0.02908722311258316,
                0.12824200093746185
            ]
        },
        {
            "mesh" : 4,
            "name" : "4",
            "rotation" : [
                0.7071068286895752,
                0.0,
                -0.0,
                0.7071067094802856
            ],
            "scale" : [
                0.10000000149011612,
                0.10000000149011612,
                0.10000000149011612
            ],
            "translation" : [
                0.0007314868271350861,
                0.02908722311258316,
                0.12824200093746185
            ]
        },
        {
            "mesh" : 0,
            "name" : "5",
            "rotation" : [
                0.7071068286895752,
                0.0,
                -0.0,
                0.7071067094802856
            ],
            "scale" : [
                0.10000000149011612,
                0.10000000149011612,
                0.10000000149011612
            ],
            "translation" : [
                0.0007314868271350861,
                0.02908722311258316,
                0.12824200093746185
            ]
        },
        {
            "mesh" : 1,
            "name" : "6",
            "rotation" : [
                0.7071068286895752,
                0.0,
                -0.0,
                0.7071067094802856
            ],
            "scale" : [
                0.10000000149011612,
                0.10000000149011612,
                0.10000000149011612
            ],
            "translation" : [
                0.0007314868271350861,
                0.02908722311258316,
                0.12824200093746185
            ]
        }
    ],
    "scene" : 0,
    "scenes" : [
        {
            "name" : "Scene",
            "nodes" : [
                1,
                6,
                3,
                2,
                5,
                0,
                4
            ]
        }
    ]
}
