<?xml version="1.0" encoding="UTF-8" standalone="no"?><!-- Generator: Gravit.io --><svg xmlns="http://www.w3.org/2000/svg" xmlns:xlink="http://www.w3.org/1999/xlink" style="isolation:isolate" viewBox="1252.204 414.384 102.404 53.536" width="102.404pt" height="53.536pt"><path d=" M 1312.446 418.251 C 1320.584 420.236 1331.5 424.205 1337.058 426.984 C 1342.417 429.763 1346.982 432.144 1347.379 432.144 C 1347.776 432.144 1348.966 429.366 1350.157 426.19 C 1351.15 422.816 1352.936 420.236 1354.127 420.236 C 1355.318 420.236 1353.928 424.999 1351.348 430.557 C 1347.974 438.297 1342.615 444.649 1331.5 454.374 C 1322.966 461.916 1315.423 467.871 1314.431 467.871 C 1313.439 467.871 1312.645 465.687 1312.645 462.909 C 1312.645 452.191 1296.766 445.442 1284.064 450.801 C 1280.293 452.389 1276.72 455.565 1275.926 457.748 C 1275.331 460.13 1273.941 461.916 1272.949 461.916 C 1270.17 461.916 1251.116 424.602 1252.307 421.426 C 1252.903 419.839 1255.88 417.655 1258.658 416.465 C 1267.987 413.09 1296.568 414.083 1312.446 418.251 Z  M 1262.43 419.64 C 1255.88 420.633 1253.895 424.205 1257.071 429.961 L 1259.254 434.129 L 1266.995 430.16 C 1271.361 427.976 1278.705 426.19 1283.865 426.19 C 1294.186 426.19 1294.583 428.969 1284.461 429.763 C 1271.163 430.755 1262.033 437.106 1267.59 441.87 C 1269.178 443.061 1274.14 442.664 1282.873 440.084 L 1295.774 436.511 L 1286.842 435.518 C 1281.88 435.122 1284.262 434.923 1292.003 435.122 C 1303.713 435.32 1308.08 436.511 1318.202 442.068 C 1330.111 448.817 1335.47 449.214 1330.508 443.061 C 1327.531 439.488 1318.798 434.328 1309.668 430.755 C 1305.301 429.167 1304.706 428.373 1307.683 428.373 C 1313.24 428.175 1327.332 434.923 1332.493 440.084 C 1336.462 444.053 1337.256 444.252 1339.836 441.473 C 1344.203 437.106 1341.623 434.328 1326.737 427.778 C 1311.057 420.633 1281.285 416.861 1262.43 419.64 Z " fill-rule="evenodd" fill="rgb(0,0,0)" vector-effect="non-scaling-stroke" stroke-width="0.1" stroke="rgb(0,0,0)" stroke-linejoin="miter" stroke-linecap="square" stroke-miterlimit="3"/></svg>