<?xml version="1.0" encoding="UTF-8" standalone="no"?><!-- Generator: Gravit.io --><svg xmlns="http://www.w3.org/2000/svg" xmlns:xlink="http://www.w3.org/1999/xlink" style="isolation:isolate" viewBox="882.812 452.392 546.985 459.523" width="546.985pt" height="459.523pt"><path d=" M 1305.301 456.359 C 1309.866 458.741 1309.668 470.054 1304.706 489.703 C 1298.354 514.315 1282.873 595.294 1284.064 597.08 C 1285.85 600.256 1295.576 599.065 1302.324 594.897 C 1314.63 587.355 1324.95 566.515 1334.08 529.598 C 1338.844 510.742 1339.836 508.757 1346.188 504.391 C 1354.722 498.635 1360.28 498.238 1360.28 503.398 C 1360.28 505.383 1358.89 513.124 1357.501 520.666 C 1355.913 528.208 1352.142 546.667 1349.165 561.95 L 1344.004 589.34 L 1347.974 593.309 C 1355.318 600.653 1372.585 593.905 1378.937 581.401 C 1380.326 578.423 1384.891 562.148 1389.059 545.277 C 1398.388 506.177 1400.372 502.009 1412.877 495.261 C 1422.602 489.902 1429.747 488.115 1429.747 491.093 C 1429.747 493.474 1420.22 533.17 1412.678 562.148 C 1409.106 576.24 1403.747 600.058 1401.166 614.745 C 1389.456 677.266 1383.502 699.297 1374.57 709.817 C 1358.692 728.871 1332.294 715.374 1331.897 687.984 C 1331.699 666.747 1351.15 657.021 1362.86 672.701 C 1366.83 677.861 1366.83 678.06 1362.86 685.999 C 1360.478 690.564 1359.486 694.732 1360.478 695.328 C 1363.058 696.915 1370.204 684.014 1370.204 678.06 C 1370.204 675.083 1371.99 664.365 1373.975 654.044 C 1376.158 643.723 1378.54 628.242 1379.334 619.906 L 1380.723 604.424 L 1371.593 610.974 C 1362.066 617.722 1346.585 620.699 1335.668 617.921 C 1329.714 616.531 1324.553 607.6 1324.553 599.065 C 1324.553 591.523 1321.973 589.935 1317.805 594.699 C 1315.423 597.279 1314.828 600.058 1315.82 603.829 L 1317.21 609.386 L 1307.484 608.195 C 1297.163 607.004 1287.041 609.386 1292.797 611.569 C 1294.385 612.165 1305.103 614.944 1316.614 617.524 C 1339.836 623.081 1365.242 631.417 1369.41 634.791 C 1375.563 639.952 1372.585 642.334 1361.471 641.143 C 1345.394 639.555 1333.684 641.937 1322.767 649.479 L 1312.843 656.029 L 1300.339 651.464 C 1293.392 649.082 1282.674 645.906 1276.323 644.517 C 1266.995 642.731 1263.422 640.746 1258.063 634.99 C 1243.376 618.715 1214.596 607.203 1194.55 609.585 C 1179.664 611.371 1161.602 621.096 1150.487 633.402 C 1141.357 643.723 1140.563 644.12 1128.059 645.311 C 1120.914 646.105 1111.387 647.097 1106.623 647.693 L 1098.089 648.883 L 1099.28 677.068 C 1100.669 714.977 1101.86 722.718 1107.616 737.604 C 1112.181 748.917 1112.379 751.299 1110.196 756.459 C 1101.86 776.902 1098.486 788.414 1096.303 803.896 C 1092.531 831.484 1095.906 848.553 1107.814 861.256 C 1112.181 866.02 1112.975 868.997 1113.769 882.692 C 1114.563 895.196 1114.166 898.57 1111.982 898.769 C 1110.395 898.769 1107.814 899.166 1106.227 899.364 C 1104.639 899.761 1093.524 900.555 1081.417 901.349 C 1069.508 902.143 1055.614 903.135 1050.851 903.929 C 1040.728 905.318 1038.744 903.334 1038.744 891.226 C 1038.744 885.471 1041.125 878.325 1047.278 866.814 L 1055.614 850.538 L 1055.614 819.377 C 1055.614 789.208 1055.416 787.819 1050.255 777.696 C 1043.706 765.192 1043.507 763.604 1048.469 749.512 C 1053.828 734.626 1055.416 713.389 1053.63 683.419 C 1052.439 660.991 1051.843 658.212 1048.866 659.403 C 1047.08 660.197 1038.148 662.579 1028.82 664.563 C 1000.834 670.716 1002.223 669.128 1003.811 691.755 C 1005.796 718.947 1010.163 742.367 1016.315 757.253 L 1021.277 770.154 L 1016.911 788.216 C 1011.949 808.262 1008.972 835.454 1010.361 847.76 C 1012.147 865.623 1013.338 869.394 1019.69 876.341 C 1024.652 881.898 1026.636 886.264 1027.827 894.005 L 1029.217 904.326 L 1020.484 905.318 C 967.093 912.265 958.955 912.861 956.97 910.876 C 955.779 909.685 954.39 904.326 953.795 898.769 C 953.001 890.433 953.596 888.051 958.161 882.295 C 969.871 866.814 971.856 848.95 965.505 817.988 C 961.932 801.117 956.772 786.826 951.214 779.284 C 949.23 776.506 949.627 773.925 953.596 765.391 C 958.161 755.268 958.36 752.887 958.161 717.359 C 957.963 696.717 956.97 679.251 956.176 678.258 C 955.184 677.266 943.275 679.052 929.58 682.228 C 915.885 685.404 903.182 687.984 901.396 688.182 C 899.014 688.182 896.831 684.411 893.854 674.884 C 891.274 667.342 887.701 659.403 885.518 657.22 C 881.747 653.052 881.747 652.853 887.106 648.685 C 890.083 646.502 894.648 644.517 897.625 644.318 C 900.404 644.318 904.572 643.525 906.755 642.731 C 909.732 641.54 911.519 642.334 914.496 646.105 C 916.679 648.685 922.038 652.655 926.404 654.639 C 947.84 664.365 976.223 654.044 994.88 630.028 C 1002.62 619.906 1004.01 618.913 1013.537 617.722 C 1019.293 616.928 1033.583 614.745 1045.492 612.562 C 1057.401 610.577 1070.897 608.791 1075.264 608.791 C 1079.829 608.592 1088.76 607.6 1095.31 606.21 L 1107.02 603.63 L 1095.112 599.264 C 1077.646 592.912 1067.92 585.172 1061.966 572.668 C 1046.087 539.522 1059.385 493.871 1091.142 472.039 C 1125.479 448.221 1181.252 455.763 1186.809 484.94 C 1188.794 495.062 1183.435 515.903 1176.091 526.223 C 1163.785 544.087 1145.327 551.629 1130.044 545.277 C 1116.349 539.522 1111.585 521.857 1120.12 507.963 C 1130.044 491.688 1159.617 492.68 1159.816 509.353 C 1160.014 514.315 1160.014 514.315 1162.793 510.742 C 1167.358 504.589 1166.564 492.879 1161.007 486.329 C 1156.64 481.367 1154.854 480.772 1143.541 480.772 C 1111.387 480.97 1084.394 509.353 1084.394 543.491 C 1084.394 562.744 1091.142 572.072 1109.005 578.225 C 1140.96 588.943 1168.35 574.057 1197.13 529.995 C 1205.665 517.093 1209.039 513.719 1213.802 512.727 C 1225.314 510.345 1225.512 510.742 1220.947 521.857 C 1214.596 537.934 1209.237 561.354 1210.23 568.896 C 1210.825 572.469 1212.81 577.233 1214.596 579.217 C 1218.566 583.782 1229.284 584.179 1236.826 580.21 C 1252.307 572.072 1258.658 557.186 1269.178 502.803 C 1278.903 452.985 1279.896 450.801 1293.392 452.985 C 1297.957 453.779 1303.316 455.168 1305.301 456.359 Z  M 1286.049 458.145 C 1285.453 459.733 1282.277 477.398 1278.903 497.642 C 1275.529 517.887 1269.575 550.835 1265.804 570.683 C 1262.231 590.729 1259.055 608.592 1259.254 610.379 C 1259.452 618.913 1263.422 602.836 1270.964 562.148 C 1275.331 538.132 1281.484 504.986 1284.659 488.711 C 1288.033 471.443 1289.82 458.145 1288.629 457.153 C 1287.636 455.962 1286.644 456.359 1286.049 458.145 Z  M 1296.766 476.207 C 1295.377 484.146 1289.621 517.887 1283.667 551.033 C 1277.712 584.378 1273.147 612.363 1273.544 613.356 C 1273.941 614.944 1299.148 488.711 1302.125 469.26 C 1302.721 464.695 1302.522 461.916 1301.133 461.916 C 1299.942 461.916 1297.957 468.466 1296.766 476.207 Z  M 1178.671 574.255 C 1172.32 581.401 1162.595 590.134 1157.037 593.706 L 1146.915 599.859 L 1184.626 601.05 C 1218.566 602.241 1228.093 603.035 1242.582 606.012 C 1247.742 607.004 1250.124 603.432 1252.109 591.126 L 1253.498 582.195 L 1245.559 588.546 C 1227.497 603.035 1212.016 604.027 1201.496 591.325 C 1195.741 584.179 1190.183 567.11 1192.565 563.141 C 1193.16 562.148 1192.962 561.156 1191.969 561.156 C 1191.176 561.156 1185.023 567.11 1178.671 574.255 Z  M 1271.361 621.692 C 1271.361 624.868 1271.758 626.058 1272.353 624.074 C 1272.75 622.287 1272.75 619.509 1272.353 618.119 C 1271.758 616.928 1271.361 618.318 1271.361 621.692 Z " fill-rule="evenodd" fill="rgb(0,0,0)" vector-effect="non-scaling-stroke" stroke-width="0.1" stroke="rgb(0,0,0)" stroke-linejoin="miter" stroke-linecap="square" stroke-miterlimit="3"/></svg>