<?xml version="1.0" encoding="UTF-8" standalone="no"?><!-- Generator: Gravit.io --><svg xmlns="http://www.w3.org/2000/svg" xmlns:xlink="http://www.w3.org/1999/xlink" style="isolation:isolate" viewBox="1242.677 340.694 122.119 76.714" width="122.119pt" height="76.714pt"><path d=" M 1310.66 343.226 C 1310.461 344.615 1309.271 351.165 1307.881 357.715 C 1304.904 370.616 1303.912 367.043 1306.492 353.15 C 1308.08 344.814 1306.492 341.836 1303.713 348.188 C 1301.927 352.554 1296.766 378.357 1296.766 382.723 C 1296.766 385.502 1306.492 388.28 1318.004 388.677 C 1319.79 388.677 1326.141 362.677 1326.34 354.142 C 1326.538 346.004 1323.363 347.791 1320.981 357.119 L 1318.798 365.654 L 1319.988 354.738 C 1320.584 348.783 1321.378 343.424 1321.973 342.829 C 1322.569 342.233 1324.752 344.02 1326.935 346.798 C 1331.103 351.76 1331.103 356.325 1327.332 383.715 L 1326.141 391.655 L 1334.874 394.235 C 1347.974 398.204 1358.295 404.754 1361.669 411.304 L 1364.646 417.258 L 1359.089 411.899 C 1351.15 404.357 1338.447 399.197 1313.836 393.441 C 1291.011 388.082 1284.858 387.487 1284.858 390.464 C 1284.858 391.456 1286.247 392.449 1287.835 392.449 C 1289.423 392.449 1290.812 393.242 1290.812 394.036 C 1290.812 394.83 1287.636 395.227 1283.865 394.83 C 1272.552 393.441 1259.452 396.418 1253.498 401.38 C 1248.338 405.945 1248.139 405.945 1251.91 410.113 C 1256.674 415.472 1254.49 418.052 1249.33 413.487 C 1242.979 407.731 1240.795 399.395 1244.963 395.624 C 1249.925 391.059 1264.216 386.494 1277.514 385.105 L 1288.827 383.914 L 1291.804 373.792 C 1293.194 368.234 1295.377 360.295 1296.568 355.928 C 1298.751 347.592 1303.912 340.844 1308.08 340.844 C 1309.469 340.844 1310.66 342.035 1310.66 343.226 Z " fill="rgb(0,0,0)" vector-effect="non-scaling-stroke" stroke-width="0.1" stroke="rgb(0,0,0)" stroke-linejoin="miter" stroke-linecap="square" stroke-miterlimit="3"/></svg>