<?xml version="1.0" encoding="UTF-8" standalone="no"?><!-- Generator: Gravit.io --><svg xmlns="http://www.w3.org/2000/svg" xmlns:xlink="http://www.w3.org/1999/xlink" style="isolation:isolate" viewBox="918.015 545.502 96.422 100.978" width="96.422pt" height="100.978pt"><path d=" M 1004.605 550.636 C 1007.582 552.82 1011.155 558.179 1012.743 562.545 C 1016.712 573.461 1012.941 585.966 1002.422 598.073 C 981.78 621.493 953.596 621.89 953.398 598.668 C 953.398 589.737 959.352 581.798 967.49 580.011 C 974.238 578.423 979.2 581.599 979.2 587.157 C 979.2 592.317 982.177 591.92 986.941 585.767 C 992.498 578.82 993.689 573.858 991.109 569.095 C 983.566 555.003 951.81 570.881 941.29 593.905 C 937.122 603.035 936.328 618.715 939.901 622.287 C 943.077 625.463 951.214 625.264 957.367 621.692 C 960.146 620.104 965.505 618.715 969.276 618.715 C 973.047 618.516 979.597 617.325 983.765 615.936 C 987.735 614.348 991.109 613.951 991.109 614.745 C 991.109 618.119 977.017 633.601 969.276 638.761 C 959.352 645.509 950.42 647.494 937.916 645.708 C 924.42 643.922 919.061 637.769 918.267 623.28 C 917.87 616.928 918.664 607.798 920.053 603.035 C 922.435 595.294 924.023 593.508 933.55 588.546 C 947.642 581.401 962.131 566.912 965.505 556.789 C 966.894 552.423 969.871 548.056 972.055 547.064 C 979.2 544.087 998.452 546.071 1004.605 550.636 Z " fill="rgb(0,0,0)" vector-effect="non-scaling-stroke" stroke-width="0.1" stroke="rgb(0,0,0)" stroke-linejoin="miter" stroke-linecap="square" stroke-miterlimit="3"/></svg>