<?xml version="1.0" encoding="UTF-8" standalone="no"?><!-- Generator: Gravit.io --><svg xmlns="http://www.w3.org/2000/svg" xmlns:xlink="http://www.w3.org/1999/xlink" style="isolation:isolate" viewBox="1197.178 445.491 60.042 62.225" width="60.042pt" height="62.225pt"><path d=" M 1247.544 471.245 C 1252.704 473.031 1257.071 475.016 1257.071 475.81 C 1257.071 476.405 1253.498 478.985 1249.131 481.764 C 1241.589 486.528 1241.192 487.123 1241.192 497.047 C 1241.192 502.803 1240.597 507.566 1239.604 507.566 C 1238.811 507.566 1234.841 504.788 1230.673 501.414 L 1223.131 495.261 L 1213.405 498.436 C 1208.046 500.223 1203.283 501.612 1202.687 501.612 C 1202.092 501.612 1203.283 497.047 1205.466 491.49 L 1209.436 481.367 L 1203.481 473.23 L 1197.328 464.893 L 1208.245 464.298 C 1218.764 463.703 1219.558 463.306 1225.711 454.771 L 1232.261 445.641 L 1235.039 456.756 C 1237.818 467.275 1238.414 467.871 1247.544 471.245 Z " fill="rgb(0,0,0)" vector-effect="non-scaling-stroke" stroke-width="0.1" stroke="rgb(0,0,0)" stroke-linejoin="miter" stroke-linecap="square" stroke-miterlimit="3"/></svg>