<?xml version="1.0" encoding="UTF-8" standalone="no"?><!-- Generator: Gravit.io --><svg xmlns="http://www.w3.org/2000/svg" xmlns:xlink="http://www.w3.org/1999/xlink" style="isolation:isolate" viewBox="1126.917 621.095 154.224 259.961" width="154.224pt" height="259.961pt"><path d=" M 1229.085 627.646 C 1249.131 637.57 1263.62 657.021 1276.522 690.167 C 1280.888 701.679 1281.682 706.442 1280.491 711.007 C 1276.125 726.687 1274.735 739.39 1274.934 769.559 C 1274.934 787.62 1275.728 807.667 1276.919 814.217 C 1279.3 828.11 1276.125 840.019 1263.422 864.829 L 1255.88 879.715 L 1240.597 880.31 L 1225.314 880.906 L 1225.314 871.18 C 1225.314 859.271 1217.772 847.561 1206.061 841.805 L 1198.519 838.034 L 1209.436 837.836 C 1222.138 837.637 1230.673 833.866 1238.215 824.736 C 1243.971 817.988 1250.124 805.483 1248.536 803.896 C 1247.941 803.499 1245.36 805.285 1242.582 808.064 C 1228.49 822.156 1202.886 816.003 1197.328 797.346 C 1196.138 793.178 1195.542 787.62 1196.138 785.04 C 1197.328 780.872 1198.122 780.475 1208.245 781.071 C 1218.169 781.666 1219.558 781.269 1226.902 774.719 C 1236.627 765.986 1242.383 752.688 1245.36 733.237 C 1250.719 697.511 1233.452 670.319 1205.466 670.319 C 1196.336 670.319 1193.359 671.312 1187.404 676.075 C 1178.473 683.419 1171.129 697.114 1165.373 716.962 C 1158.823 739.985 1158.823 776.506 1165.572 796.949 C 1171.725 816.003 1179.664 827.912 1188.992 832.874 L 1196.534 836.645 L 1183.435 835.652 C 1169.343 834.461 1158.625 836.843 1149.495 843.393 L 1144.136 847.164 L 1139.968 839.026 C 1137.785 834.66 1134.014 823.347 1131.632 813.82 C 1127.861 798.735 1127.067 790.995 1127.067 757.65 C 1127.067 715.572 1129.846 696.717 1139.174 673.495 C 1157.037 629.433 1194.748 610.18 1229.085 627.646 Z " fill="rgb(0,0,0)" vector-effect="non-scaling-stroke" stroke-width="0.1" stroke="rgb(0,0,0)" stroke-linejoin="miter" stroke-linecap="square" stroke-miterlimit="3"/></svg>