<?xml version="1.0" encoding="UTF-8" standalone="no"?><!-- Generator: Gravit.io --><svg xmlns="http://www.w3.org/2000/svg" xmlns:xlink="http://www.w3.org/1999/xlink" style="isolation:isolate" viewBox="1017.753 390.683 70.766 121.003" width="70.766pt" height="121.003pt"><path d=" M 1040.53 398.8 C 1036.957 405.945 1036.163 411.304 1035.568 439.29 C 1034.774 464.893 1035.171 473.031 1037.553 478.787 C 1041.324 487.718 1049.065 491.093 1055.813 486.925 C 1060.576 483.749 1067.722 467.077 1069.706 453.779 C 1070.699 447.626 1072.287 445.244 1076.256 443.855 C 1079.035 442.664 1083.203 440.282 1085.188 438.496 C 1088.76 435.32 1088.959 435.32 1087.569 441.076 C 1086.974 444.252 1085.783 450.206 1084.989 453.977 C 1084.195 458.741 1079.829 465.092 1071.493 474.023 C 1064.347 481.566 1056.805 492.284 1053.63 499.23 C 1049.263 508.559 1046.881 511.536 1043.904 511.536 C 1036.56 511.536 1027.43 504.192 1022.667 494.268 C 1018.499 486.131 1017.903 481.963 1017.903 463.901 C 1017.903 438.694 1022.667 421.228 1034.576 402.769 C 1043.904 388.677 1046.683 386.693 1040.53 398.8 Z " fill="rgb(0,0,0)" vector-effect="non-scaling-stroke" stroke-width="0.1" stroke="rgb(0,0,0)" stroke-linejoin="miter" stroke-linecap="square" stroke-miterlimit="3"/></svg>