<?xml version="1.0" encoding="UTF-8" standalone="no"?><!-- Generator: Gravit.io --><svg xmlns="http://www.w3.org/2000/svg" xmlns:xlink="http://www.w3.org/1999/xlink" style="isolation:isolate" viewBox="1146.261 657.152 315.378 279.003" width="315.378pt" height="279.003pt"><path d=" M 1425.976 674.289 C 1483.138 732.245 1469.443 840.416 1398.189 894.204 C 1361.471 921.792 1322.37 933.701 1261.04 935.686 C 1219.36 937.075 1200.306 934.098 1178.274 923.38 C 1160.61 914.647 1151.48 904.525 1147.907 889.837 C 1140.563 859.073 1161.007 840.416 1192.565 849.149 C 1211.42 854.309 1219.955 873.76 1207.451 883.089 C 1204.275 885.471 1201.496 888.051 1201.496 888.845 C 1201.496 889.639 1209.237 891.226 1218.566 892.616 C 1238.414 895.394 1262.231 894.005 1289.026 888.646 C 1306.69 885.074 1307.484 885.074 1312.446 888.448 C 1328.722 899.761 1357.303 900.158 1379.135 889.639 C 1392.433 883.089 1412.48 862.248 1421.411 845.576 C 1438.282 813.82 1444.435 754.871 1434.709 718.947 C 1430.144 702.473 1417.839 676.671 1410.296 668.136 C 1406.724 664.166 1403.945 659.8 1403.945 658.609 C 1403.945 654.441 1412.281 660.395 1425.976 674.289 Z " fill="rgb(0,0,0)" vector-effect="non-scaling-stroke" stroke-width="0.1" stroke="rgb(0,0,0)" stroke-linejoin="miter" stroke-linecap="square" stroke-miterlimit="3"/></svg>