<svg xmlns="http://www.w3.org/2000/svg" xmlns:xlink="http://www.w3.org/1999/xlink" version="1.1" x="0px" y="0px" viewBox="0 0 100 125" enable-background="new 0 0 100 100" xml:space="preserve"><path fill="#000000" d="M90.557,9.221c-0.984-0.984-2.273-1.477-3.564-1.476c-1.289,0-2.579,0.492-3.563,1.476  c-1.66,1.66-1.92,4.191-0.778,6.124l-7.432,7.431l-2.628-2.628L58.336,34.403l-3.427-3.426c-5.4,4.036-11.268,9.122-17.11,14.964  c-5.842,5.842-10.929,11.71-14.964,17.11l3.604,3.604L16.282,76.812l-3.563,8.315l-4.752,4.751l2.376,2.376l4.752-4.751l8.315-3.563  l2.51-2.51l-0.182-3.323l2.117-2.118l3.54-0.035l2.172-2.171l3.159,3.159c5.399-4.035,11.268-9.122,17.109-14.964  c5.843-5.842,10.929-11.71,14.965-17.11l-3.338-3.337l14.256-14.255l-2.718-2.718l7.431-7.431c0.788,0.465,1.675,0.698,2.562,0.698  c1.289,0,2.579-0.492,3.563-1.476C92.524,14.38,92.524,11.188,90.557,9.221z M30.342,73.445l-2.511,0.025l-1.029,0.01l-0.728,0.728  l-2.118,2.118l-0.796,0.796l0.062,1.124l0.12,2.199l-1.37,1.371l-6.237,2.673l2.673-6.236l9.755-9.754l3.563,3.563L30.342,73.445z   M49.134,38.854l11.789,11.789c-0.989,1.153-2.013,2.309-3.062,3.463l-12.19-12.19C46.825,40.867,47.981,39.844,49.134,38.854z   M38.706,48.604l12.467,12.467c-1.102,1.087-2.213,2.153-3.328,3.197L35.509,51.932C36.553,50.817,37.619,49.706,38.706,48.604z   M45.991,65.979c-1.154,1.049-2.31,2.073-3.462,3.062L30.736,57.248c0.99-1.152,2.013-2.308,3.062-3.462L45.991,65.979z   M26.174,62.826c0.933-1.204,1.912-2.421,2.93-3.646l11.494,11.494c-1.226,1.018-2.442,1.997-3.646,2.93L26.174,62.826z   M52.955,59.289L40.488,46.822c1.102-1.086,2.213-2.152,3.328-3.196L56.151,55.96C55.107,57.076,54.041,58.187,52.955,59.289z   M65.462,45.093c-0.926,1.194-1.897,2.403-2.907,3.618L51.066,37.222c1.215-1.009,2.424-1.981,3.618-2.907l1.869,1.869l7.128,7.128  l0,0L65.462,45.093z M63.682,39.749l-3.564-3.564l12.474-12.473l3.563,3.564L63.682,39.749z M88.774,14.566  c-0.476,0.476-1.108,0.738-1.781,0.738c-0.674,0-1.307-0.262-1.782-0.738c-0.982-0.983-0.982-2.582,0-3.564  c0.476-0.476,1.108-0.738,1.782-0.738l0,0c0.673,0,1.306,0.262,1.781,0.738c0.477,0.476,0.738,1.108,0.738,1.782  S89.251,14.09,88.774,14.566z"/><text x="0" y="115" fill="#000000" font-size="5px" font-weight="bold" font-family="'Helvetica Neue', Helvetica, Arial-Unicode, Arial, Sans-serif">Created by Javier Sánchez - javyliu</text><text x="0" y="120" fill="#000000" font-size="5px" font-weight="bold" font-family="'Helvetica Neue', Helvetica, Arial-Unicode, Arial, Sans-serif">from the Noun Project</text></svg>