<svg xmlns="http://www.w3.org/2000/svg" data-name="Слой 1" viewBox="0 0 100 125" x="0px" y="0px"><defs><style>.cls-1{fill:none;}</style></defs><title>Монтажная область 6</title><path class="cls-1" d="M70,11.43a2.92,2.92,0,0,0-1.05-.2,2.83,2.83,0,0,0-2.45,4.27Z"/><path class="cls-1" d="M67.89,16.91h0a1.05,1.05,0,0,0,1.48-.11l2.34-2.72a1,1,0,0,0,.26-.76,1,1,0,0,0-.36-.72L70.87,12l-3.71,4.31Z"/><path class="cls-1" d="M74.1,20.5,77,23l8.81,7.6,2.93,2.53,4.34,3.74a1.19,1.19,0,0,0,.9.3,1.22,1.22,0,0,0,.84-.42l.21-.25a1.23,1.23,0,0,0,.3-.9,1.31,1.31,0,0,0-.42-.84L90.59,31l-2.93-2.52-8.81-7.6-2.92-2.53-3.78-3.26-1.82,2.12Z"/><polygon class="cls-1" points="79.13 19.83 80.5 18.24 78.33 16.37 76.96 17.95 78.04 18.89 79.13 19.83"/><polygon class="cls-1" points="85.57 31.7 84.2 33.29 86.37 35.16 87.74 33.58 86.48 32.49 85.57 31.7"/><polygon class="cls-1" points="90.86 29.95 92.23 28.36 90.06 26.49 88.69 28.08 90.02 29.22 90.86 29.95"/><rect class="cls-1" x="34.1" y="28.07" width="4.17" height="1.25" transform="translate(-9.18 37.33) rotate(-49.2)"/><polygon class="cls-1" points="39.48 35.62 35.02 31.76 33.31 30.3 32.22 29.35 30.52 31.32 31.62 32.26 33.32 33.73 37.79 37.59 39.48 35.62"/><path class="cls-1" d="M17.87,72.92a4.68,4.68,0,0,1-.8-.54,6,6,0,0,1-.5-.51,1.83,1.83,0,0,1-.13-.16,4.37,4.37,0,0,1-.31-.44l-.08-.1L12.73,75a4.49,4.49,0,0,1-5.11,6L3.2,88.54l6.88-5.9,8.19-9.5-.2-.1Z"/><rect class="cls-1" x="28.31" y="34.74" width="4.24" height="1.25" transform="translate(-16.22 35.3) rotate(-49.22)"/><path class="cls-1" d="M55,32.48l-5.53,6.41L54,42.75l.92-1.06-3-2.54a.49.49,0,0,1,0-.7L65.41,22.77a.45.45,0,0,1,.34-.17.48.48,0,0,1,.36.12l2,1.73,2.16-2.51a.49.49,0,0,1,.7-.05l.73.62,1.36-1.58-3.5-3a2.06,2.06,0,0,1-.84.26h-.16a2.07,2.07,0,0,1-1.34-.49L66.5,17,54.29,31.2l.67.57A.51.51,0,0,1,55,32.48Z"/><rect class="cls-1" x="46.14" y="32.48" width="7.91" height="3.29" transform="translate(-8.47 49.76) rotate(-49.21)"/><rect class="cls-1" x="82.35" y="33.14" width="2.81" height="5.87" transform="translate(1.73 75.93) rotate(-49.22)"/><rect class="cls-1" x="55.67" y="42.33" width="1.4" height="3.15" transform="translate(-13.69 57.92) rotate(-49.23)"/><path class="cls-1" d="M66.61,51.81l-2.94-2.54a.49.49,0,0,1-.05-.7L77.14,32.89a.51.51,0,0,1,.34-.17.5.5,0,0,1,.37.12l2,1.73L82,32.07a.48.48,0,0,1,.34-.18.52.52,0,0,1,.36.12l.72.63,1.37-1.59-8-6.94-1.37,1.58.8.69a.51.51,0,0,1,0,.71l-2.16,2.5,2.12,1.83a.51.51,0,0,1,.17.34.48.48,0,0,1-.12.36L62.73,47.8a.48.48,0,0,1-.34.18h0a.5.5,0,0,1-.33-.12l-3.25-2.81-.91,1.07,7.83,6.76Z"/><path class="cls-1" d="M37.75,51.66h0l-.12-.12-3-2.62h0a2.08,2.08,0,0,0-2.81.31L17.31,66a4,4,0,0,0-.68,4.13,4,4,0,0,0,2.62,2.36A4,4,0,0,0,23.4,71.2L37.83,54.47a2.1,2.1,0,0,0-.08-2.81Z"/><path class="cls-1" d="M84.78,40.15l-5.2-4.49,0,0-2-1.72L64.7,48.84l2.94,2.54h0l3.14,2.71h0L74,56.9,86.91,42l-2.1-1.81Z"/><path class="cls-1" d="M67.82,25.51l-2-1.71L53,38.72l9.34,8.05L75.17,31.85,73.07,30h0l-5.21-4.5Z"/><rect class="cls-1" x="70.61" y="23.02" width="2.81" height="5.87" transform="translate(5.32 63.53) rotate(-49.22)"/><polygon class="cls-1" points="74.68 22.31 73.83 21.58 72.46 23.17 74.63 25.04 76 23.45 74.68 22.31"/><rect class="cls-1" x="67.4" y="52.45" width="1.4" height="3.15" transform="translate(-17.29 70.32) rotate(-49.23)"/><path class="cls-1" d="M95.93,40a1,1,0,0,0-.68.34L77.19,61.25a2.16,2.16,0,0,1-1.48.75,2.12,2.12,0,0,1-1.58-.52L43.49,35a1.66,1.66,0,0,0-2.34.17l-.55.65,0,0-2.35,2.72s0,0,0,0L36.68,40.4l3,2.55h0l3.25,2.8h0l2.41,2.08,3.89-4.52a1,1,0,0,1,1.44-.1L75.36,64.55A1.16,1.16,0,0,0,77,64.43L96.76,41.62a1,1,0,0,0,.24-.73A1,1,0,0,0,95.93,40Z"/><rect class="cls-1" x="35.8" y="45.67" width="5.82" height="3.29" transform="translate(-22.41 45.72) rotate(-49.21)"/><path d="M95.86,39a2,2,0,0,0-1.37.69L76.43,60.6a1.16,1.16,0,0,1-1.64.12l-5.2-4.48.92-1.06L73.76,58a.5.5,0,0,0,.33.12h0a.49.49,0,0,0,.34-.17L88,42.25a.51.51,0,0,0,0-.71l-2.12-1.83L88,37.21a.51.51,0,0,0,0-.71l-.8-.69,1.36-1.58,4,3.42a2.23,2.23,0,0,0,1.45.54h.17a2.25,2.25,0,0,0,1.53-.77l.21-.25a2.22,2.22,0,0,0,.54-1.62A2.27,2.27,0,0,0,95.59,34l-4-3.42,1.7-2a.51.51,0,0,0-.06-.71l-2.92-2.52a.49.49,0,0,0-.37-.12.51.51,0,0,0-.34.17l-1.69,2-8-6.94,1.69-2a.51.51,0,0,0,0-.71L78.6,15.29a.48.48,0,0,0-.36-.12.45.45,0,0,0-.34.17l-1.7,2-3.46-3A2,2,0,0,0,73,13.24a2.06,2.06,0,0,0-.7-1.4l-.79-.68a3.84,3.84,0,0,0-5.64,5.13L53.53,30.54,51.71,29A.51.51,0,0,0,51,29l-5.53,6.41-1.33-1.15a2.66,2.66,0,0,0-3.74.28l-.26.3-4.09-3.53L39.1,27.8a.49.49,0,0,0-.06-.7l-1.7-1.47a.48.48,0,0,0-.36-.12.49.49,0,0,0-.34.17l-3,3.53-1.09-.94a.51.51,0,0,0-.71.05L29.44,31a.51.51,0,0,0,0,.71l1.1.94-3.1,3.59a.51.51,0,0,0,.05.71l1.7,1.47a.51.51,0,0,0,.71-.05l3.1-3.6,4.09,3.53L35.6,40.13a.49.49,0,0,0,0,.7l3,2.56-3.86,4.47a3.1,3.1,0,0,0-3.77.71L16.55,65.29a5,5,0,0,0-1,4.87l-3.84,4.45a.48.48,0,0,0-.06.55A3.48,3.48,0,0,1,7.55,80a.5.5,0,0,0-.6.22L2.07,88.49a.52.52,0,0,0,.1.64l.62.52a.45.45,0,0,0,.32.13.52.52,0,0,0,.33-.12l7.34-6.31,8.52-9.88a5.37,5.37,0,0,0,1.05.12,5.05,5.05,0,0,0,3.81-1.73L38.59,55.13a3.1,3.1,0,0,0,.16-3.8l3.87-4.48L45,48.93a.5.5,0,0,0,.37.12.51.51,0,0,0,.34-.17L50,44,74.71,65.31a2.18,2.18,0,0,0,3.05-.22L97.51,42.27a2,2,0,0,0-.2-2.82A2.07,2.07,0,0,0,95.86,39Zm-27,16.61-2.39-2,.92-1.06,2.38,2.05Zm6.32-28.77-1.83,2.13L68.88,25.1,70.71,23Zm-2.7-3.64,1.37-1.59.85.73L76,23.45,74.63,25ZM73.05,30h0l2.1,1.81L62.3,46.77,53,38.72,65.84,23.8l2,1.71,0,0ZM58,44.4l-.92,1.06L54.72,43.4l.91-1.06Zm.75.65L62,47.86a.5.5,0,0,0,.33.12h0a.48.48,0,0,0,.34-.18L76.25,32.12a.48.48,0,0,0,.12-.36.51.51,0,0,0-.17-.34l-2.12-1.83,2.16-2.5a.51.51,0,0,0,0-.71l-.8-.69,1.37-1.58,8,6.94-1.37,1.59L82.72,32a.52.52,0,0,0-.36-.12.48.48,0,0,0-.34.18l-2.17,2.5-2-1.73a.5.5,0,0,0-.37-.12.51.51,0,0,0-.34.17L63.62,48.57a.49.49,0,0,0,.05.7l2.94,2.54-.92,1.07-7.83-6.76ZM86.91,42,74,56.9l-3.24-2.8h0l-3.14-2.71h0L64.7,48.84,77.57,33.92l2,1.72,0,0,5.2,4.49h0Zm-1.85-2.91-4.45-3.84,1.84-2.12,4.44,3.84Zm1.31-3.9L84.2,33.29l1.37-1.59.91.8,1.26,1.08Zm3.69-8.67,2.17,1.87L90.86,30,90,29.22l-1.33-1.14ZM78.33,16.37l2.17,1.87-1.37,1.59L78,18.89,77,18Zm-2.4,2,2.92,2.53,8.81,7.6L90.59,31l4.35,3.75a1.31,1.31,0,0,1,.42.84,1.23,1.23,0,0,1-.3.9l-.21.25a1.22,1.22,0,0,1-.84.42,1.19,1.19,0,0,1-.9-.3l-4.34-3.74-2.93-2.53L77,23,74.1,20.5l-3.77-3.26,1.82-2.12ZM71.61,12.6a1,1,0,0,1,.36.72,1,1,0,0,1-.26.76L69.37,16.8a1.05,1.05,0,0,1-1.48.11h0l-.73-.63L70.87,12Zm-4.81-.39a2.84,2.84,0,0,1,2.16-1,2.92,2.92,0,0,1,1.05.2l-3.5,4.07A2.84,2.84,0,0,1,66.8,12.21ZM66.5,17l.73.63a2.07,2.07,0,0,0,1.34.49h.16a2.06,2.06,0,0,0,.84-.26l3.5,3-1.36,1.58L71,21.89a.49.49,0,0,0-.7.05l-2.16,2.51-2-1.73a.48.48,0,0,0-.36-.12.45.45,0,0,0-.34.17L51.88,38.45a.49.49,0,0,0,0,.7l3,2.54L54,42.75l-4.48-3.86L55,32.48a.51.51,0,0,0,0-.71l-.67-.57Zm-15.07,13,2.5,2.16-5.17,6L46.26,36ZM37.07,26.71l.94.82-2.72,3.15-.94-.82ZM29.52,37.37l-.95-.81,2.77-3.21.95.81Zm3.8-3.64-1.7-1.47-1.1-.94,1.7-2,1.09.94L35,31.76l4.47,3.86-1.7,2ZM10.08,82.64,3.2,88.54,7.62,81a4.49,4.49,0,0,0,5.11-6l3.32-3.84.08.1a4.37,4.37,0,0,0,.31.44,1.83,1.83,0,0,0,.13.16,6,6,0,0,0,.5.51,4.68,4.68,0,0,0,.8.54l.2.12.2.1ZM37.83,54.47,23.4,71.2a4,4,0,0,1-4.15,1.24,4,4,0,0,1-2.62-2.36A4,4,0,0,1,17.31,66L31.74,49.22a2.08,2.08,0,0,1,2.81-.31h0l3,2.62.12.12h0A2.1,2.1,0,0,1,37.83,54.47Zm.23-3.87-2.5-2.15L39.37,44l2.49,2.15Zm58.7-9L77,64.43a1.16,1.16,0,0,1-1.64.12L50.64,43.23a1,1,0,0,0-1.44.1l-3.89,4.52L42.9,45.77h0L39.64,43h0l-3-2.55,1.52-1.76s0,0,0,0l2.35-2.72,0,0,.55-.65A1.66,1.66,0,0,1,43.49,35L74.13,61.48a2.12,2.12,0,0,0,1.58.52,2.16,2.16,0,0,0,1.48-.75L95.25,40.31a1,1,0,0,1,1.75.58A1,1,0,0,1,96.76,41.62Z"/><text x="0" y="115" fill="#000000" font-size="5px" font-weight="bold" font-family="'Helvetica Neue', Helvetica, Arial-Unicode, Arial, Sans-serif">Created by Lana</text><text x="0" y="120" fill="#000000" font-size="5px" font-weight="bold" font-family="'Helvetica Neue', Helvetica, Arial-Unicode, Arial, Sans-serif">from the Noun Project</text></svg>