<?xml version="1.0" encoding="UTF-8" standalone="no"?>
<svg
   xmlns:dc="http://purl.org/dc/elements/1.1/"
   xmlns:cc="http://creativecommons.org/ns#"
   xmlns:rdf="http://www.w3.org/1999/02/22-rdf-syntax-ns#"
   xmlns:svg="http://www.w3.org/2000/svg"
   xmlns="http://www.w3.org/2000/svg"
   height="472.8306"
   width="500.00003"
   id="svg2852"
   y="0px"
   x="0px"
   viewBox="0 0 500.00003 472.8306"
   style="clip-rule:evenodd;fill-rule:evenodd;image-rendering:optimizeQuality;shape-rendering:geometricPrecision;text-rendering:geometricPrecision"
   version="1.1"
   xml:space="preserve"><metadata
     id="metadata2856"><rdf:RDF><cc:Work
         rdf:about=""><dc:format>image/svg+xml</dc:format><dc:type
           rdf:resource="http://purl.org/dc/dcmitype/StillImage" /><dc:title></dc:title></cc:Work></rdf:RDF></metadata><defs
     id="defs2842"><style
       id="style2840"
       type="text/css">
   
    .fil0 {fill:black;fill-rule:nonzero}
   
  </style></defs><path
     class="fil0"
     d="m 304.6263,259.92771 c 20.38581,16.687 39.51089,38.707 55.00782,67.448 l 93.96582,-108.921 c 0.0629,-0.08 0.12858,-0.155 0.19719,-0.229 l 17.38945,-20.156 c 0.27874,-0.323 0.59794,-0.59 0.9431,-0.801 -3.06209,-4.743 -6.22855,-9.45 -9.4934,-14.119 0.34244,1.246 0.0807,2.633 -0.82133,3.687 l -93.2709,109.498 -0.002,-10e-4 c -0.85432,0.995 -2.17745,1.555 -3.5761,1.372 l -12.78458,-1.67 c -1.32832,-0.175 -2.53991,-1.009 -3.13772,-2.317 -0.69342,-1.522 -1.44119,-3.04 -2.2378,-4.553 -0.10793,-0.171 -0.20167,-0.348 -0.28163,-0.53 -7.57846,-14.159 -19.51694,-27.795 -32.79622,-38.901 -15.56237,-13.017 -32.81168,-22.455 -46.87361,-25.076 -0.80476,-0.1 -1.58726,-0.442 -2.22955,-1.033 l -58.26068,-53.476 -11.27691,-0.971 -11.60566,11.915 c 13.53229,12.612 27.03752,25.199 40.54275,37.787 29.44937,7.753 57.0337,21.754 80.60206,41.047 z m -38.88097,-16.185 -10.04594,11.184 c 17.92347,11.715 33.36849,23.763 46.93284,37.685 13.59294,13.951 25.2494,29.739 35.55894,48.901 l 15.25293,-8.606 c -15.11399,-28.572 -33.89435,-50.339 -53.92551,-66.736 -11.01718,-9.019 -22.40812,-16.414 -33.77326,-22.428 z m -15.49329,17.249 -6.37332,7.094 c -1.40073,1.557 -3.7376,1.767 -5.38741,0.548 l -12.7985,-8.325 c -1.86349,-1.211 -2.39299,-3.702 -1.1827,-5.565 l 0.0206,-0.03 5.30761,-8.582 c -2.86449,-1.79 -5.33086,-3.104 -7.75513,-3.71 h -0.0149 -10e-4 c -2.62022,-0.654 -5.42436,-0.498 -9.07021,0.763 -1.63844,0.565 -3.39301,0 -4.42676,-1.264 h -0.003 l -6.18105,-7.593 -13.79124,20.037 c -0.19949,0.289 -0.42992,0.543 -0.68372,0.762 2.91812,9.238 1.53787,20.666 -6.97501,33.433 l -0.0474,0.06 -74.90064,106.879 c -0.44842,1.083 -1.07846,2.076 -1.89934,2.967 h 0.008 l -0.0807,0.09 c -3.26259,3.53 -10.52259,11.383 -20.75386,12.937 -1.88526,0.599 -4.03125,0.694 -6.35684,0.322 -1.13949,-0.182 -2.33244,-0.482 -3.56427,-0.893 -1.77767,-0.47 -3.61513,-1.151 -5.5085,-2.078 -2.18405,3.088 -4.39238,6.379 -6.6113,9.685 -9.130252,13.604 -18.432076,27.464 -28.331762,30.748 l -26.252055,22.588 h -0.0028 c -1.161814,0.993 -2.8417954,1.276 -4.3165654,0.587 -2.01111201,-0.94 -2.87920801,-3.333 -1.93903001,-5.344 l 15.50780041,-32.991 c -0.763295,-5.124 3.379568,-13.365 9.299012,-22.377 0.227683,-0.658 0.617652,-1.231 1.115662,-1.677 5.14654,-7.642 11.41068,-15.724 16.939698,-22.858 0.517541,-0.667 1.027687,-1.325 1.534464,-1.98 -2.393409,-4.214 -3.958795,-8.339 -4.545336,-11.96 -0.260088,-1.607 -0.329731,-3.134 -0.199027,-4.558 -0.08352,-3.474 0.458574,-6.618 1.354754,-9.416 2.242095,-7.001 6.644058,-11.628 8.978875,-13.978 0.643656,-0.648 1.369531,-1.177 2.168804,-1.591 0.09773,-0.185 0.210799,-0.364 0.340216,-0.537 l 76.68548,-101.953 0.12369,-0.123 c 7.52306,-7.524 18.06347,-10.216 28.17072,-9.01 l 15.92821,-23.141 -11.78435,-11.61 c -1.57932,-1.553 -1.60562,-4.089 -0.0627,-5.675 l 28.72127,-29.488 c 0.87182,-0.896 2.05867,-1.299 3.21472,-1.205 h 7.3e-4 l 12.21676,1.05 20.08275,-29.178 c 4.59719,-6.679 11.96409,-8.145 18.74464,-6.327 1.25841,0.336 2.49998,0.795 3.70233,1.361 l 50.0175,-70.729 c -0.66077,-0.507 -1.32198,-1.014 -1.98423,-1.52 -6.56682,-5.015 -12.95848,-9.78 -19.2123,-14.344 -0.29123,-0.184 -0.5646,-0.407 -0.81063,-0.672 -0.26331,-0.283 -0.47797,-0.593 -0.64451,-0.922 -0.36461,-0.192 -0.70593,-0.443 -1.00906,-0.755 -1.5499,-1.593 -1.5146,-4.141 0.0789,-5.691 L 308.01245,1.1397099 c 1.44425,-1.40499997 3.67318,-1.50699997 5.23112,-0.32799997 h 0.003 c 4.31382,3.25199997 8.52885,6.47699997 12.62344,9.66400007 2.62305,2.042 5.36873,4.204 8.23871,6.489 0.79849,-2.026 1.60386,-4.063 2.41647,-6.111 h 0.002 c 0.40044,-1.0080001 1.20479,-1.8530001 2.29862,-2.2710001 l 15.16529,-5.821 c 1.06502,-0.49 2.33349,-0.513 3.46545,0.05 3.1267,1.547 6.57459,3.452 10.00107,5.665 7.01594,4.5310001 14.04333,10.4070001 18.38068,17.3040001 4.68675,7.453 6.29276,15.949 1.76756,25.092 -0.51007,1.033 -1.09013,2.055 -1.74312,3.066 h -0.003 l -2.77607,4.735 c 23.37033,21.376 46.02779,44.482 66.5364,68.972 18.76075,22.404 35.74086,45.999 49.84489,70.531 0.79738,1.387 0.6749,3.051 -0.17674,4.285 h 0.003 l -9.11904,13.249 c -0.53668,0.848 -1.3886,1.496 -2.43954,1.755 l -28.7846,7.113 -96.9064,112.331 c -0.35905,0.481 -0.83126,0.89 -1.40273,1.181 -0.0562,0.03 -0.1128,0.06 -0.16965,0.08 l -21.69431,12.24 c -0.11892,0.08 -0.24287,0.151 -0.37201,0.217 -1.97582,1.018 -4.40431,0.242 -5.4229,-1.734 -10.40223,-20.1 -22.21344,-36.395 -36.1174,-50.665 -13.35974,-13.711 -28.70065,-25.601 -46.61122,-37.232 z m -16.19069,-21.689 4.62347,-7.476 c -4.95783,-1.769 -9.84612,-3.301 -14.62832,-4.615 l -4.85248,6.767 c 1.65754,0.02 3.24541,0.231 4.81748,0.624 h -9.1e-4 c 3.38987,0.848 6.51517,2.492 10.04075,4.696 z m 12.28074,-4.568 -12.97093,20.971 6.81458,4.432 18.09921,-20.15 c -4.00128,-1.914 -7.98786,-3.661 -11.94286,-5.253 z m 61.69821,0.483 79.58293,-97.513 c -1.70865,-1.884 -3.39125,-3.714 -5.04761,-5.489 -1.3462,-1.443 -2.68153,-2.859 -4.00473,-4.248 l -79.4373,101.449 c 2.97965,1.79 5.9571,3.729 8.90671,5.801 z m 84.73439,-103.824 3.19588,-3.916 c 1.16598,-1.433 3.11412,-1.855 4.72921,-1.15 7.05733,3.078 13.77018,8.032 19.37657,14.271 5.41265,6.024 9.82638,13.265 12.55671,21.191 0.52612,1.534 0.0744,3.167 -1.0219,4.22 l -5.36764,6.062 c 1.54167,2.081 2.93641,3.99 4.18046,5.723 1.57583,2.197 3.22239,4.539 4.94288,7.032 0.30712,-0.149 0.63838,-0.261 0.98913,-0.33 l 21.62764,-4.233 h 10e-4 c 1.04859,-0.204 2.16917,0 3.09114,0.66 -8.25179,-11.662 -17.10209,-23.083 -26.4123,-34.226 -19.75151,-23.64 -41.55017,-45.993 -64.06939,-66.735 l -3.31176,5.649 c 0.65706,0.578 1.36631,1.186 2.11675,1.83 2.80816,2.406 6.15174,5.272 9.15382,8.486 7.11647,7.617 12.12613,16.741 5.21709,25.821 1.60029,1.672 3.16807,3.331 4.70144,4.974 1.46632,1.572 2.90139,3.127 4.30299,4.664 z m 28.01182,46.842 -78.79262,88.995 c 3.28439,4.183 6.28738,8.495 8.93018,12.882 l 78.77024,-89.325 c -0.0255,-0.04 -0.0508,-0.07 -0.0755,-0.107 -1.77634,-2.588 -3.69509,-5.319 -5.75316,-8.188 -1.08638,-1.515 -2.11196,-2.933 -3.07913,-4.257 z m -83.99443,82.741 87.41121,-98.731 c -2.39126,-6.039 -5.9063,-11.569 -10.11773,-16.255 -4.11743,-4.583 -8.87677,-8.346 -13.87995,-10.977 l -85.69262,104.999 c 1.47567,1.15 2.93787,2.331 4.38549,3.542 6.34342,5.306 12.40605,11.178 17.8936,17.422 z m -44.75587,-35.538 83.27851,-106.355 0.20577,-0.192 c 5.91398,-5.525 2.2526,-11.995 -2.86336,-17.47 -2.70627,-2.898 -5.85062,-5.593 -8.49164,-7.857 -0.35074,-0.301 -0.6933,-0.594 -1.02533,-0.881 l -76.32755,130.201 c 1.73005,0.792 3.47364,1.644 5.2236,2.554 z m 63.40502,-214.631 -12.09228,4.641 c -5.97753,15.099 -11.86104,30.374 -17.69838,45.527 -19.11776,49.631 -37.73115,97.948 -63.50666,149.439 l 4.10158,3.765 c 18.83026,-35.538 35.05756,-68.806 49.65757,-101.846 14.76056,-33.402 27.79551,-66.436 40.12002,-101.222 -0.19515,-0.103 -0.389,-0.204 -0.58185,-0.304 z m -99.45737,193.953 c 23.14776,-46.513 40.55016,-90.662 57.90504,-135.639 -2.93795,-2.358 -5.89815,-4.7 -8.87701,-7.028 l -49.80264,70.425 c 0.75362,0.762 1.443,1.573 2.05465,2.426 3.89716,5.435 4.92523,12.5 0.1024,19.506 l -21.75585,31.61 z m 60.94345,-143.519 1.21909,-3.166 c 2.2291,-5.786 4.46421,-11.589 6.72915,-17.443 -3.91055,-3.152 -7.7669,-6.211 -11.56665,-9.181 -3.64266,-2.847 -7.46134,-5.783 -11.43477,-8.797 l -15.99237,14.86 c 5.40415,3.973 10.63307,7.884 15.65718,11.721 0.58417,0.446 1.16706,0.893 1.75054,1.34 l 9.20099,-13.011 c 1.28013,-1.82 3.79318,-2.257 5.61223,-0.977 1.81975,1.279 2.25755,3.792 0.97734,5.612 l -9.41389,13.312 c 2.42834,1.896 4.84812,3.806 7.26116,5.73 z m 10.9991,-28.478 c 1.02601,-2.639 2.05999,-5.291 3.10357,-7.959 -3.20419,-2.557 -6.57892,-5.216 -10.10967,-7.964 -3.13714,-2.441 -6.19562,-4.795 -9.17736,-7.0640001 l -4.63556,6.7350001 c 3.54394,2.696 7.25878,5.561 11.15129,8.603 3.24869,2.539 6.47283,5.089 9.66773,7.649 z m -48.62926,187.041 99.70834,-170.082 c 0.0275,-0.05 0.0561,-0.09 0.085,-0.138 h -0.006 c 0.5053,-0.782 0.93858,-1.541 1.30271,-2.277 3.06223,-6.19 1.90896,-12.046 -1.35865,-17.242 -3.61649,-5.751 -9.74072,-10.822 -15.92091,-14.813 h -0.0122 c -12.27902,34.559 -25.22692,67.328 -39.81505,100.341 -14.6056,33.052 -30.91879,66.482 -49.91846,102.338 1.94365,0.53 3.92559,1.161 5.93529,1.885 z m 99.61919,-154.031 -4.15325,7.085 c 23.22198,21.301 45.72067,44.307 66.08035,68.676 17.18825,20.572 32.87029,42.147 46.2005,64.526 l 4.18465,-6.08 c -13.56609,-23.251 -29.82738,-45.726 -47.7878,-67.173 -19.89405,-23.756 -41.85162,-46.211 -64.52445,-67.034 z m 89.12644,148.258 12.54692,-3.101 c -1.33323,-2.248 -2.69156,-4.488 -4.0729,-6.721 z m -257.26713,17.858 6.16799,-8.6 -4.23937,-3.951 -5.60277,8.141 c 0.18238,0.156 0.35245,0.33 0.50923,0.523 z m -28.38075,-21.246 c -0.0419,0.07 -0.0864,0.131 -0.13314,0.195 l -15.98036,23.217 c 3.91048,1.364 7.59774,3.335 10.82527,5.849 2.60117,2.027 4.90486,4.404 6.78897,7.098 l 22.85897,-33.21 -16.16022,-15.061 z m 30.97266,-44.999 16.25663,14.921 21.12172,-30.686 c 2.53505,-3.684 2.00069,-7.391 -0.04,-10.238 -0.91733,-1.279 -2.09373,-2.398 -3.41887,-3.295 -1.34575,-0.911 -2.86737,-1.611 -4.45163,-2.036 -3.72283,-0.998 -7.69196,-0.303 -10.04307,3.112 z m -35.50675,21.219 -7.36592,7.564 7.92194,7.804 6.22682,-9.046 z m 177.1887,100.763 c 0.11837,0.239 0.23568,0.478 0.35169,0.717 l 8.43589,1.103 84.37459,-99.054 -8.9646,1.754 z m -191.63408,11.925 c -0.76964,-2.053 -1.56099,-4.092 -2.37246,-6.109 -6.04086,-1.751 -13.37717,-3.163 -21.42551,-4.176 -0.24197,-0.03 -0.48477,-0.06 -0.72791,-0.09 3.03388,6.22 5.9294,12.845 8.55267,19.605 2.86452,0.533 5.64199,1.109 8.3,1.721 z m -4.31566,-10.805 c -2.19098,-5.155 -4.49503,-10.099 -6.84607,-14.663 -1.14343,-2.219 -2.29658,-4.344 -3.45167,-6.358 -1.66982,-0.302 -3.40169,-0.576 -5.18933,-0.824 -5.68636,-0.785 -11.9102,-1.296 -18.48115,-1.542 3.86728,5.476 7.81941,12.149 11.60869,19.522 1.13338,0.124 2.2562,0.257 3.36634,0.396 6.94803,0.876 13.3952,2.043 18.99319,3.469 z m -13.02517,-25.555 c -2.18799,-3.457 -4.36109,-6.451 -6.47029,-8.846 -2.72607,-1.026 -5.46319,-1.773 -8.16729,-2.227 l -6.9168,9.196 c 7.00442,0.239 13.62555,0.767 19.64411,1.599 0.64333,0.09 1.28032,0.182 1.91027,0.278 z m 1.51512,-5.013 c 1.25276,1.835 2.50989,3.82 3.76166,5.932 2.18071,0.432 4.25712,0.912 6.21412,1.442 -0.71671,-0.651 -1.44359,-1.282 -2.17861,-1.891 -2.52109,-2.088 -5.13321,-3.919 -7.79717,-5.483 z m 6.42483,10.628 c 0.60853,1.119 1.21495,2.264 1.81717,3.432 2.8427,5.517 5.61717,11.583 8.213,17.905 1.70788,0.536 3.30556,1.101 4.7786,1.691 l 4.12158,-5.881 c -2.71142,-5.37 -5.94529,-10.177 -9.53816,-14.376 -0.25573,0 -0.51657,-0.04 -0.76962,-0.138 -2.54037,-1.002 -5.4329,-1.878 -8.62257,-2.633 z m 11.99817,26.265 0.1934,0.499 0.23672,-0.338 c -0.14208,-0.05 -0.28574,-0.108 -0.43012,-0.161 z m -18.17436,26.707 c -1.04532,-3.152 -2.1663,-6.307 -3.34866,-9.438 -4.58806,-0.804 -9.37187,-1.494 -14.2121,-2.04 -1.93181,-0.217 -3.87041,-0.412 -5.80903,-0.583 2.13248,4.745 4.05609,9.484 5.68016,14.07 0.483,1.276 0.95175,2.542 1.40562,3.797 3.61294,0.539 7.26803,1.179 10.88596,1.897 z m -5.0469,-13.812 c -2.50149,-6.276 -5.22856,-12.397 -8.06556,-18.137 -0.19557,-0.396 -0.39166,-0.789 -0.58817,-1.181 -6.76749,-0.677 -13.91441,-1.082 -21.13242,-1.186 2.5019,4.291 4.95301,8.814 7.26839,13.432 0.76873,1.533 1.52132,3.076 2.25384,4.622 2.73423,0.212 5.47188,0.474 8.19154,0.78 4.09005,0.461 8.14151,1.023 12.07238,1.67 z m -10.8386,-23.561 c -3.67738,-6.946 -7.46829,-13.155 -11.14038,-18.161 l -11.43873,15.207 c 0.40619,0.647 0.81237,1.304 1.21779,1.967 7.25084,0.04 14.47228,0.375 21.36132,0.987 z m 17.15978,28.799 c 0.54729,1.49 1.08032,2.984 1.5969,4.478 l 2.53255,-3.614 c -1.34829,-0.298 -2.72677,-0.586 -4.12945,-0.864 z m -16.60039,30.444 c -0.68911,-2.454 -1.45087,-4.962 -2.28204,-7.521 -0.52689,-1.622 -1.07895,-3.257 -1.65586,-4.904 l -0.21861,-0.03 c -5.12907,-0.698 -10.09368,-1.168 -14.64104,-1.338 -0.0517,0 -0.10394,-10e-4 -0.15647,0 -1.042,-0.07 -2.06927,-0.126 -3.08508,-0.179 2.27644,5.558 4.1433,10.826 5.59931,15.967 2.76846,0.297 5.66754,0.669 8.7346,1.103 h 2.8e-4 c 1.23654,0.147 2.61212,0.342 4.10904,0.58 0.30686,0.05 0.61324,0.1 0.91864,0.149 z m -5.47401,-16.687 c -0.22112,-0.596 -0.44545,-1.194 -0.6729,-1.794 l -0.0144,-0.04 h -10e-4 c -1.82348,-5.151 -4.02073,-10.475 -6.46075,-15.766 -5.83632,-0.394 -11.59978,-0.548 -17.04365,-0.412 h -0.0474 c -0.63783,0 -1.27471,0 -1.9097,0.01 l 0.0442,0.08 c 2.19195,4.107 4.14933,8.13 5.75879,11.919 h -0.002 c 0.71095,1.554 1.39196,3.084 2.04575,4.59 1.65875,0.07 3.34976,0.166 5.07521,0.276 h 0.0534 c 4.14106,0.155 8.59002,0.548 13.17446,1.126 z m -9.11797,-21.755 c -0.40899,-0.841 -0.82185,-1.68 -1.24065,-2.515 -2.63537,-5.257 -5.46879,-10.412 -8.36524,-15.253 -1.15708,0 -2.31528,0.02 -3.47275,0.04 l -9.20297,12.236 c 1.0454,1.743 2.06706,3.5 3.05872,5.261 1.33348,-0.03 2.68478,-0.04 4.05315,-0.04 4.88012,-0.121 9.99185,-0.02 15.16974,0.276 z m 15.1451,26.684 c 0.34163,1.004 0.67346,2.001 0.99506,2.991 0.49334,1.52 0.9656,3.032 1.41604,4.539 l 4.43367,-6.328 c -2.28622,-0.437 -4.57406,-0.839 -6.84477,-1.202 z m -17.56908,31.939 c -0.4714,-4.819 -1.33282,-9.588 -2.58396,-14.459 -5.44222,-0.497 -10.37331,-0.663 -15.12897,-0.398 -0.52763,0.03 -1.0543,0.06 -1.57973,0.104 1.11848,4.94 1.80425,10.09 2.04488,15.69 2.9838,-0.608 5.78433,-0.972 8.53262,-1.125 2.92907,-0.163 5.78118,-0.09 8.71516,0.188 z m -3.73224,-18.599 c -1.50224,-5.047 -3.41063,-10.243 -5.72341,-15.748 -5.92372,-0.193 -11.4247,-0.122 -16.64582,0.27 2.13859,4.549 3.90532,9.007 5.29012,13.582 0.17922,0.593 0.35252,1.187 0.51901,1.784 0.7832,-0.07 1.56916,-0.122 2.35843,-0.166 4.52165,-0.251 9.16448,-0.132 14.20167,0.278 z m -7.48679,-19.828 c -0.41183,-0.928 -0.8341,-1.866 -1.26773,-2.815 l -0.0214,-0.05 h -0.002 c -1.58027,-3.722 -3.48302,-7.636 -5.60008,-11.603 -0.33471,-0.627 -0.67524,-1.257 -1.02183,-1.888 -1.07871,0.03 -2.15213,0.07 -3.21963,0.113 -1.60021,0.07 -3.20376,0.155 -4.8103,0.261 l -5.67615,7.546 c 1.75266,3.058 3.36459,6.005 4.83253,8.893 0.34652,-0.03 0.69411,-0.06 1.04292,-0.09 4.96669,-0.396 10.17485,-0.504 15.74394,-0.372 z m -10.1402,-20.305 c -0.36696,-0.635 -0.73864,-1.271 -1.11473,-1.908 l -1.51905,2.021 c 0.49114,-0.02 0.98479,-0.05 1.48333,-0.07 0.3821,-0.02 0.76541,-0.03 1.15045,-0.05 z m 23.03336,44.715 c 1.02118,4.216 1.76105,8.373 2.21844,12.563 l 7.87742,-11.239 c -0.96235,-0.143 -1.94021,-0.274 -2.93192,-0.392 h 3.6e-4 -0.0397 c -2.48286,-0.352 -4.85135,-0.662 -7.12455,-0.924 z m -22.91774,15.885 c -0.20794,-5.822 -0.91094,-11.126 -2.09143,-16.198 -4.12118,0.549 -8.22939,1.463 -12.55952,2.81 3.05422,2.313 6.14804,4.993 9.15973,7.984 1.83206,1.82 3.55546,3.658 5.15407,5.493 z m -3.11323,-20.122 c -0.10321,-0.359 -0.20853,-0.717 -0.31667,-1.075 -1.45652,-4.812 -3.36331,-9.509 -5.70316,-14.348 -5.00217,0.565 -9.76588,1.457 -14.43022,2.729 l -0.0797,0.106 c 1.23349,2.503 2.27184,4.996 3.13041,7.613 0.89317,2.721 1.59188,5.572 2.11334,8.698 5.33016,-1.822 10.30049,-3.027 15.28596,-3.723 z m -7.94399,-19.252 c -0.99467,-1.912 -2.05389,-3.856 -3.17658,-5.845 l -5.51113,7.327 c 2.84195,-0.617 5.72861,-1.107 8.68771,-1.482 z m 15.14892,42.535 c 0.004,0.792 -7.3e-4,1.593 -0.0138,2.405 2.49791,3.375 4.50783,6.66 5.9317,9.712 0.2901,0.621 0.5564,1.236 0.79977,1.844 l 10.46798,-14.937 c -2.89802,-0.292 -5.68604,-0.38 -8.52816,-0.221 -2.76591,0.154 -5.60038,0.54 -8.65748,1.197 z m -27.06808,-22.008 c -0.38631,-1.744 -0.84052,-3.401 -1.36672,-5.005 -0.58634,-1.787 -1.26232,-3.512 -2.0332,-5.224 l -5.03675,6.697 c 1.67572,0.446 3.43476,1.091 5.25267,1.924 1.03508,0.474 2.09872,1.012 3.184,1.608 z m 65.99945,-101.709 c 7.9795,2.117 15.98468,6.291 23.25019,12.309 6.50889,5.392 12.44165,12.289 17.23847,20.533 4.21051,-8.715 4.29414,-16.238 1.81865,-22.202 -1.57688,-3.801 -4.18955,-7.018 -7.42623,-9.539 -3.31357,-2.581 -7.27601,-4.44 -11.46355,-5.461 -8.09087,-1.975 -16.93808,-0.8 -23.41753,4.36 z m -113.401957,187.642 9.275819,7.517 c 6.577387,-4.172 14.043824,-15.295 21.388487,-26.239 3.908501,-5.824 7.784811,-11.6 11.605971,-16.43 0.0694,-0.7 0.0429,-1.378 -0.0649,-2.034 -0.40912,-2.488 -1.9914,-4.754 -4.00459,-6.535 -2.1179,-1.874 -4.62775,-3.155 -6.77638,-3.605 -0.160999,-0.03 -0.316956,-0.06 -0.467437,-0.08 -0.238387,0.311 -0.485963,0.634 -0.741599,0.967 0.05092,0.142 0.09474,0.287 0.130266,0.437 l 2.962928,12.41 c 0.325262,1.373 -0.09346,2.747 -0.994647,3.702 l -11.649235,14.756 c -0.939628,1.19 -2.416674,1.705 -3.813452,1.473 h -0.0015 l -10.107453,-1.702 c -5.104922,7.336 -8.413327,13.067 -7.286345,14.467 0.224418,0.28 0.405449,0.58 0.544005,0.892 z m 4.289986,9.949 -5.387306,-4.365 -7.104999,15.115 z m 7.698836,-32.592 3.850469,0.648 9.171043,-11.617 -1.113922,-4.666 c -3.90923,5.048 -8.105134,10.494 -11.90759,15.635 z m 14.47549,-31.946 c 0.516723,-0.406 1.13993,-0.69 1.833688,-0.802 1.464094,-0.241 3.088539,-0.169 4.765901,0.183 3.409976,0.714 7.293096,2.659 10.465046,5.465 3.27699,2.899 5.8823,6.769 6.6216,11.265 0.30345,1.846 0.2904,3.777 -0.11873,5.768 -0.11955,0.627 -0.3895,1.233 -0.81652,1.764 l -0.18187,0.225 c 0.54747,0.271 1.08372,0.515 1.60674,0.731 2.51139,0.72 4.88755,0.84 7.10281,0.55 1.14878,-1.303 0.83924,-4.353 -0.59667,-8.248 -1.80459,-4.895 -5.40636,-10.571 -10.37779,-15.867 -0.99009,-1.055 -1.91036,-1.979 -2.75899,-2.773 -4.46694,-4.183 -9.0421,-7.152 -12.965865,-8.589 -2.929909,-1.074 -5.172646,-1.264 -6.154332,-0.343 -0.02501,0.02 -0.05038,0.05 -0.07611,0.08 h -0.0077 c -0.279268,0.302 -0.469445,0.732 -0.575944,1.272 0.114603,2.789 0.776453,5.897 2.234705,9.329 z m -0.157523,-19.257 c 2.294837,-0.09 4.834539,0.382 7.511388,1.362 4.84804,1.775 10.38537,5.337 15.6773,10.292 1.13584,1.063 2.18615,2.106 3.13736,3.119 5.73016,6.105 9.92714,12.771 12.08026,18.61 1.00039,2.714 1.57142,5.309 1.67627,7.685 3.59726,-2.319 6.29008,-5.231 7.8261,-6.895 l 0.0808,-0.09 h 0.0157 c 0.13773,-0.149 0.25407,-0.319 0.3496,-0.508 0.0553,-0.194 0.1257,-0.384 0.21142,-0.571 0.42488,-1.649 -0.24673,-4.304 -1.76685,-7.564 -2.55512,-5.476 -7.44917,-11.979 -13.89345,-18.38 -6.28,-6.238 -12.8276,-10.919 -18.33627,-13.444 -4.34318,-1.99 -7.579015,-2.668 -8.677872,-1.562 -1.501696,1.511 -4.076255,4.2 -5.891703,7.943 z"
     id="path2844"
     style="fill:#420212;fill-opacity:1;fill-rule:nonzero;stroke:none;stroke-width:0.99999917" /></svg>