<?xml version="1.0" encoding="UTF-8" standalone="no"?>
<svg
   xmlns:dc="http://purl.org/dc/elements/1.1/"
   xmlns:cc="http://creativecommons.org/ns#"
   xmlns:rdf="http://www.w3.org/1999/02/22-rdf-syntax-ns#"
   xmlns:svg="http://www.w3.org/2000/svg"
   xmlns="http://www.w3.org/2000/svg"
   xmlns:sodipodi="http://sodipodi.sourceforge.net/DTD/sodipodi-0.dtd"
   xmlns:inkscape="http://www.inkscape.org/namespaces/inkscape"
   data-name="Layer 1"
   viewBox="0 0 220 275"
   x="0px"
   y="0px"
   version="1.1"
   id="svg878"
   sodipodi:docname="noun_machine-100x125.svg"
   width="100"
   height="125"
   style="enable-background:new"
   inkscape:version="0.92.3 (2405546, 2018-03-11)">
  <metadata
     id="metadata884">
    <rdf:RDF>
      <cc:Work
         rdf:about="">
        <dc:format>image/svg+xml</dc:format>
        <dc:type
           rdf:resource="http://purl.org/dc/dcmitype/StillImage" />
        <dc:title>picto_vecto</dc:title>
      </cc:Work>
    </rdf:RDF>
  </metadata>
  <defs
     id="defs882">
    <filter
       inkscape:collect="always"
       style="color-interpolation-filters:sRGB"
       id="filter1014">
      <feBlend
         inkscape:collect="always"
         mode="darken"
         in2="BackgroundImage"
         id="feBlend1016" />
    </filter>
  </defs>
  <sodipodi:namedview
     pagecolor="#ffffff"
     bordercolor="#666666"
     borderopacity="1"
     objecttolerance="10"
     gridtolerance="10"
     guidetolerance="10"
     inkscape:pageopacity="0"
     inkscape:pageshadow="2"
     inkscape:window-width="1366"
     inkscape:window-height="714"
     id="namedview880"
     showgrid="true"
     scale-x="2.2"
     inkscape:zoom="45.254834"
     inkscape:cx="20.387285"
     inkscape:cy="112.21724"
     inkscape:window-x="0"
     inkscape:window-y="24"
     inkscape:window-maximized="1"
     inkscape:current-layer="layer2">
    <inkscape:grid
       type="xygrid"
       id="grid1024"
       dotted="false" />
  </sodipodi:namedview>
  <title
     id="title868">picto_vecto</title>
  <g
     inkscape:groupmode="layer"
     id="layer1"
     inkscape:label="Layer 1"
     style="display:none"
     sodipodi:insensitive="true">
    <path
       inkscape:connector-curvature="0"
       d="m 79.57,50.37 -1.36,-0.61 c 0.519368,-0.778229 1.087154,-1.523032 1.7,-2.23 0.25913,-0.298681 0.317926,-0.722006 0.15,-1.08 -0.16701,-0.361131 -0.53222,-0.588897 -0.93,-0.58 -1.442629,0.09714 -2.867225,0.376013 -4.24,0.83 l 1.21,-2.06 c 1.110959,-1.910789 0.461601,-4.360438 -1.45,-5.47 L 70.3,36.63 c -1.910789,-1.110959 -4.360438,-0.461601 -5.47,1.45 l -2.65,4.51 -0.62,-0.28 2.69,-4.59 c 1.110959,-1.910789 0.461601,-4.360438 -1.45,-5.47 l -4.37,-2.54 c -0.805344,-0.460368 -1.745658,-0.626513 -2.66,-0.47 0.2624,-0.235152 0.488222,-0.508161 0.67,-0.81 0.08315,-0.138096 0.156656,-0.281772 0.22,-0.43 l 27.91,16.2 c -1.790707,1.941477 -3.451,3.999305 -4.97,6.16 z m 1.48,3.4 c -0.117509,0.246679 -0.408551,0.356923 -0.66,0.25 l -35,-15.61 c -0.250877,-0.113606 -0.362652,-0.408693 -0.25,-0.66 0.07978,-0.182794 0.260557,-0.300695 0.46,-0.3 0.06596,-0.01375 0.134042,-0.01375 0.2,0 l 35,15.61 c 0.286345,0.100093 0.418324,0.430039 0.28,0.7 z m -7.22,9.79 c -0.300819,-0.28782 -0.636816,-0.536458 -1,-0.74 -1.030629,-0.595462 -2.243061,-0.794571 -3.41,-0.56 H 69.4 69.35 69.16 c -1.26688,0.335565 -2.347031,1.163681 -3,2.3 0,0.06 -0.05,0.13 -0.09,0.19 L 46.51,53.28 c -1.011056,-0.590589 -2.210554,-0.769619 -3.35,-0.5 l -5.91,-3.34 v 0 l -1.81,-1 1.47,-2.53 27.84,16.4 c 0.411203,0.239113 0.933931,0.155476 1.25,-0.2 0.73,-0.82 3.27,-2.76 6.15,-1.88 0.518473,0.15796 1.068408,-0.125878 1.24,-0.64 0.671547,-1.874351 1.4529,-3.707524 2.34,-5.49 L 77,54.67 c -1.415321,2.816436 -2.47029,5.799913 -3.14,8.88 z m -0.89,5 c -0.246358,0.410237 -0.589763,0.753642 -1,1 L 70.8,64.17 c 0.375993,0.04616 0.739413,0.165032 1.07,0.35 1.412117,0.8157 1.913999,2.61004 1.13,4.04 z m -4,1.07 c -1.885627,-1.116162 -1.923641,-3.831488 -0.07,-5 L 70,70 c -0.373821,-0.0541 -0.733715,-0.17972 -1.06,-0.37 z m -32.58,-16.72 0.73,-1.25 2,1.1 -0.78,1.24 z m 4.37,4.85 c 0.398114,0.22672 0.533232,0.735665 0.166425,1.359498 C 40.529618,59.743331 40.025141,59.877263 39.63,59.65 l -8.79,-5.1 C 30.441886,54.32328 30.306768,53.814335 30.681744,53.20811 31.05672,52.601886 31.565665,52.466768 31.96,52.7 Z m -1.88,4.88 -0.27,0.46 c -0.22672,0.398114 -0.735665,0.533232 -1.13,0.3 l -8.79,-5.1 c -0.393331,-0.230382 -0.527263,-0.734859 -0.3,-1.13 v 0 l 0.27,-0.46 c 0.149746,-0.255251 0.42407,-0.411463 0.72,-0.41 0.144015,-4.34e-4 0.285542,0.03754 0.41,0.11 l 8.79,5.1 c 0.401751,0.223229 0.541605,0.733018 0.31,1.13 z m -2.18,3.75 -0.27,0.46 c -0.22672,0.398114 -0.735665,0.533232 -1.13,0.3 l -8.79,-5.1 c -0.393331,-0.230382 -0.527263,-0.734859 -0.3,-1.13 l 0.27,-0.46 c 0.149746,-0.255251 0.42407,-0.411463 0.72,-0.41 0.144015,-4.34e-4 0.285542,0.03754 0.41,0.11 l 8.79,5.1 c 0.402975,0.227206 0.542422,0.740011 0.31,1.14 z m -2.18,3.75 -0.27,0.46 c -0.22672,0.398114 -0.735665,0.533232 -1.13,0.3 L 24.3,65.8 C 23.901886,65.57328 23.766768,65.064335 24,64.67 l 0.27,-0.46 c 0.109636,-0.187999 0.28951,-0.324703 0.5,-0.38 h 0.21 c 0.144015,-4.34e-4 0.285542,0.03754 0.41,0.11 L 34.2,69 c 0.405459,0.230872 0.54101,0.750484 0.3,1.15 z m -2.18,3.76 -0.27,0.46 c -0.22672,0.398114 -0.735665,0.533232 -1.13,0.3 l -8.79,-5.1 c -0.393331,-0.230382 -0.527263,-0.734859 -0.3,-1.13 L 22.1,68 c 0.22672,-0.398114 0.735665,-0.533232 1.13,-0.3 L 32,72.78 c 0.405411,0.219695 0.550024,0.730359 0.32,1.13 z m -2.18,3.76 -0.27,0.46 c -0.230382,0.393331 -0.734859,0.527263 -1.13,0.3 l -6.52,-3.78 v 0 L 20,73.32 c -0.393331,-0.230382 -0.527263,-0.734859 -0.3,-1.13 l 0.27,-0.46 c 0.22672,-0.398114 0.735665,-0.533232 1.13,-0.3 l 8.79,5.1 c 0.380272,0.243568 0.492039,0.748753 0.25,1.13 z m -8.93,6.53 -3.08,2.4 0.42,-2.89 c 0.451623,0.05633 0.909851,0.02578 1.35,-0.09 2.58119,-0.689053 3.491079,-3.884624 1.66,-5.83 l 0.53,-0.91 2.52,1.46 z M 58.44,49 c -0.345522,0.609612 -0.524839,1.299294 -0.52,2 l -1.5,-0.87 c 0.599862,-0.346356 1.099501,-0.842549 1.45,-1.44 l 1.15,-2 0.62,0.28 z M 48,47.51 v 0 l 4.37,2.54 0.31,0.15 v 0 l 6.39,3.73 c 0.06633,0.03792 0.136792,0.06812 0.21,0.09 0.177615,0.153111 0.368349,0.290306 0.57,0.41 L 64.26,57 c 1.908568,1.104155 4.350725,0.455597 5.46,-1.45 l 1.9,-3.25 2.26,1 c -1,2 -1.71,3.81 -2.09,4.82 -2.432817,-0.311733 -4.88036,0.455407 -6.7,2.1 L 44.93,48.31 46.1,46.38 Z M 46.1,40.88 47,41.29 46.59,42 c -0.345522,0.609612 -0.524839,1.299294 -0.52,2 -0.434937,-0.14551 -0.913102,0.0235 -1.16,0.41 l -1.69,2.79 -0.7,-0.41 z M 52.48,30.1 c 0.277757,0.07135 0.56323,0.108294 0.85,0.11 h 0.43 c -0.330245,0.284962 -0.610746,0.622915 -0.83,1 L 49.58,37 48.68,36.6 Z M 52,25.88 c 0.218604,-0.368711 0.58099,-0.629629 1,-0.72 0.130631,-0.03379 0.265072,-0.05059 0.4,-0.05 1.570413,0.06072 2.063335,2.14976 0.686969,2.906761 C 52.710602,28.773763 51.210311,27.238777 52,25.88 Z m 24.39,23.05 -0.78,-0.35 c 0.44,-0.14 0.85,-0.25 1.22,-0.34 -0.15,0.22 -0.29,0.46 -0.44,0.69 z m -10.33,-26.26 8.26,-4.59 1.16,2.09 -8.26,4.59 -2.32,-0.08 z M 87.13,43.76 C 87.105555,43.6466 87.061566,43.538319 87,43.44 V 43.37 C 86.923343,43.257949 86.824671,43.16268 86.71,43.09 79.085044,38.197849 71.856144,32.714317 65.09,26.69 l 2.37,0.08 v 0 c 0.188664,0.0085 0.375887,-0.03655 0.54,-0.13 l 9.37,-5.21 c 0.483448,-0.2677 0.658111,-0.87678 0.39,-1.36 l -2.13,-3.84 c -0.2677,-0.483448 -0.87678,-0.658111 -1.36,-0.39 l -9.37,5.21 c -0.158967,0.08962 -0.290379,0.221033 -0.38,0.38 l -1.79,3.12 c -3.46,-3.13 -6,-5.62 -6.9,-6.71 -0.866666,-1.013333 -2.386666,0.286667 -1.52,1.3 4.806321,5.003251 9.941055,9.680301 15.37,14 L 56.81,25.76 C 56.247806,23.493835 53.688642,22.378172 51.645694,23.508603 49.602746,24.639035 49.188608,27.399925 50.81,29.08 l -4,6.65 -0.15,-0.07 c -1.259898,-0.533242 -2.716103,0.02276 -3.3,1.26 -0.485845,1.113624 -0.09704,2.415288 0.92,3.08 L 40.79,45.84 37,43.64 C 36.522406,43.360132 35.908315,43.521499 35.63,44 l -2.48,4.27 c -0.278197,0.48022 -0.112128,1.095123 0.37,1.37 l 1.82,1 -0.72,1.23 -1.69,-1 c -1.342908,-0.783615 -3.066497,-0.337089 -3.86,1 l -0.27,0.46 v 0 c -0.344751,0.60633 -0.451682,1.319205 -0.3,2 -0.677486,0.20541 -1.252473,0.658972 -1.61,1.27 l -0.27,0.46 c -0.348161,0.605021 -0.458668,1.31797 -0.31,2 -0.677486,0.20541 -1.252473,0.658972 -1.61,1.27 l -0.27,0.46 c -0.348161,0.605021 -0.458668,1.31797 -0.31,2 -0.677952,0.204516 -1.253235,0.65831 -1.61,1.27 l -0.27,0.46 c -0.349085,0.604696 -0.459647,1.318 -0.31,2 -0.696259,0.266035 -1.257713,0.798696 -1.56,1.48 l -0.27,0.46 v 0 c -0.348161,0.605021 -0.458668,1.31797 -0.31,2 -0.677952,0.204516 -1.253235,0.65831 -1.61,1.27 l -0.27,0.46 v 0 c -0.783615,1.342908 -0.337089,3.066497 1,3.86 l 1.4,0.81 -1,1.65 c -0.279868,0.477594 -0.118501,1.091685 0.36,1.37 1.175584,0.683131 0.942676,2.445675 -0.37,2.8 -0.392585,0.102598 -0.809848,0.04504 -1.16,-0.16 -0.611559,-0.353708 -1.387106,0.02105 -1.49,0.72 l -0.95,6.52 c -0.122715,0.88611 0.890768,1.475197 1.6,0.93 l 5.2,-4.05 c 0.101234,-0.07966 0.186123,-0.178133 0.25,-0.29 l 3.5,-6 1.4,0.81 c 1.342908,0.783615 3.066497,0.337089 3.86,-1 l 0.27,-0.46 c 0.349085,-0.604696 0.459647,-1.318 0.31,-2 0.677952,-0.204516 1.253235,-0.65831 1.61,-1.27 L 34,74.91 c 0.349085,-0.604696 0.459647,-1.318 0.31,-2 0.711026,-0.191085 1.318177,-0.654533 1.69,-1.29 l 0.27,-0.46 c 0.348161,-0.605021 0.458668,-1.31797 0.31,-2 0.677952,-0.204516 1.253235,-0.65831 1.61,-1.27 l 0.27,-0.46 c 0.344751,-0.60633 0.451682,-1.319205 0.3,-2 0.677952,-0.204516 1.253235,-0.65831 1.61,-1.27 l 0.27,-0.46 c 0.349085,-0.604696 0.459647,-1.318 0.31,-2 0.675836,-0.202949 1.250577,-0.652746 1.61,-1.26 l 0.27,-0.46 c 0.783615,-1.342908 0.337089,-3.066497 -1,-3.86 L 40,55 l 0.75,-1.3 1.75,1 c 0.250619,0.139939 0.549288,0.165435 0.82,0.07 0.7083,-0.249141 1.490131,-0.176072 2.14,0.2 l 20,11.77 c -0.249702,3.244385 2.685687,5.819726 5.87,5.15 h 0.1 c 1.358211,-0.290204 2.531008,-1.139847 3.23,-2.34 v 0 c 0.559991,-0.973957 0.768289,-2.110768 0.59,-3.22 0.656412,-3.768908 1.844955,-7.425445 3.53,-10.86 l 0.78,0.35 c 0.314308,0.142377 0.654959,0.21732 1,0.22 2.680242,-0.02701 3.444641,-3.680838 1,-4.78 l -0.19,-0.09 c 1.658752,-2.307575 3.472962,-4.499328 5.43,-6.56 v 0 c 0.03641,-0.03733 0.06985,-0.07745 0.1,-0.12 0.02034,-0.04527 0.03705,-0.09209 0.05,-0.14 0.06609,-0.133119 0.09379,-0.282018 0.08,-0.43 0.002,-0.03664 0.002,-0.07336 0,-0.11 v 0 z m -46.695411,4.639805 a 1.1,1.1 0 0 1 0.398955,1.503607 1.1,1.1 0 0 1 -1.503607,0.398956 1.1,1.1 0 0 1 -0.398956,-1.503608 1.1,1.1 0 0 1 1.503608,-0.398955 z"
       id="path957"
       style="display:inline" />
  </g>
  <g
     inkscape:groupmode="layer"
     id="layer2"
     inkscape:label="Layer 2"
     style="display:inline">
    <path
       id="path872"
       style="display:inline;filter:url(#filter1014)"
       d="m 33.998469,54.424965 a 1.1,1.1 0 0 1 1.096586,1.103403 1.1,1.1 0 0 1 -1.1034,1.096588 1.1,1.1 0 0 1 -1.096588,-1.103402 1.1,1.1 0 0 1 1.103402,-1.096589 z m 38.137396,-27.34096 c -0.07782,-0.08604 -0.169999,-0.157879 -0.272445,-0.212306 l -0.03497,-0.06065 c -0.122372,-0.05879 -0.255435,-0.09206 -0.391081,-0.09775 C 62.388174,26.283135 53.38674,25.142822 44.51613,23.302881 l 2.09321,-1.114351 v 0 c 0.167696,-0.08685 0.307397,-0.219395 0.402905,-0.382319 l 5.515671,-9.193388 C 52.813052,12.13945 52.660178,11.52454 52.186564,11.239806 L 48.423408,8.9768154 C 47.950034,8.691678 47.335126,8.8445532 47.050391,9.318168 l -5.515671,9.193387 c -0.09296,0.157037 -0.141178,0.336517 -0.13943,0.518998 l 0.0075,3.597005 c -4.56081,-0.98364 -8.004932,-1.872299 -9.329032,-2.367131 -1.25693,-0.445061 -1.924522,1.440337 -0.667591,1.885396 6.662756,1.93414 13.447121,3.421655 20.307901,4.452638 l -14.83577,0.03403 c -1.618856,-1.68252 -4.393194,-1.370944 -5.598531,0.628725 -1.205338,1.999668 -0.185246,4.598405 2.058537,5.244165 l -0.144175,7.758975 -0.164912,0.0143 c -1.357834,0.16726 -2.341736,1.37623 -2.229676,2.739734 0.135269,1.207437 1.122204,2.140955 2.335299,2.208887 L 33.027922,52.0298 28.645694,52.01668 c -0.55354,-0.0039 -1.004966,0.44256 -1.007107,0.996109 l -0.01597,4.937921 c -0.0011,0.554982 0.449798,1.004762 1.004775,1.002111 l 2.076193,-0.04259 -0.0094,1.425204 -1.963569,-0.02233 c -1.554794,-0.0083 -2.82502,1.239474 -2.844686,2.794165 l -0.0042,0.533369 v 0 c 0.0041,0.697476 0.267542,1.368481 0.738965,1.882535 -0.484354,0.516317 -0.755971,1.196427 -0.760549,1.904354 l -0.0042,0.533369 c 4.98e-4,0.698042 0.26087,1.3709 0.730294,1.887532 -0.484353,0.516313 -0.755971,1.196427 -0.760545,1.904355 l -0.0042,0.533368 c 4.97e-4,0.698043 0.26087,1.3709 0.730293,1.887528 -0.485203,0.515775 -0.756959,1.196236 -0.760546,1.904355 l -0.0042,0.53337 c -4.1e-4,0.698225 0.260036,1.371416 0.730293,1.887528 -0.470337,0.578217 -0.690726,1.320097 -0.612346,2.06132 l -0.0042,0.533368 v 0 c 4.97e-4,0.698043 0.260868,1.3709 0.730294,1.887529 -0.485208,0.515769 -0.756965,1.196229 -0.760551,1.904349 l -0.0042,0.533369 v 0 c -0.0082,1.554795 1.239475,2.825019 2.794165,2.844685 l 1.617435,0.0025 -0.04229,1.928916 c -0.0039,0.553541 0.442561,1.004964 0.996111,1.007106 1.359648,0.0047 2.03814,1.648011 1.077862,2.610576 -0.288875,0.284958 -0.679118,0.443486 -1.084876,0.440727 -0.706481,-0.001 -1.191211,0.711003 -0.931273,1.367928 l 2.433271,6.123064 c 0.336239,0.82897 1.508482,0.83317 1.850636,0.007 L 37.0597,95.645608 c 0.04792,-0.119576 0.07227,-0.247284 0.07176,-0.376101 l 0.03563,-6.946131 1.617434,0.0025 c 1.554794,0.0083 2.825021,-1.239474 2.844685,-2.794168 l 0.0042,-0.533369 c 4.38e-4,-0.698222 -0.260039,-1.371414 -0.730304,-1.887526 0.485201,-0.515775 0.756959,-1.196234 0.760545,-1.904354 l 2.05e-4,-0.600365 c 4.38e-4,-0.698226 -0.260039,-1.371416 -0.730303,-1.887529 0.520566,-0.520657 0.81511,-1.225397 0.819864,-1.961637 l 0.0042,-0.533368 c -4.63e-4,-0.698046 -0.260869,-1.3709 -0.730295,-1.88753 0.485202,-0.515775 0.756961,-1.196235 0.760547,-1.904354 l 0.0042,-0.533371 c -0.0042,-0.697475 -0.267541,-1.368482 -0.738964,-1.882532 0.485203,-0.515775 0.756962,-1.196238 0.760546,-1.904357 l 0.0042,-0.533368 c 4.39e-4,-0.698225 -0.260037,-1.371416 -0.730294,-1.887531 0.484152,-0.513359 0.757438,-1.190088 0.765541,-1.895692 l 0.0042,-0.533369 c 0.0083,-1.554792 -1.239473,-2.82502 -2.794166,-2.844685 l -2.144791,-0.05635 5.01e-4,-1.500833 2.015551,-0.0076 c 0.287011,-0.0039 0.558499,-0.131012 0.745368,-0.348891 0.489208,-0.569593 1.203041,-0.896762 1.953881,-0.895518 l 23.205394,0.208292 c 1.404026,2.935489 5.233317,3.70061 7.65757,1.530038 l 0.08664,-0.04995 c 1.031751,-0.929756 1.623465,-2.251578 1.629643,-3.640434 v 0 c -0.0013,-1.123676 -0.388601,-2.212584 -1.097048,-3.084528 -1.313636,-3.593034 -2.110136,-7.354482 -2.365626,-11.171585 l 0.850558,-0.08634 c 0.343408,-0.03363 0.675962,-0.138826 0.976229,-0.308833 2.308543,-1.362004 1.145938,-4.90927 -1.520942,-4.640596 l -0.209554,0.01693 c 0.284583,-2.827612 0.761693,-5.632518 1.428009,-8.395196 v 0 c 0.0129,-0.05053 0.02182,-0.101985 0.0267,-0.153906 -0.0049,-0.04937 -0.01388,-0.09829 -0.0266,-0.146261 -0.0092,-0.148337 -0.0596,-0.291168 -0.145433,-0.412491 -0.01658,-0.03272 -0.03492,-0.06455 -0.05494,-0.0953 v 0 z m -28.787095,-7.748303 4.86367,-8.101878 2.048786,1.231334 -4.86367,8.101878 -2.049893,1.089377 z m 22.064546,17.59126 -0.850558,0.08634 c 0.311273,-0.341041 0.61154,-0.641108 0.887142,-0.903869 -0.02006,0.265513 -0.02151,0.543358 -0.03659,0.817535 z M 32.771041,29.138727 c 0.0053,-0.428609 0.188885,-0.835644 0.506761,-1.123205 0.0963,-0.09452 0.204379,-0.176214 0.321567,-0.24309 1.390858,-0.731713 2.861238,0.83195 2.046893,2.175182 -0.814347,1.343234 -2.880751,0.762691 -2.875221,-0.808887 z m 2.523458,3.41628 c 0.276269,-0.0769 0.542024,-0.187522 0.791337,-0.329219 l 0.372531,-0.214761 c -0.143789,0.411812 -0.218018,0.844691 -0.219639,1.280883 l -0.01056,6.689282 -0.979491,0.102952 z m -0.143479,12.525662 0.984486,-0.09428 -6.52e-4,0.819876 c 0.0051,0.700705 0.194219,1.387769 0.548363,1.992411 -0.449481,0.09116 -0.77933,0.476393 -0.800199,0.934547 l -0.07072,3.261166 -0.811213,-0.0057 z m 4.957315,4.794992 v 0 l 5.054519,0.01801 0.343486,-0.02482 v 0 l 7.398878,0.04011 c 0.07641,-2.76e-4 0.152534,-0.0093 0.226884,-0.02691 0.230345,0.04395 0.464109,0.06754 0.698587,0.07051 l 5.104159,0.02402 c 2.204944,0.0034 3.9968,-1.77819 4.006104,-3.983117 l 0.02295,-3.764568 2.457387,-0.262369 c 0.132515,2.232138 0.421379,4.154833 0.596594,5.219633 -2.263365,0.944961 -4.000664,2.831959 -4.755748,5.165544 l -23.413913,-0.249708 0.04973,-2.256395 z m 9.788871,-3.923222 c 0.0051,0.700704 0.19422,1.387769 0.548365,1.992409 l -1.734037,-0.0046 c 0.34671,-0.599658 0.531759,-1.279073 0.537027,-1.971725 l -0.0026,-2.307054 0.676982,-0.06707 z m -14.687841,49.08584 -1.469724,3.6175 -1.079494,-2.713519 c 0.419397,-0.176754 0.801126,-0.432077 1.124625,-0.752207 1.892084,-1.886096 1.084393,-5.109015 -1.473553,-5.879893 l 0.0047,-1.05308 2.912381,0.0063 z m 4.475223,-10.117221 -0.0042,0.533368 c -0.0032,0.455825 -0.373313,0.823809 -0.829148,0.824266 l -7.536478,-0.0185 v 0 l -2.573876,-0.03983 c -0.455822,-0.0032 -0.823809,-0.373314 -0.824266,-0.829148 l 0.0042,-0.53337 c -0.0024,-0.458136 0.371031,-0.829381 0.829148,-0.824263 l 10.162348,0.02837 c 0.451094,0.02108 0.80023,0.402944 0.78095,0.854121 z m 0.01078,-4.34625 -0.0042,0.533369 c 0.0025,0.458136 -0.371031,0.829382 -0.829148,0.824265 l -10.162344,-0.02837 c -0.455824,-0.0032 -0.823808,-0.373314 -0.824265,-0.829147 l 0.02783,-0.512373 c -0.0024,-0.458138 0.371031,-0.829384 0.829147,-0.824266 l 10.135031,0.02103 c 0.460952,-0.01216 0.84128,0.358047 0.841593,0.819159 z m 0.01078,-4.346249 -0.0042,0.533367 c 0.0025,0.458139 -0.371032,0.829383 -0.829148,0.824268 l -10.162351,-0.02837 c -0.458136,0.0024 -0.829381,-0.371032 -0.824265,-0.829147 l 0.0042,-0.533369 c 9.94e-4,-0.217631 0.08864,-0.425899 0.243391,-0.57893 l 0.181937,-0.104875 c 0.124554,-0.0723 0.266128,-0.11009 0.410143,-0.109463 l 10.159697,-0.01626 c 0.466577,-0.0025 0.843523,0.379983 0.834255,0.846475 z m 0.01577,-4.337587 -0.0042,0.53337 c 0.0025,0.458137 -0.371033,0.829382 -0.829151,0.824265 l -10.162366,-0.02837 c -0.455823,-0.0032 -0.823807,-0.373313 -0.824264,-0.829148 l 0.0042,-0.533367 c 0.0022,-0.295924 0.161897,-0.568266 0.419006,-0.714796 0.124549,-0.0723 0.266127,-0.110091 0.410144,-0.109464 l 10.162348,0.02837 c 0.462592,-0.0045 0.839514,0.370207 0.837923,0.832816 z m 0.01578,-4.337586 -0.0042,0.533368 c 0.0025,0.45814 -0.371031,0.829384 -0.829147,0.824266 L 28.741996,68.88265 c -0.455823,-0.0032 -0.823809,-0.373314 -0.824264,-0.829147 v 0 l 0.0042,-0.533368 c 0.0022,-0.295925 0.161897,-0.568268 0.419006,-0.714798 0.124549,-0.0723 0.266128,-0.11009 0.410143,-0.109464 l 10.16234,0.02837 c 0.459546,-0.0072 0.835315,0.364555 0.832928,0.824154 z m -0.808504,-5.166733 c 0.458138,-0.0025 0.829381,0.371031 0.823161,1.094687 -0.0062,0.723655 -0.376387,1.091639 -0.83222,1.092095 l -10.162358,-0.02837 c -0.458138,0.0024 -0.829383,-0.371032 -0.807291,-1.083511 0.0221,-0.71248 0.395536,-1.083724 0.853652,-1.078607 z m -6.208212,-2.019282 0.0082,-1.44753 2.282079,-0.04591 -0.05646,1.463834 z m 36.576273,-1.786139 c -2.191066,-0.02524 -3.580124,-2.358686 -2.557812,-4.2968 l 3.660937,4.087951 c -0.350881,0.13983 -0.725415,0.210736 -1.103125,0.208849 z m 2.931015,-2.92473 c -0.0085,0.478449 -0.134549,0.947466 -0.36692,1.365784 l -3.679589,-4.100283 c 0.348798,-0.147795 0.723019,-0.226306 1.101801,-0.23117 1.63078,0.0014 2.961739,1.305298 2.996689,2.935703 z m -1.726111,-4.776257 c -0.404362,-0.09911 -0.819631,-0.146715 -1.235933,-0.141668 -1.190281,-0.0011 -2.340117,0.431881 -3.233943,1.217911 l -0.01734,0.0099 -0.04332,0.02497 -0.164606,0.0949 c -0.929972,0.92344 -1.452173,2.180343 -1.450359,3.49091 0.02997,0.05199 0.02162,0.137597 0.01693,0.209554 L 41.699224,55.618629 c -1.170893,-0.0067 -2.299493,0.437263 -3.152,1.239926 l -6.788247,0.05804 v 0 l -2.067531,0.03769 0.01,-2.926039 32.309957,0.303945 c 0.475666,0.0019 0.886762,-0.33174 0.983053,-0.797561 0.222902,-1.074997 1.454535,-4.024282 4.38913,-4.700258 0.528072,-0.122091 0.862749,-0.642656 0.754639,-1.173764 -0.354318,-1.959242 -0.592939,-3.937649 -0.714625,-5.924949 l 1.384944,-0.140451 c 0.180455,3.146885 0.756532,6.258514 1.714625,9.26143 z m 1.365605,-12.0875 c 0.02139,0.272401 -0.175689,0.513266 -0.446935,0.546216 l -38.118484,3.956416 c -0.274091,0.02682 -0.518299,-0.17295 -0.546213,-0.446932 -0.02218,-0.19821 0.07556,-0.39064 0.248692,-0.489647 0.05027,-0.04485 0.109261,-0.07885 0.17327,-0.09989 l 38.118483,-3.956414 c 0.298064,-0.0563 0.577192,0.16364 0.592183,0.466603 z M 68.8875,36.586311 67.404607,36.737065 c 0.06129,-0.933611 0.181206,-1.862444 0.359062,-2.781002 0.07531,-0.388183 -0.08516,-0.784294 -0.409434,-1.010577 -0.325049,-0.229456 -0.755203,-0.244383 -1.095378,-0.03801 -1.20131,0.804654 -2.296234,1.757749 -3.258803,2.836672 l 0.01942,-2.389 c 0.0082,-2.210267 -1.777833,-4.008215 -3.988104,-4.014768 l -5.037197,-0.02799 c -2.210264,-0.0082 -4.008212,1.777842 -4.014766,3.988114 l -0.04335,5.230746 -0.676981,0.06707 0.03812,-5.320033 c 0.0082,-2.210261 -1.777812,-4.008208 -3.988082,-4.014763 l -5.054521,-0.01801 c -0.927635,0.0034 -1.825257,0.329059 -2.53923,0.921311 0.109888,-0.334775 0.16918,-0.68408 0.175915,-1.036367 0.003,-0.161164 -0.005,-0.322351 -0.02413,-0.482407 l 32.27064,0.0957 c -0.581744,2.576341 -0.992395,5.188353 -1.22926,7.818916 z"
       inkscape:connector-curvature="0" />
    <rect
       style="opacity:1;fill:#000000;fill-opacity:1;stroke:#000000;stroke-width:2.20000005;stroke-miterlimit:4;stroke-dasharray:none;stroke-opacity:1;paint-order:stroke markers fill"
       id="rect1030"
       width="2.2000008"
       height="66"
       x="30.800001"
       y="33" />
  </g>
</svg>
