<svg xmlns="http://www.w3.org/2000/svg" xmlns:xlink="http://www.w3.org/1999/xlink" version="1.1" x="0px" y="0px" viewBox="0 0 100 125" enable-background="new 0 0 100 100" xml:space="preserve"><g><circle fill="#000000" cx="61.225" cy="18.584" r="1.958"/><path fill="#000000" d="M72.226,55.237h-1.021c-0.553,0-1,0.447-1,1v0.588h-2.055v-1.533c0-0.452-0.304-0.818-0.715-0.943v-1.171   c0-0.871-0.339-1.689-0.955-2.306s-1.435-0.955-2.306-0.955h-2.074v-2.185h3.75c0.553,0,1-0.447,1-1V42.9l0.23,0.038   c0.055,0.009,0.108,0.013,0.162,0.013c0.481,0,0.905-0.348,0.986-0.838c0.089-0.545-0.28-1.059-0.826-1.148l-0.553-0.091v-4.764   l0.566-0.086c0.546-0.083,0.921-0.594,0.837-1.14c-0.083-0.546-0.584-0.921-1.14-0.838l-0.264,0.04v-8.168c0-0.552-0.447-1-1-1   h-0.549c2.036-1.365,3.341-3.677,3.341-6.271c0-3.78-2.791-6.912-6.418-7.466V8.876h0.75c0.553,0,1-0.448,1-1V6.751   c0-0.552-0.447-1-1-1h-3.5c-0.553,0-1,0.448-1,1v1.125c0,0.552,0.447,1,1,1h0.75v2.26c-3.768,0.427-6.707,3.63-6.707,7.511v6.271   h-0.292c-0.553,0-1,0.448-1,1v10.401l-0.75,0.115V25.917c0-0.552-0.447-1-1-1h-3.529v-2.11c0-0.552-0.447-1-1-1h-3.566   c-0.553,0-1,0.448-1,1v2.11h-3.529c-0.553,0-1,0.448-1,1v10.045l-1.798-0.294v-3.912c0-1.214-0.473-2.356-1.332-3.215   s-2-1.332-3.215-1.332h-1.203c-0.552,0-1,0.448-1,1v6.354l-0.368-0.06c-0.545-0.091-1.06,0.28-1.148,0.825   c-0.089,0.545,0.28,1.059,0.825,1.148l0.691,0.113v3.382l-0.61,0.093c-0.546,0.083-0.921,0.594-0.838,1.14   c0.076,0.495,0.502,0.849,0.987,0.849c0.05,0,0.101-0.003,0.152-0.011l0.308-0.047v10.313c0,1.029,0.401,1.999,1.131,2.729   c0.729,0.729,1.698,1.13,2.729,1.13h18.176l1.616,3.719c0.158,0.365,0.519,0.602,0.917,0.602h4.315v2.494h-0.808   c-0.553,0-1,0.447-1,1v10.686c0,0.553,0.447,1,1,1h0.268v2.751c0,0.553,0.447,1,1,1l0.001,6.651c0,0.521,0.402,0.935,0.911,0.982   v2.281c0,0.514,0.392,0.921,0.891,0.978v2.939c0,0.553,0.447,1,1,1s1-0.447,1-1v-2.966c0.431-0.111,0.756-0.485,0.756-0.951V87.07   h0.016c0.553,0,1-0.447,1-1c0-0.014-0.007-0.025-0.008-0.039c0.001-0.014,0.008-0.025,0.008-0.039v-6.573h0.002   c0.553,0,1-0.447,1-1v-2.751h0.32c0.553,0,1-0.447,1-1V63.982c0-0.553-0.447-1-1-1h-0.981v-2.494h3.59c0.553,0,1-0.447,1-1v-0.663   h2.055v0.588c0,0.553,0.447,1,1,1h1.021c0.553,0,1-0.447,1-1v-3.176C73.226,55.684,72.779,55.237,72.226,55.237z M43.381,23.807   h1.566v1.1h-1.566V23.807z M63.543,73.667h-6.164v-8.686h6.164V73.667z M62.222,77.418h-0.002c-0.553,0-1,0.447-1,1v6.651h-1.573   v-6.651c0-0.553-0.447-1-1-1l-0.001-1.751h3.576V77.418z M61.561,60.584v2.208h-2.375v-2.208H61.561z M60.101,49.917h-1.125v-2.185   h1.125V49.917z M35.053,40.965l1.798-0.275v6.043c0,0.553,0.447,1,1,1h3.75v2.185h-6.548V40.965z M45.388,39.386l4.088,0.669v5.677   H38.851v-5.348L45.388,39.386z M38.851,38.361v-0.045l0.141,0.023L38.851,38.361z M43.601,47.733h1.125v2.185h-1.125V47.733z    M46.726,47.733h3.75c0.553,0,1-0.447,1-1v-6.35l0.75,0.123v6.227c0,0.553,0.447,1,1,1h0.292v2.185h-6.792V47.733z M55.518,47.733   h1.458v2.185h-1.458V47.733z M64.851,45.733H54.226v-4.899l10.625,1.739V45.733z M64.851,40.546l-10.625-1.739v-0.77l10.625-1.622   V40.546z M58.756,24.906v-1.1h1.566v1.1H58.756z M55.518,18.647c0-3.067,2.495-5.562,5.562-5.562s5.562,2.495,5.562,5.562   c0,2.612-1.804,4.823-4.321,5.397v-1.237c0-0.552-0.447-1-1-1h-3.566c-0.553,0-1,0.448-1,1v2.11h-1.237V18.647z M54.226,26.917   h10.625v7.474l-10.625,1.622V26.917z M52.226,38.479l-0.433-0.071l0.433-0.066V38.479z M38.851,26.917h10.625v9.821l-4.079,0.623   l-6.546-1.072V26.917z M36.851,37.989v0.677l-1.798,0.275v-1.246L36.851,37.989z M30.303,29.209h0.203   c0.68,0,1.32,0.265,1.801,0.746c0.481,0.481,0.746,1.121,0.746,1.801v3.584l-2.75-0.45V29.209z M30.303,36.917l2.75,0.45v1.879   l-2.75,0.42V36.917z M30.848,53.624c-0.352-0.353-0.545-0.82-0.545-1.316V41.69l2.75-0.42v9.647c0,0.553,0.448,1,1,1h30.123   c0.337,0,0.653,0.131,0.892,0.369s0.369,0.555,0.369,0.892v0.989H32.162C31.666,54.167,31.199,53.974,30.848,53.624z    M66.151,58.488H53.527l-0.955-2.196h13.579V58.488z"/></g><text x="0" y="115" fill="#000000" font-size="5px" font-weight="bold" font-family="'Helvetica Neue', Helvetica, Arial-Unicode, Arial, Sans-serif">Created by Joao Filho</text><text x="0" y="120" fill="#000000" font-size="5px" font-weight="bold" font-family="'Helvetica Neue', Helvetica, Arial-Unicode, Arial, Sans-serif">from the Noun Project</text></svg>