<svg xmlns="http://www.w3.org/2000/svg" xmlns:xlink="http://www.w3.org/1999/xlink" xml:space="preserve" version="1.1" style="shape-rendering:geometricPrecision;text-rendering:geometricPrecision;image-rendering:optimizeQuality;" viewBox="0 0 60000 75000" x="0px" y="0px" fill-rule="evenodd" clip-rule="evenodd"><defs><style type="text/css">
   
    .fil0 {fill:black;fill-rule:nonzero}
   
  </style></defs><g><path class="fil0" d="M35986.81 32576.54c2234.19,1828.87 4330.26,4242.14 6028.65,7392.13l10298.31 -11937.42c6.89,-8.62 14.09,-16.99 21.62,-25.08l1905.76 -2209.08c30.56,-35.32 65.53,-64.58 103.35,-87.72 -335.52,-519.8 -682.6,-1035.68 -1040.35,-1547.39 37.51,136.47 8.84,288.53 -90.1,404.15l-10222.08 12000.48 -0.23 -0.2c-93.61,109.18 -238.7,170.48 -391.95,150.5l-1401.19 -183.06c-145.55,-19.23 -278.31,-110.59 -343.81,-253.96 -76,-166.79 -157.93,-333.22 -245.32,-499.03 -11.82,-18.69 -22.1,-38.09 -30.86,-58.05 -830.51,-1551.74 -2138.99,-3046.23 -3594.29,-4263.42 -1705.57,-1426.53 -3596.08,-2460.93 -5137.24,-2748.18 -88.18,-10.93 -173.93,-48.48 -244.29,-113.23l-6385.2 -5860.84 -1235.9 -106.31 -1271.89 1305.82c1483.02,1382.19 2963.17,2761.71 4443.34,4141.24 3227.53,849.8 6250.63,2384.22 8833.67,4498.65zm-4261.24 -1773.84l-1101 1225.73c1964.39,1284.03 3657.11,2604.41 5143.73,4130.16 1489.66,1528.92 2767.23,3259.28 3897.11,5359.3l1671.65 -943.13c-1656.43,-3131.36 -3714.69,-5516.97 -5910.03,-7314.05 -1207.44,-988.39 -2455.91,-1798.91 -3701.46,-2458.01zm-1698.01 1890.39l-698.45 777.57c-153.48,170.54 -409.68,193.64 -590.44,59.97l-1402.71 -912.38c-204.19,-132.64 -262.21,-405.69 -129.58,-609.88l2.26 -3.39 581.69 -940.52c-313.99,-196.26 -584.24,-340.21 -849.99,-406.55l-1.63 -0.42 -0.11 0.42c-287.11,-71.66 -594.49,-54.59 -993.99,83.56 -179.63,61.86 -371.88,0.82 -485.17,-138.47l-0.32 0.25 -677.42 -832.17 -1511.47 2195.96c-21.85,31.65 -47.1,59.53 -74.92,83.54 319.77,1012.49 168.53,2264.85 -764.49,3664.11l-5.19 6.91 -8208.84 11713.58c-49.14,118.7 -118.15,227.55 -208.12,325.1l0.94 0.86 -8.85 9.57c-357.61,386.97 -1153.23,1247.54 -2274.56,1417.85 -206.62,65.69 -441.81,76.14 -696.69,35.35 -124.88,-19.98 -255.63,-52.86 -390.63,-97.95 -194.83,-51.49 -396.2,-126.12 -603.71,-227.74 -239.37,338.55 -481.39,699.14 -724.57,1061.48 -1000.65,1490.97 -2020.09,3009.88 -3105.06,3369.84l-2877.13 2475.68 -0.31 -0.35c-127.33,108.82 -311.45,139.84 -473.08,64.27 -220.41,-103.04 -315.55,-365.27 -212.51,-585.68l1699.6 -3615.65c-83.66,-561.63 370.39,-1464.86 1019.13,-2452.43 24.96,-72.23 67.7,-134.92 122.28,-183.83 564.04,-837.5 1250.56,-1723.32 1856.53,-2505.08 56.72,-73.17 112.63,-145.3 168.17,-217.06 -262.31,-461.85 -433.87,-913.87 -498.15,-1310.82 -28.51,-176.03 -36.14,-343.44 -21.82,-499.49 -9.15,-380.81 50.26,-725.32 148.48,-1032.01 245.72,-767.2 728.16,-1274.31 984.05,-1531.93 70.54,-71.01 150.1,-128.96 237.69,-174.33 10.71,-20.26 23.11,-39.95 37.29,-58.86l8404.46 -11173.66 13.55 -13.55c824.44,-824.59 1979.72,-1119.6 3087.43,-987.36l1745.66 -2536.2 -1291.59 -1272.44c-173.07,-170.21 -175.95,-448.16 -6.88,-621.94l3147.77 -3231.77c95.54,-98.23 225.69,-142.42 352.37,-132.06l0.08 -0.97 1338.85 115.17 2201 -3197.77c503.85,-732.04 1311.28,-892.75 2054.39,-693.52 137.87,36.95 274.03,87.22 405.77,149.21l5481.73 -7751.62c-72.41,-55.59 -144.92,-111.12 -217.53,-166.59 -719.68,-549.68 -1420.14,-1071.86 -2105.5,-1572.11 -32.02,-20.07 -61.97,-44.58 -88.94,-73.56 -28.85,-31 -52.37,-65.06 -70.62,-101.04 -39.96,-21.06 -77.36,-48.63 -110.56,-82.76 -169.84,-174.61 -165.98,-453.86 8.63,-623.7l3612.16 -3519.54c158.27,-153.94 402.5,-165.18 573.31,-35.9l0.29 -0.38c472.8,356.46 934.67,709.93 1383.44,1059.22 287.51,223.79 588.38,460.69 902.97,711.15 87.5,-222.07 175.74,-445.27 264.78,-669.74l0.27 0.11c43.88,-110.55 132.12,-203.07 251.97,-248.89l1662.07 -637.99c116.68,-53.67 255.68,-56.22 379.83,5.04 342.6,169.52 720.52,378.37 1096.08,620.9 768.88,496.56 1539.01,1140.55 2014.38,1896.46 513.65,816.78 689.63,1747.9 193.78,2749.98 -55.99,113.14 -119.55,225.23 -191.1,336.02l-0.36 -0.22 -304.2 518.91c2561.24,2342.69 5044.47,4875.11 7292.12,7559.13 2056.12,2455.32 3917.04,5041.29 5462.82,7729.91 87.36,152.01 73.94,334.34 -19.36,469.67l0.36 0.26 -999.45 1452.06c-58.8,92.84 -152.16,163.98 -267.31,192.3l-3154.7 779.61 -10620.65 12311.08c-39.34,52.74 -91.09,97.49 -153.71,129.34 -6.16,3.13 -12.36,6.08 -18.6,8.9l-2377.57 1341.42c-13.03,8.57 -26.61,16.55 -40.77,23.84 -216.59,111.64 -482.69,26.54 -594.32,-190.05 -1140.03,-2202.9 -2434.56,-3988.68 -3958.4,-5552.67 -1464.12,-1502.68 -3145.42,-2805.77 -5108.4,-4080.57zm-1774.39 -2376.98l506.71 -819.26c-543.36,-194.03 -1079.1,-361.9 -1603.21,-505.83l-531.81 741.62c181.62,1.69 355.71,25.34 527.98,68.34l-0.1 0.42c371.55,93.01 713.99,273.17 1100.43,514.71zm1345.86 -500.68l-1421.5 2298.34 746.8 485.76 1983.66 -2208.41c-438.53,-209.7 -875.49,-401.18 -1308.96,-575.69zm6761.96 53.01l8722.01 -10687.04c-187.33,-206.57 -371.69,-407.05 -553.2,-601.56 -147.62,-158.22 -293.93,-313.39 -438.93,-465.6l-8706.03 11118.37c326.49,196.16 652.83,408.75 976.15,635.83zm9286.58 -11378.8l350.2 -429.11c127.76,-157.12 341.34,-203.35 518.31,-126.09 773.51,337.33 1509.19,880.31 2123.6,1564.1 593.2,660.16 1076.95,1453.79 1376.23,2322.5 57.64,168.06 8.15,346.96 -112.07,462.43l-588.28 664.45c169.03,227.95 321.88,437.15 458.17,627.18 172.69,240.77 353.2,497.5 541.73,770.6 33.66,-16.32 69.96,-28.6 108.39,-36.1l2370.37 -463.92 0.14 0.7c114.92,-22.36 237.69,1.02 338.72,72.41 -904.3,-1278.11 -1874.27,-2529.77 -2894.66,-3751.06 -2164.69,-2590.87 -4553.72,-5040.67 -7021.79,-7313.88l-362.93 619.09c72.04,63.37 149.76,129.98 232,200.49 307.7,263.76 674.17,577.93 1003.23,930.12 779.9,834.75 1328.94,1834.78 571.77,2829.87 175.35,183.25 347.15,365 515.26,545.18 160.69,172.2 317.93,342.57 471.61,511.04zm3069.93 5133.78l-8635.39 9753.57c359.97,458.38 689.13,930.88 978.73,1411.7l8632.95 -9789.7c-2.8,-3.85 -5.57,-7.72 -8.27,-11.68 -194.65,-283.63 -405,-582.93 -630.51,-897.36 -119.05,-166.01 -231.52,-321.46 -337.51,-466.53zm-9205.49 9068.1l9580.01 -10820.5c-262.14,-661.95 -647.32,-1267.96 -1108.87,-1781.61 -451.28,-502.24 -972.9,-914.55 -1521.23,-1202.98l-9391.56 11507.45c161.68,126.1 322.02,255.59 480.64,388.26 695.17,581.45 1359.6,1225.05 1961.01,1909.38zm-4905.08 -3894.88l9127.04 -11656.08 22.55 -21.06c648.14,-605.55 246.93,-1314.59 -313.75,-1914.7 -296.64,-317.5 -641.29,-612.96 -930.67,-861.02 -38.45,-32.98 -76,-65.16 -112.37,-96.47l-8365.29 14269.45c189.68,86.76 380.72,180.21 572.49,279.88zm6948.97 -23522.75l-1325.22 508.69c-655.08,1654.72 -1299.98,3328.83 -1939.72,4989.61 -2095.25,5439.27 -4135.14,10734.67 -6960.12,16377.89l449.54 412.62c2063.73,-3894.77 3842.17,-7540.84 5442.29,-11161.83 1617.7,-3660.82 3046.32,-7281.28 4397,-11093.66 -21.38,-11.25 -42.63,-22.38 -63.77,-33.32zm-10900.16 21256.54c2536.96,-5097.61 4444.14,-9936.18 6346.23,-14865.52 -322.04,-258.43 -646.41,-515.14 -972.92,-770.28l-5458.2 7718.34c82.59,83.47 158.13,172.35 225.16,265.84 427.13,595.71 539.78,1370.05 11.31,2137.86l-2384.43 3464.26 2232.85 2049.5zm6679.16 -15729.12l133.68 -347.01c244.25,-634.07 489.28,-1270.14 737.47,-1911.65 -428.62,-345.43 -851.28,-680.78 -1267.65,-1006.19 -399.24,-312.02 -817.77,-633.88 -1253.27,-964.15l-1752.68 1628.64c592.26,435.42 1165.33,863.95 1715.95,1284.51 64.01,48.89 127.99,97.87 191.91,146.92l1008.43 -1426.01c140.26,-199.42 415.63,-247.37 615.05,-107.11 199.42,140.26 247.37,415.63 107.11,615.05l-1031.75 1458.99c266.09,207.8 531.35,417.09 795.75,628.01zm1205.54 -3121.06c112.44,-289.26 225.73,-579.91 340.08,-872.27 -351.11,-280.33 -720.99,-571.65 -1107.98,-872.85 -343.76,-267.55 -678.99,-525.53 -1005.82,-774.17l-508.05 738.13c388.43,295.42 795.6,609.42 1222.21,942.85 355.99,278.22 709.38,557.75 1059.56,838.31zm-5329.6 20498.98l10927.67 -18640.35c3.01,-5.13 6.14,-10.17 9.31,-15.13l-0.67 -0.43c55.37,-85.75 102.83,-168.95 142.73,-249.62 335.64,-678.31 209.27,-1320.11 -148.86,-1889.6 -396.4,-630.35 -1067.55,-1186.05 -1744.87,-1623.48l-1.33 -0.85c-1345.78,3787.48 -2764.77,7378.92 -4363.59,10997.01 -1600.72,3622.38 -3388.55,7286.15 -5470.87,11215.8 212.97,58.1 430.16,127.28 650.48,206.65zm10917.9 -16881.23l-455.2 776.47c2545.06,2334.53 5010.78,4855.92 7242.13,7526.58 1883.82,2254.71 3602.49,4619.19 5063.38,7071.82l458.63 -666.33c-1486.71,-2548.14 -3268.97,-5011.37 -5237.31,-7361.87 -2180.32,-2603.62 -4586.83,-5064.58 -7071.63,-7346.67zm9767.93 16248.48l1375.04 -339.81c-146.07,-246.37 -294.93,-491.94 -446.38,-736.67l-928.66 1076.48zm-28195.57 1957.25l675.96 -942.63 -464.53 -432.96 -614.13 892.25c19.98,17.08 38.72,36.18 55.9,57.31l346.8 426.03zm-3110.4 -2328.54c-4.65,7.21 -9.53,14.32 -14.65,21.31l-1751.37 2544.5c428.58,149.58 832.74,365.62 1186.4,641.12 285.13,222.12 537.55,482.6 744.11,777.93l2505.2 -3639.71 -1771.09 -1650.67 -898.6 1305.52zm3394.51 -4931.76l1781.65 1635.35 2314.83 -3363.13c277.88,-403.74 219.33,-809.99 -4.39,-1122 -100.5,-140.16 -229.42,-262.83 -374.72,-361.21 -147.47,-99.84 -314.19,-176.52 -487.8,-223.06 -408.02,-109.39 -843.08,-33.2 -1100.68,341.07l-2128.89 3092.98zm-3891.4 2325.63l-807.34 828.87 868.27 855.39 682.42 -991.45 -743.35 -692.81zm19419.17 11043.19c12.97,26.19 25.82,52.4 38.54,78.61l924.58 120.79 9247.15 -10855.93 -982.49 192.29 -9227.78 10464.24zm-21002.34 1306.97c-84.33,-225.03 -171.15,-448.56 -260.07,-669.55 -662.03,-191.92 -1466.01,-346.63 -2348.11,-457.73 -26.52,-3.34 -53.12,-6.63 -79.77,-9.89 332.43,681.62 649.84,1407.72 937.37,2148.62 313.87,58.38 618.33,121.5 909.58,188.59l841 -1200.04zm-472.98 -1184.27c-240.2,-564.91 -492.65,-1106.82 -750.38,-1606.99 -125.3,-243.16 -251.64,-476.12 -378.22,-696.74 -183.08,-33.08 -372.86,-63.17 -568.73,-90.26 -623.19,-86.2 -1305.38,-142.13 -2025.52,-169.13 423.89,600.17 857.05,1331.51 1272.26,2139.52 124.3,13.67 247.33,28.16 368.95,43.48 761.46,95.91 1468.12,223.89 2081.64,380.12zm-1427.57 -2800.69c-239.74,-378.86 -477.97,-707.01 -709.07,-969.51 -298.83,-112.43 -598.74,-194.22 -895.15,-244.03l-758.01 1007.78c767.61,26.18 1493.33,84.12 2152.93,175.35 70.5,9.75 140.27,19.88 209.3,30.41zm166.14 -549.41c137.27,201.13 274.99,418.68 412.18,650.15 239.05,47.29 466.57,99.95 681.13,158.04 -78.65,-71.4 -158.3,-140.51 -238.85,-207.24 -276.24,-228.85 -562.58,-429.59 -854.46,-600.95zm704.1 1164.8c66.69,122.58 133.11,248.05 199.12,376.16 311.59,604.67 615.61,1269.43 900.15,1962.27 187.14,58.75 362.21,120.6 523.72,185.42l451.72 -644.6c-297.22,-588.56 -651.66,-1115.4 -1045.35,-1575.63 -28.02,0.52 -56.61,-4.31 -84.33,-15.14 -278.49,-109.71 -595.52,-205.76 -945.03,-288.48zm1314.91 2878.47l21.19 54.76 25.95 -37.03c-15.58,-5.94 -31.32,-11.84 -47.14,-17.73zm-1991.78 2927.14c-114.64,-345.52 -237.48,-691.31 -367.02,-1034.38 -502.83,-88.2 -1027.17,-163.82 -1557.63,-223.63 -211.67,-23.88 -424.19,-45.23 -636.61,-63.88 233.66,520.04 444.54,1039.34 622.47,1542.03 52.95,139.82 104.31,278.52 154.05,416.13 395.97,59.08 796.61,129.23 1193.15,207.9l591.59 -844.17zm-553.12 -1513.83c-274.21,-687.77 -573.01,-1358.64 -883.98,-1987.76 -21.43,-43.35 -42.92,-86.47 -64.45,-129.41 -741.77,-74.15 -1525.02,-118.58 -2316.02,-129.9 274.14,470.26 542.83,965.87 796.53,1472.02 84.24,168.04 166.71,337.06 247.09,506.5 299.58,23.24 599.68,51.93 897.68,85.53 448.3,50.55 892.33,112.17 1323.15,183.02zm-1187.95 -2582.18c-402.95,-761.27 -818.44,-1441.78 -1220.92,-1990.46l-1253.61 1666.66c44.52,71.05 88.99,142.95 133.43,215.61 794.73,3.95 1586.11,41.09 2341.1,108.19zm1880.72 3156.2c59.96,163.33 118.34,327.07 174.96,490.89l277.62 -396.15c-147.85,-32.67 -298.9,-64.28 -452.58,-94.74zm-1819.31 3336.6c-75.63,-269.02 -159.1,-543.77 -250.19,-824.33 -57.71,-177.76 -118.2,-356.9 -181.43,-537.45l-23.95 -3.27c-562.12,-76.5 -1106.22,-128 -1604.61,-146.66 -5.67,0.08 -11.39,-0.05 -17.15,-0.42 -114.16,-7.28 -226.84,-13.83 -338.16,-19.63 249.56,609.15 454.13,1186.55 613.66,1749.93 303.47,32.58 621.13,73.29 957.33,120.93l0.03 -0.26c135.47,16.08 286.23,37.43 450.34,63.53 33.63,5.35 67.2,10.8 100.68,16.36l293.45 -418.73zm-600.04 -1828.82c-24.23,-65.37 -48.81,-130.92 -73.73,-196.66l-1.58 -4.36 -0.14 0.05c-199.8,-564.44 -440.68,-1148 -708.02,-1727.88 -639.65,-43.1 -1271.28,-60 -1867.9,-45.12l-5.19 0c-70,0.2 -139.78,0.65 -209.36,1.36l4.84 9.03c240.29,450.14 454.75,891.05 631.12,1306.3l-0.19 0.08c77.9,170.44 152.64,338.01 224.27,503.09 181.75,8.04 367.05,18.17 556.23,30.24l5.85 0.45c453.86,16.99 941.46,59.97 1443.8,123.42zm-999.21 -2384.32c-44.8,-92.14 -90.16,-184.03 -136.05,-275.58 -288.77,-576.1 -599.35,-1141.13 -916.72,-1671.65 -126.9,0.51 -253.81,1.86 -380.61,4.12l-1008.66 1341.01c114.55,191.04 226.61,383.63 335.27,576.52 146.11,-2.64 294.19,-4.17 444.23,-4.62 534.85,-13.34 1095.07,-2.01 1662.54,30.2zm1659.85 2924.53c37.43,109.97 73.79,219.24 109.03,327.79 54.07,166.57 105.8,332.34 155.15,497.39l485.96 -693.45c-250.53,-47.85 -501.34,-91.97 -750.14,-131.73zm-1925.57 3500.33c-51.65,-528.07 -146.02,-1050.8 -283.13,-1584.58 -596.44,-54.47 -1136.85,-72.66 -1658.07,-43.67 -57.93,3.22 -115.64,7.03 -173.21,11.45 122.56,541.33 197.81,1105.8 224.18,1719.52 326.94,-66.61 633.92,-106.52 935.06,-123.28 321.07,-17.87 633.7,-9.55 955.17,20.56zm-409.06 -2038.39c-164.62,-553.07 -373.72,-1122.6 -627.25,-1725.84 -649.22,-21.23 -1252.06,-13.41 -1824.29,29.52 234.35,498.6 428.05,987.15 579.79,1488.53 19.66,64.99 38.61,130.17 56.84,195.58 85.84,-7.33 171.96,-13.39 258.57,-18.21 495.44,-27.55 1004.28,-14.54 1556.34,30.42zm-820.46 -2173c-45.13,-101.78 -91.41,-204.57 -138.92,-308.47l-2.34 -5.29 -0.25 0.11c-173.26,-407.92 -381.75,-836.97 -613.85,-1271.76 -36.67,-68.67 -73.99,-137.66 -111.96,-206.86 -118.21,3.37 -235.81,7.51 -352.79,12.44 -175.45,7.41 -351.16,16.9 -527.23,28.55l-622.09 827.07c192.09,335.04 368.75,658.03 529.63,974.54 37.98,-3.36 76.07,-6.56 114.3,-9.61 544.36,-43.34 1115.15,-55.22 1725.5,-40.72zm-1111.32 -2225.37c-40.22,-69.61 -80.95,-139.32 -122.16,-209.06l-166.55 221.41c53.81,-2.61 108.01,-5.06 162.64,-7.37 41.86,-1.77 83.87,-3.41 126.07,-4.98zm2524.29 4900.61c112.01,462.01 193.08,917.63 243.2,1376.83l863.27 -1231.83c-105.45,-15.66 -212.61,-30 -321.26,-42.89l0.04 -0.32 -4.35 -0.54c-272.18,-38.59 -531.7,-72.57 -780.9,-101.25zm-2511.62 1740.95c-22.8,-638.09 -99.83,-1219.41 -229.29,-1775.27 -451.62,60.16 -901.86,160.34 -1376.43,307.97 334.73,253.49 673.81,547.2 1003.88,875.05 200.78,199.44 389.61,400.9 564.89,601.95l36.95 -9.7zm-341.23 -2205.39c-11.31,-39.33 -22.85,-78.58 -34.7,-117.74 -159.63,-527.46 -368.61,-1042.22 -625.05,-1572.52 -548.22,61.96 -1070.3,159.72 -1581.5,299.14l-8.73 11.62c135.19,274.32 248.99,547.5 343.09,834.27 97.88,298.3 174.46,610.64 231.61,953.35 584.16,-199.71 1128.89,-331.79 1675.28,-408.12zm-870.63 -2109.96c-109.01,-209.51 -225.1,-422.48 -348.14,-640.54l-604 803.01c311.47,-67.53 627.84,-121.3 952.14,-162.47zm1660.3 4661.78c0.4,86.78 -0.08,174.59 -1.51,263.48 273.71,369.91 494.05,729.97 650.08,1064.44 31.79,68.16 60.98,135.55 87.61,202.14l1147.25 -1637.06c-317.54,-31.92 -623.12,-41.57 -934.68,-24.23 -303.06,16.88 -613.76,59.2 -948.75,131.23zm-2966.59 -2411.96c-42.34,-191.27 -92.12,-372.83 -149.79,-548.6 -64.26,-195.85 -138.35,-384.9 -222.83,-572.5l-552.01 733.88c183.65,48.91 376.44,119.6 575.67,210.91 113.44,51.99 230.01,110.89 348.96,176.31zm7233.24 -11147.05c874.55,232.1 1751.95,689.45 2548.17,1349.11 713.32,590.98 1363.61,1346.75 1889.33,2250.33 461.37,-955.19 470.53,-1779.62 199.29,-2433.31 -172.8,-416.48 -459.2,-769.12 -813.95,-1045.48 -363.08,-282.84 -797.35,-486.53 -1256.34,-598.51 -886.65,-216.33 -1856.3,-87.67 -2566.5,477.86zm-12428.38 20564.97l1016.59 823.81c720.86,-457.24 1539.15,-1676.37 2344.1,-2875.74 428.36,-638.27 853.19,-1271.24 1271.97,-1800.6 7.61,-76.67 4.7,-151.15 -7.11,-222.94 -44.84,-272.74 -218.25,-521.07 -438.89,-716.26 -232.11,-205.36 -507.18,-345.73 -742.66,-395.05 -17.65,-3.69 -34.74,-6.81 -51.23,-9.35 -26.13,34.13 -53.26,69.5 -81.28,105.94 5.58,15.56 10.38,31.56 14.28,48.01l324.72 1360c35.65,150.46 -10.24,301.15 -109.01,405.77l-1276.71 1617.21c-102.98,130.36 -264.86,186.79 -417.94,161.43l-0.16 0.96 -1107.74 -186.49c-559.48,803.98 -922.07,1432.08 -798.55,1585.59 24.59,30.58 44.43,63.45 59.62,97.71zm470.16 1090.39l-590.42 -478.48 -778.69 1656.57 1369.11 -1178.09zm843.77 -3572.07l421.99 71.04 1005.12 -1273.2 -122.08 -511.29c-428.44,553.21 -888.3,1150.03 -1305.03,1713.45zm1586.46 -3501.16c56.63,-44.39 124.93,-75.5 200.96,-87.87 160.46,-26.37 338.5,-18.42 522.33,20.08 373.72,78.28 799.3,291.36 1146.93,598.92 359.14,317.73 644.68,741.82 725.7,1234.57 33.26,202.32 31.83,414.03 -13.01,632.24 -13.1,68.6 -42.69,135.08 -89.49,193.29l-19.93 24.72c60,29.68 118.77,56.41 176.09,80.08 275.24,78.92 535.66,92.05 778.44,60.22 125.91,-142.77 91.98,-477.05 -65.39,-903.93 -197.77,-536.43 -592.52,-1158.5 -1137.37,-1738.96 -108.51,-115.6 -209.36,-216.84 -302.37,-303.93 -489.56,-458.39 -990.98,-783.8 -1421.01,-941.31 -321.11,-117.63 -566.9,-138.5 -674.49,-37.52 -2.74,2.57 -5.53,5.38 -8.35,8.38l-0.84 -0.79c-30.6,33.14 -51.45,80.28 -63.12,139.45 12.56,305.7 85.1,646.28 244.92,1022.36zm-17.27 -2110.44c251.51,-9.6 529.85,41.81 823.22,149.27 531.33,194.61 1138.2,584.83 1718.18,1127.89 124.48,116.57 239.59,230.88 343.84,341.94 628.01,669.06 1087.98,1399.53 1323.95,2039.58 109.64,297.42 172.22,581.86 183.72,842.13 394.27,-254.01 689.33,-573.29 857.75,-755.55l8.85 -9.57 1.72 0c15.09,-16.34 27.83,-34.93 38.3,-55.64 6.06,-21.22 13.77,-42.13 23.17,-62.59 46.57,-180.76 -27.04,-471.73 -193.71,-829.04 -279.97,-600.13 -816.36,-1312.82 -1522.63,-2014.36 -688.26,-683.64 -1405.85,-1196.65 -2009.58,-1473.37 -476,-218.17 -830.64,-292.48 -951.07,-171.24 -164.58,165.68 -446.74,460.26 -645.71,870.55z"/></g><text x="0" y="60015" fill="#000000" font-size="5px" font-weight="bold" font-family="'Helvetica Neue', Helvetica, Arial-Unicode, Arial, Sans-serif">Created by Olena Panasovska</text><text x="0" y="60020" fill="#000000" font-size="5px" font-weight="bold" font-family="'Helvetica Neue', Helvetica, Arial-Unicode, Arial, Sans-serif">from the Noun Project</text></svg>