<?xml version="1.0" encoding="iso-8859-1"?>
<!-- Generator: Adobe Illustrator 18.0.0, SVG Export Plug-In . SVG Version: 6.00 Build 0)  -->
<!DOCTYPE svg PUBLIC "-//W3C//DTD SVG 1.1//EN" "http://www.w3.org/Graphics/SVG/1.1/DTD/svg11.dtd">
<svg version="1.1" id="Capa_1" xmlns="http://www.w3.org/2000/svg" xmlns:xlink="http://www.w3.org/1999/xlink" x="0px" y="0px"
	 viewBox="0 0 459.82 459.82" style="enable-background:new 0 0 459.82 459.82;" xml:space="preserve">
<g>
	
		<rect x="425.872" y="65.406" transform="matrix(-0.1662 -0.9861 0.9861 -0.1662 428.835 514.2942)" style="fill:#FF0000;" width="11.976" height="20.861"/>
	<linearGradient id="SVGID_1_" gradientUnits="userSpaceOnUse" x1="391.26" y1="79.0866" x2="379.13" y2="91.2166">
		<stop  offset="0" style="stop-color:#C69C6D"/>
		<stop  offset="0.1108" style="stop-color:#C0976A"/>
		<stop  offset="0.2566" style="stop-color:#B08A61"/>
		<stop  offset="0.4221" style="stop-color:#947552"/>
		<stop  offset="0.602" style="stop-color:#6E573D"/>
		<stop  offset="0.7935" style="stop-color:#3D3022"/>
		<stop  offset="0.9921" style="stop-color:#030201"/>
		<stop  offset="1" style="stop-color:#000000"/>
	</linearGradient>
	<path style="fill:url(#SVGID_1_);" d="M391.26,79.087c3.34,3.34,3.34,8.78,0,12.13c-3.35,3.34-8.79,3.34-12.13,0
		c-3.35-3.35-3.35-8.79,0-12.13c1.67-1.68,3.86-2.51,6.06-2.51S389.58,77.407,391.26,79.087z"/>
	<linearGradient id="SVGID_2_" gradientUnits="userSpaceOnUse" x1="391.9574" y1="154.1366" x2="391.9574" y2="98.3066">
		<stop  offset="0" style="stop-color:#2A2A28"/>
		<stop  offset="0.0033" style="stop-color:#2D2C29"/>
		<stop  offset="0.057" style="stop-color:#554A3B"/>
		<stop  offset="0.114" style="stop-color:#78634B"/>
		<stop  offset="0.1741" style="stop-color:#957857"/>
		<stop  offset="0.2383" style="stop-color:#AA8861"/>
		<stop  offset="0.3085" style="stop-color:#BA9368"/>
		<stop  offset="0.3891" style="stop-color:#C39A6C"/>
		<stop  offset="0.504" style="stop-color:#C69C6D"/>
		<stop  offset="0.5589" style="stop-color:#C0976A"/>
		<stop  offset="0.6313" style="stop-color:#B08A61"/>
		<stop  offset="0.7133" style="stop-color:#947552"/>
		<stop  offset="0.8026" style="stop-color:#6E573D"/>
		<stop  offset="0.8976" style="stop-color:#3D3022"/>
		<stop  offset="0.9961" style="stop-color:#030201"/>
		<stop  offset="1" style="stop-color:#000000"/>
	</linearGradient>
	<path style="fill:url(#SVGID_2_);" d="M395.25,98.307c13.03,17.69,7.37,44.15,3.9,55.83l-18.64-18.63
		c1.16-2.84,3.02-7.74,4.51-13.32c2.19-8.27,2.79-15.14,1.82-20.55C389.83,101.337,392.75,100.217,395.25,98.307z"/>
	<linearGradient id="SVGID_3_" gradientUnits="userSpaceOnUse" x1="207.21" y1="206.0066" x2="450.16" y2="206.0066">
		<stop  offset="0" style="stop-color:#2A2A28"/>
		<stop  offset="0.0033" style="stop-color:#2D2C29"/>
		<stop  offset="0.057" style="stop-color:#554A3B"/>
		<stop  offset="0.114" style="stop-color:#78634B"/>
		<stop  offset="0.1741" style="stop-color:#957857"/>
		<stop  offset="0.2383" style="stop-color:#AA8861"/>
		<stop  offset="0.3085" style="stop-color:#BA9368"/>
		<stop  offset="0.3891" style="stop-color:#C39A6C"/>
		<stop  offset="0.504" style="stop-color:#C69C6D"/>
		<stop  offset="0.5589" style="stop-color:#C0976A"/>
		<stop  offset="0.6313" style="stop-color:#B08A61"/>
		<stop  offset="0.7133" style="stop-color:#947552"/>
		<stop  offset="0.8026" style="stop-color:#6E573D"/>
		<stop  offset="0.8976" style="stop-color:#3D3022"/>
		<stop  offset="0.9961" style="stop-color:#030201"/>
		<stop  offset="1" style="stop-color:#000000"/>
	</linearGradient>
	<path style="fill:url(#SVGID_3_);" d="M450.16,216.467l-111.01,111.02l-131.94-131.95l5.85-5.85l120.64,120.64
		c0.75,0.75,1.77,1.17,2.83,1.17s2.08-0.42,2.83-1.17l93.65-93.65c1.56-1.56,1.56-4.09,0-5.65L312.37,90.387l5.85-5.86
		L450.16,216.467z"/>
	<linearGradient id="SVGID_4_" gradientUnits="userSpaceOnUse" x1="303.63" y1="264.6566" x2="320.26" y2="281.2866">
		<stop  offset="0" style="stop-color:#2A2A28"/>
		<stop  offset="0.0033" style="stop-color:#2D2C29"/>
		<stop  offset="0.057" style="stop-color:#554A3B"/>
		<stop  offset="0.114" style="stop-color:#78634B"/>
		<stop  offset="0.1741" style="stop-color:#957857"/>
		<stop  offset="0.2383" style="stop-color:#AA8861"/>
		<stop  offset="0.3085" style="stop-color:#BA9368"/>
		<stop  offset="0.3891" style="stop-color:#C39A6C"/>
		<stop  offset="0.504" style="stop-color:#C69C6D"/>
		<stop  offset="0.5589" style="stop-color:#C0976A"/>
		<stop  offset="0.6313" style="stop-color:#B08A61"/>
		<stop  offset="0.7133" style="stop-color:#947552"/>
		<stop  offset="0.8026" style="stop-color:#6E573D"/>
		<stop  offset="0.8976" style="stop-color:#3D3022"/>
		<stop  offset="0.9961" style="stop-color:#030201"/>
		<stop  offset="1" style="stop-color:#000000"/>
	</linearGradient>
	<polygon style="fill:url(#SVGID_4_);" points="322.4,279.147 318.12,283.427 301.49,266.797 305.77,262.517 	"/>
	<linearGradient id="SVGID_5_" gradientUnits="userSpaceOnUse" x1="387.3375" y1="180.9491" x2="403.9725" y2="197.5841">
		<stop  offset="0" style="stop-color:#2A2A28"/>
		<stop  offset="0.0033" style="stop-color:#2D2C29"/>
		<stop  offset="0.057" style="stop-color:#554A3B"/>
		<stop  offset="0.114" style="stop-color:#78634B"/>
		<stop  offset="0.1741" style="stop-color:#957857"/>
		<stop  offset="0.2383" style="stop-color:#AA8861"/>
		<stop  offset="0.3085" style="stop-color:#BA9368"/>
		<stop  offset="0.3891" style="stop-color:#C39A6C"/>
		<stop  offset="0.504" style="stop-color:#C69C6D"/>
		<stop  offset="0.5589" style="stop-color:#C0976A"/>
		<stop  offset="0.6313" style="stop-color:#B08A61"/>
		<stop  offset="0.7133" style="stop-color:#947552"/>
		<stop  offset="0.8026" style="stop-color:#6E573D"/>
		<stop  offset="0.8976" style="stop-color:#3D3022"/>
		<stop  offset="0.9961" style="stop-color:#030201"/>
		<stop  offset="1" style="stop-color:#000000"/>
	</linearGradient>
	<polygon style="fill:url(#SVGID_5_);" points="406.11,195.437 401.83,199.727 385.2,183.087 389.48,178.807 	"/>
	<linearGradient id="SVGID_6_" gradientUnits="userSpaceOnUse" x1="330.3075" y1="123.9191" x2="346.9425" y2="140.5541">
		<stop  offset="0" style="stop-color:#2A2A28"/>
		<stop  offset="0.0033" style="stop-color:#2D2C29"/>
		<stop  offset="0.057" style="stop-color:#554A3B"/>
		<stop  offset="0.114" style="stop-color:#78634B"/>
		<stop  offset="0.1741" style="stop-color:#957857"/>
		<stop  offset="0.2383" style="stop-color:#AA8861"/>
		<stop  offset="0.3085" style="stop-color:#BA9368"/>
		<stop  offset="0.3891" style="stop-color:#C39A6C"/>
		<stop  offset="0.504" style="stop-color:#C69C6D"/>
		<stop  offset="0.5589" style="stop-color:#C0976A"/>
		<stop  offset="0.6313" style="stop-color:#B08A61"/>
		<stop  offset="0.7133" style="stop-color:#947552"/>
		<stop  offset="0.8026" style="stop-color:#6E573D"/>
		<stop  offset="0.8976" style="stop-color:#3D3022"/>
		<stop  offset="0.9961" style="stop-color:#030201"/>
		<stop  offset="1" style="stop-color:#000000"/>
	</linearGradient>
	<polygon style="fill:url(#SVGID_6_);" points="332.45,121.777 349.08,138.417 344.8,142.697 328.17,126.067 	"/>
	<linearGradient id="SVGID_7_" gradientUnits="userSpaceOnUse" x1="246.5975" y1="207.6291" x2="263.2325" y2="224.2641">
		<stop  offset="0" style="stop-color:#2A2A28"/>
		<stop  offset="0.0033" style="stop-color:#2D2C29"/>
		<stop  offset="0.057" style="stop-color:#554A3B"/>
		<stop  offset="0.114" style="stop-color:#78634B"/>
		<stop  offset="0.1741" style="stop-color:#957857"/>
		<stop  offset="0.2383" style="stop-color:#AA8861"/>
		<stop  offset="0.3085" style="stop-color:#BA9368"/>
		<stop  offset="0.3891" style="stop-color:#C39A6C"/>
		<stop  offset="0.504" style="stop-color:#C69C6D"/>
		<stop  offset="0.5589" style="stop-color:#C0976A"/>
		<stop  offset="0.6313" style="stop-color:#B08A61"/>
		<stop  offset="0.7133" style="stop-color:#947552"/>
		<stop  offset="0.8026" style="stop-color:#6E573D"/>
		<stop  offset="0.8976" style="stop-color:#3D3022"/>
		<stop  offset="0.9961" style="stop-color:#030201"/>
		<stop  offset="1" style="stop-color:#000000"/>
	</linearGradient>
	<polygon style="fill:url(#SVGID_7_);" points="265.37,222.117 261.09,226.407 244.46,209.777 248.74,205.487 	"/>
	<linearGradient id="SVGID_8_" gradientUnits="userSpaceOnUse" x1="334.915" y1="212.2316" x2="372.685" y2="250.0016">
		<stop  offset="0" style="stop-color:#810F14"/>
		<stop  offset="0.495" style="stop-color:#ED1C24"/>
		<stop  offset="0.5666" style="stop-color:#E81B23"/>
		<stop  offset="0.6531" style="stop-color:#D91A21"/>
		<stop  offset="0.7473" style="stop-color:#C1171D"/>
		<stop  offset="0.8463" style="stop-color:#9F1318"/>
		<stop  offset="0.9192" style="stop-color:#810F14"/>
	</linearGradient>
	<polygon style="fill:url(#SVGID_8_);" points="406.74,215.947 338.63,284.057 300.86,246.287 368.97,178.177 	"/>
	<linearGradient id="SVGID_9_" gradientUnits="userSpaceOnUse" x1="277.8875" y1="155.2091" x2="315.6575" y2="192.9791">
		<stop  offset="0" style="stop-color:#810F14"/>
		<stop  offset="0.495" style="stop-color:#ED1C24"/>
		<stop  offset="0.5666" style="stop-color:#E81B23"/>
		<stop  offset="0.6531" style="stop-color:#D91A21"/>
		<stop  offset="0.7473" style="stop-color:#C1171D"/>
		<stop  offset="0.8463" style="stop-color:#9F1318"/>
		<stop  offset="0.9192" style="stop-color:#810F14"/>
	</linearGradient>
	<polygon style="fill:url(#SVGID_9_);" points="349.71,158.917 281.6,227.037 243.83,189.267 311.94,121.157 	"/>
	<linearGradient id="SVGID_10_" gradientUnits="userSpaceOnUse" x1="135.01" y1="175.2666" x2="168.95" y2="175.2666">
		<stop  offset="0" style="stop-color:#2A2A28"/>
		<stop  offset="0.0033" style="stop-color:#2D2C29"/>
		<stop  offset="0.057" style="stop-color:#554A3B"/>
		<stop  offset="0.114" style="stop-color:#78634B"/>
		<stop  offset="0.1741" style="stop-color:#957857"/>
		<stop  offset="0.2383" style="stop-color:#AA8861"/>
		<stop  offset="0.3085" style="stop-color:#BA9368"/>
		<stop  offset="0.3891" style="stop-color:#C39A6C"/>
		<stop  offset="0.504" style="stop-color:#C69C6D"/>
		<stop  offset="0.5589" style="stop-color:#C0976A"/>
		<stop  offset="0.6313" style="stop-color:#B08A61"/>
		<stop  offset="0.7133" style="stop-color:#947552"/>
		<stop  offset="0.8026" style="stop-color:#6E573D"/>
		<stop  offset="0.8976" style="stop-color:#3D3022"/>
		<stop  offset="0.9961" style="stop-color:#030201"/>
		<stop  offset="1" style="stop-color:#000000"/>
	</linearGradient>
	<polygon style="fill:url(#SVGID_10_);" points="168.95,165.457 142.17,192.237 135.01,185.077 161.79,158.297 	"/>
	<linearGradient id="SVGID_11_" gradientUnits="userSpaceOnUse" x1="146.95" y1="232.4716" x2="182.3" y2="232.4716">
		<stop  offset="0" style="stop-color:#2A2A28"/>
		<stop  offset="0.0033" style="stop-color:#2D2C29"/>
		<stop  offset="0.057" style="stop-color:#554A3B"/>
		<stop  offset="0.114" style="stop-color:#78634B"/>
		<stop  offset="0.1741" style="stop-color:#957857"/>
		<stop  offset="0.2383" style="stop-color:#AA8861"/>
		<stop  offset="0.3085" style="stop-color:#BA9368"/>
		<stop  offset="0.3891" style="stop-color:#C39A6C"/>
		<stop  offset="0.504" style="stop-color:#C69C6D"/>
		<stop  offset="0.5589" style="stop-color:#C0976A"/>
		<stop  offset="0.6313" style="stop-color:#B08A61"/>
		<stop  offset="0.7133" style="stop-color:#947552"/>
		<stop  offset="0.8026" style="stop-color:#6E573D"/>
		<stop  offset="0.8976" style="stop-color:#3D3022"/>
		<stop  offset="0.9961" style="stop-color:#030201"/>
		<stop  offset="1" style="stop-color:#000000"/>
	</linearGradient>
	<polygon style="fill:url(#SVGID_11_);" points="182.3,225.887 158.04,250.147 146.95,239.057 171.21,214.797 	"/>
	<linearGradient id="SVGID_12_" gradientUnits="userSpaceOnUse" x1="166.66" y1="210.1866" x2="207.14" y2="210.1866">
		<stop  offset="0" style="stop-color:#2A2A28"/>
		<stop  offset="0.0033" style="stop-color:#2D2C29"/>
		<stop  offset="0.057" style="stop-color:#554A3B"/>
		<stop  offset="0.114" style="stop-color:#78634B"/>
		<stop  offset="0.1741" style="stop-color:#957857"/>
		<stop  offset="0.2383" style="stop-color:#AA8861"/>
		<stop  offset="0.3085" style="stop-color:#BA9368"/>
		<stop  offset="0.3891" style="stop-color:#C39A6C"/>
		<stop  offset="0.504" style="stop-color:#C69C6D"/>
		<stop  offset="0.5589" style="stop-color:#C0976A"/>
		<stop  offset="0.6313" style="stop-color:#B08A61"/>
		<stop  offset="0.7133" style="stop-color:#947552"/>
		<stop  offset="0.8026" style="stop-color:#6E573D"/>
		<stop  offset="0.8976" style="stop-color:#3D3022"/>
		<stop  offset="0.9961" style="stop-color:#030201"/>
		<stop  offset="1" style="stop-color:#000000"/>
	</linearGradient>
	<polygon style="fill:url(#SVGID_12_);" points="175.66,189.947 207.14,221.437 198.15,230.427 166.66,198.947 	"/>
	<linearGradient id="SVGID_13_" gradientUnits="userSpaceOnUse" x1="14.465" y1="382.6316" x2="61.74" y2="335.3566">
		<stop  offset="0" style="stop-color:#2A2A28"/>
		<stop  offset="0.0033" style="stop-color:#2D2C29"/>
		<stop  offset="0.057" style="stop-color:#554A3B"/>
		<stop  offset="0.114" style="stop-color:#78634B"/>
		<stop  offset="0.1741" style="stop-color:#957857"/>
		<stop  offset="0.2383" style="stop-color:#AA8861"/>
		<stop  offset="0.3085" style="stop-color:#BA9368"/>
		<stop  offset="0.3891" style="stop-color:#C39A6C"/>
		<stop  offset="0.504" style="stop-color:#C69C6D"/>
		<stop  offset="0.5589" style="stop-color:#C0976A"/>
		<stop  offset="0.6313" style="stop-color:#B08A61"/>
		<stop  offset="0.7133" style="stop-color:#947552"/>
		<stop  offset="0.8026" style="stop-color:#6E573D"/>
		<stop  offset="0.8976" style="stop-color:#3D3022"/>
		<stop  offset="0.9961" style="stop-color:#030201"/>
		<stop  offset="1" style="stop-color:#000000"/>
	</linearGradient>
	<path style="fill:url(#SVGID_13_);" d="M66.76,340.377l-47.28,47.27l-6.57-6.57l6.37-11.72c5.49,0.72,11.05-1.12,15.07-5.14
		c4.31-4.31,6.1-10.52,4.9-16.41l17.47-17.47L66.76,340.377z"/>
	<linearGradient id="SVGID_14_" gradientUnits="userSpaceOnUse" x1="87.97" y1="270.8266" x2="126.265" y2="309.1216">
		<stop  offset="0" style="stop-color:#2A2A28"/>
		<stop  offset="0.0033" style="stop-color:#2D2C29"/>
		<stop  offset="0.057" style="stop-color:#554A3B"/>
		<stop  offset="0.114" style="stop-color:#78634B"/>
		<stop  offset="0.1741" style="stop-color:#957857"/>
		<stop  offset="0.2383" style="stop-color:#AA8861"/>
		<stop  offset="0.3085" style="stop-color:#BA9368"/>
		<stop  offset="0.3891" style="stop-color:#C39A6C"/>
		<stop  offset="0.504" style="stop-color:#C69C6D"/>
		<stop  offset="0.5589" style="stop-color:#C0976A"/>
		<stop  offset="0.6313" style="stop-color:#B08A61"/>
		<stop  offset="0.7133" style="stop-color:#947552"/>
		<stop  offset="0.8026" style="stop-color:#6E573D"/>
		<stop  offset="0.8976" style="stop-color:#3D3022"/>
		<stop  offset="0.9961" style="stop-color:#030201"/>
		<stop  offset="1" style="stop-color:#000000"/>
	</linearGradient>
	<polygon style="fill:url(#SVGID_14_);" points="159.7,263.117 158.93,276.457 93.6,341.787 80.26,342.557 54.54,316.837 
		55.3,303.497 120.64,238.167 133.98,237.397 	"/>
	<path d="M458.65,213.637c1.56,1.57,1.56,4.1,0,5.66l-116.67,116.67c-0.75,0.75-1.77,1.17-2.83,1.17s-2.08-0.42-2.83-1.17
		l-134.77-134.77l-1.67,1.67l15.75,15.74c1.56,1.57,1.56,4.1,0,5.66l-14.65,14.65c-0.75,0.75-1.77,1.17-2.83,1.17
		c-1.06,0-2.08-0.42-2.83-1.17l-7.37-7.37l-24.25,24.25l2.92,2.93c0.81,0.8,1.23,1.92,1.17,3.06l-0.96,16.65
		c-0.06,0.98-0.47,1.9-1.16,2.6l-67.5,67.49c-0.69,0.69-1.61,1.11-2.59,1.16l-16.66,0.96c-0.04,0-0.08,0-0.12,0
		c-1.11,0.03-2.18-0.42-2.97-1.2l-3.41-3.42l-50.11,50.11c-0.78,0.78-1.8,1.17-2.83,1.17c-1.02,0-2.05-0.39-2.83-1.17l-3.45-3.45
		l-6.37,6.37c-0.78,0.79-1.81,1.18-2.83,1.18s-2.05-0.39-2.83-1.18c-1.56-1.56-1.56-4.09,0-5.65l6.38-6.38l-2.41-2.4
		c-1.25-1.26-1.53-3.18-0.69-4.74l9.23-17c0.93-1.69,2.93-2.49,4.76-1.89c3.63,1.19,7.56,0.25,10.25-2.43
		c2.76-2.76,3.66-6.93,2.31-10.6c-0.54-1.47-0.09-3.13,1.02-4.24l19.04-19.05l-3.45-3.45c-0.8-0.81-1.23-1.92-1.16-3.06l0.95-16.65
		c0.06-0.98,0.48-1.9,1.17-2.6l67.49-67.49c0.7-0.69,1.62-1.11,2.6-1.16l16.65-0.96c1.14-0.08,2.25,0.36,3.06,1.17l2.92,2.92
		l24.26-24.26l-7.37-7.37c-1.56-1.56-1.56-4.09,0-5.65l4.49-4.5l-4.28-4.28L145,200.727c-0.78,0.78-1.8,1.17-2.83,1.17
		c-1.02,0-2.05-0.39-2.83-1.17l-12.82-12.82c-1.56-1.56-1.56-4.1,0-5.66l32.44-32.43c1.56-1.57,4.1-1.57,5.66,0l12.82,12.81
		c1.56,1.57,1.56,4.1,0,5.66l-13.39,13.39l4.28,4.28l4.5-4.49c0.75-0.75,1.76-1.17,2.83-1.17c1.06,0,2.07,0.42,2.82,1.17
		l15.75,15.74l121.16-121.16c0.76-0.75,1.77-1.18,2.83-1.18s2.08,0.43,2.83,1.18l53.31,53.3c3.62-9.67,6.7-22.72,3.72-29.24
		c-1.67-0.79-3.23-1.86-4.61-3.24c-1.04-1.03-1.89-2.18-2.59-3.39l-9.3,2.35l-1.96-7.76l9.03-2.28c-0.2-5.22,2.03-10.52,6.74-14.01
		c5.27-3.91,12.52-4.24,18.18-0.92c3.04,1.78,5.15,4.25,6.49,7.01l12.9-3.25l-0.93-5.56c-0.18-1.05,0.07-2.12,0.68-2.99
		c0.61-0.86,1.55-1.45,2.59-1.62l28.46-4.81c1.04-0.17,2.12,0.07,2.98,0.69c0.87,0.61,1.45,1.55,1.63,2.59l3.32,19.7
		c0.37,2.18-1.1,4.24-3.28,4.61l-28.45,4.81c-0.22,0.03-0.45,0.05-0.67,0.05c-1.92,0-3.61-1.38-3.94-3.33l-1.05-6.23l-12.56,3.16
		c-0.07,2.11-0.54,4.2-1.4,6.16c8.83,10.83,12.51,26.01,10.61,44.27c-1.14,10.97-3.96,20.15-5.43,24.4L458.65,213.637z
		 M339.15,327.487l111.01-111.02L318.22,84.527l-5.85,5.86l120.64,120.64c1.56,1.56,1.56,4.09,0,5.65l-93.65,93.65
		c-0.75,0.75-1.77,1.17-2.83,1.17s-2.08-0.42-2.83-1.17l-120.64-120.64l-5.85,5.85L339.15,327.487z M443.14,80.007l-1.99-11.81
		l-20.57,3.47l1.99,11.81L443.14,80.007z M424.52,213.857l-12.75-12.76l-4.29,4.28l7.74,7.74c1.57,1.56,1.57,4.1,0,5.66
		l-73.77,73.77c-0.75,0.75-1.76,1.17-2.82,1.17c-1.07,0-2.08-0.42-2.83-1.17l-7.74-7.74l-4.28,4.28l12.75,12.76L424.52,213.857z
		 M338.63,284.057l68.11-68.11l-37.77-37.77l-68.11,68.11L338.63,284.057z M401.83,199.727l4.28-4.29l-16.63-16.63l-4.28,4.28
		L401.83,199.727z M399.15,154.137c3.47-11.68,9.13-38.14-3.9-55.83c-2.5,1.91-5.42,3.03-8.41,3.33c0.97,5.41,0.37,12.28-1.82,20.55
		c-1.49,5.58-3.35,10.48-4.51,13.32L399.15,154.137z M391.26,91.217c3.34-3.35,3.34-8.79,0-12.13c-1.68-1.68-3.87-2.51-6.07-2.51
		s-4.39,0.83-6.06,2.51c-3.35,3.34-3.35,8.78,0,12.13C382.47,94.557,387.91,94.557,391.26,91.217z M383.82,173.157l-29.08-29.09
		l-4.28,4.28l7.74,7.74c0.75,0.75,1.17,1.77,1.17,2.83s-0.42,2.08-1.17,2.83l-73.77,73.77c-0.75,0.75-1.77,1.17-2.83,1.17
		s-2.08-0.42-2.83-1.17l-7.74-7.74l-4.28,4.28l29.08,29.09l4.28-4.29l-7.74-7.74c-1.56-1.56-1.56-4.09,0-5.65l73.77-73.77
		c0.75-0.75,1.77-1.17,2.83-1.17s2.08,0.42,2.83,1.17l7.74,7.74L383.82,173.157z M281.6,227.037l68.11-68.12l-37.77-37.76
		l-68.11,68.11L281.6,227.037z M349.08,138.417l-16.63-16.64l-4.28,4.29l16.63,16.63L349.08,138.417z M326.79,116.127l-20.08-20.09
		l-87.99,87.99l20.08,20.09l4.29-4.28l-7.74-7.74c-1.57-1.57-1.57-4.1,0-5.66l73.76-73.77c1.57-1.56,4.1-1.56,5.66,0l7.74,7.74
		L326.79,116.127z M318.12,283.427l4.28-4.28l-16.63-16.63l-4.28,4.28L318.12,283.427z M261.09,226.407l4.28-4.29l-16.63-16.63
		l-4.28,4.29L261.09,226.407z M207.14,221.437l-31.48-31.49l-9,9l31.49,31.48L207.14,221.437z M158.04,250.147l24.26-24.26
		l-11.09-11.09l-24.26,24.26L158.04,250.147z M142.17,192.237l26.78-26.78l-7.16-7.16l-26.78,26.78L142.17,192.237z M158.93,276.457
		l0.77-13.34l-25.72-25.72l-13.34,0.77l-65.34,65.33l-0.76,13.34l25.72,25.72l13.34-0.77L158.93,276.457z M19.48,387.647
		l47.28-47.27l-10.04-10.04l-17.47,17.47c1.2,5.89-0.59,12.1-4.9,16.41c-4.02,4.02-9.58,5.86-15.07,5.14l-6.37,11.72L19.48,387.647z
		"/>
</g>
<g>
</g>
<g>
</g>
<g>
</g>
<g>
</g>
<g>
</g>
<g>
</g>
<g>
</g>
<g>
</g>
<g>
</g>
<g>
</g>
<g>
</g>
<g>
</g>
<g>
</g>
<g>
</g>
<g>
</g>
</svg>
