<?xml version="1.0" encoding="UTF-8"?>
<svg width="12px" height="12px" viewBox="0 0 12 12" version="1.1" xmlns="https://www.w3.org/2000/svg" xmlns:xlink="https://www.w3.org/1999/xlink">
    <!-- Generator: Sketch 42 (36781) - https://www.bohemiancoding.com/sketch -->
    <title>Combined Shape</title>
    <desc>Created with Sketch.</desc>
    <defs></defs>
    <g id="Symbols" stroke="none" stroke-width="1" fill="none" fill-rule="evenodd">
        <g id="Grid" fill="#FFFFFF">
            <path d="M0,0.55517357 C0,0.248559674 0.25680542,0 0.55517357,0 L2.7175537,0 C3.0241676,0 3.27272727,0.25680542 3.27272727,0.55517357 L3.27272727,2.7175537 C3.27272727,3.0241676 3.01592185,3.27272727 2.7175537,3.27272727 L0.55517357,3.27272727 C0.248559674,3.27272727 0,3.01592185 0,2.7175537 L0,0.55517357 Z M4.36363636,0.55517357 C4.36363636,0.248559674 4.62044178,0 4.91880993,0 L7.08119007,0 C7.38780396,0 7.63636364,0.25680542 7.63636364,0.55517357 L7.63636364,2.7175537 C7.63636364,3.0241676 7.37955822,3.27272727 7.08119007,3.27272727 L4.91880993,3.27272727 C4.61219604,3.27272727 4.36363636,3.01592185 4.36363636,2.7175537 L4.36363636,0.55517357 Z M8.72727273,0.55517357 C8.72727273,0.248559674 8.98407815,0 9.2824463,0 L11.4448264,0 C11.7514403,0 12,0.25680542 12,0.55517357 L12,2.7175537 C12,3.0241676 11.7431946,3.27272727 11.4448264,3.27272727 L9.2824463,3.27272727 C8.9758324,3.27272727 8.72727273,3.01592185 8.72727273,2.7175537 L8.72727273,0.55517357 Z M0,4.91880993 C0,4.61219604 0.25680542,4.36363636 0.55517357,4.36363636 L2.7175537,4.36363636 C3.0241676,4.36363636 3.27272727,4.62044178 3.27272727,4.91880993 L3.27272727,7.08119007 C3.27272727,7.38780396 3.01592185,7.63636364 2.7175537,7.63636364 L0.55517357,7.63636364 C0.248559674,7.63636364 0,7.37955822 0,7.08119007 L0,4.91880993 Z M4.36363636,4.91880993 C4.36363636,4.61219604 4.62044178,4.36363636 4.91880993,4.36363636 L7.08119007,4.36363636 C7.38780396,4.36363636 7.63636364,4.62044178 7.63636364,4.91880993 L7.63636364,7.08119007 C7.63636364,7.38780396 7.37955822,7.63636364 7.08119007,7.63636364 L4.91880993,7.63636364 C4.61219604,7.63636364 4.36363636,7.37955822 4.36363636,7.08119007 L4.36363636,4.91880993 Z M8.72727273,4.91880993 C8.72727273,4.61219604 8.98407815,4.36363636 9.2824463,4.36363636 L11.4448264,4.36363636 C11.7514403,4.36363636 12,4.62044178 12,4.91880993 L12,7.08119007 C12,7.38780396 11.7431946,7.63636364 11.4448264,7.63636364 L9.2824463,7.63636364 C8.9758324,7.63636364 8.72727273,7.37955822 8.72727273,7.08119007 L8.72727273,4.91880993 Z M0,9.2824463 C0,8.9758324 0.25680542,8.72727273 0.55517357,8.72727273 L2.7175537,8.72727273 C3.0241676,8.72727273 3.27272727,8.98407815 3.27272727,9.2824463 L3.27272727,11.4448264 C3.27272727,11.7514403 3.01592185,12 2.7175537,12 L0.55517357,12 C0.248559674,12 0,11.7431946 0,11.4448264 L0,9.2824463 Z M4.36363636,9.2824463 C4.36363636,8.9758324 4.62044178,8.72727273 4.91880993,8.72727273 L7.08119007,8.72727273 C7.38780396,8.72727273 7.63636364,8.98407815 7.63636364,9.2824463 L7.63636364,11.4448264 C7.63636364,11.7514403 7.37955822,12 7.08119007,12 L4.91880993,12 C4.61219604,12 4.36363636,11.7431946 4.36363636,11.4448264 L4.36363636,9.2824463 Z M8.72727273,9.2824463 C8.72727273,8.9758324 8.98407815,8.72727273 9.2824463,8.72727273 L11.4448264,8.72727273 C11.7514403,8.72727273 12,8.98407815 12,9.2824463 L12,11.4448264 C12,11.7514403 11.7431946,12 11.4448264,12 L9.2824463,12 C8.9758324,12 8.72727273,11.7431946 8.72727273,11.4448264 L8.72727273,9.2824463 Z" id="Combined-Shape"></path>
        </g>
    </g>
</svg>