<?xml version="1.0" encoding="UTF-8"?>
<svg width="22px" height="18px" viewBox="0 0 22 18" version="1.1" xmlns="https://www.w3.org/2000/svg" xmlns:xlink="https://www.w3.org/1999/xlink">
    <!-- Generator: Sketch 42 (36781) - https://www.bohemiancoding.com/sketch -->
    <title>Newsletter</title>
    <desc>Created with Sketch.</desc>
    <defs></defs>
    <g id="Symbols" stroke="none" stroke-width="1" fill="none" fill-rule="evenodd">
        <g id="Footer" transform="translate(-874.000000, -295.000000)" stroke-width="0.5" stroke="#FFFFFF" fill="#FFFFFF" fill-rule="nonzero">
            <g id="Group-9" transform="translate(520.000000, 269.000000)">
                <g id="Group-3">
                    <g id="Newsletter" transform="translate(355.000000, 27.000000)">
                        <path d="M16.7955016,3.68479271 C16.5724125,3.46441252 16.2377788,3.46441252 16.0146896,3.68479271 L10.0284644,9.30448736 L3.93069467,3.64806268 C3.70760554,3.42768249 3.33579031,3.46441252 3.14988269,3.68479271 C2.92679355,3.90517289 2.96397508,4.27247319 3.18706421,4.45612334 L6.94239803,7.94547623 L3.18706421,11.5817492 C2.96397508,11.8021294 2.96397508,12.1326997 3.18706421,12.3530799 C3.29860878,12.46327 3.44733487,12.5 3.59606097,12.5 C3.74478706,12.5 3.89351315,12.46327 4.00505772,12.3530799 L7.79757306,8.68007684 L9.65664921,10.4063883 C9.76819378,10.5165784 9.91691987,10.5533084 10.0284644,10.5533084 L10.065646,10.5533084 L10.1028275,10.5533084 C10.2515536,10.5533084 10.3630981,10.5165784 10.4746427,10.4063883 L12.2593558,8.71680687 L16.0146896,12.3530799 C16.1262342,12.46327 16.2749603,12.5 16.4236864,12.5 C16.5724125,12.5 16.7211386,12.46327 16.8326831,12.3530799 C17.0557723,12.1326997 17.0557723,11.8021294 16.8326831,11.5817492 L13.1145308,7.94547623 L16.8326831,4.41939331 C16.9814092,4.23574316 16.9814092,3.90517289 16.7955016,3.68479271 Z" id="Shape"></path>
                        <path d="M16.1157025,0 L3.88429752,0 C1.73553719,0 0,1.72750643 0,3.86632391 L0,12.1336761 C0,14.2724936 1.73553719,16 3.88429752,16 L16.1157025,16 C18.2644628,16 20,14.2724936 20,12.1336761 L20,3.8251928 C20,1.72750643 18.2644628,0 16.1157025,0 Z M18.7603306,12.1336761 C18.7603306,13.5732648 17.5619835,14.7660668 16.1157025,14.7660668 L3.88429752,14.7660668 C2.43801653,14.7660668 1.23966942,13.6143959 1.23966942,12.1336761 L1.23966942,3.8251928 C1.23966942,2.38560411 2.39669421,1.19280206 3.88429752,1.19280206 L16.1157025,1.19280206 C17.5619835,1.19280206 18.7603306,2.34447301 18.7603306,3.8251928 L18.7603306,12.1336761 L18.7603306,12.1336761 Z" id="Shape"></path>
                    </g>
                </g>
            </g>
        </g>
    </g>
</svg>