<?xml version="1.0" encoding="utf-8"?>
<!-- Generator: Adobe Illustrator 21.0.2, SVG Export Plug-In . SVG Version: 6.00 Build 0)  -->
<svg version="1.1" id="Layer_1" xmlns="http://www.w3.org/2000/svg" xmlns:xlink="http://www.w3.org/1999/xlink" x="0px" y="0px"
	 viewBox="0 0 1078 319" style="enable-background:new 0 0 1078 319;" xml:space="preserve">
<style type="text/css">
	.st0{fill:#0F0F0F;}
</style>
<title>Studio</title>
<desc>Created with Sketch.</desc>
<g>
	<path class="st0" d="M818.3,69.1c27.5,0,43.6-11.7,43.6-34.4c0-22.9-16-34.6-43.6-34.6c-28.1,0-43.6,11.7-43.6,34.6
		C774.8,57.3,790.2,69.1,818.3,69.1z"/>
	<path class="st0" d="M147.4,148.9C97,113.8,76.9,101.9,76.9,72.2c0-24,17.4-37.1,40.8-37.1c41.6,0,66.8,46.7,69.7,90.8h9.2
		c0-60.2,0.8-80.5,2-97.7h-9.2c-1.6,11.5-3.5,17.6-8.8,17.6c-3.7,0-7.2-2-13.7-5.7c-13.5-7.6-30.3-16-64.8-16
		c-51.6,0-99,23.2-99,75.6c0,44.1,33.2,67.2,71.1,92.6c34,22.7,58.4,42,58.4,75.2c0,24.8-18.8,39.1-48,39.1
		c-51.2,0-69.5-50.4-72.7-106.8H2.7c0,68.6-0.6,95.7-1.8,116h9.2c1.8-11.5,3.7-17.6,9-17.6c3.1,0,7,1.6,13.5,5.7
		c14.8,7.2,34.4,14.8,70.9,14.8c58.4,0,108.8-25.2,108.8-79.3C212.3,195.8,183,173.7,147.4,148.9z"/>
	<path class="st0" d="M856.6,275.9V101.1c-19.9,3.9-42.8,5.5-69.5,5.5c-8,0-16.4-0.4-24.8-1.2v8.4c16.8,0,22.5,11.1,22.5,35.2v127
		c0,18.4-4.2,26-14.9,28.1c-13.8-1.7-18.4-12.9-18.4-34.9V0.1c-20.1,4.1-42.8,5.7-69.7,5.7c-8,0-16.4-0.4-24.8-1.2V13
		c16.8,0,22.5,11.1,22.5,35.2v61.7c-10.7-7-23.8-10.2-41.6-10.2c-53.5,0-88.9,35.7-88.9,108c0,78.5,35.7,110.9,81.6,110.9
		c23.6,0,38.1-9.6,48.8-30.1v28.3c20.1-3.9,42.8-5.5,69.5-5.5c4.4,0,8.9,0.1,13.4,0.4v1.2c2.9-0.1,6.7-0.2,11.2-0.4
		c0.1,0,0.2,0,0.3,0v0c13.2-0.5,32-1.1,48.5-1.1c22.5,0,46.1,1.2,56.8,1.6v-8.4C862.7,304.6,856.6,298.2,856.6,275.9z M679.4,269.1
		c0,16.8-14.1,28.7-28.7,28.7c-14.8,0-27-18-27-88.7c0-64.8,12.1-96.1,36.9-96.1c5.9,0,12.7,1.6,18.8,5.3V269.1z"/>
	<path class="st0" d="M533.2,269.4V101.1c-19.9,3.9-42.8,5.5-69.5,5.5c-8,0-16.4-0.4-24.8-1.2v8.4c16.8,0,22.5,11.1,22.5,35.2v120.1
		c0,16.8-14.1,28.7-28.9,28.7c-13.9,0-19.5-8.4-19.5-25.2V101.1c-20.1,3.9-42.8,5.5-69.5,5.5c-1,0-2,0-3,0v-0.7h-17
		c-1.6-0.1-3.2-0.2-4.8-0.4v0.4H301V40.5C279.9,53,257.5,58.1,229,58.1v47.7h-30.3v8H229v135.5c0,27.7,2.1,44.1,13.7,55.7
		c9.2,9.2,23.6,13.7,41.2,13.7c27.5,0,45.7-12.5,56.8-31.6l-6.1-4.9c-7.2,8.8-16,11.7-21.5,11.7c-9,0-12.1-4.1-12.1-14.5V113.8h17.5
		c16.8,0,22.3,11.1,22.3,35.2v102.1c0,27.1,3.7,42,11.7,51.6c7.6,9.2,20.7,16,45.1,16c28.7,0,50.8-8.8,63.7-30.1v28.9
		c19.9-4.1,42.8-5.7,69.5-5.7c8,0,16.4,0.4,24.8,1.2v-8.4C538.8,304.6,533.2,293.5,533.2,269.4z"/>
	<path class="st0" d="M974.9,99.7c-62.1,0-102.9,28.9-102.9,109.8c0,80.7,40.8,109.2,102.9,109.2c61.9,0,102.7-28.5,102.7-109.2
		C1077.6,128.6,1036.8,99.7,974.9,99.7z M974.9,310.7c-16,0-28.1-29.7-28.1-101.2c0-71.7,12.1-101.8,28.1-101.8
		s27.9,30.1,27.9,101.8C1002.8,281,990.9,310.7,974.9,310.7z"/>
</g>
</svg>
