<?xml version="1.0" encoding="UTF-8"?>
<svg width="1436px" height="239px" viewBox="0 0 1436 239" version="1.1" xmlns="https://www.w3.org/2000/svg" xmlns:xlink="https://www.w3.org/1999/xlink">
    <!-- Generator: Sketch 42 (36781) - https://www.bohemiancoding.com/sketch -->
    <title>Contacts</title>
    <desc>Created with Sketch.</desc>
    <defs></defs>
    <g id="Symbols" stroke="none" stroke-width="1" fill="none" fill-rule="evenodd">
        <g id="Footer" transform="translate(-4.000000, -161.000000)" fill="#141414">
            <g id="Contacts">
                <path d="M155.870811,161.132812 C67.003624,161.132812 4.69893646,221.289062 4.69893646,310.742188 C4.69893646,402.34375 65.050499,455.664062 155.480186,455.664062 C189.855186,455.664062 209.777061,443.554688 229.503624,429.6875 C232.823936,427.539062 235.558311,426.367188 237.706749,426.367188 C243.370811,426.367188 246.105186,433.59375 247.472374,450 L256.652061,450 C255.480186,427.929688 255.089561,398.4375 255.089561,346.09375 L245.909874,346.09375 C242.198936,389.648438 235.753624,416.40625 208.995811,432.8125 C197.862999,440.039062 184.972374,444.726562 171.886436,444.726562 C110.558311,444.726562 96.691124,369.140625 96.691124,309.179688 C96.691124,249.21875 110.558311,173.632812 171.886436,173.632812 C184.972374,173.632812 197.862999,178.320312 208.995811,185.546875 C235.753624,203.125 242.198936,228.320312 245.909874,266.796875 L255.089561,266.796875 C255.089561,216.40625 255.480186,188.085938 256.652061,166.796875 L247.472374,166.796875 C246.105186,183.203125 242.784874,190.625 237.316124,190.625 C234.972374,190.625 232.433311,189.453125 229.503624,187.109375 C211.925499,173.632812 191.027061,161.132812 155.870811,161.132812 Z M365.936312,236.71875 C427.850374,236.71875 468.670687,265.625 468.670687,346.484375 C468.670687,427.148438 427.850374,455.664062 365.936312,455.664062 C303.826937,455.664062 263.006624,427.148438 263.006624,346.484375 C263.006624,265.625 303.826937,236.71875 365.936312,236.71875 Z M365.936312,244.726562 C349.920687,244.726562 337.811312,274.804688 337.811312,346.484375 C337.811312,417.96875 349.920687,447.65625 365.936312,447.65625 C381.951937,447.65625 393.865999,417.96875 393.865999,346.484375 C393.865999,274.804688 381.951937,244.726562 365.936312,244.726562 Z M621.314312,236.71875 C645.728374,236.71875 658.814312,243.554688 666.431499,252.734375 C674.439312,262.304688 678.150249,277.148438 678.150249,304.492188 L678.150249,412.890625 C678.150249,435.15625 684.204937,441.601562 700.415874,441.601562 L700.415874,450 C689.673687,449.609375 665.259624,448.4375 644.556499,448.4375 C622.095562,448.4375 598.462749,449.609375 587.720562,450 L587.720562,441.601562 C601.392437,441.601562 606.079937,435.15625 606.079937,412.890625 L606.079937,282.8125 C606.079937,266.015625 600.415874,257.617188 586.548687,257.617188 C571.704937,257.617188 557.642437,269.53125 557.642437,286.328125 L557.642437,412.890625 C557.642437,435.15625 562.525249,441.601562 576.197124,441.601562 L576.197124,450 C566.040874,449.609375 544.165874,448.4375 523.267437,448.4375 C501.001812,448.4375 474.829937,449.609375 463.306499,450 L463.306499,441.601562 C479.712749,441.601562 485.767437,435.15625 485.767437,412.890625 L485.767437,285.9375 C485.767437,261.914062 480.103374,250.78125 463.306499,250.78125 L463.306499,242.382812 C471.704937,243.164062 480.103374,243.554688 488.111187,243.554688 C514.868999,243.554688 537.720562,241.992188 557.642437,238.085938 L557.642437,266.796875 C570.533062,245.507812 592.603374,236.71875 621.314312,236.71875 Z M779.426687,242.773438 L818.6845,242.773438 L818.6845,250.78125 L779.426687,250.78125 L779.426687,416.40625 C779.426687,426.757813 782.551687,430.859375 791.536062,430.859375 C797.004812,430.859375 805.793875,427.929688 813.020437,419.140625 L819.075125,424.023438 C807.942312,443.164063 789.77825,455.664063 762.239187,455.664063 C744.661062,455.664063 730.207937,451.171875 721.02825,441.992188 C709.504812,430.46875 707.356375,414.0625 707.356375,386.328125 L707.356375,250.78125 L677.082937,250.78125 L677.082937,242.773438 L707.356375,242.773438 L707.356375,195.117188 C735.872,195.117188 758.332937,190.039062 779.426687,177.539062 L779.426687,242.773438 Z M901.210938,236.71875 C929.140625,236.71875 951.210938,240.820312 966.445312,256.835938 C977.578125,268.359375 979.53125,285.15625 979.53125,312.890625 L979.53125,419.921875 C979.53125,432.8125 981.289062,437.109375 985.585938,437.109375 C990.46875,437.109375 994.375,433.984375 998.085938,431.25 L1001.99219,438.085938 C989.296875,448.828125 972.890625,452.734375 950.039062,452.734375 C919.960938,452.734375 909.21875,438.476562 908.828125,422.460938 C897.695312,440.820312 876.40625,452.734375 851.601562,452.734375 C819.570312,452.734375 801.210938,434.375 801.210938,406.835938 C801.210938,379.6875 816.835938,361.914062 851.992188,350.390625 C883.242188,339.257812 907.65625,331.25 907.65625,313.28125 L907.65625,277.539062 C907.65625,265.234375 903.554688,244.726562 877.96875,244.726562 C871.132812,244.726562 862.734375,247.65625 856.875,251.5625 C874.0625,258.007812 883.632812,269.53125 883.632812,287.695312 C883.632812,306.445312 868.398438,321.289062 845.15625,321.289062 C825.234375,321.289062 812.34375,306.054688 812.34375,286.328125 C812.34375,269.53125 822.890625,257.226562 837.148438,249.609375 C853.554688,241.210938 873.28125,236.71875 901.210938,236.71875 Z M907.65625,414.0625 L907.65625,329.6875 C904.335938,335.15625 897.695312,341.601562 892.03125,347.265625 C880.117188,358.789062 872.5,372.851562 872.5,392.382812 C872.5,413.28125 881.289062,420.703125 892.8125,420.703125 C898.476562,420.703125 902.773438,419.140625 907.65625,414.0625 Z M1093.30769,236.71875 C1116.54988,236.71875 1135.29988,242.382812 1146.04206,248.828125 C1160.49519,257.226562 1170.0655,272.070312 1170.0655,290.429688 C1170.0655,312.304688 1154.04988,329.296875 1131.58894,329.296875 C1108.15144,329.296875 1094.87019,314.453125 1094.87019,293.164062 C1094.87019,273.242188 1110.10456,258.007812 1127.68269,253.125 C1123.97175,250.390625 1118.89363,248.4375 1111.66706,248.4375 C1073.58113,248.4375 1065.18269,300.78125 1065.18269,340.820312 C1065.18269,397.265625 1091.74519,411.914062 1115.18269,411.914062 C1126.12019,411.914062 1146.04206,409.570312 1163.62019,385.15625 L1170.45613,387.695312 C1160.49519,419.921875 1134.51863,455.664062 1086.86238,455.664062 C1033.34675,455.664062 990.378,427.148438 990.378,346.484375 C990.378,269.53125 1035.29988,236.71875 1093.30769,236.71875 Z M1254.15444,242.773438 L1293.41225,242.773438 L1293.41225,250.78125 L1254.15444,250.78125 L1254.15444,416.40625 C1254.15444,426.757813 1257.27944,430.859375 1266.26381,430.859375 C1271.73256,430.859375 1280.52163,427.929688 1287.74819,419.140625 L1293.80288,424.023438 C1282.67006,443.164063 1264.506,455.664063 1236.96694,455.664063 C1219.38881,455.664063 1204.93569,451.171875 1195.756,441.992188 C1184.23256,430.46875 1182.08413,414.0625 1182.08413,386.328125 L1182.08413,250.78125 L1151.81069,250.78125 L1151.81069,242.773438 L1182.08413,242.773438 L1182.08413,195.117188 C1210.59975,195.117188 1233.06069,190.039062 1254.15444,177.539062 L1254.15444,242.773438 Z M1359.53244,236.71875 C1382.77463,236.71875 1401.91525,243.164062 1409.92306,247.65625 C1412.65744,249.21875 1415.00119,250 1417.14963,250 C1422.22775,250 1425.74338,245.898438 1427.11056,237.109375 L1435.11838,237.109375 C1433.9465,252.734375 1433.55588,272.851562 1433.55588,309.179688 L1425.54806,309.179688 C1422.03244,279.6875 1409.14181,246.484375 1376.32931,246.484375 C1363.24338,246.484375 1352.6965,254.882812 1352.6965,268.75 C1352.6965,292.773438 1377.89181,307.617188 1400.74338,326.367188 C1425.15744,346.484375 1443.90744,363.28125 1443.90744,393.945312 C1443.90744,430.46875 1407.57931,455.664062 1363.24338,455.664062 C1344.29806,455.664062 1330.43088,450.78125 1322.03244,445.507812 C1313.634,441.210938 1307.96994,438.867188 1301.91525,438.867188 C1296.4465,438.867188 1292.73556,445.117188 1290.78244,452.734375 L1282.77463,452.734375 C1283.9465,435.546875 1284.33713,413.28125 1284.33713,372.851562 L1292.34494,372.851562 C1297.22775,415.234375 1315.97775,445.507812 1345.07931,445.507812 C1357.57931,445.507812 1368.3215,438.867188 1368.3215,423.632812 C1368.3215,400 1352.30588,386.71875 1331.21213,367.578125 C1307.18869,345.507812 1284.33713,325.976562 1284.33713,294.335938 C1284.33713,258.789062 1319.884,236.71875 1359.53244,236.71875 Z"></path>
            </g>
        </g>
    </g>
</svg>