<?xml version="1.0" encoding="UTF-8"?>
<!-- Created with Inkscape (http://www.inkscape.org/) -->
<svg width="185mm" height="129mm" version="1.1" viewBox="0 0 185 129" xmlns="http://www.w3.org/2000/svg" xmlns:cc="http://creativecommons.org/ns#" xmlns:dc="http://purl.org/dc/elements/1.1/" xmlns:rdf="http://www.w3.org/1999/02/22-rdf-syntax-ns#">
 <metadata>
  <rdf:RDF>
   <cc:Work rdf:about="">
    <dc:format>image/svg+xml</dc:format>
    <dc:type rdf:resource="http://purl.org/dc/dcmitype/StillImage"/>
    <dc:title/>
   </cc:Work>
  </rdf:RDF>
 </metadata>
 <g transform="translate(-12 -13)">
  <g transform="matrix(.35 0 0 .35 13 14)" style="isolation:isolate">
   <g fill-opacity=".97" style="isolation:isolate">
    <g fill-rule="evenodd">
     <path d="m416 90c-2.4 0.66-3.8 3.1-4.5 5.3-1.6 4.9-1.9 10-3.4 15-2.3 10-3.3 21-7.5 31-2 4.5-4.4 9.1-8.4 12-3.6 2.4-8.7 2.9-12 0.27-2.4-1.8-3.1-4.9-2.9-7.8 0.11-7.4 2.9-14 5.2-21 0.42-1.3 0.83-2.6 1.1-3.9-0.19-1.1-1.6-1.3-2.5-0.92-3.3 0.59-5.8 3.2-7.7 5.8-5.2 6.9-9.6 15-16 20-5.8 5-13 8.6-21 8.8-6.2 0.19-13-1.7-17-6-3.8-3.5-5.5-8.8-5.4-14 0.12-7.2 2.8-14 7.2-20 5.6-7.1 14-12 23-12 2.5 0.06 5 0.47 7.2 1.8 3.7 2.6 4.9 7.7 3.8 12-0.51 2.1-1.5 4-2.9 5.7 0.61-3.2-0.47-6.8-3.1-8.9-2.3-1.8-5.5-2.1-8.3-1.6-4.6 0.87-8.6 4.3-10 8.7-1.7 5.1 0.34 11 4.8 14 2.6 1.8 6 2.1 9.1 1.7 4.6-0.63 8.8-3.2 12-6.6 5.6-5.8 8.8-14 8.4-22-0.25-3.7-1.8-7.4-4.8-9.7-4.1-3.4-9.4-5-15-5.6-7.1-0.74-14 0.43-21 2.9-8 3.2-15 9.3-19 17-5.5 9.3-7.6 21-4.8 31 1.6 6 4.9 12 10 15 3.4 2.3 7.4 3.6 11 5.4 0.98 1.1-0.24 3-1.6 2.8-15 2.2-30 3.5-45 6.8-3.6 1.4-5.8 4.7-8.1 7.5-4.4 5.6-11 9.4-17 11-6.1 1.6-13 1-18-2.4-1.7-1-3.1-2.6-4.8-3.6-1.4-0.82-3.1-1-4.6-0.56-2.6 0.52-5 1.5-7.4 2.6-1.2 0.77-1.8 2.6-0.84 3.8 0.98 1.7 2.1 3.3 2.7 5.1 1.4 3.4 2.5 7.1 4.7 10 9.6-1.1 19-4.2 29-5.2 0.42 13 1.9 26 0.067 39-0.44 3.5-2.4 6.7-3 10-0.13 2.4 1.3 4.6 2.4 6.6 3.5 7.7 5.8 16 6.5 24 0.43 5.8 0.094 12-1.9 17-1.9 4.2-5 8-5.5 13-0.35 2.5 0.15 5.5 2.3 7.1 2.2 1.3 4.9 0.69 7.2 0.26 5.3-1.1 11-1.1 16-2 3.9-0.48 7.8-0.96 12-1.4-0.3-6.2-3.2-12-6.7-17-2.3-3.7-2.5-8.2-2.9-12-0.62-10 1.8-20 3.7-30 0.66-3.5 1.5-7.1 0.52-11-1.3-5.3-3.6-10-4.7-16-0.58-2.8-0.94-5.6-1.4-8.4-1.1-7.2-1.7-15-0.62-22 0.79-2 3-2.7 4.9-3.3 5.1-1.6 11-1.7 16-3.9 2.2-0.56 4.5 1.5 4.2 3.7 0.2 3.2 0.32 6.4 0.6 9.6 0.78 13-0.15 25-3.9 37-0.5 1.7-0.12 3.4 0.54 5 1.7 4.7 4.4 9.2 4.4 14-0.046 2.3-0.33 4.5-0.24 6.8 0.042 7.2 0.83 15-1.2 22-1.3 4.3-4 8-5.8 12-1.4 3.6-1.9 7.9-0.28 12 0.48 0.68 1.4 0.27 2.1 0.43 8 0.3 16-1.4 24-1.5 3.1-0.12 6.3-0.12 9.1-1.5 1.2-0.86 0.91-2.5 0.96-3.8-0.028-2.9-0.043-5.9-0.9-8.8-0.78-2.9-2.3-5.6-4.2-8-3.6-5.3-4.9-12-4.6-18 0.24-9.4 2.8-19 6-27 0.79-2.4 1.6-4.8 1.9-7.3 0.18-3.2-1.1-6.1-2.3-9-3.1-8.5-3-18-3.3-27-0.1-4.4-0.4-8.7-0.8-13 0.17-2.3 2.5-4 4.7-3.9 3.5-0.27 7.1 0.04 11-0.7 4.3-0.74 8.6-2.6 11-6.1 2.3-2.6 4.8-5.2 7.9-6.8 11-6.7 25-7.1 36-0.59 6.1 3.5 12 7 17 12 4 4.2 7.9 14 9.6 15 1.7 0.28 7-6.5 11-8.9 5.3-3.1 11-5.6 17-6.7 3.6-0.63 11 2.5 11 0.3 0.04-2.2-25-10-36-14-0.75-0.32-1.5-0.63-2.3-0.95 12-5.2 8.9-6.8 14-9.4 0.19-0.067 0.39-0.09 0.59-0.061 1.1 0.22 1.6 1.5 1.6 2.5 0.05 3.3 0.73 6.3 3 7.8 5.2 3.5 14 2.5 19-0.26 2.3-1.3 4.4-2.9 6.7-4.4-2.3 11-1.7 27-6.1 36-1.1 1-3.1 0.3-3.5-1.1-2.2-3.2-6.9-4.6-10-2.6-3.6 2.7-5.2 7.5-4.7 12 0.53 5.4 4 11 9.2 13 4.3 1.4 9.2-0.55 12-4.2 3.6-4.3 5-9.9 6.3-15 3.6-16 6.7-31 10-47 2.9-14 6.1-27 9.8-41 0.52-2.4 0.87-4.9 0.99-7.4-8.4 1.2-16 8.4-17 17-2.3 8.6-3.6 17-6.7 26-1.3 3.3-3 6.7-5.8 8.9-3.1 2.3-7.5 3-11 1-2.3-1.5-2.9-4.7-1.9-7.2 2.5-13 5.9-26 7.2-40-4.4-0.15-8.3 3-9.9 6.9-2.1 4.8-2.6 10-4.3 15-2.1 7.3-4.4 15-9.2 21-2.7 3.3-6.2 6.3-10 7.1-2 0.22-4.2-1.2-4.1-3.3 8e-3 -2.2 0.9-4.4 1-6.6 3.2-20 8.6-39 11-59-0.33-2.4-2.7-3.8-4.9-4.1-1.8-0.33-3.6-0.43-5.4-0.4zm0.099 2.1c0.18 6e-3 0.36 0.12 0.55 0.34 0.6 0.5-0.3 7.2-2 16-1.6 8.2-4.7 25-6.9 37-3.8 20-5.8 29-5.9 24-0.1-0.9 1.5-9.9 3.3-20 1.9-10 4.9-27 6.6-37s3.3-19 3.6-20c0.19-0.56 0.45-0.85 0.75-0.84zm6.9 2.7c0.7 0 0.8 1.4 0.5 3.7-1.5 9.8-14 73-14 73-0.2-0.5 2.1-15 5.1-31 3-17 5.9-34 6.6-38 0.6-3.9 1.6-7.2 2.2-7.2zm-55 48c0.7 4.7 2 11 5 15 5.3 6.2 13 5.6 22-1.6l4-3.2c0.33 4 0.17 14-4.4 13-6.5-0.9-12-1.2-18-1.7-11-0.93-30 0.84-32-2.6 0.56-0.97 3.5-1.9 5.1-3.1 3.9-2.9 7.7-6.2 11-9.8s6.3-6.6 6.7-6.6z"/>
     <path d="m210 196c-4.7 0.87-8.4 5.2-9.1 9.9-3 13-6.2 26-9.2 39-2.9 13-5.9 25-9.3 38-0.39 1.2-1.6 2.5-2.9 2.1-1.8-0.64-3.3-1.8-4.8-3-3.1-2.7-5.4-6.5-5.7-11-0.71-0.95-2.2-0.52-2.8 0.33-2 1.9-4 3.9-5.8 6.1-3.2 4.1-5.3 9.4-4.5 15 0.64 3.6 2.6 6.9 5.4 9.2 2.5 1.8 5.8 2.4 8.9 1.9 1.3-0.13 3.1-0.015 3.7 1.3 0.52 1.5-0.68 2.7-1.4 3.9-1.8 3.3-3.6 6.7-6.4 9.3-2.2 2.1-4.8 3.7-7.8 4.5-1.4 0.52-2.9 1.7-2.7 3.4 0.46 1.4 1.6 2.4 2.5 3.6 6.5 7.3 18 9.3 27 4.6 3.6-2 7.2-4.5 11-5.1 1.2-0.18 2.3-0.22 3.5-0.087 0.67-3.9 0.88-7.9 1.2-12 0.47-5.6 1.1-11 2.7-17 3.4-4.2 8.4-6.5 13-9 0.45-0.55 1.6-0.44 1.6 0.39 2.9 10 4.1 21 2.8 32-0.46 1.1-0.72 2.7 0.21 3.6 0.67 0.81 1.8 0.7 2.7 0.54 7.9-0.88 15-3.5 23-5.5 0.057-0.7-0.43-1.3-0.51-2-11-36-18-74-30-109-1.7-5-3.4-9.9-5.4-15-0.31-0.34-0.8-0.42-1.2-0.37zm-2.6 41c0.85 0.84 0.71 2.2 1.1 3.2 2.3 10 5.1 20 7.5 30-2 3.5-5.6 5.5-9 7.5-0.78 0.48-1.6 0.98-2.3 1.5-0.42-14 0.31-28 2.2-43 0.11-0.16 0.33-0.36 0.52-0.25z"/>
     <path d="m230 94c-11 1.7-18 12-21 22-4.1 11-4.1 24 0.45 35 2.1 4.5 1.2 9.4-1.7 13-0.96 2.6-4.6 4.7-5.9 1.1-5.7-14-1.4-29 1.8-43 0.73-4.7 3.3-9.2 3.7-14-1.9-3.1-6.4-0.22-9.2-0.26-8.2 1.9-17 3.2-25-2-3.5-1.3-4.4-5.8-7.8-6.9-3.8 0.35-2.7 5.4-2.2 8 1.3 6 4.1 12 8.8 16-0.9 18-2.6 37-8.5 54-0.59 3.1-4.5 2.6-5.4 5.6-1.1 3-5.9 6.4-2.8 9.7 1.8 3 5.4 5.3 8.9 3.4 6.9-3.2 8.1-12 10-18 4.9-15 5.6-31 8.1-47 0.46-3.3 3-5.8 5.8-7.2-1.7 18-4.1 37 2.4 54 2.4 5.3 6.8 11 13 12 8.2-1.4 12-10 13-18 1.1-3.9 1.6-8.4 2.4-12 9.6 1.6 19-3.8 26-9.5 4.5-3.9 8.1-10 7.3-16-2.3-3.4-6.9-4.7-11-6-3.9-0.91-3.8 3.9-2.2 6.1-0.33 5.5-5.3 9.6-9.4 13-3.5 2.9-12 2-11-3.7 2.3-4.8 8.6-5.5 12-10 6-6.3 7.4-15 7.3-24 0.12-5.2 1.4-12-3.8-15-1.4-1.1-3.1-1.7-4.8-1.7zm-1.5 12c2.8 1.9 1.3 6.3 0.84 9.2-1.7 5.6-4.2 12-10 15-2.1-0.36-0.17-3.8-0.63-5 0.69-6.8 2.5-16 9.8-19z"/>
     <path d="m265 73c-8.4 1.1-14 8.7-18 15-5.5 10-9 23-4.4 34 3.7 8.3 16 9.4 22 3.6 0.12 3.4-1 9 3.5 10 2.2 0.68 6.9 3 7.2-0.87 1.9-18 3.9-35 4.2-53-0.6-5.1-6.4-7.5-11-9.2-1.3-0.4-2.7-0.62-4.1-0.56zm-1.3 13c4.4-0.73 2.4 5 2.9 7.9-0.59 8.3-1.9 18-8.1 24-5.1 2.1-8.3-5-7.3-9.1 1-8.1 3.2-17 10-22 0.73-0.34 1.6-0.36 2.3-0.33z"/>
     <path d="m411 70c-3.6 0.16-7.5 8e-3 -11 2.2-0.92 0.57-1.8 1.7-1.3 2.8 0.93 3.1 2.5 6 3.9 8.9 1.8 3.6 3.7 7.1 6 10 0.55 0.54 1.5 0.31 1.8-0.38 0.75-1.2 1-2.7 2.3-3.4 4.2-3.4 11-3.2 15 0.73 1.1 1.3 1.6 3 1.5 4.7 0.046 0.78 0.62 2 1.6 1.6 1.2-0.5 2-1.5 3.1-2.2 4.6-3.7 9.2-7.5 13-12 2-2.8 3.7-6 4.2-9.4-0.015-0.61-0.73-0.89-1.2-0.47-1.2 0.85-1.5 2.4-2.1 3.7-0.24 0.66-0.51 1.3-0.88 1.9-3.5-1.6-6.9-3.5-11-4.8-8.1-3-17-4.1-25-4zm0.29 2.9c9.8 0.15 20 1.6 29 6 1.4 0.81 3 1.5 4 2.8 0.35 1.1-0.63 2.1-1.5 2.6-0.77 0.34-1.4-0.31-1.9-0.84-3.5-3.3-8-5.5-13-6.5-0.6-0.064-1.4-0.068-1.8 0.45-0.01 0.87 1.1 1 1.7 1.3 4 1.7 8.3 3.4 11 6.8 0.28 0.25 0.43 0.98-0.14 0.91-2.1-0.35-4-1.6-5.9-2.5-3.2-1.7-6.5-3.3-10-3.4-2.5-0.21-5-0.28-7.4-0.082-0.37 0.39 0.21 0.94 0.64 0.75 0.99 0.15 2 0.19 3 0.42-3.4 1-6.8 2.2-10 2.4-0.8 0.11-1.7-0.32-1.8-1.2-0.23-1.1 0.77-1.7 1.5-2.3 2.3-1.5 5-1.9 7.6-2.2 1.2-0.19 2.5-0.28 3.6-0.84 0.47-0.43 0.2-1.2-0.4-1.2-1.4-0.51-3-0.38-4.5-0.4-4 0.23-7.8 1.8-11 3.8-0.6-0.76-0.98-1.7-1.4-2.5-0.49-1-0.4-2.5 0.72-3.1 1.7-1 3.7-0.8 5.6-1.1 1.1-0.078 2.2-0.09 3.4-0.13z"/>
     <path d="m113 71c-9.4 0.58-19 2.6-27 7.4-7.5 4.3-13 11-17 19-2.8 6.1-4.2 13-4.3 20-0.33 7.1-0.44 14-0.34 21 0.12 3.4 0.27 6.8 1.3 10 0.82 2.1 2.5 3.7 4.3 5 5.6 4.6 11 9.4 15 16 1.1 2 2.1 4.4 1.1 6.6-0.83 2-3.1 2.9-5.1 3.1-1.2 0.16-2.4 0.17-3.5 0.29 5.2 5.2 10 11 17 14 9.8 5.7 22 8 33 5.8 9-2 17-7.6 23-15 7.3-9 12-20 13-32 0.65-6.8 0.73-14 0.36-20-0.72-11-3.4-21-7.6-31-4-8.8-9.6-17-17-23-5.3-4-12-6.7-18-7.5-2.2-0.3-4.3-0.43-6.5-0.34zm-3.8 26c3-0.066 5.9 1.3 8 3.5 2.7 2.4 4.8 6 4.3 9.8-0.31 2.8-1.7 5.7-4.3 7.1-1.3 0.52-2.7 0.47-4.1 0.57-0.37 0.92 0.56 1.7 0.96 2.4 3.4 4.7 11 6.2 15 3 2.2-1.5 3.9-3.6 4.8-6.1 0.36-0.9 1.5-1.6 2.4-1.1 1.2 0.82 1.5 2.4 1.9 3.7 1.5 5 1.9 10 2.3 15 0.53 8.7 0.16 18-2.7 26-1.9 5.5-5.4 11-11 14-6 3.3-13 3.6-20 1.5-5.4-1.8-10-5.5-13-10-4.2-5.7-6.8-13-7.9-20-0.86-5.7-0.82-12-0.73-17 0.17-4.5 0.44-9.1 1.5-13 1.5-5.1 4.2-9.7 7.9-13 2.7-2.7 6.3-4.4 10-4.9 1.3-0.2 2.6-0.29 3.9-0.32z"/>
    </g>
    <path d="m486 201c29 29 22 84-14 111-18 14-38 20-69 21-21 0.7-31-0.8-42-6.2-8.9-4.4-14-9.5-15-17-3.7-16 6.6-25 22-20 9.5 2.6 14 12 7.5 17-1.6 1.2-3 2.5-3 2.9s3.9 1.2 8.6 1.9c10 1.4 22 0.7 36-2 8.9-1.8 9.3-1.8 12-0.1 8.2 5.7 23 5.9 34 0.6 6.7-3.3 17-14 21-22 8.5-16 12-46 6.7-64-2.3-8.3-8.5-21-12-26-1.8-2-3.2-4.2-3.2-4.8 0-2.1 4.2 0.9 11 7.9z"/>
    <path d="m447 189c-5.5 0.19-11 3.1-15 6.7-4.1 3.6-7.9 7.7-10 13-4.6 8.9-6.6 19-7.2 29-0.68 11 0.028 21 0.86 32 0.76 7.7 2.3 16 5.5 23 2.7 5.9 6.9 11 13 14 5.1 2.7 11 3.3 17 2.3 7.1-1.2 14-4.9 19-9.9 4.6-4.5 8.6-9.7 11-16 4.5-9.3 6.4-20 7.2-30 0.44-6.3 0.47-13-0.48-19-1.8-13-6.4-25-14-36-2 7.4-5.3 14-7.4 22 0.73 6.2 3 12 2.3 18-0.84 5-1.6 10-4.8 14-2 2.7-6 4.1-9 2.5-1.6-0.74-3-2-4.8-2.3-0.8 0.41-0.21 1.4-0.32 2.1-0.11 2.2-0.35 4.4 0.2 6.6 0.82 4.1 3.2 8.1 7 9.9 3 1.3 6.5 1.1 9.4-0.35 1.1-0.4 2.1-0.97 3.3-1 0.47 0.63-0.28 1.3-0.43 1.9-3.4 7.1-11 12-19 11-4.6-0.52-8.6-3.5-11-7.3-3.9-5.7-5.2-13-5.5-19-0.28-5.3-0.23-11 0.12-16 0.89-6.7 4.2-13 4.1-20-0.65-2-1.6-4-2-6.1-1.2-5-1.2-11 1.6-15 1.8-2.8 4.9-5 8.3-5.1 4.1-0.38 8.1 1.1 12 0.83 1.5-0.66 1.6-2.8 0.72-4-1.1-1.8-3.3-2.7-5.3-2.3-1.9 5e-3 -3.8-0.15-5.7-0.11z"/>
    <path d="m373 173c-8.7 0.3-17 4.8-23 11-7.2 7.6-11 17-14 28-3.1 14-2.9 28-2.4 42 0.17 5.2 0.25 10 1.4 15 1.5 7.7 4.1 15 8 22 6.9-6.2 17-8.1 26-5.8 5.1 1.2 9.8 4.3 12 8.9 1.9 3.4 2.5 7.5 1.8 11 0.023 1.3 1.4 2.2 2.7 2 3.9 0.21 7.7-1.6 12-0.52 2.2 0.66 4.4-0.84 5.2-2.8 1.5-2.8 2.5-5.8 4.2-8.5 3.5-6.7 6.2-14 6-22-0.14-3.2-1.1-6.3-0.95-9.5-0.64-14-1.1-29 1.8-43 0.42-1.8 1-3.7 0.48-5.5-1.7-8.7-5.8-17-10-24-4.8-8-12-15-21-17-3.1-1-6.5-1.5-9.8-1.4zm1.5 28c3.9-0.14 8 1 11 3.5 5.3 4.2 8.2 11 8.4 18 0.091 4.2-0.32 8.4-1.1 13-1.1 5.7-3.4 11-7.6 15-1.5 1.4-3.2 2.7-5.1 3.4-3.3 0.088-6.7-0.79-9.8 0.7-1.7 1-1.9 3.1-1.9 4.9-0.058 6.3 4.4 12 10 14 4.3 1.7 9.3 1.2 13-1.1 0.37-0.071 1.5-1 1.2-0.33-2.5 6.2-9 10-16 10-5.3 0.3-11-1.7-14-5.9-3.6-4.6-5.9-10-7.4-16-2.9-11-2.4-23-0.38-34 0.92-4.7 2.6-9.3 4.5-14 1.6-3.6 3.6-7.2 6.7-9.7 2.2-1.7 4.9-2.7 7.7-2.7z" fill-rule="evenodd"/>
    <path d="m45 153c-12 1.3-22 8.8-27 19-3.4 7.7-2.7 17 1.1 24 4.3 8.7 12 15 20 20 12 7.1 25 11 39 12 13 1.3 27 0.51 40-0.36 1.6-0.013 2.7 1.5 2.7 2.9 0.16 1.9-0.014 3.9 0.36 5.8 0.53 3.3 0.36 6.8 0.08 10-0.68 7-2.7 14-5 20 0 0.76 0.67 1.3 0.87 2 3.9 7.9 6.9 16 7 25 0.036 5.8-1.8 11-4.3 16-2.7 6.3-6.1 12-7 19-0.4 3.5-0.2 7.2 1.5 10 1.8 1.8 4.5 1.7 6.9 1.5 4.2-0.35 8.4-0.22 13-0.55 8.6-0.44 17-0.71 26-2 1.1-1.4 0.36-3.5-0.87-4.6-2.3-2.8-5.4-5.2-6.4-8.9-0.62-2.4 0.11-5.1 1.9-6.8 0.77-1.3-0.056-2.9-0.64-4.1-1-1.9-2.3-3.8-2.2-6.1-0.57-4.1-1.3-8.2-1.3-12-0.43-10 1.3-21 6.2-30 0.61-1.1 0.55-2.3 0.27-3.5-0.94-4.4-4.4-7.6-6.2-12-1.1-2.4-1.6-5-2.3-7.5-1.7-6.9-1.9-14-2.3-21 16-2.9 32-4.6 49-7.7 3.4-6 3-13 6.7-19 0.57-0.68 1.3-1.7 0.7-2.6-1-2.2-3.5-3-5.6-3.9-2.4-0.94-5.1-0.22-7.6-0.11-5.5 0.52-11 1.5-16 3.8-4 5.5-13 7-18 3-2.2-1.1-4.7-0.45-6.8 0.26-4.1 1.6-7.7 4.2-12 5.8-3.4 1.4-7.1 2.1-11 1.9-4.8-0.064-9.5-0.56-14-0.39-10-0.23-20-1.9-30-4.6-9.2-2.5-18-6-27-10-3.5-2.3-5.4-7-3.8-11 1.2-2.8 4.1-4.2 6.8-5.2 6.1-2.2 13-1.7 19-0.58 1.5 0.17 3 0.79 4.5 0.49 0.88-0.55 0.75-1.8 0.15-2.5-1.4-2.6-3.6-4.5-5.6-6.6-7.6-7.1-18-12-28-12-0.22 0.021-0.43 0.043-0.65 0.064z"/>
    <path d="m260 137c-2.3 0.4-4.1 2.2-5.2 4.2-1.6 3-2.5 6.6-5.2 8.8-0.94 0.88-1.8 1.9-2.8 2.7-4.5 3.8-10 5.9-14 10-0.67 1-1 2.3-1.4 3.4-1.7 5.6-1.5 12 1.4 17 0.52 0.95 1.6 1.4 2.4 2 4.5 2.7 10 2.8 15 1.2 4.9-1.5 9.3-4.6 13-8.5 2.1-2.4 4.4-5 4.6-8.4-0.014-0.46-0.049-0.92 0.4-1.2 3.4-3.7 7.7-6.9 9.7-12 0.52-1.3 0.88-2.6 1.3-3.9 1.5-5.4-1.1-12-5.8-14-2.2-1.4-4.8-2-7.4-1.8-1.8-0.12-3.7-0.12-5.5-0.16zm2.7 9.3c1.9-0.041 3.8 1.1 4.4 2.9 1.1 3 0.099 6.7-2.4 8.8-0.62 0.41-1.3 0.88-2 0.95-0.96-0.35-1.2-1.5-1.7-2.3-0.65-1.3-1.7-2.8-3.3-2.6-0.75 0.11-1.5 0.29-2.2 0.36-3.3 0.53-5.8 3.3-6.6 6.4-1.2 3.9-0.16 8.7 3.2 11 0.73 0.56 1.6 0.99 2.4 1.3-2.2 2.1-5.3 3.2-8.4 3.4-2 0.11-4.4-0.48-5.2-2.4-0.79-1.6-0.28-3.3-0.29-5 0.5-7.8 5.3-15 12-19 3.2-2 6.8-3.4 10-3.8z" fill-rule="evenodd"/>
    <path d="m396 99c2.6 0.9 4.8 1.9 4.8 2.3 0 0.3-1.8 1.6-4 3-3.8 2.4-4 2.7-4 7.7 0 2.9-0.3 5.3-0.8 5.3-0.4 0-2.4-1.4-4.5-3.1l-3.8-3.1-4.9 1.6c-2.7 0.9-5.1 1.6-5.4 1.6s0.3-2.3 1.4-5.1l2-5.1-6.1-8.3 5.5-0.3c5.3-0.3 5.7-0.5 8.8-4.8l3.3-4.6 1.4 5.6c1.4 5.3 1.7 5.6 6.3 7.3z"/>
    <path d="m448 70c-1.9 0.47-2.6 3.3-1.1 4.6 1.1 0.4 2.1-0.83 2.2-1.9 0.41-0.86 0.52-2.3-0.59-2.7-0.16-0.039-0.33-0.032-0.48 0.01z"/>
    <path d="m442 67c-2.6 0.58-4.6 3.2-4.4 5.8 0.43 1 2.1 0.97 2.5-0.048 1.4-1.6 2.2-3.7 2.1-5.7-0.054-0.042-0.12-0.057-0.19-0.043z"/>
    <path d="m430 63c-2.3 1.2-3.2 4.1-2.8 6.5 0.14 0.92 0.85 1.7 1.7 2 1.3-2.2 2.7-4.8 1.9-7.4-0.15-0.41-0.29-1.2-0.88-1.1z"/>
    <path d="m413 63c-1.4 0.76-1.4 2.6-1.1 3.9 0.037 1 1.6 1.9 2.2 0.86 0.63-1.2 0.46-2.7-3e-3 -3.9-0.19-0.42-0.65-1.1-1.2-0.83z"/>
    <path d="m293 57c-4.9 3.4-7.6 9.7-10 15-4.7 11-5.4 24-3.3 36 2.1 6.5 7.9 15 16 13 5.2-3.7 6-11 10-15 5.1-5.9 12-12 12-20 1.5-2.4 0.4-7.7-3.1-5.3-3.2 3.1-9.3 3.7-9.5 9.2-1.3 5.6-2.3 13-7.1 16-5.9 0.8-6.6-7.3-6.4-12 0.73-12-1.5-24 4.2-35 0.53-1.5-0.64-3.3-2.3-2.9z"/>
    <path d="m310 53c-2.3 0.72-3.3 3.2-3.5 5.4-0.13 1.5-0.053 3.1 0.54 4.5 1.7 1.1 4 0.29 5.1-1.2 1.6-1.8 2.4-4.7 1.2-6.9-0.68-1.1-2-2-3.4-1.8z"/>
    <path d="m427 33c-2.5 0.53-4.1 2.9-5.1 5.1-2 4.9-2.8 10-4.4 15-0.16 0.52-0.23 1.2-0.58 1.6-6.9 0.68-14 1.5-20 4.8-1.9 0.91-3.4 3-2.8 5.2 0.44 3 2.5 5.6 5.1 7 0.69 0.37 1.8 0.11 1.8-0.82 0.094-1.6-1.4-2.6-2.2-3.7-0.23-0.33-0.51-0.77-0.12-1.1 1-1.4 2.6-2.2 4-3 4.2-2 9-2.1 14-1.7 0.94 5e-3 2 0.044 2.8-0.56 0.51-0.8-0.3-1.9-1.2-1.8-0.58-0.061-1.2-0.18-1.6-0.57 1.2-0.54 2.5 0.026 3.8 0.069 6.1 0.9 12 2.6 18 4.1 5.6 1.6 11 3.8 16 7.9 0.94 0.84 1.8 1.9 2.9 2.4 0.6-0.36 0-1-0.17-1.5-1.3-3-3.2-5.9-6.1-7.5-3.8-2.6-8.4-4-13-5.3-0.42-0.58 0.1-1.3 0.05-1.9 0.76-5.7 1.9-12 1.5-17-0.47-2.3-2-4.6-4.2-5.6-0.84-0.063-1.3 0.88-1.2 1.6-0.58 3.6-1.1 7.2-1.2 11 0.38 0.6 1.3-0.029 1.2-0.62 0.6-2.5 1-5.1 2.3-7.3 0.39 4.2-0.96 8.4-1.8 12-0.48 2.1-1.1 4.1-1.9 6.1-3.2-0.21-6.6-0.37-9.5-2-0.74-0.84-0.026-1.9 5e-3 -2.9 0.81-5 1.7-10 3.3-15 0.47-0.19 0.3 0.56 0.28 0.81-0.26 2.7-1.2 5.4-0.84 8.2 0.4 0.68 1.6 0.16 1.5-0.57 1.1-3.7 2-7.6 2.3-11-0.22-0.84-1.1-1.4-2-1.3z"/>
    <path d="m338 48c-4.6 1.4-3.4-4.9-3.3-7.5-0.013-1.4-1.6-3.9-2.7-1.2-8.6 10-14 23-24 31-6.3 0.37-6-6.9-5.9-11-4.3 2.1-5.7 7.9-7 12-0.72 7.9 9.1 12 15 7.3 5.8-3.9 9.6-10 14-15 0.27 8.8-2.9 18-2.3 26 4.6 0.48 8.4-3.3 8.1-7.8 4-18 13-35 27-48-2.2 15-10 28-11 43 0.45 8 9.1 14 17 11 12-3.6 22-11 29-20-1.7-3.5-1.5-8.2 2.5-10 5.6-3.5 14-3.4 16-11 4.2-7.2 6.3-18-0.47-24-6.8-2.7-15 2-19 7.9 0.52 2 4.3 0.25 5.9 1.8 5.3 2.4 2.8 9 0.43 13-7.2 14-19 28-35 31-4.5 0.74-8.5-3.7-6.7-8 1.7-19 18-47 17-53-8-4.3-32 28-36 33z"/>
    <path d="m375 0.64c-13 1-24 9.8-32 20-0.81 1-2.5-1.3-4-1.2-7.1-1.6-14 2.9-17 9.2-2.6 3.4-3.5 8.8-7.4 11-11-4.4-23 2.2-30 10-3.4 3-5.3 7.9-8.5 10-8.5 0.4-18-1.1-25 5.2-4.9 3.9-8.3 9.2-12 14-7.6-0.76-16-0.68-22 3.9-8.8 4.7-16 13-26 15-8.3-0.38-13-8.6-20-12-5.6-8.1-11-17-20-22-18-12-42-13-63-6.8-17 5-32 18-38 35-6.1 14-4.6 30-4.8 45-16 0.43-32 9.9-39 25-7.5 16-4.6 35 4.2 49 13 20 37 29 60 32 12 1.8 23 1.5 35 1.7-1.9 6.4-5.4 13-5.4 20 2.8 9.6 9.6 18 9.6 28 0.98 13-6.8 24-11 36-2.6 8.9-2 20 4.5 27 4.7 3.5 11 1.9 17 2.8 16 0.74 32-0.82 48-5.2 8-0.97 17 1.8 24-2.4 5.2-2.6 12-0.92 17-4 2-1.4 3.2-4.1 5.2-5.1 8.8 6.1 20 3.1 30 2.5 25-2.5 49-7 74-9.1 7.3 0.24 14-2.6 21-3.7 7.1 3.5 13 8.8 21 11 28 10 59 9.9 87 0.76 30-9.5 56-31 67-61 7.9-20 9.6-44 2.2-64-4.9-15-13-29-26-38-1.6-5.8 1.2-12 1.8-18 3.8-20 8.5-41 11-61-0.013-5.8-6.6-11-12-8-7.8 2.7-15 7.5-23 9.6-0.93-4.8-6.4-7.9-11-5.7-3 0.99-5.8 2.4-8.7 3.7 6.7-9.1 16-17 19-28 1.4-8.5-4.7-17-12-20-1.8-1.4-5.4-2.1-4-5.2 2.3-8.5-0.4-19-8.8-23-4.6-2.9-11-1.7-16-3.4-2.9-4.7-5.6-11-12-11-6.2-1.2-12 0.089-18 1.7-3.9-6.3-10-11-18-12-1-0.08-2-0.12-3-0.073zm1 8.6c5.7-0.45 12 2.5 13 8.5 0.48 2.3 1.5 8.4 5.1 5.9 5.7-4.9 14-6.9 21-3.7 3.3 2.3 4.5 6.2 5 9.9 2.9 2.9 8.6-0.5 12 0.5 4.8 0.44 12 2.6 11 8.7 0.54 5.4-0.84 10-1.2 16 2.2 3.9 7.9 3.5 11 6.4 4.6 2.7 8.5 8.5 5.2 14-7.1 13-20 23-25 38-2.9 6.5-0.14 6 4.8 2.9 7.1-3.1 15-7.6 22-9.6 0.16 3.5-1.8 7.6 0.22 11 12-4.8 23-11 34-15 0.75 5.5-1.8 11-2.3 17-3.8 21-8.1 42-12 63 1.9 5.4 8.2 7.7 12 12 15 16 22 38 20 60-1.4 22-10 43-26 58-18 18-43 29-69 31-21 1.9-42 0.53-61-8.8-7.7-3.4-15-11-24-8.8-11 4.2-23 3-34 5-24 2.7-47 7.4-71 8.7-5.1 0.17-9.8-2-13-5.5-3.9-2.8-9.3 1.9-9.4 6.1-3.1 3.9-9 1.8-13 3.4-5.3 1.7-10 5.4-16 3.9-10-2.2-19 3.4-29 3.7-12 0.89-25 1.5-38 0.13-4.9-0.94-3.9-7.4-4.5-11 0.42-13 9.8-23 12-35 2.5-13-0.35-26-7.6-37-3.4-8.1 3.4-15 4.5-23 0.56-2.5 0.51-5 0.78-7.6-27 0.47-56 1.2-80-14-14-7.7-24-22-24-38-0.99-11 2-23 11-31 9-8.9 22-9.6 34-10-0.25-2.7-1.7-6.8-1.4-10-0.34-15-1.3-31 6.1-44 7.2-16 23-26 40-28 19-3.3 42 0.18 56 16 4.7 4.6 6 12 12 15 6.5 5.4 13 13 23 12 12-0.23 20-10 30-16 6.4-4.7 14-2.8 22-2.2 6.2-6.8 10-17 20-20 6-1.4 12 0.96 18-0.61 6-6.3 10-15 18-19 5.2-4.3 12-2.2 18-1.3 7.4-1.2 9.7-9.6 13-15 1.8-2.2 4.7-7 8-5.2 1.5 2.1 1.3 7.6 5.1 6.3 8.5-7.4 14-19 25-23 2.9-1.3 6.2-1.4 9.3-1.5z" fill-rule="evenodd"/>
   </g>
  </g>
 </g>
</svg>
