<?xml version="1.0" encoding="utf-8"?>
<!-- Generator: Adobe Illustrator 21.0.2, SVG Export Plug-In . SVG Version: 6.00 Build 0)  -->
<svg version="1.1" id="Layer_1" xmlns="https://www.w3.org/2000/svg" xmlns:xlink="https://www.w3.org/1999/xlink" x="0px" y="0px"
	 viewBox="0 0 1393 655" style="enable-background:new 0 0 1393 655;" xml:space="preserve">
<style type="text/css">
	.st0{clip-path:url(#SVGID_2_);}
	.st1{opacity:3.000000e-02;clip-path:url(#SVGID_4_);fill:#FFFFFF;enable-background:new    ;}
	.st2{opacity:3.000000e-02;enable-background:new    ;}
	.st3{clip-path:url(#SVGID_6_);fill:#FFFFFF;}
</style>
<title>Combined Shape</title>
<desc>Created with Sketch.</desc>
<g>
	<g>
		<defs>
			<path id="SVGID_1_" d="M1290.2,1143.8c-15.9,0-28,30.1-28,101.8c0,71.5,12,101.2,28,101.2s27.8-29.7,27.8-101.2
				C1318,1173.9,1306.2,1143.8,1290.2,1143.8z M1290.2,1135.8c61.6,0,102.2,28.9,102.2,109.8c0,80.7-40.6,109.2-102.2,109.2
				c-61.8,0-102.4-28.5-102.4-109.2C1187.9,1164.7,1228.5,1135.8,1290.2,1135.8z M1165.1,1141.9h39v8h-39v165.6
				c0,10.4,3.1,14.5,12,14.5c5.4,0,14.2-2.9,21.4-11.7l6,4.9c-11.1,19.1-29.1,31.6-56.5,31.6c-17.5,0-31.9-4.5-41-13.7
				c-11.5-11.5-13.6-27.9-13.6-55.7v-135.5h-30.1v-8h30.1v-47.7c28.4,0,50.7-5.1,71.7-17.6V1141.9z M994.4,1313.2v-84.4
				c-3.3,5.5-9.9,11.9-15.5,17.6c-11.8,11.5-19.4,25.6-19.4,45.1c0,20.9,8.7,28.3,20.2,28.3C985.3,1319.8,989.6,1318.3,994.4,1313.2
				z M988,1135.8c27.8,0,49.7,4.1,64.9,20.1c11.1,11.5,13,28.3,13,56.1v107c0,12.9,1.7,17.2,6,17.2c4.9,0,8.7-3.1,12.4-5.9l3.9,6.8
				c-12.6,10.7-28.9,14.6-51.7,14.6c-29.9,0-40.6-14.3-41-30.3c-11.1,18.4-32.2,30.3-56.9,30.3c-31.9,0-50.1-18.4-50.1-45.9
				c0-27.1,15.5-44.9,50.5-56.4c31.1-11.1,55.4-19.1,55.4-37.1v-35.7c0-12.3-4.1-32.8-29.5-32.8c-6.8,0-15.2,2.9-21,6.8
				c17.1,6.4,26.6,18,26.6,36.1c0,18.8-15.2,33.6-38.3,33.6c-19.8,0-32.6-15.2-32.6-35c0-16.8,10.5-29.1,24.7-36.7
				C940.6,1140.3,960.2,1135.8,988,1135.8z M876.8,1137.2V1312c0,22.3,6,28.7,22.3,28.7v8.4c-10.7-0.4-34.2-1.6-56.5-1.6
				c-22.1,0-48.2,1.2-59.6,1.6v-8.4c16.3,0,22.3-6.4,22.3-28.7v-127c0-24-5.6-35.2-22.3-35.2v-8.4c8.4,0.8,16.7,1.2,24.7,1.2
				C834.3,1142.7,857,1141.1,876.8,1137.2z M838.7,1036.2c27.4,0,43.3,11.7,43.3,34.6c0,22.7-15.9,34.4-43.3,34.4
				c-28,0-43.3-11.7-43.3-34.4C795.4,1047.9,810.8,1036.2,838.7,1036.2z M779.5,1065.9c-1.9,26.8-2.7,53.9-2.7,67.2
				c0,11.1,0.4,22.1,1.2,28.9h-9.1c-14-66.4-44.5-86.9-73.2-86.9h-5.2c-20.6,0-24.3,3.3-24.3,25.2v102.3h4.1
				c29.9,0,49.3-29.5,54.2-52.7h9.1c-1.2,17.6-1.6,29.5-1.6,38.9c0,6.8,0.2,12.3,0.2,18c0,13.1,0.6,26.4,2.5,56.8h-9.1
				c-4.9-29.7-25.4-52.9-55.4-52.9H666v92c0,32.8,7.6,37.3,44.3,37.3v9.2c-17.9-0.4-48.9-1.2-82-1.2c-24.3,0-49.7,0.8-71.3,1.2v-8
				c24.3-1.2,28.4-5.3,28.4-34.4v-198.5c0-29.1-4.5-33.2-28.4-34.4v-8c46.2,1.2,110.7,1.2,139.3,1.2
				C720.6,1067.1,754.8,1067.1,779.5,1065.9z M1124.1,807.8c-15.9,0-28,30.1-28,101.8c0,71.5,12,101.2,28,101.2
				s27.8-29.7,27.8-101.2C1151.9,837.9,1140.1,807.8,1124.1,807.8z M1124.1,799.8c61.6,0,102.2,28.9,102.2,109.8
				c0,80.7-40.6,109.2-102.2,109.2c-61.8,0-102.4-28.5-102.4-109.2C1021.8,828.7,1062.4,799.8,1124.1,799.8z M952.5,799.8
				c24.3,0,37.3,6.8,44.9,16c8,9.6,11.7,24.4,11.7,51.8V976c0,22.3,6,28.7,22.1,28.7v8.4c-10.7-0.4-35-1.6-55.6-1.6
				c-22.3,0-45.8,1.2-56.5,1.6v-8.4c13.6,0,18.3-6.4,18.3-28.7V845.9c0-16.8-5.6-25.2-19.4-25.2c-14.8,0-28.7,11.9-28.7,28.7V976
				c0,22.3,4.9,28.7,18.5,28.7v8.4c-10.1-0.4-31.9-1.6-52.6-1.6c-22.1,0-48.2,1.2-59.6,1.6v-8.4c16.3,0,22.3-6.4,22.3-28.7V849
				c0-24-5.6-35.2-22.3-35.2v-8.4c8.4,0.8,16.7,1.2,24.7,1.2c26.6,0,49.3-1.6,69.1-5.5v28.7C902,808.6,924,799.8,952.5,799.8z
				 M707.7,977.2v-84.4c-3.3,5.5-9.9,11.9-15.5,17.6c-11.8,11.5-19.4,25.6-19.4,45.1c0,20.9,8.7,28.3,20.2,28.3
				C698.5,983.8,702.8,982.3,707.7,977.2z M701.3,799.8c27.8,0,49.7,4.1,64.9,20.1c11.1,11.5,13,28.3,13,56.1v107
				c0,12.9,1.7,17.2,6,17.2c4.9,0,8.7-3.1,12.4-5.9l3.9,6.8c-12.6,10.7-28.9,14.6-51.7,14.6c-29.9,0-40.6-14.3-41-30.3
				c-11.1,18.4-32.2,30.3-56.9,30.3c-31.9,0-50.1-18.4-50.1-45.9c0-27.1,15.5-44.9,50.5-56.4c31.1-11.1,55.4-19.1,55.4-37.1v-35.7
				c0-12.3-4.1-32.8-29.5-32.8c-6.8,0-15.2,2.9-21,6.8c17.1,6.4,26.6,18,26.6,36.1c0,18.8-15.2,33.6-38.3,33.6
				c-19.8,0-32.6-15.2-32.6-35c0-16.8,10.5-29.1,24.7-36.7C653.9,804.3,673.5,799.8,701.3,799.8z M594.9,807.1
				c9.5,0,24.7-0.4,30.7-1.6v8.4c-9.9,3.7-19.4,12.9-28.2,38.9l-53.8,160.4c-6.2-0.6-12.8-1-19.2-1s-13,0.4-19.4,1l-69.1-176.8
				c-8-20.5-17.5-22.5-23.1-22.5v-8.4c21.2,1.6,43.1,2.3,70.9,2.3c16.3,0,35.7-1.2,51.7-2.3v8.4c-12.6,0-22.9-0.4-22.9,10.2
				c0,1.6,0.2,3.1,0.6,5.1l43.3,121.1l18.5-55.1c5.4-16.2,7.6-29.9,7.6-41c0-26.2-12.6-39.1-29.1-40.2v-8.4
				C564.4,806.7,585.4,807.1,594.9,807.1z M405,700.2V976c0,22.3,6,28.7,22.3,28.7v8.4c-10.7-0.4-34.2-1.6-56.5-1.6
				s-48.2,1.2-59.6,1.6v-8.4c16.3,0,22.3-6.4,22.3-28.7V748.3c0-24-5.6-35.2-22.3-35.2v-8.4c8.4,0.8,16.7,1.2,24.7,1.2
				C362.5,705.9,385.2,704.3,405,700.2z M301,801.2V976c0,22.3,6,28.7,22.3,28.7v8.4c-10.7-0.4-34.2-1.6-56.5-1.6
				c-22.1,0-48.2,1.2-59.6,1.6v-8.4c16.3,0,22.3-6.4,22.3-28.7V849c0-24-5.6-35.2-22.3-35.2v-8.4c8.4,0.8,16.7,1.2,24.7,1.2
				C258.4,806.7,281.2,805.1,301,801.2z M262.9,700.2c-28,0-43.3,11.7-43.3,34.6c0,22.7,15.3,34.4,43.3,34.4
				c27.4,0,43.3-11.7,43.3-34.4C306.2,711.9,290.3,700.2,262.9,700.2z M101.2,724.2c34.4,0,51.1,8.4,64.5,16
				c6.4,3.7,9.9,5.7,13.6,5.7c5.2,0,7.2-6.1,8.7-17.6h9.1c-1.2,17.2-1.9,37.5-1.9,97.7h-9.1c-2.9-44.1-28-90.8-69.3-90.8
				c-23.3,0-40.6,13.1-40.6,37.1c0,29.7,20,41.6,70.1,76.8c35.4,24.8,64.5,46.9,64.5,90.4c0,54.1-50.1,79.3-108.2,79.3
				c-36.3,0-55.7-7.6-70.5-14.8c-6.4-4.1-10.3-5.7-13.4-5.7c-5.2,0-7.2,6.1-8.9,17.6H0.6c1.2-20.3,1.7-47.5,1.7-116h9.1
				c3.1,56.4,21.4,106.8,72.3,106.8c29.1,0,47.8-14.3,47.8-39.1c0-33.2-24.3-52.5-58.1-75.2C35.7,867,2.7,844,2.7,799.8
				C2.7,747.5,49.9,724.2,101.2,724.2z"/>
		</defs>
		<clipPath id="SVGID_2_">
			<use xlink:href="#SVGID_1_"  style="overflow:visible;"/>
		</clipPath>
		<g class="st0">
			<g>
				<defs>
					<rect id="SVGID_3_" x="-0.3" y="577.1" width="1440" height="900"/>
				</defs>
				<clipPath id="SVGID_4_">
					<use xlink:href="#SVGID_3_"  style="overflow:visible;"/>
				</clipPath>
				<rect x="-4.4" y="695.2" class="st1" width="1401.8" height="664.6"/>
			</g>
		</g>
	</g>
</g>
<g class="st2">
	<defs>
		<path id="SVGID_5_" class="st2" d="M1322.9,378c-12.4,0-20.7,17.5-23.2,64.3h41C1341.1,407.7,1336,378,1322.9,378z M1341.4,524.8
			c9.5,0,27.3-2.1,42.9-23.7l6.1,2.2c-9,28.5-32,60.2-74,60.2c-45.5,0-81.9-25.2-81.9-96.6c0-68.1,39.8-97.1,91.1-97.1
			c41.3,0,66.9,22.3,66.9,79.3H1301c-0.3,4.1-0.3,8.5-0.3,12.8C1300.6,511.8,1322.2,524.8,1341.4,524.8z M721.1,369.7
			c20.6,0,37.2,5,46.7,10.7c12.8,7.4,21.3,20.6,21.3,36.8c0,19.4-14.2,34.4-34.1,34.4c-20.7,0-32.5-13.1-32.5-32
			c0-17.6,13.5-31.1,29-35.4c-3.3-2.4-7.8-4.1-14.2-4.1c-33.7,0-41.1,46.3-41.1,81.8c0,50,23.5,62.9,44.3,62.9
			c9.7,0,27.3-2.1,42.9-23.7l6.1,2.2c-8.8,28.5-31.8,60.2-74,60.2c-47.4,0-85.4-25.2-85.4-96.6C630,398.7,669.8,369.7,721.1,369.7z
			 M1079.4,557.8c-4.3-0.2-8.5-0.3-12.5-0.3c-23.7,0-43.9,1.4-61.5,5v-25.6c-11.4,18.8-30.9,26.6-56.4,26.6
			c-21.6,0-33.2-6.1-39.9-14.2c-7.1-8.5-10.4-21.6-10.4-45.6v-90.4c0-21.3-4.8-31.1-19.7-31.1h-15.5v146.6c0,9.2,2.8,12.8,10.7,12.8
			c4.8,0,12.6-2.6,19-10.4l5.4,4.3c-9.9,16.9-25.9,28-50.3,28c-15.6,0-28.3-4-36.5-12.1c-10.2-10.2-12.1-24.7-12.1-49.3v-120h-26.8
			v-7.1h26.8v-42.2c25.2,0,45.1-4.5,63.8-15.6v57.7H879v-0.3c1.4,0.1,2.7,0.2,4.1,0.3h15.2v0.7c0.9,0,1.8,0,2.7,0
			c23.7,0,43.7-1.4,61.5-4.8v151.8c0,14.9,5,22.3,17.3,22.3c13.1,0,25.6-10.5,25.6-25.4V413.3c0-21.3-5-31.1-19.9-31.1v-7.4
			c7.4,0.7,14.9,1,22,1c23.7,0,43.9-1.4,61.5-4.8v149c0,19.1,4,29,15.7,30.8c10.6-1.4,14.7-8,14.7-25.1V413.3
			c0-21.3-5-31.1-19.9-31.1v-7.4c7.4,0.7,14.9,1,22,1c23.7,0,43.9-1.4,61.5-4.8v25.4c9.3-18,25.2-26.6,45.8-26.6
			c25.4,0,32.5,19.5,32.5,35.8c0,21.3-13.1,34.7-32.5,34.7c-20.9,0-31.6-10.2-31.6-25.4c0-16.1,7.4-25.9,18.2-33
			c-4,0-7.8,0.7-11.4,2.4c-11.6,5-20.9,17.5-20.9,31.6V522c0,22.6,9,29,30.4,29v7.4c-10.9-0.3-34.6-1.4-57.2-1.4
			c-16.4,0-34.7,0.6-47.3,1.1v0.3c-0.9-0.1-1.8-0.2-2.6-0.2c-2.6,0.1-4.9,0.2-6.8,0.2V557.8z M616.8,370.9v154.7
			c0,19.7,5.4,25.4,19.9,25.4v7.4c-9.5-0.3-30.4-1.4-50.3-1.4c-19.7,0-42.9,1-53.1,1.4V551c14.5,0,19.9-5.7,19.9-25.4V413.3
			c0-21.3-5-31.1-19.9-31.1v-7.4c7.4,0.7,14.9,1,22,1C579,375.8,599.2,374.4,616.8,370.9z M582.9,281.5c-24.9,0-38.5,10.4-38.5,30.6
			c0,20.1,13.7,30.4,38.5,30.4c24.4,0,38.5-10.4,38.5-30.4C621.5,291.9,607.3,281.5,582.9,281.5z M434.9,552.8
			c26.1,0,36.8-28.7,36.8-85.9c0-62.7-10.7-78.7-23.7-78.7c-13.1,0-25.6,10.5-25.6,25.4v136.2C426.1,552.1,430.7,552.8,434.9,552.8z
			 M476.2,369.7c35.1,0,61.7,28.7,61.7,88.9c0,80.4-38.2,104.9-82.5,104.9c-12.1,0-24-1.7-33-6.7v29.4c0,23,11.4,29,30.4,29v7.4
			c-13-0.3-38.9-1.6-65.2-1.6c-19,0-39.2,1.2-48.7,1.6v-7.4c14.5,0,19.9-5.7,19.9-25.6v-176c0-21.3-5-31.1-19.9-31.1v-7.4
			c7.4,0.7,14.9,1,22,1c23.7,0,43.9-1.4,61.5-4.8v25.1C433.5,378.4,452.2,369.7,476.2,369.7z M231.5,456.5L199.3,368l-34.1,88.5
			H231.5z M246.4,307.8l85.7,220.9c6.4,16.2,14.5,22.3,20.9,22.6v7.1c-17.1-0.7-41.1-1-64.5-1c-24,0-46.8,0.3-59.5,1v-7.1
			c16.8-0.7,24.9-3.3,24.9-13c0-4.1-1.6-9.5-4.3-16.8l-21.1-58.1h-71.4l-6.1,15.9c-8,20.7-11.4,35.6-11.4,46.2
			c0,20.7,13.1,25.1,32,25.8v7.1c-17.6-0.7-30.1-1-46.3-1c-9.3,0-20.2,0.3-27.3,1v-7.1c10.9-1.7,21.3-12.1,32.5-41.5l78.7-202.1
			c5.7,0.5,12.3,0.7,18.7,0.7C234.3,308.5,240.9,308.3,246.4,307.8z M812.3,100.7c8.5,0,22-0.3,27.1-1.4v7.4
			c-8.8,3.3-17.6,11.1-25.1,34.4L770.1,283c-5.5-0.5-11.4-0.9-17.1-0.9c-5.7,0-11.6,0.3-17.3,0.9l-42.2-122.4L661.4,283
			c-5.5-0.5-11.4-0.9-17.1-0.9c-5.7,0-11.4,0.3-17.1,0.9l-54.6-156.4c-6.7-18.8-15.6-19.9-20.6-19.9v-7.4
			c18.8,1.4,38.4,2.1,63.1,2.1c14.5,0,31.8-1,46-2.1v7.4c-13,0-20.4,1-20.4,8.6c0,1.4,0.2,2.9,0.7,4.8l29.4,98l30.4-118.6h0.3
			c5.5,0.5,11.2,0.7,16.9,0.7c6.7,0,13.8-0.3,20.6-0.7l40.3,129.5l15.2-50.5c4-13.3,5.7-24.7,5.7-34.1c0-24.7-12.3-36.3-28.7-37.9
			v-7.4C781.5,100.3,803.8,100.7,812.3,100.7z M505.6,102.6c-12.4,0-20.7,17.5-23.2,64.3h41C523.7,132.3,518.7,102.6,505.6,102.6z
			 M524,249.3c9.5,0,27.3-2.1,42.9-23.7l6.1,2.2c-9,28.5-32,60.2-74,60.2c-45.5,0-81.9-25.2-81.9-96.6c0-68.1,39.8-97.1,91.1-97.1
			c41.3,0,66.9,22.3,66.9,79.3h-91.4c-0.3,4.1-0.3,8.5-0.3,12.8C483.3,236.4,504.9,249.3,524,249.3z M391.4,94.3
			c25.4,0,32.5,19.5,32.5,35.8c0,21.3-13.1,34.7-32.5,34.7c-20.9,0-31.6-10.2-31.6-25.4c0-16.1,7.4-25.9,18.2-33
			c-4,0-7.8,0.7-11.4,2.4c-11.6,5-20.9,17.5-20.9,31.6v106.1c0,22.6,9,29,30.4,29v7.4c-10.9-0.3-34.6-1.4-57.2-1.4
			c-21.3,0-45.8,1-56.7,1.4v-7.4c14.5,0,19.9-5.7,19.9-25.4V137.8c0-21.3-5-31.1-19.9-31.1v-7.4c7.4,0.7,14.9,1,22,1
			c23.7,0,43.9-1.4,61.5-4.8v25.4C354.9,102.9,370.8,94.3,391.4,94.3z M123.8,38.8c-21.6,0-26.3,6.1-26.3,30.4v177
			c0,24.7,4.7,30.4,26.6,30.4c48.2,0,66.2-43.2,66.2-120.3C190.4,77,170.2,38.8,123.8,38.8z M118.5,32.4
			c99.2,0,146.2,43.6,146.2,122.6c0,77.1-55.1,128.1-149.4,128.1c-11.4,0-36.8-1-53.1-1c-23.9,0-48.2,0.3-61.7,1V276
			c21.6-1,25.2-4.7,25.2-30.4V69.9c0-25.8-4-29.4-25.2-30.4v-7.1c11.1,0.5,29.6,1.2,48.4,1.2c4.1,0,8.5-0.2,12.6-0.2
			C78.9,33.1,104,32.4,118.5,32.4z"/>
	</defs>
	<use xlink:href="#SVGID_5_"  style="overflow:visible;fill-rule:evenodd;clip-rule:evenodd;fill:#FFFFFF;"/>
	<clipPath id="SVGID_6_">
		<use xlink:href="#SVGID_5_"  style="overflow:visible;"/>
	</clipPath>
	<rect x="-3.8" y="28" class="st3" width="1400.7" height="599.1"/>
</g>
</svg>
