<?xml version="1.0" encoding="UTF-8"?><!DOCTYPE svg PUBLIC "-//W3C//DTD SVG 1.1//EN" "http://www.w3.org/Graphics/SVG/1.1/DTD/svg11.dtd"><svg xmlns="http://www.w3.org/2000/svg" xmlns:xlink="http://www.w3.org/1999/xlink"><symbol id="arrow-back" viewBox="0 0 48.09 22"><path fill="none" d="M1 11h46.09M11 21L1 11 11 1"/></symbol><symbol id="corteva-logo" viewBox="0 0 304.78 60.09"><path d="M0 28.39L28.38 0A30.11 30.11 0 0 0 0 28.39M60.16 30.09v-.39H35.91l-5.49-5.49h29.17a30 30 0 0 0-2.65-7.68H31l5.49-5.49h16.87a30.24 30.24 0 0 0-9.27-7.58l-.2-.1A29.78 29.78 0 0 0 36.09.6L.56 36.09a30.13 30.13 0 0 0 27.44 24L7.71 39.8l4.15-4.15 24 24a29.65 29.65 0 0 0 8.06-2.81L17.3 30.22l4.15-4.13L48.9 53.53A30.34 30.34 0 0 0 54.23 48L43.59 37.35h15.68a30.13 30.13 0 0 0 .89-7.26M76 20.09a15.18 15.18 0 0 1 1.2-6.14 14 14 0 0 1 8.15-7.72 16.84 16.84 0 0 1 6-1.06 17.84 17.84 0 0 1 6.18 1.06 14.28 14.28 0 0 1 4.83 2.86l-5.83 7a5.2 5.2 0 0 0-2-1.58 6.43 6.43 0 0 0-2.67-.54 5.86 5.86 0 0 0-2.23.42 5.08 5.08 0 0 0-1.81 1.22 5.78 5.78 0 0 0-1.22 1.93 7 7 0 0 0-.43 2.55 6.32 6.32 0 0 0 .46 2.49 6 6 0 0 0 1.24 1.89 5.31 5.31 0 0 0 1.81 1.22 5.77 5.77 0 0 0 2.19.42 5.54 5.54 0 0 0 2.81-.68 5.84 5.84 0 0 0 1.85-1.6l5.82 7a14.09 14.09 0 0 1-4.71 3.05 17.7 17.7 0 0 1-12.34.06 14.27 14.27 0 0 1-8.15-7.76A15 15 0 0 1 76 20.09M107.49 19.92a15.05 15.05 0 0 1 1.2-6.12A13.64 13.64 0 0 1 112 9.15a14.55 14.55 0 0 1 5-2.95 19.12 19.12 0 0 1 12.44 0 14.93 14.93 0 0 1 5 3 13.56 13.56 0 0 1 3.31 4.65 15.05 15.05 0 0 1 1.2 6.12 15.48 15.48 0 0 1-1.2 6.18 14 14 0 0 1-3.31 4.77 14.8 14.8 0 0 1-5 3 18.45 18.45 0 0 1-12.44 0 14.71 14.71 0 0 1-5-3 14 14 0 0 1-3.31-4.83 15.48 15.48 0 0 1-1.2-6.18m10.09 0a7.41 7.41 0 0 0 .42 2.55 5.93 5.93 0 0 0 1.16 2 5.09 5.09 0 0 0 1.77 1.3 5.4 5.4 0 0 0 2.23.46 5.24 5.24 0 0 0 2.21-.46 5.42 5.42 0 0 0 1.78-1.3 6.07 6.07 0 0 0 1.18-2 7.41 7.41 0 0 0 .42-2.55 7.11 7.11 0 0 0-.42-2.49 5.19 5.19 0 0 0-1.18-1.91 5.7 5.7 0 0 0-6.22-1.22 5.14 5.14 0 0 0-1.77 1.22 5.62 5.62 0 0 0-1.16 1.92 7.15 7.15 0 0 0-.42 2.49zM146.09 5.96h12.16a20.6 20.6 0 0 1 4.13.42 10.38 10.38 0 0 1 3.67 1.48 7.91 7.91 0 0 1 2.61 2.83 9 9 0 0 1 1 4.45 8 8 0 0 1-4.93 7.62l7.16 11.45H161l-5.42-10.12h-.28v10.12h-9.21V5.96m9.13 11.93h1.86a8.15 8.15 0 0 0 1-.08 3.27 3.27 0 0 0 1.07-.34 2.3 2.3 0 0 0 .83-.72 2 2 0 0 0 .34-1.22 2.22 2.22 0 0 0-.28-1.2 1.87 1.87 0 0 0-.71-.66 2.75 2.75 0 0 0-.95-.28 8.21 8.21 0 0 0-1-.06h-2.26v4.56zM193.78 34.2h-9.49V13.98h-6.94V5.96h23.37v8.02h-6.94V34.2M209.24 5.96h19.42v7.9h-10.48v2.43h9.85v7.38h-9.85v2.63h11.16v7.9h-20.1V5.96M235.64 5.96h10.72l4.67 17.47h.16l4.46-17.47h10.73L256.17 34.2h-10.52L235.64 5.96M277.81 5.96h10.09l11 28.24h-10.32l-1.48-4.11h-9l-1.4 4.15h-10.02l11.13-28.28m4.91 9.85l-2.31 7H285zM297.8 6.83v3.36h-1.02V6.83h-1.19v-.87H299v.87h-1.2M303.77 10.19l.03-2.99h-.02l-1.1 2.99h-.72l-1.07-2.99h-.01l.02 2.99h-.96V5.96h1.45l.97 2.71h.02l.92-2.71h1.48v4.23h-1.01M87.59 44.18v9.91h-2.13v-1.47A4.06 4.06 0 0 1 82 54.29a5.2 5.2 0 0 1 0-10.38 4.07 4.07 0 0 1 3.45 1.66v-1.4h2.13m-2.12 4.92a3.11 3.11 0 1 0-3.11 3.16 3 3 0 0 0 3.11-3.16zM100.8 44.18v9.41c0 3.17-2.48 4.65-5.07 4.65-2.17 0-3.84-.81-4.67-2.39l1.83-1.06a2.8 2.8 0 0 0 2.88 1.52c1.83 0 2.94-1 2.94-2.72v-1.2a4 4 0 0 1-3.43 1.7 5.09 5.09 0 0 1 0-10.18 4 4 0 0 1 3.43 1.72v-1.44h2.09m-2.09 4.82a3.13 3.13 0 1 0-3.13 3.08 3 3 0 0 0 3.13-3.08zM109.24 44.01v2.31a2.61 2.61 0 0 0-3 2.76v5h-2.13v-9.89h2.13v1.66a3.11 3.11 0 0 1 3-1.84M111.31 41.34a1.36 1.36 0 1 1 1.36 1.36 1.36 1.36 0 0 1-1.36-1.36m.3 2.84h2.13v9.91h-2.13zM124.15 51.26c0 2-1.72 3-3.85 3a4.11 4.11 0 0 1-4-2.31l1.83-1.06a2.17 2.17 0 0 0 2.19 1.42c1 0 1.68-.32 1.68-1.1 0-1.76-5.3-.77-5.3-4.3 0-1.85 1.6-3 3.61-3a4 4 0 0 1 3.65 2.05l-1.79 1a1.91 1.91 0 0 0-1.85-1.12c-.77 0-1.44.34-1.44 1 0 1.81 5.29.73 5.29 4.37M126 49.09a5.09 5.09 0 0 1 5.2-5.19 4.89 4.89 0 0 1 4.4 2.54l-1.83 1.06a2.75 2.75 0 0 0-2.58-1.52 3.1 3.1 0 0 0 0 6.19 2.89 2.89 0 0 0 2.62-1.52l1.83 1.05a5 5 0 0 1-4.44 2.56 5.07 5.07 0 0 1-5.2-5.17M137.68 41.34A1.36 1.36 0 1 1 139 42.7a1.36 1.36 0 0 1-1.36-1.36m.3 2.84h2.13v9.91H138zM148.19 52.35a3 3 0 0 0 2.54-1.26l1.75 1a5 5 0 0 1-4.32 2.15 5.19 5.19 0 1 1-.16-10.31 5 5 0 0 1 5 5.2 6.4 6.4 0 0 1-.08.89H145a3 3 0 0 0 3.16 2.33m2.62-4.07a2.74 2.74 0 0 0-2.78-2.42 2.87 2.87 0 0 0-3 2.42zM164.59 47.99v6.1h-2.13V48.2a2.06 2.06 0 0 0-2.21-2.29c-1.4 0-2.51.83-2.51 2.84v5.28h-2.13v-9.86h2.13v1.26a3.41 3.41 0 0 1 3.06-1.52c2.21 0 3.79 1.52 3.79 4.08M167.12 49.09a5.09 5.09 0 0 1 5.2-5.19 4.89 4.89 0 0 1 4.4 2.54l-1.83 1.06a2.75 2.75 0 0 0-2.58-1.52 3.1 3.1 0 0 0 0 6.19 2.89 2.89 0 0 0 2.62-1.52l1.83 1.05a5 5 0 0 1-4.44 2.56 5.07 5.07 0 0 1-5.2-5.17M183.76 52.35a3 3 0 0 0 2.54-1.26l1.75 1a5 5 0 0 1-4.32 2.15 5.19 5.19 0 1 1-.15-10.38 5 5 0 0 1 4.95 5.2 6.4 6.4 0 0 1-.08.89h-7.85a3 3 0 0 0 3.16 2.33m2.62-4.07a2.74 2.74 0 0 0-2.82-2.42 2.87 2.87 0 0 0-3 2.42z"/></symbol><symbol id="drop" viewBox="0 0 36.21 50"><path d="M33.66 22.66C30 15.88 18.35 9.47 18.11.3V0v.4C17.75 9.53 6.23 15.91 2.55 22.65a18.1 18.1 0 1 0 33.66 9.24 18 18 0 0 0-2.55-9.23"/></symbol><symbol id="logo-Agrisure_RW_Brandmark_WH" viewBox="0 0 433.29 84.12"><g fill="#fff"><path d="M357.58 50.8h-2.08v16.28h-9.31V22.4h11.12c5.83 0 9.51.67 12.33 2.27a12.88 12.88 0 0 1 6.5 11.19 14.23 14.23 0 0 1-9.38 13.54c3.82 5.49 8.37 11.52 13.53 17.62v.13a7.44 7.44 0 0 1-3.48.81c-5.83 0-9.25-1.41-12.46-6.5zm0-21.24h-2.08v14.68h1.81c5.83 0 9.45-2.35 9.45-7.77 0-4.56-2.76-6.91-9.18-6.91zM413.32 67.08l-6.63-30.48h-.14l-6.7 30.48H389.2c-1.21-4.42-3.68-12.66-5.16-20l-5.36-24.28v-.14a7.63 7.63 0 0 1 3.49-.8c6.16 0 6.76 3.62 7.77 9l4.62 25.67h.14l7-34.17h9.92l6.77 33.9h.13c2.55-12 5.5-24.59 5.5-30.62a7.78 7.78 0 0 0-.41-2.82v-.13a9.27 9.27 0 0 1 4.63-1.07c4 0 5.09 2 5.09 5.22 0 4.09-6.3 29.55-9.52 40.2zM87.14 21.86h11.08L117 67.22h-11.3l-4.35-10.54H84.08l-4.35 10.54H68.37zm-.89 26.72h12.92l-6.46-15.84zM150.45 66.94a17.28 17.28 0 0 1-.68 4.93 11.69 11.69 0 0 1-1.84 3.78 8.47 8.47 0 0 1-3.77 2.58 21.13 21.13 0 0 1-6.43.75h-18.16v-7.07h16.94a11.64 11.64 0 0 0 2.49-.21 2.82 2.82 0 0 0 1.47-.71 2.88 2.88 0 0 0 .71-1.43 10.83 10.83 0 0 0 .2-2.34H133a21.63 21.63 0 0 1-6.63-.85 13.26 13.26 0 0 1-4.73-2.83 15 15 0 0 1-3.7-5.57 20.31 20.31 0 0 1-1.26-7.35q0-9.45 6-13.66a13.89 13.89 0 0 1 4.59-2.21 24.39 24.39 0 0 1 6.16-.65h17zm-16.66-25.77q-7.83 0-7.82 9.52t8.29 9.45h7.07v-19zM171 34.1a28.85 28.85 0 0 1 6.39.54 8.49 8.49 0 0 1 3.81 2 7.31 7.31 0 0 1 2.11 3.4 21 21 0 0 1 .61 5.78v3.26h-8.77v-1.79q0-3.52-1.26-4.83t-4.59-1.29h-2.65v26.05h-9.11V34.1zM187.23 21.86h9.12v8.84h-9.12zm9.12 12.24v33.12h-9.12V34.1zM232.45 41.17h-16.18a9.31 9.31 0 0 0-4.05.58 2.52 2.52 0 0 0-1 2.35 3.06 3.06 0 0 0 1.56 2.78 3.65 3.65 0 0 0 1.43.38c.63.07 1.61.1 2.92.1h5.38q5.5 0 8.46 2.45a8.58 8.58 0 0 1 3 7 11.3 11.3 0 0 1-.41 3 13 13 0 0 1-1.12 2.75 10.27 10.27 0 0 1-1.7 2.28 6.43 6.43 0 0 1-2.14 1.46q-1.85.89-7.41.89h-18.86v-7.05h16.18q2.25 0 3.27-.06a12 12 0 0 0 1.63-.21 1.72 1.72 0 0 0 1.19-.87 3.12 3.12 0 0 0 .44-1.66 3.47 3.47 0 0 0-.44-1.77 2.58 2.58 0 0 0-1.26-1.09 3.27 3.27 0 0 0-1.29-.34c-.54 0-1.38-.07-2.52-.07H214a22.14 22.14 0 0 1-5.07-.44 8.73 8.73 0 0 1-3.3-1.6 9.06 9.06 0 0 1-2.75-3.53 11.36 11.36 0 0 1-1-4.76 10.49 10.49 0 0 1 1-4.59 9.5 9.5 0 0 1 2.79-3.51 7 7 0 0 1 2.82-1.22 23.44 23.44 0 0 1 4.51-.32h19.44zM261 34.1h9.11v33.12h-17.94c-1.31 0-2.46 0-3.43-.14a15.63 15.63 0 0 1-2.59-.44 8.81 8.81 0 0 1-2-.82 12.08 12.08 0 0 1-1.77-1.26q-3.47-3.26-3.47-10.06V34.1H248v21.28a5 5 0 0 0 1.15 3.51 4.12 4.12 0 0 0 3.2 1.25H261zM290.93 34.1a28.85 28.85 0 0 1 6.39.54 8.49 8.49 0 0 1 3.81 2 7.31 7.31 0 0 1 2.11 3.4 21 21 0 0 1 .61 5.78v3.26h-8.77v-1.79q0-3.52-1.26-4.83t-4.59-1.29h-2.65v26.05h-9.11V34.1zM335.2 54.16H316a7.83 7.83 0 0 0 .68 3 5.29 5.29 0 0 0 1.79 1.84 5.6 5.6 0 0 0 2.18.92 18.76 18.76 0 0 0 3.4.23h11.15v7.08h-12.1a25.12 25.12 0 0 1-6.43-.68 13.39 13.39 0 0 1-4.73-2.45q-6-4.56-6-13.87a18.87 18.87 0 0 1 1.73-8.06 13.37 13.37 0 0 1 4.73-5.68 12.76 12.76 0 0 1 4.25-1.84 26.05 26.05 0 0 1 5.75-.54h12.8v7.07h-12.1a15.51 15.51 0 0 0-3.13.27 4.79 4.79 0 0 0-2.11 1 4.4 4.4 0 0 0-1.26 1.83 10.59 10.59 0 0 0-.58 2.86h19.18zM332.8 29.46a3.23 3.23 0 1 1 3.2 3.22 3.2 3.2 0 0 1-3.2-3.22zm.52 0a2.7 2.7 0 1 0 2.7-2.69 2.7 2.7 0 0 0-2.7 2.69zm4.18 1.84h-.6l-.9-1.68h-.67v1.68h-.52v-3.63h1.52c.66 0 1.25.2 1.25 1a.92.92 0 0 1-1 1zm-2.2-3.1v.9h.56c.49 0 1.16.08 1.16-.41s-.38-.49-.82-.49zM0 84.12s29.51-48.89 53.8-59.18c.45-.2-42.7 4.18-53.8 59.18"/><path d="M1.85 36.02l44.62 31.29L43.04 0l-5.11 49.66L1.85 36.02z"/></g></symbol><symbol id="logo-HX1_shield_WH" viewBox="0 0 119.55 118.9"><path fill="#fff" d="M15.26 9.19h2.97l1.9-8.91h-2.97l-.68 3.18h-4.51l.68-3.18H9.68l-1.9 8.91h2.97l.8-3.73h4.5l-.79 3.73zM20.68 9.19h8.93l.41-1.92h-5.96l.34-1.61h5.58l.4-1.85H24.8l.34-1.61h5.95L31.5.28h-8.92l-1.9 8.91zM36 2.27h2.86c.72 0 1 .38.9 1a1.22 1.22 0 0 1-1.32 1h-2.91zm-4.49 6.92h3l.63-3h2.72c.75 0 1.16.25.86 1.65a3.52 3.52 0 0 0-.11 1.32h3.26c-.28-.45-.21-1 0-2.77.13-1-.21-1.41-.73-1.6a2.48 2.48 0 0 0 1.86-2c.31-1.49-.27-2.48-2.46-2.48H33.4zM51.94 5.76a2.75 2.75 0 0 1-2.7 1.71c-1.92 0-2.2-1.26-1.89-2.74A3 3 0 0 1 50.4 2c1.69 0 1.9 1.07 1.94 1.71h3.3C55.65.62 53.54 0 50.81 0c-3.87 0-6 1.75-6.61 4.73s.8 4.73 4.6 4.73c4.22 0 5.66-1.78 6.43-3.7zM56.93 6c-.52 2.46 1.12 3.42 4.28 3.42S66.42 8.5 67 6L68.17.28h-3l-1.09 5.28a2.13 2.13 0 0 1-2.44 1.91C60.28 7.47 59.7 7 60 5.56L61.13.28h-3zM68.6 9.19H77l.44-2.07h-5.43L73.47.28H70.5l-1.9 8.91zM78.74 9.19h8.93l.4-1.92h-5.95l.34-1.61h5.58l.39-1.85h-5.58l.35-1.61h5.95l.41-1.92h-8.93l-1.89 8.91z"/><path fill="#fff" d="M81.87 15.96h.57l12.12-9.47 1.32 2.7h3.68l-2.88-4.63 5.58-4.28h-4.75l-2.14 2.39L94.24.28h-3.53l2.55 4.28-11.39 11.4zM110.6.29h2.4l-2.29 8.91h-2.37z"/><path d="M106.83 7.67h5.64L112 9.2h-5.64zM108.71.27h5.64l-.49 1.52h-5.64zM11.87 17.17h.85l.87-4.09h-.86l-.86 4.09zM14.18 17.17H15l.35-1.63a1.13 1.13 0 0 1 1.13-.88c.65 0 .68.37.61.7l-.38 1.81h.79l.44-2.06c.17-.82-.41-1.06-1.07-1.06a1.81 1.81 0 0 0-1.31.54l.1-.46h-.79zM18.88 16.22c-.17.93.82 1.06 1.47 1.06.94 0 1.74-.26 1.9-1s-.48-.81-1.45-.95c-.74-.11-.8-.15-.75-.39s.31-.35.76-.35c.27 0 .79 0 .75.5h.83c.16-1-1-1-1.43-1s-1.54.11-1.72 1c-.15.69.32.8 1.23.93s1 .19.9.42-.52.39-.91.39-.8-.06-.72-.52zM27.13 15.85v-.11c.18-.89-.15-1.72-1.5-1.72a2.12 2.12 0 0 0-2.18 1.66c-.17.81.17 1.6 1.54 1.6a2.27 2.27 0 0 0 1.95-1h-.86a1.12 1.12 0 0 1-1 .44c-.79 0-.91-.52-.85-.86zm-2.76-.5a1.28 1.28 0 0 1 1.19-.79c.39 0 .89.18.85.79zM32 15.2c.05-1-1-1.18-1.42-1.18a2.11 2.11 0 0 0-2.22 1.63c-.18.84.17 1.63 1.53 1.63a2 2 0 0 0 1.9-1.28H31a1.09 1.09 0 0 1-1.09.67c-.68 0-.86-.5-.75-1a1.26 1.26 0 0 1 1.28-1c.45 0 .72.26.71.58zM33.19 16.32c-.13.57-.12.92.84.92a4.1 4.1 0 0 0 .62 0l.12-.57h-.57c-.27 0-.25-.19-.17-.54l.29-1.38h.83l.12-.58h-.83l.2-.94h-.79l-.2.94H33l-.12.58h.63zM40.23 13.72h1.45c.33 0 .66.13.55.63s-.4.62-.88.62H40zm-1.59 3.45h.86l.33-1.56h1.67a1.58 1.58 0 0 0 1.59-1.26c.14-.66-.06-1.27-1.06-1.27h-2.52zM43.72 17.17h.79l.31-1.47a1.15 1.15 0 0 1 1.18-.91 1.34 1.34 0 0 1 .49.07l.17-.78a1.48 1.48 0 0 0-.31 0 1.65 1.65 0 0 0-1.29.67l.13-.59h-.8zM48.11 15.65a1.23 1.23 0 0 1 1.27-1 .76.76 0 0 1 .83 1 1.23 1.23 0 0 1-1.27 1 .76.76 0 0 1-.83-1zm-.83 0c-.18.84.18 1.63 1.53 1.63A2.09 2.09 0 0 0 51 15.65c.18-.84-.17-1.63-1.53-1.63a2.09 2.09 0 0 0-2.19 1.63zM52.37 16.32c-.12.57-.12.92.85.92a4 4 0 0 0 .61 0l.12-.57h-.57c-.26 0-.24-.19-.17-.54l.3-1.38h.82l.12-.58h-.82l.2-.94H53l-.2.94h-.63l-.12.58h.63zM58.87 15.85v-.11c.19-.89-.15-1.72-1.49-1.72a2.14 2.14 0 0 0-2.19 1.66c-.17.81.17 1.6 1.54 1.6a2.28 2.28 0 0 0 2-1h-.86a1.15 1.15 0 0 1-1 .44c-.78 0-.9-.52-.85-.86zm-2.76-.5a1.27 1.27 0 0 1 1.18-.79c.39 0 .89.18.86.79zM63.69 15.2c.05-1-1-1.18-1.42-1.18A2.12 2.12 0 0 0 60 15.65c-.17.84.18 1.63 1.54 1.63a2 2 0 0 0 2-1.27h-.82a1.09 1.09 0 0 1-1.09.67c-.68 0-.86-.5-.75-1a1.26 1.26 0 0 1 1.27-1c.45 0 .73.26.72.58zM64.92 16.32c-.12.57-.12.92.85.92a4 4 0 0 0 .61 0l.12-.57h-.57c-.27 0-.24-.19-.17-.54l.3-1.38h.82l.12-.58h-.82l.2-.94h-.79l-.2.94h-.63l-.12.58h.63zM67.57 17.17h.79l.64-3h-.79zm.75-3.52h.79l.13-.64h-.79zM70.76 15.65a1.23 1.23 0 0 1 1.27-1 .77.77 0 0 1 .84 1 1.25 1.25 0 0 1-1.28 1 .76.76 0 0 1-.83-1zm-.83 0c-.18.84.18 1.63 1.53 1.63a2.09 2.09 0 0 0 2.23-1.63c.18-.84-.17-1.63-1.53-1.63a2.09 2.09 0 0 0-2.23 1.63zM74.6 17.17h.79l.35-1.63a1.11 1.11 0 0 1 1.13-.88c.65 0 .68.37.61.7l-.38 1.81h.79l.43-2.06c.18-.82-.41-1.06-1.06-1.06a1.81 1.81 0 0 0-1.31.54l.09-.46h-.79zM2.27 24.79h.24L.3 21.84H0z" fill="#fff"/><path d="M2.28 24.79h6.15l-1.54-2.95H.07z" fill="#fff"/><path d="M8.25 24.79h.31L7 21.84h-.29z" fill="#fff"/><path d="M8.56 24.79h16.71l-.76-2.95H7z" fill="#fff"/><path d="M25.27 24.79H47.8l-.24-2.95h-23zM47.8 24.79h19l.1-2.95H47.56z" fill="#fff"/><path d="M66.79 24.79H84l.42-2.95H66.89z" fill="#fff"/><path d="M84 24.79h15.16l.82-2.95H84.42zM99.16 24.79h14.3l1.54-2.95h-15z" fill="#fff"/><path d="M113.46 24.79h4l2-2.95H115zM2.52 29.16c0 .2 0 .39.07.59L.32 27.58c0-.22 0-.45-.07-.67zM2.27 24.79v.51L0 22.44v-.6z" fill="#fff"/><path d="M2.28 25.3v.52L0 23.05v-.61z" fill="#fff"/><path d="M2.29 25.82v.53L0 23.67v-.62z" fill="#fff"/><path d="M2.31 26.35v.54L.06 24.3v-.63z" fill="#fff"/><path d="M2.34 26.89v.56L.1 24.94v-.64z" fill="#fff"/><path d="M2.37 27.45v.56L.14 25.59v-.65z" fill="#fff"/><path d="M2.41 28v.57L.2 26.24l-.06-.65z" fill="#fff"/><path d="M2.46 28.58l.06.58-2.27-2.25v-.67zM2.59 29.75c0 .2 0 .4.07.6L.4 28.26c0-.22-.05-.45-.08-.68z" fill="#fff"/><path d="M2.66 30.35c0 .2 0 .41.08.61L.48 29c0-.24-.06-.47-.08-.7zM2.74 31l.09.62-2.26-1.96L.48 29z" fill="#fff"/><path d="M2.83 31.58c0 .21.06.42.1.63L.67 30.36c0-.23-.07-.47-.1-.7z" fill="#fff"/><path d="M2.93 32.21c0 .21.06.42.1.64L.78 31.08c0-.24-.08-.48-.11-.72zM3 32.85c0 .21.07.42.11.64L.89 31.8c0-.24-.08-.48-.11-.72z" fill="#fff"/><path d="M3.14 33.49l.12.65L1 32.53l-.11-.73z" fill="#fff"/><path d="M3.26 34.14l.12.66-2.24-1.53c0-.25-.09-.49-.13-.74z" fill="#fff"/><path d="M3.38 34.8c0 .23.09.45.13.67L1.28 34c-.05-.25-.1-.5-.14-.75zM3.51 35.47c.05.23.1.45.14.68l-2.23-1.38c0-.25-.1-.5-.14-.75z" fill="#fff"/><path d="M3.65 36.15l.15.69-2.23-1.31-.15-.76zM3.8 36.84l.15.69-2.22-1.24c-.05-.25-.11-.51-.16-.76z" fill="#fff"/><path d="M4 37.53c.06.23.11.46.17.7L1.9 37.06c-.06-.25-.11-.51-.17-.77z" fill="#fff"/><path d="M4.12 38.23c0 .23.11.47.17.7l-2.22-1.09c-.06-.26-.12-.52-.17-.78zM4.29 38.93c0 .24.11.48.17.72l-2.21-1-.18-.79z" fill="#fff"/><path d="M4.46 39.65c.06.24.12.48.19.72l-2.21-.95c-.06-.27-.13-.53-.19-.79z" fill="#fff"/><path d="M4.65 40.37l.18.72-2.19-.88c-.07-.26-.13-.53-.2-.79z" fill="#fff"/><path d="M4.83 41.09c.07.25.14.49.2.74L2.84 41c-.07-.27-.14-.54-.2-.81zM5 41.83l.21.74-2.19-.75-.18-.82z" fill="#fff"/><path d="M5.24 42.57c0 .12.07.24.1.37l-2.18-.71-.11-.41z" fill="#fff"/><path d="M5.34 42.94c0 .12.07.25.11.37l.11.38L3.38 43c0-.13-.11-.41-.11-.41s-.07-.27-.11-.4zM5.56 43.69c0 .12.07.25.11.37l.11.38.11.38-2.16-.55-.12-.41-.12-.41c0-.14-.07-.27-.11-.41z" fill="#fff"/><path d="M5.89 44.82l.11.38.11.38.12.38-2.15-.45L4 45.1l-.12-.41-.12-.42z" fill="#fff"/><path d="M6.24 46l.12.39s.08.25.13.38l.12.39s.08.25.13.38l-2.14-.35c0-.14-.13-.42-.13-.42l-.13-.42-.13-.42-.12-.42z" fill="#fff"/><path d="M6.74 47.5l.12.39.13.39s.09.26.13.39l.13.4.14.39s.09.26.13.39.1.27.14.4l.14.4.14.39s.1.27.14.4l.15.4s.1.27.14.4l.15.4.15.4.15.41.15.4s.11.27.16.41l.15.4s.11.27.16.41l-2 .24-.16-.43-.16-.43C7 54.3 6.91 54 6.91 54l-.16-.43-.15-.43c-.06-.15-.16-.43-.16-.43l-.15-.43-.15-.43-.14-.42-.16-.43c0-.14-.14-.43-.14-.43l-.15-.42c0-.15-.14-.43-.14-.43l-.14-.42c0-.15-.14-.43-.14-.43L5 48.45 4.86 48l-.13-.42c-.05-.14-.09-.28-.13-.42z" fill="#fff"/><path d="M9.44 55.07l.16.4.16.41s.11.27.16.41l.17.41s.11.27.16.41l.17.41.17.41.17.41s.11.28.17.41l-2 .5-.17-.44-.18-.44-.17-.44-.18-.44c-.05-.14-.17-.43-.17-.43l-.17-.44c0-.14-.17-.44-.17-.44l-.16-.43-.17-.44zM10.93 58.75l.17.41.18.42.18.41.18.42s.11.27.18.41l.18.41.18.42-1.95.68c-.07-.15-.19-.44-.19-.44l-.19-.44-.19-.45-.18-.44-.19-.44-.18-.43-.18-.44zM12.18 61.65c.06.14.12.28.19.41l.18.42.19.42s.13.27.19.41l.19.42.19.42.2.41.19.42-1.9.88c-.06-.15-.2-.44-.2-.44l-.2-.42-.2-.45c-.07-.14-.2-.44-.2-.44-.06-.15-.19-.44-.19-.44l-.2-.44c-.06-.15-.19-.44-.19-.44-.07-.15-.13-.3-.19-.44z" fill="#fff"/><path d="M13.7 65l.2.42.2.42s.13.28.2.41l.2.42s.14.28.2.42l.21.42.21.42.21.42.2.41.22.42.21.42.21.42.22.42.22.41.21.42.22.42.23.42.22.41.22.42.23.42.23.41.23.42s.15.28.23.41l.23.42.23.42.24.41s.16.28.23.42l.24.41.24.41.24.41.24.42.25.41.24.41-1.62 1.61-.26-.43-.25-.44-.25-.48-.25-.43-.25-.44-.25-.43-.24-.43-.25-.44-.24-.44-.24-.39-.24-.44-.24-.44-.23-.43-.2-.45-.23-.44-.23-.44-.23-.44-.31-.44-.19-.48-.22-.44-.23-.44-.22-.44c-.07-.15-.22-.44-.22-.44-.07-.15-.22-.44-.22-.44l-.21-.45c-.08-.14-.22-.44-.22-.44l-.21-.44c-.08-.15-.22-.44-.22-.44l-.21-.44-.21-.44-.21-.45-.21-.4-.21-.44z" fill="#fff"/><path d="M21 78.72l.25.41.25.41.25.41.25.41.25.41.25.4L21 82.9l-.27-.43-.31-.47-.26-.42c-.08-.15-.26-.43-.26-.43l-.26-.43-.25-.43z" fill="#fff"/><path d="M22.51 81.17l.26.41.23.42.25.4.26.4s.18.27.26.41L22.29 85l-.29-.4-.27-.43-.27-.42-.27-.42-.19-.43zM23.8 83.2l.27.4.26.4.26.4.27.4.27.4-1.46 1.92c-.1-.14-.28-.42-.28-.42l-.28-.42-.27-.42c-.1-.14-.28-.42-.28-.42l-.27-.44z" fill="#fff"/><path d="M25.13 85.2l.27.4.27.4.27.39.27.4-1.42 2-.28-.41-.28-.38c-.1-.14-.28-.42-.28-.42l-.28-.41z" fill="#fff"/><path d="M26.21 86.79l.28.39.27.4.24.42-1.38 2c-.1-.13-.29-.41-.29-.41l-.29-.41-.29-.41z" fill="#fff"/><path d="M27 88l.28.39.28.39.28.39-1.35 2.08-.29-.4-.2-.44c-.1-.13-.2-.27-.29-.41zM27.88 89.14l.28.39.57.77-1.31 2.13c-.2-.26-.59-.8-.59-.8l-.3-.41z" fill="#fff"/><path d="M28.73 90.3c.19.25.38.51.58.76 0 0 .38.51.58.76L28.62 94l-.6-.8-.6-.8z" fill="#fff"/><path d="M29.89 91.82c.19.26.39.51.58.76l-1.24 2.23-.61-.81z" fill="#fff"/><path d="M30.47 92.58l.59.75.6.74-1.19 2.3-.62-.78-.62-.78z" fill="#fff"/><path d="M31.66 94.07l.6.74-1.17 2.33c-.21-.26-.42-.51-.62-.77zM32.26 94.81l.6.73-1.13 2.36c-.22-.25-.43-.51-.64-.76z" fill="#fff"/><path d="M32.86 95.54l.61.73.62.72L33 99.41l-.65-.75-.63-.76zM34.09 97l.62.71-1.06 2.45-.65-.75z" fill="#fff"/><path d="M34.71 97.7l.63.7-1 2.48-.66-.73z" fill="#fff"/><path d="M35.34 98.4l.31.35-1 2.5-.33-.37z" fill="#fff"/><path d="M35.65 98.75c.11.12.21.24.32.35l.32.35.32.34-1 2.54-.31-.33-.33-.36-.33-.36zM36.61 99.79c.1.12.21.23.32.35l.32.34.32.34-.93 2.57c-.12-.11-.34-.35-.34-.35l-.34-.35-.33-.36z" fill="#fff"/><path d="M37.57 100.82l.32.33.33.34.32.33-.88 2.62-.35-.35-.33-.34-.34-.36z" fill="#fff"/><path d="M38.54 101.82l.33.33.33.33.33.33-.84 2.66-.35-.34-.34-.34-.34-.35zM39.53 102.81l.33.33.33.32.34.32-.8 2.7-.35-.34-.35-.33c-.11-.12-.23-.23-.34-.34z" fill="#fff"/><path d="M40.53 103.78l.33.32.34.31.33.32.34.31-.74 2.75-.35-.32-.35-.33-.35-.33-.35-.33z" fill="#fff"/><path d="M41.87 105l.34.31.34.31.34.3.35.31-.68 2.8-.36-.32-.36-.32-.35-.32-.36-.32zM43.24 106.27l.34.3.34.3.35.29.35.3.35.29.35.29.35.28-.56 2.89-.37-.3-.37-.3-.36-.3-.37-.31-.36-.31-.36-.31-.36-.31z" fill="#fff"/><path d="M45.67 108.32l.35.29.35.28.36.28.35.27.36.28.36.27.35.27.36.26.36.27.37.26.36.25-.37 3-.38-.27-.38-.27-.38-.28-.38-.28-.37-.28-.38-.28-.37-.28-.37-.29-.37-.29-.37-.3c-.13-.09-.25-.19-.37-.29zM49.6 111.3l.36.26.37.25.37.25.36.25.37.24.37.24-.26 3.08-.39-.25-.39-.25-.38-.26-.39-.26-.38-.27-.38-.26zM51.8 112.79l.37.24.37.24.38.23-.21 3.11-.39-.24-.39-.25-.39-.25zM52.92 113.5l.37.23.38.22.37.23-.15 3.14-.39-.23-.4-.24-.39-.24z" fill="#fff"/><path d="M54 114.18l.38.22.38.21-.12 3.17-.39-.23c-.14-.07-.27-.15-.4-.23zM54.8 114.61c.12.08.25.15.38.22l.38.21-.08 3.19-.4-.23-.4-.22z" fill="#fff"/><path d="M55.56 115l.38.21.38.2v3.21l-.4-.21-.4-.22zM102.82 67.22c-.08.15-.17.29-.25.43l1.78 1.09c.09-.15.18-.3.26-.45zM117.43 24.79v.49l2-2.86v-.58zM117.47 25.28v.5l2-2.77v-.59zM117.49 25.78v.5l2-2.67v-.6zM117.51 26.28v.52l2-2.58v-.61z" fill="#fff"/><path d="M117.51 26.8v.54l2-2.51v-.61z" fill="#fff"/><path d="M117.5 27.34v.54l2-2.41v-.64z" fill="#fff"/><path d="M117.48 27.88v.56l2-2.33v-.64z" fill="#fff"/><path d="M117.45 28.44V29l2.06-2.24v-.65z" fill="#fff"/><path d="M117.4 29c0 .19 0 .38-.05.58l2.06-2.16v-.66z" fill="#fff"/><path d="M117.35 29.58l-.06.59 2.06-2.08.06-.67z" fill="#fff"/><path d="M117.29 30.17c0 .19-.05.39-.08.59l2.07-2c0-.23 0-.45.07-.68z" fill="#fff"/><path d="M117.21 30.76l-.09.61 2.08-1.91c0-.23.06-.46.08-.69z" fill="#fff"/><path d="M117.12 31.37L117 32l2.08-1.83.09-.7zM117 32c0 .21-.07.42-.11.63l2.11-1.76c0-.24.07-.47.11-.71z" fill="#fff"/><path d="M116.92 32.62l-.12.64 2.08-1.67c.05-.24.08-.48.12-.72z" fill="#fff"/><path d="M116.8 33.26l-.12.64 2.08-1.59c0-.24.09-.48.12-.72zM116.68 33.9c-.05.22-.09.44-.14.66l2.08-1.51c0-.25.1-.49.14-.74zM116.54 34.56l-.15.67 2.09-1.44c0-.25.1-.5.14-.74z" fill="#fff"/><path d="M116.39 35.23c0 .22-.1.44-.16.67l2.09-1.36c.05-.25.11-.5.16-.75z" fill="#fff"/><path d="M116.23 35.9c0 .22-.11.45-.16.68l2.08-1.28c.06-.25.11-.51.17-.76z" fill="#fff"/><path d="M116.07 36.58l-.18.69 2.08-1.2.18-.77zM115.89 37.27l-.19.7 2.08-1.13c.07-.26.13-.52.19-.77zM115.7 38l-.2.71 2.09-1.06c.06-.26.13-.52.19-.78z" fill="#fff"/><path d="M115.5 38.68c-.06.24-.13.47-.21.71l2.09-1 .21-.79zM115.29 39.39l-.21.73-.23.73 2.08-.85.23-.8c.07-.27.14-.53.22-.79zM114.85 40.85c0 .12-.07.24-.11.36l2.07-.81.12-.4zM114.74 41.21l-.12.37-.12.37s-.09.25-.13.38l2.07-.71c0-.14.13-.41.13-.41l.12-.4.12-.41zM114.37 42.33l-.12.37s-.09.25-.13.38l2.06-.64.14-.41.12-.41zM114.12 43.08c-.05.12-.09.25-.13.37s-.09.26-.14.38l2.07-.57.13-.41c0-.14.09-.27.13-.41zM113.85 43.83c0 .13-.09.26-.13.38l-.14.39 2.06-.51c0-.13.14-.41.14-.41l.14-.42z" fill="#fff"/><path d="M113.58 44.6c0 .12-.09.25-.14.38l2.06-.47c0-.14.09-.28.14-.42zM113.44 45l-.14.39 2-.44.15-.42z" fill="#fff"/><path d="M113.3 45.37l-.15.38 2.06-.4c.05-.14.09-.28.14-.42z" fill="#fff"/><path d="M113.15 45.75c0 .13-.09.26-.14.39l2-.37.15-.42z" fill="#fff"/><path d="M113 46.14l-.15.39 2-.34.15-.42zM112.86 46.53l-.15.39 2-.31.16-.42z" fill="#fff"/><path d="M112.71 46.92l-.15.39 2-.27.15-.43zM112.56 47.31l-.16.4 2-.25c0-.14.1-.28.16-.42z" fill="#fff"/><path d="M112.4 47.71c-.05.13-.1.26-.16.39l2-.21c0-.14.11-.28.16-.43z" fill="#fff"/><path d="M112.24 48.1c0 .13-.1.27-.16.4l2-.18c0-.14.1-.29.16-.43zM112.08 48.5c0 .13-.1.26-.16.39l2-.14c.06-.14.11-.29.17-.43zM111.92 48.89c0 .14-.11.27-.16.4l2-.11c.06-.14.12-.29.17-.43z" fill="#fff"/><path d="M111.76 49.29c-.06.14-.11.27-.17.4l2-.08c.06-.14.12-.29.17-.43z" fill="#fff"/><path d="M111.59 49.69c0 .14-.11.27-.17.4l2-.05c.06-.14.12-.29.17-.43zM111.42 50.09c0 .14-.11.27-.17.41h2c.06-.14.11-.28.17-.43z" fill="#fff"/><path d="M111.25 50.5c0 .13-.11.27-.17.4h2l.18-.44z" fill="#fff"/><path d="M111.08 50.9c-.06.14-.12.27-.17.4h2l.18-.43zM110.91 51.3l-.18.41 2 .07.18-.44zM110.73 51.71l-.18.41 2 .09.18-.43z" fill="#fff"/><path d="M110.55 52.12l-.18.4 2 .13.18-.44z" fill="#fff"/><path d="M110.37 52.52l-.18.41 2 .16c.06-.15.12-.29.19-.44z" fill="#fff"/><path d="M110.19 52.93c-.06.14-.13.28-.19.41l2 .19c.06-.15.13-.29.19-.44z" fill="#fff"/><path d="M110 53.34l-.18.41 2 .22c.06-.15.13-.29.19-.44z" fill="#fff"/><path d="M109.82 53.75c-.07.14-.13.28-.19.41l2 .25.2-.44zM109.63 54.16c-.07.14-.13.28-.19.42l2 .27c.06-.15.13-.29.19-.44z" fill="#fff"/><path d="M109.44 54.58c-.07.13-.13.27-.2.41l2 .3.2-.44zM109.24 55c-.06.14-.13.28-.19.41l2 .34.2-.45z" fill="#fff"/><path d="M109.05 55.4l-.2.42 2 .36c.07-.15.13-.3.2-.44z" fill="#fff"/><path d="M108.85 55.82c-.06.14-.13.27-.2.41l2 .39c.06-.15.13-.29.2-.44z" fill="#fff"/><path d="M108.65 56.23c-.06.14-.13.28-.2.42l2 .42.21-.45zM108.45 56.65l-.2.42 1.94.44.21-.44zM108.25 57.07l-.21.41L110 58l.21-.45zM108 57.48c-.06.14-.13.28-.2.42l1.93.5.27-.4z" fill="#fff"/><path d="M107.84 57.9l-.21.42 1.93.53.21-.45zM107.63 58.32l-.21.42 1.92.56c.07-.15.14-.3.22-.45z" fill="#fff"/><path d="M107.42 58.74l-.21.42 1.91.58c.07-.15.15-.29.22-.44z" fill="#fff"/><path d="M107.21 59.16c-.08.14-.15.28-.22.42l1.91.61.22-.45z" fill="#fff"/><path d="M107 59.58l-.21.42 1.9.64.22-.45zM106.78 60c-.08.14-.15.28-.22.42l1.89.67c.08-.15.16-.3.23-.45z" fill="#fff"/><path d="M106.56 60.42l-.22.43 1.89.69.22-.45zM106.34 60.85c-.08.14-.15.28-.22.42L108 62l.23-.45z" fill="#fff"/><path d="M106.12 61.27l-.23.42 1.88.74c.08-.14.15-.29.23-.44z" fill="#fff"/><path d="M105.89 61.69l-.22.43 1.87.76.23-.45z" fill="#fff"/><path d="M105.67 62.12c-.08.14-.16.28-.23.42l1.87.79c.07-.15.15-.3.23-.45zM105.44 62.54l-.23.43 1.86.81.24-.45zM105.21 63c-.08.14-.16.28-.23.42l1.85.84.24-.45z" fill="#fff"/><path d="M105 63.39c-.08.14-.16.28-.23.42l1.84.87.24-.45zM104.75 63.81l-.24.43 1.84.9.24-.46z" fill="#fff"/><path d="M104.51 64.24l-.24.42 1.84.93.24-.45zM104.27 64.66c-.07.15-.15.29-.23.43l1.82 1c.09-.15.17-.3.25-.45zM104 65.09l-.24.43 1.82 1 .24-.45z" fill="#fff"/><path d="M103.8 65.52c-.09.14-.17.28-.25.42l1.82 1c.08-.15.16-.3.25-.45z" fill="#fff"/><path d="M103.55 65.94l-.24.43 1.81 1c.08-.15.16-.3.25-.45z" fill="#fff"/><path d="M103.31 66.37l-.24.43 1.79 1 .26-.45z" fill="#fff"/><path d="M103.07 66.8c-.09.14-.17.28-.25.42l1.79 1.07c.09-.15.17-.3.25-.45zM102.57 67.65c-.08.14-.17.28-.25.43l1.78 1.11.25-.45z" fill="#fff"/><path d="M102.32 68.08l-.25.42 1.77 1.14c.08-.15.17-.3.26-.45z" fill="#fff"/><path d="M102.07 68.5l-.26.43 1.77 1.16c.08-.15.17-.3.26-.45z" fill="#fff"/><path d="M101.81 68.93c-.08.14-.17.28-.25.43l1.75 1.18.27-.45z" fill="#fff"/><path d="M101.56 69.36l-.26.42 1.75 1.22.26-.45z" fill="#fff"/><path d="M101.3 69.78l-.26.43 1.74 1.23.27-.45zM101 70.21c-.08.14-.17.28-.26.42l1.73 1.26.27-.45z" fill="#fff"/><path d="M100.78 70.63c-.08.15-.17.29-.26.43l1.72 1.28.27-.45zM100.52 71.06l-.26.43 1.71 1.3.27-.45z" fill="#fff"/><path d="M100.26 71.49l-.27.42 1.71 1.33.27-.45z" fill="#fff"/><path d="M100 71.91l-.27.43 1.7 1.34.28-.44zM99.72 72.34c-.08.14-.17.28-.26.42l1.68 1.37c.1-.15.19-.3.28-.45z" fill="#fff"/><path d="M99.46 72.76l-.27.43 1.68 1.39.27-.45z" fill="#fff"/><path d="M99.19 73.19c-.09.14-.18.28-.28.42l1.68 1.39.28-.44zM98.91 73.61l-.27.43 1.66 1.43.29-.45z" fill="#fff"/><path d="M98.64 74l-.27.42-.28.43 1.65 1.47.28-.44.28-.45zM98.09 74.89l-.28.42 1.64 1.5c.09-.15.19-.3.29-.45z" fill="#fff"/><path d="M97.81 75.31l-.28.42 1.63 1.52.29-.44zM97.53 75.73l-.28.43-.28.42 1.61 1.56.29-.45c.1-.14.19-.29.29-.44z" fill="#fff"/><path d="M97 76.58l-.28.42 1.6 1.58c.09-.15.19-.3.29-.44z" fill="#fff"/><path d="M96.69 77l-.29.42-.28.42 1.58 1.62.3-.46.3-.44z" fill="#fff"/><path d="M96.12 77.84l-.29.42 1.57 1.64.3-.44z" fill="#fff"/><path d="M95.83 78.26l-.29.42 1.56 1.66.3-.44z" fill="#fff"/><path d="M95.54 78.68l-.29.42-.3.41 1.54 1.71.31-.44.3-.44z" fill="#fff"/><path d="M95 79.51l-.29.42 1.53 1.73.3-.44zM94.66 79.93l-.29.42-.3.41 1.51 1.77.3-.44c.11-.14.21-.29.31-.43z" fill="#fff"/><path d="M94.07 80.76l-.3.42-.3.41 1.53 1.8.31-.43.31-.43zM93.47 81.59l-.3.42 1.48 1.82.31-.44z" fill="#fff"/><path d="M93.17 82l-.3.41-.31.41L94 84.69l.32-.43c.1-.15.2-.29.31-.43z" fill="#fff"/><path d="M92.56 82.83l-.3.41-.31.41 1.44 1.9.32-.43c.1-.15.21-.29.31-.43z" fill="#fff"/><path d="M92 83.65l-.3.41-.31.41 1.41 1.93.32-.43.32-.42zM91.34 84.47c-.11.13-.21.27-.31.4l1.4 2 .32-.43zM91 84.87c-.11.14-.21.28-.32.41l1.4 2 .32-.42z" fill="#fff"/><path d="M90.71 85.28l-.31.41-.31.4 1.37 2 .33-.42.32-.42z" fill="#fff"/><path d="M90.09 86.09l-.32.4-.31.4 1.34 2 .33-.42.33-.42zM89.46 86.89l-.32.4 1.34 2.06.32-.42z" fill="#fff"/><path d="M89.14 87.29l-.32.4 1.32 2.08.34-.42zM88.82 87.69l-.32.4-.32.4 1.3 2.11.33-.42c.11-.14.23-.27.33-.41z" fill="#fff"/><path d="M88.18 88.49l-.32.39-.33.4 1.28 2.14.33-.41.34-.41zM87.53 89.28l-.32.39-.33.39 1.25 2.18.34-.41.34-.41z" fill="#fff"/><path d="M86.88 90.06l-.33.39-.33.39-.32.39 1.21 2.22c.12-.13.34-.4.34-.4l.34-.41c.12-.13.23-.27.34-.4z" fill="#fff"/><path d="M85.9 91.23l-.33.38-.34.39 1.2 2.25.34-.4c.11-.13.23-.26.34-.4zM85.23 92l-.33.38-.33.38 1.16 2.29.35-.4.35-.4zM84.57 92.76l-.34.38-.34.38-.33.38 1.13 2.33.35-.39.34-.39.35-.4z" fill="#fff"/><path d="M83.56 93.9l-.34.37-.34.37L84 97l.35-.39.36-.39z" fill="#fff"/><path d="M82.88 94.64c-.11.13-.23.25-.34.37l-.34.37-.35.37 1.07 2.41c.12-.12.35-.38.35-.38l.36-.38.37-.4z" fill="#fff"/><path d="M81.85 95.75c-.11.12-.22.25-.34.37l-.34.36-.35.37 1 2.45.36-.38.36-.37.36-.39z" fill="#fff"/><path d="M80.82 96.85l-.35.36-.34.36 1 2.48.36-.37.36-.38z" fill="#fff"/><path d="M80.13 97.57c-.12.12-.24.23-.35.35l-.35.36 1 2.51.36-.37.36-.37z" fill="#fff"/><path d="M79.43 98.28l-.35.35 1 2.53.37-.37zM79.08 98.63l-.35.35-.36.35.93 2.56.37-.37.36-.36z" fill="#fff"/><path d="M78.37 99.33c-.11.12-.23.23-.35.35l-.35.34.9 2.59.36-.36.37-.36z" fill="#fff"/><path d="M77.67 100l-.36.35-.35.34.87 2.61.37-.36.37-.35z" fill="#fff"/><path d="M77 100.71l-.36.34.85 2.62.38-.35zM76.6 101.05l-.36.33-.36.34.83 2.65.37-.35.37-.35z" fill="#fff"/><path d="M75.88 101.72l-.35.33-.37.33.8 2.68.38-.35.37-.34z" fill="#fff"/><path d="M75.16 102.38l-.36.33-.36.32.77 2.7.38-.33.37-.34z" fill="#fff"/><path d="M74.44 103l-.36.33-.36.32.73 2.72.38-.33.38-.34zM73.72 103.68l-.37.32-.36.31.7 2.75.38-.33.38-.33z" fill="#fff"/><path d="M73 104.31l-.37.32-.36.31.67 2.77.38-.32.38-.33zM72.26 104.94l-.37.31-.37.3.64 2.8.39-.32.38-.32zM71.52 105.55l-.37.31.63 2.81.38-.32z" fill="#fff"/><path d="M71.15 105.86l-.37.3-.37.3.6 2.83.39-.31.38-.31zM70.41 106.46l-.37.29-.37.3.57 2.85.38-.3.39-.31z" fill="#fff"/><path d="M69.67 107.05l-.37.29.55 2.87.39-.31z" fill="#fff"/><path d="M69.3 107.34l-.37.28.53 2.88.39-.29z" fill="#fff"/><path d="M68.93 107.62l-.38.29.52 2.89.39-.3zM68.55 107.91l-.37.28.5 2.9.39-.29z" fill="#fff"/><path d="M68.18 108.19l-.38.28.49 2.92.39-.3zM67.8 108.47l-.37.28-.38.27.46 2.94.39-.29.39-.28z" fill="#fff"/><path d="M67.05 109l-.37.27.43 2.95.4-.28zM66.68 109.29l-.38.27.42 3 .39-.28z" fill="#fff"/><path d="M66.3 109.56l-.38.27.4 3 .4-.28z" fill="#fff"/><path d="M65.92 109.83l-.38.26.39 3 .39-.27z" fill="#fff"/><path d="M65.54 110.09l-.37.26-.38.26.35 3 .39-.27.4-.27z" fill="#fff"/><path d="M64.79 110.61l-.38.25.33 3 .4-.26z" fill="#fff"/><path d="M64.41 110.86l-.38.25.31 3 .4-.26zM64 111.11l-.39.25.31 3 .39-.26z" fill="#fff"/><path d="M63.64 111.36l-.38.24.29 3 .4-.25zM63.26 111.6c-.12.09-.25.17-.38.25l.27 3.05.4-.26z" fill="#fff"/><path d="M62.88 111.85l-.38.23.25 3.06.4-.24zM62.5 112.08l-.38.24.23 3.07.4-.25zM62.12 112.32l-.39.23.22 3.08.4-.24z" fill="#fff"/><path d="M61.73 112.55l-.38.23-.35.22.18 3.09.41-.23.4-.24z" fill="#fff"/><path d="M61 113l-.38.22.16 3.11.4-.24zM60.58 113.23c-.13.07-.26.14-.38.22l.14 3.12.4-.23z" fill="#fff"/><path d="M60.2 113.45l-.39.21.12 3.13.41-.22z" fill="#fff"/><path d="M59.81 113.66l-.39.22.11 3.13.4-.22zM59.42 113.88l-.38.2.09 3.15.4-.22zM59 114.08l-.39.21.07 3.16.41-.22z" fill="#fff"/><path d="M58.65 114.29l-.39.2.06 3.17.4-.21z" fill="#fff"/><path d="M58.26 114.49l-.39.2v3.17l.41-.2z" fill="#fff"/><path d="M57.87 114.69l-.38.2v3.18l.41-.21z" fill="#fff"/><path d="M57.49 114.89l-.39.19v3.19l.4-.2z" fill="#fff"/><path d="M57.1 115.08l-.39.19v3.2l.41-.2z" fill="#fff"/><path d="M56.71 115.27l-.39.18v3.21l.41-.19zM37.58 73.84h12.59l8.04-37.77H45.62l-2.87 13.49h-19.1l2.87-13.49H13.93L5.89 73.84h12.59l3.37-15.82h19.1l-3.37 15.82zM104.07.16a1.22 1.22 0 0 1 1.22 1.24 1.23 1.23 0 1 1-2.45 0 1.23 1.23 0 0 1 1.23-1.24zm0 .19a1 1 0 0 0-1 1 1 1 0 1 0 2 0 1 1 0 0 0-1-1.06zm-.23 1.78h-.22V.74a2.06 2.06 0 0 1 .39 0 .73.73 0 0 1 .43.1.35.35 0 0 1 .13.29.35.35 0 0 1-.28.34q.19 0 .24.33a.92.92 0 0 0 .09.35h-.24a1.37 1.37 0 0 1-.09-.36.26.26 0 0 0-.3-.24h-.15zm0-.77h.16c.18 0 .33-.07.33-.24s-.08-.24-.33-.24h-.16zM67.65 115.63a1.64 1.64 0 1 1-1.65 1.63 1.61 1.61 0 0 1 1.62-1.63zm0 .25a1.39 1.39 0 1 0 1.35 1.39 1.35 1.35 0 0 0-1.32-1.39zm-.3 2.33h-.29v-1.82a3.52 3.52 0 0 1 .51 0 1 1 0 0 1 .57.14.41.41 0 0 1 .16.37.43.43 0 0 1-.35.44c.16 0 .27.17.3.44a1.71 1.71 0 0 0 .12.45h-.3a1.22 1.22 0 0 1-.13-.46.33.33 0 0 0-.39-.32h-.2zm0-1h.21c.24 0 .44-.08.44-.31s-.12-.32-.44-.32h-.21zM36.21 100.27l2.32-1.8 46.35-35.62 5.62 11.12h15.61L93.88 54.34l23.68-18.16H97.42l-9.09 10.16-4.77-10.16H68.58l10.8 18.16-43.17 45.93z" fill="#fff"/></symbol><symbol id="logo-LibertyLink_WH" viewBox="0 0 299.6 148.47"><path d="M12.52 0H.08v53.73h33.65V42H13.64V0zM39.6 0v53.73h13.56V0zM62.58 0v53.73h26.07c8.9 0 19.3-4.2 19.3-16 0-6.23-2.87-10.95-8-13.29a12.16 12.16 0 0 0 5.51-10.51C105.49 4.67 99.59 0 87.93 0zm23 11c4.67 0 6.66 1.43 6.66 4.79 0 4.14-3.15 5-5.8 5H76.15V11zm1.78 19.8c4.72 0 7 2 7 6.23 0 2.43-.75 5.66-7.24 5.66h-11V30.8zM154.87 0h-39.63v53.73h41.32V42H128.8V31.59h24.95v-11H128.8v-8.83H156V0zM165.27 0v53.73h13.56V33.61H189c4.89 0 6.71 1.66 7.47 6.83.18 1.29.29 2.71.4 4.09.24 3 .48 6.15 1.48 8.51l.29.69h14.21L211.66 52c-1.51-2.17-1.73-6.81-1.87-9.88l-.09-1.74c-.43-6.15-2.48-10.19-6.06-12.13 4.45-2.59 6.71-6.91 6.71-12.89 0-8.91-6.81-15.36-16.19-15.36zm24.85 11c4.61 0 6.67 1.86 6.67 6 0 4.37-2 6.23-6.67 6.23h-11.29V11zM250.31 0h-38.55v11.76h13.05v42h13.57v-42h13.05V0z" fill="#fff"/><path d="M297.75 0h-13.33s-7.27 15.41-8.89 18.83C273.91 15.41 266.58 0 266.58 0h-15.33l17.32 32.84v20.89h13.57v-20.6L299.6 0zM12.46 68.62H0v53.81h33.79v-11.77H13.58v-42zM52 68.43H39.5v54h13.63v-54zM107.38 68.43H95.6v32.17l-20-32.17H62.53v54h12.9V90.36l19.94 32.09h13.13v-54zM165.57 68.43h-14.7l-18.63 19.76V68.43h-13.62v54h13.62v-17.32l5.24-5.3 15.16 22.64h17.05l-22.9-32.33 21.46-21.69zM174.93 68.14a4.6 4.6 0 1 1-4.72 4.58 4.55 4.55 0 0 1 4.72-4.58zm0 8.21a3.62 3.62 0 1 0-3.46-3.63 3.49 3.49 0 0 0 3.46 3.63zm-1.83-6.21h1.9c1.29 0 2 .41 2 1.53a1.28 1.28 0 0 1-1.3 1.33l1.38 2.25H176l-1.25-2.2h-.64v2.2h-1zm1 2.15h.9c.58 0 1-.08 1-.71s-.59-.64-1.06-.64h-.86zM243.61 108.43a18.21 18.21 0 0 1-18.22-18.21c0-10.81 15.39-18.84 18.21-31.78 2.82 12.94 18.22 21 18.22 31.78a18.2 18.2 0 0 1-18.21 18.21z" fill="#fff"/><path d="M206.25 67.12a40.49 40.49 0 0 0 37.36 56.15c.72 0 1.47 0 2.19-.06a53.3 53.3 0 0 0 .34-5.68 51.8 51.8 0 0 0-39.89-50.41zm3.07 16a34 34 0 0 1 1.07-8.37 44.31 44.31 0 0 1 29.47 41.76 33.53 33.53 0 0 1-30.54-33.41z" fill="#fff"/><path d="M280.77 67.12a51.8 51.8 0 0 0-39.88 50.41 48.53 48.53 0 0 0 .34 5.68c.71 0 1.44.06 2.18.06a40.49 40.49 0 0 0 37.36-56.15zm-33.6 49.37a44.3 44.3 0 0 1 29.46-41.76 33.49 33.49 0 0 1-29.46 41.76zM69.59 134.87a3.64 3.64 0 1 1-3.73 3.63 3.61 3.61 0 0 1 3.73-3.63zm0 6.49a2.86 2.86 0 1 0-2.74-2.86 2.75 2.75 0 0 0 2.74 2.86zm-1.45-4.9h1.54c1 0 1.59.32 1.59 1.2a1 1 0 0 1-1.07 1.09l1.09 1.78h-.85l-1-1.74H69v1.74h-.81zm.81 1.7h.72c.45 0 .79-.07.79-.57s-.46-.5-.83-.5H69zM0 135h3.34v13.19H0zM18.18 148.19H16l-.19-1.44a4.34 4.34 0 0 1-3.57 1.72c-3.87 0-6.38-3.05-6.38-6.88s2.51-6.87 6.38-6.87c2.65 0 5.48 1.46 5.79 4.77h-3.31c-.1-1.13-1.18-1.82-2.52-1.82-2.16 0-3 2-3 3.92s.82 3.92 3 3.92c1.65 0 2.76-.79 2.94-2h-2.33V141h5.37zM21 135h3.43l4.45 8.13V135H32v13.19h-3.39L24.17 140v8.22H21zM35 135h3.33v13.19H35zM51.54 138h-3.82v10.24h-3.34V138h-3.81v-3h11zM53.72 135h10.2v2.75h-6.86v2.31h6.27v2.66h-6.27v2.51h7v3H53.72zM79.4 135h3.34v4.8h4.39V135h3.34v13.19h-3.34v-5.43h-4.39v5.43H79.4zM93.44 135h10.2v2.75h-6.87v2.31h6.28v2.66h-6.28v2.51h7v3H93.44zM106.43 135H113c2.26 0 4.48 1.05 4.48 3.71a3.41 3.41 0 0 1-2 3.31c1.36.34 1.76 1.91 1.87 3.16 0 .56.09 2.5.53 3h-3.29a6.33 6.33 0 0 1-.38-2.11c-.09-1.33-.31-2.7-1.87-2.7h-2.52v4.81h-3.34zm3.34 5.72h2.79a1.39 1.39 0 0 0 1.54-1.55c0-1-.75-1.42-1.68-1.42h-2.65zM120.09 135h6c2.2 0 4.62.55 4.62 3.3A3 3 0 0 1 129 141a3.13 3.13 0 0 1 2.2 3.13c0 3.14-2.24 4.1-5 4.1h-6.15zm3.33 5.19H126a1.26 1.26 0 0 0 1.37-1.26 1.21 1.21 0 0 0-1.37-1.27h-2.58zm0 5.25h2.67c1.06 0 1.8-.39 1.8-1.48s-.79-1.55-1.8-1.55h-2.67zM133.75 135h3.33v13.19h-3.33zM148.61 139.71a2.35 2.35 0 0 0-2.59-2c-2.15 0-3 2-3 3.92s.82 3.92 3 3.92a2.41 2.41 0 0 0 2.59-2.44h3.33a5.47 5.47 0 0 1-5.84 5.4c-3.88 0-6.39-3.05-6.39-6.88s2.51-6.87 6.39-6.87c2.76 0 5.75 1.81 5.84 5zM154.43 135h3.33v13.19h-3.33zM160.79 135h5.5c3.93 0 6.28 2.45 6.28 6.54 0 4.32-2.39 6.65-6.28 6.65h-5.5zm3.34 10.23h1.57c2.53 0 3.53-1.07 3.53-3.71 0-2.4-1.25-3.57-3.53-3.57h-1.57zM175.11 135h10.2v2.75h-6.86v2.31h6.27v2.66h-6.27v2.51h7v3h-10.34zM204.61 138h-3.81v10.24h-3.34V138h-3.82v-3h11zM212.63 134.72c4 0 6.31 3.05 6.31 6.87s-2.28 6.88-6.31 6.88-6.32-3.05-6.32-6.88 2.28-6.87 6.32-6.87zm0 10.79c2.15 0 3-2 3-3.92s-.82-3.92-3-3.92-3 2-3 3.92.84 3.92 3 3.92zM221.46 135h3.33v10.23h6v3h-9.3zM233.13 135h10.2v2.75h-6.87v2.31h6.28v2.66h-6.28v2.51h7v3h-10.33zM246.12 135h6.53c2.26 0 4.48 1.05 4.48 3.71a3.41 3.41 0 0 1-2 3.31c1.36.34 1.76 1.91 1.87 3.16 0 .56.09 2.5.53 3h-3.3a6.57 6.57 0 0 1-.37-2.11c-.09-1.33-.31-2.7-1.87-2.7h-2.52v4.81h-3.34zm3.34 5.72h2.79a1.39 1.39 0 0 0 1.54-1.55c0-1-.75-1.42-1.68-1.42h-2.65zM263.26 135h3.38l4.79 13.19H268l-.79-2.37h-4.51l-.81 2.37h-3.42zm.21 8.27h2.9l-1.37-4.62zM273.07 135h3.43l4.45 8.13V135h3.14v13.19h-3.43l-4.41-8.19v8.22h-3.14zM297.26 138h-3.82v10.24h-3.34V138h-3.82v-3h11zM290.69 67.16a4.6 4.6 0 1 1-4.69 4.58 4.56 4.56 0 0 1 4.69-4.58zm0 8.21a3.62 3.62 0 1 0-3.47-3.63 3.5 3.5 0 0 0 3.47 3.63zm-1.84-6.21h1.95c1.29 0 2 .41 2 1.53a1.28 1.28 0 0 1-1.35 1.37l1.38 2.25h-1.07l-1.25-2.2h-.64v2.2h-1zm1 2.15h.9c.58 0 1-.08 1-.71s-.59-.64-1.06-.64h-.85z" fill="#fff"/></symbol><symbol id="logo-Qrome_0k" viewBox="0 0 183.46 110.45"><path d="M180.85 83.01a2.61 2.61 0 1 1 2.61-2.61 2.59 2.59 0 0 1-2.61 2.61zm0-4.81a2.2 2.2 0 1 0 2.2 2.2 2.23 2.23 0 0 0-2.2-2.2z" fill="#fff"/><path d="M182.03 81.92h-.56l-.77-1.26h-.34v1.26h-.44v-3h.89c.64 0 1 .34 1 .88a.82.82 0 0 1-.65.84zm-1.67-1.67h.39c.41 0 .61-.16.61-.49s-.2-.47-.61-.47h-.39zM78.85 47.45h-3.63c-.82 0-1.45-.1-1.92-.17-.69-.09-1-.19-1.06-.19-.34-.07-.67-.16-1-.26l-.31-.12-.64-.25-.35-.18-.57-.3-.35-.22c-.18-.11-.36-.24-.53-.36l-.33-.25-.54-.44-.28-.25c-.21-.19-.4-.39-.6-.59l-.19-.19c-.25-.27-.51-.56-.75-.86l-.08-.1c-.22-.27-.43-.54-.64-.82-.07-.09-.13-.19-.2-.29l-.48-.69-.22-.35c-.15-.23-.29-.46-.43-.7l-.22-.36-.41-.74c-.06-.12-.13-.23-.19-.36l-.42-.82-.15-.29c-.18-.37-.35-.75-.52-1.12-.18-.4-.35-.81-.52-1.21l-.01-.15c-.14-.34-.28-.68-.41-1l-.12-.33c-.11-.28-.22-.57-.32-.86 0-.12-.09-.25-.13-.37-.1-.28-.19-.55-.29-.82l-.12-.44-.27-.82c0-.12-.07-.23-.1-.34-.1-.31-.19-.61-.28-.9 0-.08-.05-.16-.07-.24-.22-.76-.42-1.5-.6-2.2l-.08-.29-.18-.74-.09-.35-.15-.62c0-.12 0-.24-.08-.37l-.1-.54c0-.12-.06-.24-.08-.36s-.07-.33-.11-.48 0-.24-.07-.35 0-.27-.08-.41 0-.23-.07-.33a1.55 1.55 0 0 0 0-.21c-.06-.33-.12-.64-.17-.9-.14-.77-.21-1.24-.22-1.27-.5-3.51.49-5.59 3.2-6.76l.73-.31.27-.11.52-.21.35-.13.5-.18.4-.14.52-.17.43-.14.56-.17.44-.13.62-.17.43-.11.7-.17.41-.09.37-.09a5.4 5.4 0 0 1 .13-.72 7.34 7.34 0 0 1 4.72-5.34A57.41 57.41 0 0 1 84.24.36L82.79.23h-.48L81.07.12h-4.16a62.64 62.64 0 0 0-25.33 5c-3.66 1.49-4.85 4.12-4.15 8.99 0 .32.09.67.15 1l.06.38c0 .24.08.48.13.74s0 .31.08.47.09.48.13.73.07.36.11.54.09.48.14.73l.12.6c0 .24.1.49.16.73s.09.44.14.66.11.5.17.75.1.46.16.68l.18.78.18.72c.06.25.13.51.19.77s.13.51.2.76l.21.78.21.79c.07.26.15.52.22.78l.24.81c.08.26.15.52.23.78s.17.56.26.84l.24.77c.09.29.19.57.28.86s.17.5.25.75l.3.88c.09.24.18.48.26.72l.33.92.24.63c.45 1.18.92 2.34 1.43 3.49.09.21.17.42.27.63s.27.59.41.89.2.45.31.66l.42.86.33.66.44.82.36.66c.14.27.3.53.45.79l.37.64.47.75.39.61c.16.25.33.49.49.73l.41.58c.17.23.33.46.5.68l.43.55.53.64.44.51.54.6.46.46c.19.19.38.38.57.55a6.27 6.27 0 0 0 .48.42c.19.17.38.34.58.5l.49.37c.2.15.4.31.61.44s.33.21.5.32l.63.39c.16.09.33.16.5.25l.67.33c.3.13.6.23.9.34l.72.22c.29.08.58.16.88.22a29.63 29.63 0 0 0 7.12.6h4.35l1.12-.12.44-.06c.78-.12 1.15-.22 1.16-.22a11.4 11.4 0 0 0 1.52-.42l.24-.08.52-.21a24.4 24.4 0 0 1-7.6-8.06zM87.59 54.72l.08.05.16-.08h-.07a.47.47 0 0 1-.17.03zM104.39 21.26l-.1-.06a37 37 0 0 0-7.12-2.25 2.85 2.85 0 0 1 0 .29v.06c-.17 1.16-2.54 15.85-8.76 23.45a9.85 9.85 0 0 0 5.32 3.32 12.94 12.94 0 0 0 2.24.31l.45-.75c.33-.54.66-1.09 1-1.65.18-.31.34-.63.5-1 .3-.57.61-1.14.88-1.72.2-.4.37-.8.56-1.2s.45-1 .66-1.47a77.122 77.122 0 0 0 1.78-4.56l.21-.63c.16-.43.31-.86.45-1.3.08-.24.16-.48.23-.72l.39-1.21c.07-.24.14-.48.22-.72.12-.4.24-.81.36-1.2.06-.23.12-.46.19-.68.11-.41.23-.82.34-1.22 0-.21.11-.41.16-.62.12-.42.22-.83.33-1.24 0-.18.09-.35.13-.52.11-.44.22-.86.32-1.28 0-.15.06-.29.1-.43s.09-.38.13-.58a6.85 6.85 0 0 0-.97-.42z" fill="#fff"/><path d="M118.06 19.48a9.22 9.22 0 0 0-.07-1.2 2 2 0 0 0 0-.24 8.49 8.49 0 0 0-.19-.93 1.8 1.8 0 0 0-.06-.22 5.12 5.12 0 0 0-.36-.9l-.13-.27a6.52 6.52 0 0 0-.51-.78c-.09-.12-.21-.22-.31-.33a4.18 4.18 0 0 0-1.69-1.19 35.84 35.84 0 0 0-6.82-2.2l-1-.21a44.86 44.86 0 0 0-8.59-.84h-.17a44.31 44.31 0 0 0-8.35.8c-.76.14-1.47.3-2.15.47a35.74 35.74 0 0 0-5.83 2 4.09 4.09 0 0 0-2.73 4.31l1.38-.23h.11c.56-.08 1.15-.16 1.75-.22h.29c.56-.06 1.13-.1 1.71-.14h.44c.73 0 1.48-.07 2.25-.08h1.19c.86 0 1.69.05 2.49.1l.89.07 1.4.14 1.06.13c.34 0 .67.1 1 .15.61.1 1.2.2 1.77.32l.4.08a40.48 40.48 0 0 1 5 1.39c.35.13.7.25 1 .38l.35.14 1.14.47.1.06a6 6 0 0 1 1.55.94 5.08 5.08 0 0 1 .41.39l.16.18a4.63 4.63 0 0 1 .32.42c0 .07.09.16.14.24s.17.29.24.44a5.41 5.41 0 0 1 .25.71c0 .12 0 .26.08.39s.07.35.09.53v1.44c0 .37 0 .75-.11 1.15a1.88 1.88 0 0 0 0 .23c0 .11 0 .25-.06.41q0 .24-.09.54v.12c0 .2-.07.43-.12.67v.15c0 .24-.09.5-.14.78a1.55 1.55 0 0 0 0 .21q-.09.42-.18.87a2.21 2.21 0 0 0-.05.25c-.07.31-.14.63-.21 1l-.06.27c-.08.34-.16.69-.25 1 0 .09 0 .19-.07.28-.09.38-.18.75-.28 1.14a2.86 2.86 0 0 0-.07.28l-.33 1.21c0 .09 0 .18-.08.27-.11.39-.22.79-.34 1.19 0 .11-.07.21-.1.31-.12.4-.25.81-.38 1.22l-.09.29c-.14.42-.29.85-.44 1.28l-.11.3c-.15.43-.31.86-.48 1.28 0 .11-.08.22-.13.33q-.24.63-.51 1.26a3.45 3.45 0 0 0-.14.34c-.18.41-.37.82-.56 1.22l-.09.19-.09.18c-.15.32-.31.64-.47 1s-.35.66-.54 1l-.12.22c-.13.21-.25.43-.38.63-.22.36-.45.72-.68 1.06l-.28.42-.34.47a18 18 0 0 1-2.09 2.38l-.23.22c-.28.25-.57.48-.87.7l-.13.1a9.53 9.53 0 0 1-3.82 1.74h-.52a25.75 25.75 0 0 1-4.25.29h-1.55a12.11 12.11 0 0 1-1.67.45 30 30 0 0 1-7.33.62 33.6 33.6 0 0 1-7.07-.56c.18.24.35.48.54.72l.16.21c.32.4.64.78 1 1.15l.24.26c.31.34.63.66 1 1l.3.3c.31.29.63.56 1 .83l.37.3c.31.25.63.47 1 .69l.15.21c.32.2.64.38 1 .55l.47.26c.34.17.7.3 1 .44.15 0 .3.13.45.18a11.93 11.93 0 0 0 1.56.41 30.22 30.22 0 0 0 7.25.61 30.42 30.42 0 0 0 7.22-.6 11.61 11.61 0 0 0 1.32-.34l.28-.09a13.19 13.19 0 0 0 1.23-.5l.23-.11a10.65 10.65 0 0 0 1-.57l.24-.13c.38-.24.75-.49 1.11-.76l.32-.24c.32-.25.64-.52 1-.8l.27-.24c.29-.27.59-.55.87-.85l.37-.37c.3-.33.6-.66.89-1 .13-.14.25-.3.37-.45l.6-.75c.45-.6.9-1.22 1.33-1.87s.69-1.06 1-1.62l.2-.33c.32-.54.64-1.1.94-1.67l.18-.33c.71-1.33 1.38-2.72 2-4.14.06-.13.12-.26.17-.4.28-.65.56-1.3.82-2 0-.06 0-.12.08-.19.29-.74.58-1.48.85-2.23l.09-.26q.36-1 .69-2c0-.14.09-.28.14-.42.49-1.45.93-2.9 1.34-4.32l.12-.43c.17-.59.33-1.17.48-1.75 0-.13.07-.26.11-.38q.27-1 .51-2v-.16c.1-.43.2-.85.29-1.27l.12-.48c0-.16.07-.31.1-.47s.13-.58.19-.86.1-.45.14-.67l.06-.28c.06-.28.1-.54.16-.81s.11-.58.16-.85 0-.25.07-.38q.12-.62.21-1.2c0-.13 0-.26.07-.39.08-.48.15-.93.21-1.36 0-.27.07-.53.09-.79.06-.49.08-1 .09-1.4z" fill="#fff"/><path d="M72.79 46.14a.36.36 0 0 1 0-.09c-.27-.56-.53-1.14-.79-1.75l-.08-.21c-.26-.63-.52-1.27-.77-1.94a81.61 81.61 0 0 1-3.84-14.95c0-.37-.09-.72-.11-1.06v-.39a5.23 5.23 0 0 1 0-.56 3.57 3.57 0 0 1 0-.47v-.39c0-.12.07-.34.11-.5a2.68 2.68 0 0 1 .07-.27c.05-.18.12-.34.18-.51l.09-.17a4.11 4.11 0 0 1 .27-.51l.06-.08a4.53 4.53 0 0 1 .93-1c-.92-4.1-1.34-6.9-1.36-7a16.19 16.19 0 0 1-.17-3 35.6 35.6 0 0 0-6.72 2.18 5.58 5.58 0 0 0-1.44.88c-1.16 1-1.5 2.52-1.17 4.8 1 6.92 5.52 25.26 14.45 27zM123.78 5.04h-.09a62.62 62.62 0 0 0-25.29-5h-4.05L92.99.2h-.31l-1.54.16-1.76.2-1.69.26q-1.17.18-2.28.39h-.15c-1.49.29-2.89.61-4.2 1H81c-.61.16-1.2.33-1.78.5l-.2.06c-1.17.35-2.26.72-3.25 1.09l-.3.11c-.38.14-.75.28-1.1.43l-.34.14c-.43.17-.84.35-1.22.52s-.5.22-.73.34l-.16.07-.47.27-.19.13-.42.3-.15.12-.41.36-.09.09a5.79 5.79 0 0 0-1.4 2.37 6.72 6.72 0 0 0-.2.83 2.5 2.5 0 0 0 0 .29c0 .25-.06.51-.08.77a11.85 11.85 0 0 0 0 1.46c0 .51.08 1.05.16 1.63 0 .21.07.44.11.69v.27l.09.51.06.38.09.47c.11.63.24 1.31.39 2.05l.06.29c0 .25.1.5.16.76l.06.31c.06.27.12.54.19.83s.08.39.13.58.07.3.1.46q.18.78.39 1.62v.08c.12.5.25 1 .38 1.52l.12.45c.11.4.21.8.33 1.21 0 .2.11.4.16.6.1.36.21.73.32 1.1s.12.44.19.66l.33 1.09.21.69.38 1.11c.07.23.14.45.22.67.13.4.27.8.41 1.19.06.19.13.39.2.58.21.58.42 1.17.64 1.75q.45 1.17 1 2.37a3.45 3.45 0 0 1 .14.34c.36.82.73 1.66 1.13 2.49a50.09 50.09 0 0 0 2.82 5.13c.21.33.42.65.64 1a30.74 30.74 0 0 0 2.46 3.2l.16.18c.27.3.55.6.84.88l.09.1a17.92 17.92 0 0 0 4.01 3.12 11.12 11.12 0 0 0 1.16.55l.17.07.43.17a16.46 16.46 0 0 0 2.84-.33c3.52-.69 6.3-3.85 8.46-7.83l-.92.06h-2.53l-1.37-.1-.59-.05-.57-.06h-.12l-.44-.06h-.07l-.28-.06H93.55c-.32-.07-.63-.15-.94-.25l-.3-.11a6.62 6.62 0 0 1-.62-.24l-.34-.16c-.19-.09-.38-.2-.57-.31l-.41-.29c-.25-.16-.5-.33-.74-.51l-.43-.34-.34-.28-.45-.42-.26-.25-.48-.49-.69-.79c-.22-.27-.43-.55-.64-.83l-.27-.38c-.13-.19-.26-.37-.38-.56l-.28-.42-.36-.59-.25-.41-.54-1-.21-.41-.33-.66-.24-.49c-.09-.2-.19-.4-.28-.61s-.15-.33-.23-.5-.19-.44-.29-.67l-.19-.39c-.14-.34-.27-.68-.4-1l-.2-.51c-.07-.21-.15-.41-.22-.61s-.13-.36-.19-.54a6.26 6.26 0 0 1-.21-.61l-.18-.5c-.09-.28-.18-.56-.26-.84s-.13-.41-.19-.61-.14-.44-.2-.66l-.15-.49c-.05-.19-.11-.39-.16-.57s-.09-.33-.13-.49-.11-.4-.16-.6-.08-.27-.11-.41c-.08-.3-.16-.6-.23-.9 0-.14-.06-.27-.1-.41l-.12-.52c0-.14-.07-.28-.1-.41s-.07-.33-.11-.5-.05-.23-.07-.34-.1-.44-.14-.65 0-.21-.07-.31-.07-.35-.1-.51l-.06-.29c0-.12 0-.24-.07-.36s0-.17 0-.26 0-.24-.07-.35v-.17c0-.15 0-.29-.07-.42v-1.02c0-.36-.08-.72-.09-1.05s0-.65 0-.95.05-.32.07-.47 0-.33.08-.48.09-.28.13-.42.09-.29.15-.43l.18-.36.24-.39a3.55 3.55 0 0 1 .23-.31 3.92 3.92 0 0 1 .34-.37l.26-.25a5.92 5.92 0 0 1 .48-.35l.26-.18a8 8 0 0 1 .88-.45c.33-.15.7-.3 1.08-.45l.62-.24.45-.17c.88-.32 1.85-.63 2.92-.93l1.19-.31c.66-.16 1.36-.31 2.08-.45h.12q1-.18 2.07-.33h.35c.66-.08 1.36-.15 2.07-.21l.34-.14c.89-.06 1.82-.1 2.77-.12h1.23c.92 0 1.81.05 2.67.11s1.66.14 2.45.24l.41.06 1.47.26c.54.09 1 .19 1.55.29l.43.09a39.4 39.4 0 0 1 4.75 1.33l1 .38.31.13c.4.16.78.31 1.13.47a5.42 5.42 0 0 1 2.51 2c1.37 1.84 1.77 4.33 1.29 7.67 0 .28-3 20.25-11 33.12l.44-.18.1-.05c.35-.18.71-.37 1.05-.57h.08c.35-.22.7-.44 1-.69l.06-.05c.35-.25.69-.51 1-.79h.05c.34-.29.67-.59 1-.91.33-.32.65-.66 1-1 .32-.35.63-.72.94-1.1.31-.38.62-.78.92-1.19 3.35-4.54 6-10.53 8-16.43.18-.53.35-1.06.52-1.58l.48-1.53v-.07c.15-.5.3-1 .44-1.49v-.09c.13-.48.27-1 .39-1.43v-.12l.36-1.4v-.12l.33-1.3v-.19c.1-.41.19-.82.29-1.22v-.21c.09-.39.18-.77.26-1.15v-.23l.21-1 .06-.28.18-.92.06-.33.15-.8c0-.12 0-.25.07-.37 0-.31.1-.6.14-.88a1.55 1.55 0 0 1 0-.21c.05-.35.1-.68.15-1 1.03-5.18-.18-7.81-3.84-9.38zM34.25 110.45c-3.51 0-6.28-.12-10-4.45a20.63 20.63 0 0 1-7.33 1.17C3.47 107.17 0 98.39 0 92.5c0-7.76 4.41-15.1 16.89-15.1s16.9 7.34 16.9 15.1a14.1 14.1 0 0 1-5.23 11.2c1.83 1.64 2.81 2 5.69 2zM17.71 94.02c4.53.35 6.36 3.48 7.53 5.74 1.8-1.6 3-4 3-7.57 0-6.83-4.88-10-11.36-10s-11.35 3.2-11.35 10c0 8 6.05 10.22 11.35 10.22a15.91 15.91 0 0 0 4.06-.51 4.67 4.67 0 0 0-3.23-3.08zM38.67 78.1h17c6.71 0 11.54 1.53 11.54 8.47a8 8 0 0 1-7.92 8.35l8.7 11.55h-6.77l-8.24-11.16h-8.77v11.16h-5.54zm16.25 12.61c4.52 0 6.82-.67 6.82-4s-2.3-4-6.82-4H44.21v8zM88.41 77.4c12.49 0 16.9 7.34 16.9 15.1 0 5.89-3.48 14.67-16.9 14.67S71.52 98.39 71.52 92.5c0-7.76 4.41-15.1 16.89-15.1m11.36 14.79c0-6.83-4.88-10-11.36-10s-11.35 3.2-11.35 10c0 8 6 10.22 11.35 10.22s11.36-2.18 11.36-10.22M115.03 84.97h-.08v21.5h-4.92V78.1h7.45l8.86 21.03 9.01-21.03h7.3v28.37h-4.92v-21.5h-.08l-9.09 21.5h-4.4l-9.13-21.5zM149.21 78.1h25.44v4.76h-19.9v6.6h17.13v4.76h-17.13v7.49h20.36v4.76h-25.9V78.1z" fill="#fff"/></symbol><symbol id="logo-RR_COLE_WH" viewBox="0 0 196.32 224.44"><path fill="none" stroke="#fff" d="M.5.5h195.32v223.44H.5z"/><path d="M12.28 194.45h13.36L23 199.8l-3.42-.15-5.61 11.26H7.59l5.61-11.26-3.58.15zM27.21 194.45H39L36.73 199h-5.36l-.78 1.57h4.89l-2.13 4.28h-4.89l-.8 1.61h5.54l-2.2 4.45H19zM51.41 201.13a3.32 3.32 0 0 0-2.91-1.66 6.2 6.2 0 0 0-5 3.21c-.9 1.81 0 3.21 1.95 3.21a8.38 8.38 0 0 0 4.4-1.53l-3.25 6.16a18.16 18.16 0 0 1-4.85.65c-5 0-7.06-3.64-4.73-8.33s8.32-8.65 13.44-8.65a11 11 0 0 1 3.93.68zM57 194.45h6.13L60.34 200h3.9l2.76-5.55h6.12l-8.19 16.46h-6.12l2.84-5.72h-3.89l-2.85 5.72h-6.12zM75.88 194.45H82l1.16 9.13h.19a26.68 26.68 0 0 1 1.55-4.19l2.46-4.94h6.07l-8.2 16.46h-6.09l-1.28-8.64h-.19a21.56 21.56 0 0 1-1.25 3.29l-2.66 5.35h-6.07zM102.67 199.61c2 0 2.54 1.46 1.67 3.2A5.67 5.67 0 0 1 99.5 206c-1.93 0-2.63-1.29-1.7-3.17a5.82 5.82 0 0 1 4.87-3.22zm2.7-5.42a16.28 16.28 0 0 0-13.92 8.54c-2.63 5.28.13 8.44 5.46 8.44a16 16 0 0 0 13.88-8.44c2.57-5.18-.11-8.54-5.42-8.54zM117.15 194.45h6.35l-5.56 11.18h5.33l-2.63 5.28H109zM137.05 199.61c2 0 2.54 1.46 1.68 3.2a5.7 5.7 0 0 1-4.85 3.17c-1.92 0-2.63-1.29-1.69-3.17a5.82 5.82 0 0 1 4.86-3.2zm2.7-5.42a16.31 16.31 0 0 0-13.92 8.54c-2.63 5.28.13 8.44 5.47 8.44a16 16 0 0 0 13.87-8.44c2.58-5.18-.11-8.54-5.42-8.54zM166.65 201.22c-1.38 2.68-2.5 4.93-5.61 7a16.77 16.77 0 0 1-8.88 2.92c-5.33 0-8.1-3.1-5.47-8.38a16 16 0 0 1 14-8.6c3 0 6.51 1.42 6.47 4.24l-6.95 2c-.07-.83-.76-1.27-1.78-1.27-2.28 0-4.44 1.84-5.43 3.82-.9 1.81-.54 3.51 1.52 3.51a4.46 4.46 0 0 0 3.29-1.44h-2.87l1.93-3.88zM176 194.45l-.19 4.3h.19c.45-.52.87-1 1.35-1.55l2.63-2.75h7.14l-10.65 9.37-3.53 7.09h-6.21l3.53-7.09-1.44-9.37zM112.63 116.82c1.94-5.24-.31-7.57-3.4-7.8a9.56 9.56 0 0 0-6.91 2.49l.78-2.12h-7.74L87 132.18h7.73s4.66-12.67 5.18-14a4 4 0 0 1 3.31-2.58c1.27 0 1.77 1.11 1.26 2.48s-5.19 14.14-5.19 14.14H107zM60.55 122a6.63 6.63 0 0 0 1-2.74c.16-2.37-1.59-3.74-3.93-3a6.68 6.68 0 0 0-4.53 5.52c-.16 2.37 1.6 3.74 3.94 3.06a7.07 7.07 0 0 0 3.52-2.84l6.14 2.39a19.13 19.13 0 0 1-10.24 8.2c-6.58 1.92-11.55-1.95-11.09-8.62s6.17-13.66 12.75-15.59 11.54 2 11.09 8.64a17 17 0 0 1-2.51 7.37zM67.71 124.87c-1.92 5.23.32 7.56 3.41 7.79a9.55 9.55 0 0 0 6.88-2.48l-.78 2.11h7.74l8.38-22.77h-7.7s-4.66 12.68-5.17 14a4.08 4.08 0 0 1-3.31 2.58c-1.27 0-1.79-1.1-1.27-2.48s5.2-14.14 5.2-14.14h-7.73s-3.36 9.32-5.65 15.39zM171.34 109.63h-7.47l-12.86 35h7.45l5-13.54a6.91 6.91 0 0 0 5 1.92c5.83 0 12.48-5.37 14.9-12a10.83 10.83 0 0 0 .44-6.69l-8 4.27a4.06 4.06 0 0 1-.12 2.44 6.65 6.65 0 0 1-5.68 4.17c-2.29 0-3.45-1.87-2.6-4.18a6.64 6.64 0 0 1 5.68-4.19 2.83 2.83 0 0 1 2.73 1.74l8-4.27c-.76-2.36-2.4-5-6.54-5.24a11.41 11.41 0 0 0-6.46 1.94zM124.16 132.42h7.46l12.25-33.29h-7.45L132.05 111a6.89 6.89 0 0 0-5-1.92c-5.82 0-12.48 5.36-14.9 12a11.51 11.51 0 0 0-.65 6.84l7.94-4.25a4.28 4.28 0 0 1 .13-2.6 7.07 7.07 0 0 1 6-4.46c2.44 0 3.68 2 2.77 4.45a7 7 0 0 1-6 4.46 3 3 0 0 1-2.9-1.85l-7.94 4.25c.76 2.36 2.53 5.11 6.75 5.1a11.48 11.48 0 0 0 6.6-2.32zM136.18 125c-1.92 5.24.32 7.56 3.41 7.8a9.55 9.55 0 0 0 6.91-2.48l-.77 2.1h7.72l8.39-22.77h-7.73l-5.17 14a4.08 4.08 0 0 1-3.32 2.58c-1.26 0-1.78-1.1-1.26-2.49l5.19-14.13h-7.72z" fill="#fff"/><path d="M24.78 106.2l-.34 1-.44 1.25 10.31.15 1.57-4.28H39c2.73 0 4.44 2.05 3.38 4.93s-4.6 4.94-7.33 5h-2.83l2.06-5.6-10.28-.2-9.3 25.19h10.36l7.09-19.24.8 27.08h10.71L43 116.25c3.25-.93 8.92-3.32 11.09-9.93 2.81-8.63-4.34-10.46-11.07-10.45H37.7l-3.64-.07h-5.57zM148.29 169.21l-.29-22.67h9.24l-.23 11.91 7.71-12.14h9.17L150.21 178h-8.85zM140.32 146.94l3.25-9.19h7.41l-11.38 32.09h-7.4l.56-1.59a11.51 11.51 0 0 1-5.69 1.73c-5.53 0-8-5.55-5.6-12.42s8.88-12.44 14.41-12.45a6.16 6.16 0 0 1 4.49 1.74zm-9.23 14.8c2.11 0 4.49-1.91 5.33-4.27s-.19-4.27-2.31-4.27-4.5 1.92-5.34 4.28.23 4.27 2.32 4.26zM117.35 146.94l.55-1.59h7.4l-8.66 24.5h-7.41l.57-1.59a11.48 11.48 0 0 1-5.69 1.73c-5.53 0-8-5.55-5.59-12.42s8.88-12.44 14.39-12.45a6.22 6.22 0 0 1 4.51 1.74zm-9.23 14.8c2.11 0 4.5-1.91 5.33-4.27s-.2-4.27-2.31-4.27-4.5 1.92-5.34 4.28.2 4.27 2.32 4.26zM90.71 155.2c-.16-2-1.2-2.7-2.64-2.7-2.64 0-5.62 2.35-6.64 5.24s.28 5.24 2.92 5.24a6.87 6.87 0 0 0 4.43-2h7.08c-3.19 5.52-9 9.59-14.23 9.6-6.17 0-9.16-5.7-6.67-12.74s9.53-12.76 15.71-12.77 9.16 5.69 6.67 12.74a18.85 18.85 0 0 1-.89 2.08H80.71l.37-2.33 2.06-2.31z" fill="#fff"/><path d="M53.4 143.63l-.35 1-.46 1.26 10.31.11 1.57-4.27h3.18c2.72 0 4.43 2.05 3.38 4.93a8.52 8.52 0 0 1-7.34 4.94h-2.86l2.07-5.6-10.31-.15-9.27 25.18h10.37l7.08-19.24.81 27.08h10.7l-.63-25.2c3.25-.92 8.93-3.31 11.09-9.92 2.81-8.62-4.33-10.46-11.06-10.45h-5.36l-3.64-.06h-5.57zM29.93 47.12V77.4a41.47 41.47 0 0 1 32.13 27.42h31a71.5 71.5 0 0 0-63.13-57.7z" fill="#fff"/><path d="M29.93 11.81v30.41A76.35 76.35 0 0 1 98 104.82h30.7a106.68 106.68 0 0 0-98.77-93.01zM167.59 166.3a2.53 2.53 0 1 1 2.53 2.51 2.49 2.49 0 0 1-2.53-2.51zm2.53 2.09a2.08 2.08 0 1 0-2-2.09 2 2 0 0 0 2 2.09zm-.52-.64h-.44v-2.88h1.1c.68 0 1 .25 1 .82a.75.75 0 0 1-.75.79l.82 1.27h-.49l-.76-1.25h-.5zm.52-1.61c.37 0 .7 0 .7-.47s-.32-.42-.62-.42h-.6v.89z" fill="#fff"/></symbol><symbol id="logo-US_AQUAmax_WH" viewBox="0 0 326.35 98.79"><path d="M109.74 20.66a2 2 0 1 1-2.1 2 2 2 0 0 1 2.1-2zm0 .4a1.63 1.63 0 0 0 0 3.25 1.55 1.55 0 0 0 1.54-1.62 1.56 1.56 0 0 0-1.55-1.63zm-.3 2.68h-.47v-2a4.5 4.5 0 0 1 .77-.07 1.15 1.15 0 0 1 .71.16.55.55 0 0 1 .2.43.53.53 0 0 1-.42.48c.19.06.3.22.37.49a1.3 1.3 0 0 0 .15.5h-.51a1.73 1.73 0 0 1-.16-.48c0-.23-.16-.33-.42-.33h-.22zm0-1.14h.22c.26 0 .47-.09.47-.3s-.13-.3-.45-.3a1.14 1.14 0 0 0-.26 0zM20.19 22.2a13.1 13.1 0 0 0-.08-1.59h3.74a14 14 0 0 1 .08 1.59 5.33 5.33 0 0 1 4.52-2c3.19 0 5.6 1.94 5.6 5.23s-2.33 5.1-5.7 5.1a5.82 5.82 0 0 1-4.3-1.53v4.93h-3.86zm6.85.26a2.81 2.81 0 0 0-3 2.87 2.84 2.84 0 0 0 3 3A2.78 2.78 0 0 0 30 25.47a2.79 2.79 0 0 0-3-3.01zM35 20.61h2.3v-1.95l3.59-1.34v3.29h3v2.33h-3v3c0 1.34.17 2 1.61 2a12.64 12.64 0 0 0 1.42-.11v2.33a13.68 13.68 0 0 1-2.41.23c-2.75 0-4.21-1.09-4.21-3.42v-4.03H35zM50 19.08h-3.95V16.4H50zm-3.76 1.53h3.59v9.6h-3.61zM52 22.58c0-.62 0-1.32-.08-2h3.48c0 .57.08 1.14.08 1.72a4.28 4.28 0 0 1 3.87-2.09 3.49 3.49 0 0 1 3.37 2.16 4.4 4.4 0 0 1 4-2.16c2 0 4.44.75 4.44 4.52v5.45h-3.6v-5c0-1.44-.54-2.49-2-2.49a2.27 2.27 0 0 0-2.19 2.41v5.11h-3.61v-4.92c0-1.43-.32-2.6-1.94-2.6-1.26 0-2.25 1.17-2.25 2.93v4.59H52zM85.26 28.24c0 .61 0 1.32.08 2h-3.48c0-.58-.08-1.15-.08-1.72a4.89 4.89 0 0 1-4 2.08c-3.43 0-4.72-2-4.72-4.49v-5.5h3.6v4.91c0 1.53.65 2.6 2.28 2.6s2.75-1.16 2.75-3.29v-4.22h3.59zM87.54 22.58c0-.62 0-1.32-.07-2H91c0 .57.08 1.14.08 1.72a4.31 4.31 0 0 1 3.88-2.09 3.47 3.47 0 0 1 3.34 2.19 4.42 4.42 0 0 1 4-2.16c2 0 4.44.75 4.44 4.52v5.45h-3.6v-5c0-1.44-.54-2.49-2-2.49a2.27 2.27 0 0 0-2.19 2.41v5.11h-3.62v-4.95c0-1.43-.32-2.6-2-2.6-1.25 0-2.24 1.17-2.24 2.93v4.59h-3.6zM16.72 15.92a16 16 0 0 1-2.51 3c-.73.75-1.55 1.44-2.25 2.19C10.8 22.4 9.37 24 9.15 25.65a.76.76 0 0 1 0 .16C9 24.19 7.56 22.5 6.41 21.22c-.68-.77-1.5-1.47-2.21-2.23a15.75 15.75 0 0 1-2.42-3 9.26 9.26 0 1 0 16.74 5.41 9.2 9.2 0 0 0-1.8-5.48z" fill="#fff"/><path d="M15.8 13.79v-.06a4.14 4.14 0 0 0 0-1.89C15.14 8 9.84 6.36 10.45 0c-3.56 6.17-1.12 9.28-.69 10.26a4.84 4.84 0 0 1 .39 2.91 7.54 7.54 0 0 0-.69-2.12A3.46 3.46 0 0 0 3 10.87c-1.25 2.67.31 4.76 2.18 6.7.57.61 1.22 1.17 1.77 1.78.92 1 2 2.38 2.19 3.68v-.13c.18-1.29 1.32-2.6 2.25-3.6.56-.6 1.22-1.15 1.8-1.75a9.2 9.2 0 0 0 2.54-3.62.74.74 0 0 0 .07-.14zM64.91 86.55c-4 0-6.54-.3-9.9-.3-3.72 0-6.78.3-10.74.3-.24 0-.48-.6-.48-1.08s.12-1 .36-1.08c3.9-.18 4.92-1 4.92-2.52a9.44 9.44 0 0 0-.6-2.52l-2.58-7.08H33.41L31 78.63a9.63 9.63 0 0 0-.72 2.88c0 1.62.9 2.7 4.68 2.88.24.06.36.66.36 1.08s-.24 1.08-.48 1.08c-3.54 0-4.5-.3-7.8-.3-2.64 0-4 .3-6.84.3-.3 0-.48-.6-.42-1.08a1.42 1.42 0 0 1 .66-1.08c3.84-.3 5.16-2.16 7-6l14.46-34a1.7 1.7 0 0 1 1.32-.48c.66 0 1.26.24 1.32.48l12.9 34c1.32 3.66 2.94 5.52 7.38 6a1.38 1.38 0 0 1 .6 1.08c-.03.53-.27 1.08-.51 1.08zm-25.08-31l-5.46 14.32H45zM92.33 87c3.06 6.9 7.38 8.94 13.08 8.94a32.78 32.78 0 0 0 3.36-.24c.3-.06.48.6.48 1.08s-.12 1-.48 1.08a33.34 33.34 0 0 1-7.86 1c-8.16 0-16-4-19.38-11.76C70.37 85 64 76.47 64 65.91c0-12 8.46-22 22.92-22s22.8 10 22.8 22c-.05 10.44-6.35 19.02-17.39 21.09zm-5.46-40.65c-9.24 0-13.32 8.46-13.32 19.56s4.08 19.26 13.32 19.26 13.26-8.17 13.26-19.26S96 46.35 86.87 46.35zM158.09 47c-5.22.6-6.12 1.8-6.12 5.1V71c0 9.12-4.8 16.56-15.54 16.56-12.48 0-18.72-6.42-18.72-17V52.11c0-3.18-.78-4.5-6-5.1-.24 0-.48-.6-.48-1.08s.24-1.08.48-1.08c4 0 6.78.3 10.5.3s6.54-.3 10.5-.3c.24 0 .48.66.48 1.08S133 47 132.71 47c-5.22.6-6 1.92-6 5.1v19c0 9.72 3.78 13.08 11.16 13.08S149 79.41 149 70.35V52.11c0-3.18-1-4.5-6.12-5.1-.24 0-.48-.6-.48-1.08s.24-1.08.48-1.08c2.76 0 4.74.3 7.62.3s4.56-.3 7.56-.3c.24 0 .48.66.48 1.08s-.21 1.07-.45 1.07zM199.43 86.55c-4 0-6.54-.3-9.9-.3-3.72 0-6.78.3-10.74.3-.24 0-.48-.6-.48-1.08s.12-1 .36-1.08c3.9-.18 4.92-1 4.92-2.52a9.44 9.44 0 0 0-.6-2.52l-2.58-7.08h-12.48l-2.4 6.36a9.63 9.63 0 0 0-.72 2.88c0 1.62.9 2.7 4.68 2.88.24.06.36.66.36 1.08s-.24 1.08-.48 1.08c-3.54 0-4.5-.3-7.8-.3-2.64 0-4 .3-6.84.3-.3 0-.48-.6-.42-1.08a1.42 1.42 0 0 1 .66-1.08c3.84-.3 5.16-2.16 7-6l14.46-34a1.7 1.7 0 0 1 1.32-.48c.66 0 1.26.24 1.32.48l12.9 34c1.32 3.66 2.94 5.52 7.38 6a1.38 1.38 0 0 1 .6 1.08c-.04.53-.28 1.08-.52 1.08zm-25.08-31l-5.46 14.28h10.62zM254.57 86.55c-2.52 0-4.68-.3-7.56-.3s-4.68.3-7.2.3c-.3 0-.48-.6-.48-1.08s.18-1 .48-1.08c2.52-.24 2.94-1.26 2.94-5v-9.76c0-3.84-1-6-4.38-6-2.82 0-4.26 1.2-5.76 3.36v12.36c0 3.78.42 4.8 3 5 .24.06.48.66.48 1.08s-.24 1.08-.48 1.08c-2.52 0-3.6-.3-6.42-.3s-4.8.3-7.32.3c-.24 0-.48-.6-.48-1.08s.24-1 .48-1.08c2.52-.24 3-1.26 3-5v-9.72c0-3.84-1.26-6-4.68-6-2.58 0-4 1.44-5.46 4v11.72c0 3.78.42 4.8 3 5 .24.06.48.66.48 1.08s-.24 1.08-.48 1.08c-2.52 0-4.38-.3-7.26-.3s-5.1.3-7.62.3c-.3 0-.48-.6-.48-1.08s.18-1 .48-1.08c3.48-.36 4-1.2 4-5V69.09c0-3.18-.48-3.84-3.3-4.08-.3-.06-.48-.6-.48-1s.18-1 .48-1a40.15 40.15 0 0 0 9.12-3.6 2.26 2.26 0 0 1 1.08-.48c.72 0 1.08.3 1.08.66l-.24 4.8c2.34-3.36 5.4-5 8.64-5 4.14 0 7.44 2 8.7 5.22 2.64-3.48 5.94-5.22 9.54-5.22 6.06 0 9.06 4.14 9.06 8.88v11.08c0 3.84.54 4.68 4 5 .3.06.48.66.48 1.08s-.14 1.12-.44 1.12zM285.11 84.45a9.6 9.6 0 0 1-7 2.94 5.2 5.2 0 0 1-5.34-3.6c-1.86 2.4-4.86 3.66-8.58 3.66-4.08 0-7.14-2.4-7.14-6.06 0-5.28 7.74-8.1 15.78-10l.18-5.28c.06-2.58-1-4-3.12-4-1.8 0-3.78.9-3.84 2.7-.24 3.84-1.86 5.4-4.44 5.4a3.18 3.18 0 0 1-3.42-3.3c0-3.6 7.56-7.68 14-7.68 5.7 0 8.46 3.18 8.28 8.88l-.36 11.94c-.06 2.88 1.14 3.36 2 3.36a3.35 3.35 0 0 0 2.1-.9c.3-.24 1.14.6 1.14 1.32a.89.89 0 0 1-.24.62zM265 80c0 2.4 1.2 3.78 3.18 3.78a4.3 4.3 0 0 0 4.32-3.18l.24-7.08C268.07 74.67 265 76.35 265 80zM319 86.55c-2.52 0-5-.3-7.86-.3s-5.88.3-8.4.3c-.24 0-.48-.6-.48-1.08s.24-1 .48-1.08c1.5-.12 2.16-.48 2.16-1.2s-.6-1.68-1.74-3.36l-2.16-3.3-2.45 3.47c-1.2 1.56-1.8 2.28-1.8 3.12s.42 1.14 2.16 1.32c.24.06.42.66.42 1.08s-.18 1.08-.48 1.08c-2.16 0-3.6-.3-5.82-.3-2.4 0-3.84.3-5.52.3-.24 0-.48-.6-.48-1.08s.24-1 .54-1.08c3.66-.42 4.68-1.08 7.56-4.56l4.44-5.34-5.46-7.56c-2.64-3.66-3.6-4.2-7-4.56-.24-.06-.48-.6-.48-1.08s.24-1.08.48-1.08c2.52 0 5.1.36 8 .36s5.58-.36 8.1-.36c.24 0 .48.6.48 1.08s-.24 1-.48 1.08c-1.44.18-2 .54-2 1.26s.6 1.68 1.8 3.3l2.22 3.18 2.28-3.18c1.14-1.56 1.8-2.4 1.8-3.3 0-.66-.48-1-2.16-1.26-.3-.06-.48-.6-.48-1.08s.24-1.08.48-1.08c2.16 0 3.84.36 6.06.36 2.4 0 3.6-.36 5.28-.36.24 0 .48.6.48 1.08s-.24 1-.54 1.08c-3.66.42-4.74 1.14-7.56 4.62l-4.2 5.16 5.34 7.68c2.4 3.42 3.42 4.2 7 4.56.3.06.48.66.48 1.08s-.18 1.03-.49 1.03zM323.67 60.15a2.64 2.64 0 1 1-2.73 2.63 2.63 2.63 0 0 1 2.73-2.63zm0 .53a2.1 2.1 0 0 0 0 4.2 2 2 0 0 0 2-2.1 2 2 0 0 0-2-2.1zm-.41 3.46h-.61v-2.61a5 5 0 0 1 1-.1 1.47 1.47 0 0 1 .91.21.73.73 0 0 1 .26.56.69.69 0 0 1-.55.63c.26.08.4.29.48.64a1.56 1.56 0 0 0 .2.64h-.66a2.13 2.13 0 0 1-.21-.62c-.05-.29-.21-.42-.55-.42h-.29zm0-1.48h.29c.34 0 .61-.11.61-.38s-.18-.4-.56-.4a1.3 1.3 0 0 0-.34 0z" fill="#fff"/></symbol><symbol id="logo-YG_CB_W" viewBox="0 0 166.9 171.9"><path d="M159.93 70.57C155.29 10.03 100.51 0 83.88 0 66.59 0 12.45 10.03 7.82 70.57c-2 26 13.14 76.57 14.06 77.52 0 .05 1.05 2.91 3.43 2.91h117.14c2.38 0 3.39-2.86 3.43-2.91.91-.95 16.05-51.5 14.05-77.52zm-16.41 74.82s-1 2.79-3.3 2.79H27.53c-2.29 0-3.26-2.75-3.3-2.79-.56-.58-6.54-20-10.41-40.61H153.9c-3.88 20.4-9.83 40-10.38 40.61zm11.36-46.05H89.66c-3.74 0-5.27-4.73-5.81-9.24-1.19 10.29-6.13 9.25-6.13 9.25H12.86c-1.73-10.37-2.77-20.64-2.17-28.55C15.17 12.51 66.8 2.15 83.88 2.15c16.07 0 68.7 10.36 73.18 68.61.61 7.99-.41 18.05-2.18 28.54z" fill="#fff"/><path d="M19.2 64.23v9.89a10.86 10.86 0 0 0 4.83 9v6.63h6.87v-6.58a10.82 10.82 0 0 0 4.79-9v-9.94h-6.86v8.43c0 3.72-.12 4.34-1.38 5.76-1.27-1.42-1.38-2-1.38-5.76v-8.43zM37.1 70.17h6.09V89.8H37.1zM59.71 82.44v-8.05c0-2.26-.12-2.72-.93-3.34s-2.07-.88-4.18-.88h-4.79c-2.3 0-3.49.27-4.1.88a4.3 4.3 0 0 0-.92 3.07v11.54c0 3.45.77 4.14 4.68 4.14h10.24v-4.63h-6.68c-1.68 0-2.15-.35-2.15-1.69v-1zm-8.83-3.72v-1.76c0-1.38.5-2.15 1.39-2.15s1.34.77 1.34 2.15v1.76zM61.25 64.23h6.1v25.58h-6.1zM83.86 64.23h-6.1v8l-.46-.57c-1-1.34-1.61-1.58-3.64-1.58h-1.31a3.44 3.44 0 0 0-2.6.89c-.62.65-.81 1.45-.81 3.34v10.5a8.45 8.45 0 0 0 .73 4.06c.57.81 1.3 1 3.49 1h1.23c1.91 0 2.37-.31 3.37-2.22v2.14h6.1zm-6.1 18.67c0 1.53-.42 2.23-1.34 2.23s-1.38-.7-1.38-2.23v-6.06c0-1.53.42-2.22 1.38-2.22s1.34.69 1.34 2.22zM102.35 75.19H94.8a8 8 0 0 1 .54 2.88v6.17h-1.13c-1.41 0-1.76-.42-1.76-2.18v-9.93c0-2.15.2-2.34 2.39-2.34h2.46a17.12 17.12 0 0 1 5.08.72v-6.28h-9.85c-3.64 0-4.81.23-5.71 1.18s-1.37 3.27-1.37 7.83v7.66c.08 4.88.08 4.88.12 5.33.19 2.12.86 3 2.58 3.34a18.69 18.69 0 0 0 4.38.23h2.92c4 0 4.9-.15 5.84-.91s1.09-1.62 1.09-4.76zM119.15 70.17h-6.23v2.07l-.46-.57c-1.06-1.31-1.72-1.62-3.72-1.62h-1.29a3.64 3.64 0 0 0-2.66.93c-.63.61-.82 1.45-.82 3.33v10.47a8.44 8.44 0 0 0 .74 4.06c.59.81 1.33 1 3.56 1h1.18c2 0 2.39-.27 3.44-2.22v2.14h6.23zm-6.23 12.73c0 1.53-.43 2.23-1.36 2.23s-1.41-.7-1.41-2.23v-6.06c0-1.53.42-2.22 1.41-2.22s1.36.72 1.36 2.22zM120.95 70.17V89.8h6.23V75.12a27.14 27.14 0 0 1 4.65 1.8l.47-6.63a2.39 2.39 0 0 0-1.1-.24c-1.8 0-2.85.7-4 2.65v-2.53zM148.31 64.23h-6.22v8l-.47-.57c-1-1.34-1.64-1.58-3.71-1.58h-1.33a3.61 3.61 0 0 0-2.67.89c-.62.65-.81 1.45-.81 3.34v10.5a8.43 8.43 0 0 0 .74 4.06c.58.81 1.33 1 3.56 1h1.25c2 0 2.42-.31 3.44-2.22v2.14h6.22zm-6.22 18.67c0 1.53-.43 2.23-1.37 2.23s-1.4-.7-1.4-2.23v-6.06c0-1.53.43-2.22 1.4-2.22s1.37.69 1.37 2.22zM101.29 8.39c-1.15 0-8.07.28-11.53 1.43a19.51 19.51 0 0 1-4.89.87 19.57 19.57 0 0 1-4.9-.87C76.51 8.66 69.6 8.39 68.45 8.39c-10.09 0-12.25 22-12.25 23.46 0 21.91 20.45 26.08 24.06 26.94s4.61 4.9 4.61 4.9 1-4 4.61-4.9 24.06-5 24.06-26.94c0-1.46-2.17-23.46-12.25-23.46zM65.7 39.78a14.17 14.17 0 0 1 4.91-10.66v13.27c0 7.21 6.33 11.41 6.33 11.41A14.36 14.36 0 0 1 65.7 39.78zm11.24 6.61l-3.17-.57V26.01l3.17-3.05zm3.17-8.76V19.89l3.17-3.05v16.94a16.16 16.16 0 0 0-3.17 3.86zm4.83 15.86s-3.75-2-3.75-8.39 3.75-8.39 3.75-8.39 3.75 2 3.75 8.39-3.75 8.4-3.75 8.4zm4.68-15.86a15.93 15.93 0 0 0-3.17-3.85V16.84l3.17 3.05zm3.17-14.68L95.96 26v19.83l-3.17.56zm0 30.82s6.33-4.2 6.33-11.41V29.12a14.19 14.19 0 0 1 4.9 10.66 14.35 14.35 0 0 1-11.22 14zM5.6 162.45v-.89c0-1.2-.42-1.81-1-1.81-1 0-1.27.54-1.27 1.45v6.93c0 .79.32 1.25 1.18 1.25 1.12 0 1.21-1.16 1.21-2v-1.27h3.23v1.71c0 2.41-1.39 4.09-4.75 4.09-3 0-4.2-1.6-4.2-4.46v-5.76c0-3 1.4-4.46 4.41-4.46 2.8 0 4.48 1.19 4.48 4v1.17zM13.45 164.17c0-.67.22-1.21.91-1.21s.92.54.92 1.21v4.67c-.06.6-.3.92-.92.92s-.85-.32-.91-.92zm-3 4.48c0 2.39 1.75 3.25 3.88 3.25s3.74-.87 3.89-3.25v-4.26c0-2.36-1.27-3.59-3.89-3.59-2.29 0-3.88.9-3.88 3.59zM22.67 161.11v1.59a2.32 2.32 0 0 1 2.3-1.89v3.36a5.46 5.46 0 0 0-.9-.07c-.84 0-1.18.17-1.23 1v6.44h-3v-10.43zM29.11 161.11v1.28a2.4 2.4 0 0 1 2.07-1.61c1.4 0 2.65.77 2.65 2.19v8.57h-3v-7.47c0-.49-.23-.9-.79-.86a.76.76 0 0 0-.8.86v7.47h-3v-10.43zM43.55 165.59c1.4.06 2.33 0 2.33 1.64 0 1.89-.69 1.78-2.33 1.82zm0-5.51c1.15 0 2.11-.05 2.11 1.33 0 1.66-.68 1.57-2.11 1.66zm1.34 11.49c2.67 0 4.28-1.22 4.28-4.06 0-1.73-.32-2.48-1.81-3.34a3.14 3.14 0 0 0 1.58-3c0-2.81-1.94-3.62-4.42-3.62h-4.26v14zM53.57 164.17c0-.67.23-1.21.92-1.21s.91.54.91 1.21v4.67c-.05.6-.3.92-.91.92s-.86-.32-.92-.92zm-3 4.48c0 2.39 1.76 3.25 3.89 3.25s3.73-.87 3.88-3.25v-4.26c0-2.36-1.27-3.59-3.88-3.59-2.3 0-3.89.9-3.89 3.59zM62.85 161.11v1.59a2.33 2.33 0 0 1 2.3-1.89v3.36a5.46 5.46 0 0 0-.9-.07c-.84 0-1.17.17-1.23 1v6.44h-3v-10.43zM69.33 164.86v-.69c0-.73.21-1.4 1.05-1.4a1 1 0 0 1 1 1.07v1zm5 2v-3c0-2.26-1.93-3-4-3-2.3 0-4 .9-4 3.59v4.25c0 2.39 1.87 3.27 4 3.25 2.58 0 4-1.27 3.88-4h-3c0 .88.06 1.87-1 1.82a1 1 0 0 1-.92-1.11v-1.83zM78.65 161.11v1.59a2.32 2.32 0 0 1 2.3-1.89v3.36a5.46 5.46 0 0 0-.9-.07c-.84 0-1.18.17-1.23 1v6.44h-3v-10.43zM90.26 160.08h.36a4 4 0 0 1 1.29.12c.56.26.61 1.08.61 1.62a2.14 2.14 0 0 1-.4 1.42 3 3 0 0 1-1.86.35zm0 11.49v-5.46a9 9 0 0 0 3.7-.44c1.5-.69 1.85-2.39 1.85-3.91a4.32 4.32 0 0 0-.91-3c-.92-1-2.75-1.16-4-1.16H87v14zM100.03 161.11v1.59a2.33 2.33 0 0 1 2.3-1.89v3.36a5.46 5.46 0 0 0-.9-.07c-.84 0-1.18.17-1.23 1v6.44h-3v-10.43zM106.45 164.17c0-.67.23-1.21.92-1.21s.91.54.91 1.21v4.67c0 .6-.29.92-.91.92s-.86-.32-.92-.92zm-3 4.48c0 2.39 1.75 3.25 3.88 3.25s3.73-.87 3.88-3.25v-4.26c0-2.36-1.27-3.59-3.88-3.59-2.3 0-3.88.9-3.88 3.59zM112.37 163.26v-2.15h1.18v-3h3v3h1.42v2.15h-1.42v5.51c0 .59.26.72.65.72a4 4 0 0 1 .77 0v2.09a13.42 13.42 0 0 1-1.91.17 2.19 2.19 0 0 1-2.48-2.41v-6zM122.16 164.86v-.69c0-.73.2-1.4 1-1.4a1 1 0 0 1 1 1.07v1zm5 2v-3c0-2.26-1.92-3-4-3-2.3 0-4 .9-4 3.59v4.25c0 2.39 1.87 3.27 4 3.25 2.57 0 4-1.27 3.88-4h-3c-.06.88 0 1.87-1 1.82-.65 0-.91-.53-.91-1.11v-1.83zM133.64 164.99v-.18c0-.39 0-.81-.11-1.2a.76.76 0 0 0-.8-.65c-.77 0-.9.6-.9 1.27v4.31c0 .66.19 1.22.95 1.22 1.11 0 .92-1.65.92-2.43h2.87a11.92 11.92 0 0 1-.24 2.48 3 3 0 0 1-2.8 2h-1c-2.13 0-3.68-.86-3.68-3.25v-4.17c0-2.69 1.38-3.59 3.68-3.59 2.93 0 4.09 1.31 3.92 4.18zM137.6 163.26v-2.15h1.18v-3h3v3h1.42v2.15h-1.42v5.51c0 .59.27.72.66.72a4 4 0 0 1 .76 0v2.09a13.28 13.28 0 0 1-1.9.17 2.19 2.19 0 0 1-2.48-2.41v-6zM144.83 171.57v-10.46h3v10.46zm0-11.49v-2.52h3v2.52zM152.76 164.17c0-.67.23-1.21.92-1.21s.91.54.91 1.21v4.67c0 .6-.3.92-.91.92s-.86-.32-.92-.92zm-3 4.48c0 2.39 1.76 3.25 3.89 3.25s3.73-.87 3.88-3.25v-4.26c0-2.36-1.27-3.59-3.88-3.59-2.3 0-3.89.9-3.89 3.59zM162.14 161.11v1.28a2.4 2.4 0 0 1 2.07-1.61c1.41 0 2.66.77 2.66 2.19v8.57h-3v-7.47c0-.49-.23-.9-.79-.86a.76.76 0 0 0-.8.86v7.47h-3v-10.43zM24.92 119.64c0-3.48 1.39-6.81 6.88-6.81 4.16 0 6.35 2.31 6.35 6.19v3.12h-5.7v-4.1c0-.74 0-1.51-1-1.51-.65 0-.87.67-.87 1.44v12.65c0 .77.22 1.45.87 1.45 1 0 1-.84 1-1.79v-4.47h5.7v3.63c0 3.89-2.44 6.33-6.48 6.33-5.7 0-6.75-3.33-6.75-6.82zM44.38 121.31c0-.62.3-1.21 1-1.21s1 .59 1 1.21v9.55c0 .62-.31 1.21-1 1.21s-1-.59-1-1.21zm-5.49 8.47c0 4.69 3.45 6 6.47 6s6.48-1.3 6.48-6v-7c0-4.68-3.46-6-6.48-6s-6.47 1.3-6.47 6zM53.04 117.23h5.3v2.32h.11a4.06 4.06 0 0 1 3.39-2.78v6.62c-.31 0-.62-.06-.93-.06a2.19 2.19 0 0 0-2.34 2.37v9.65h-5.53zM62.45 117.23h5.49v1.39H68a3.74 3.74 0 0 1 3.33-1.85c2.32 0 3.74 1.51 3.74 4.81v13.72h-5.5v-13.53c0-.56-.16-1.3-.87-1.3s-.77.77-.77 1.33v13.5h-5.48zM88.84 116.8h.61a1.27 1.27 0 0 1 1.33 1.36v2.34a1.27 1.27 0 0 1-1.33 1.36h-.61zm0 8.39h.55a1.24 1.24 0 0 1 1.39 1.39v3.64a1.23 1.23 0 0 1-1.39 1.38h-.55zm-5.49 10.11h7.68c3.57 0 5.42-1.32 5.42-4.84v-3.07a3.93 3.93 0 0 0-4.13-4.23l.06-.06c2.32-.09 3.7-.77 3.7-3.3v-2.41c0-3.15-1.72-4.07-4.71-4.07h-8zM102.81 121.31c0-.62.31-1.21 1-1.21s1 .59 1 1.21v9.55c0 .62-.31 1.21-1 1.21s-1-.59-1-1.21zm-5.49 8.47c0 4.69 3.45 6 6.47 6s6.48-1.3 6.48-6v-7c0-4.68-3.46-6-6.48-6s-6.47 1.3-6.47 6zM111.45 117.23h5.3v2.32h.07a4.06 4.06 0 0 1 3.39-2.78v6.62c-.31 0-.62-.06-.93-.06a2.19 2.19 0 0 0-2.34 2.37v9.65h-5.49zM126.21 121.27c0-.71.15-1.17.83-1.17s1 .59 1 1.27v2.22h-1.79zm-5.49 8.51c0 4.69 3.45 6 6.47 6s6.11-1.3 6.11-6v-1.85H128v3.24c0 .68-.19 1.27-1 1.27s-.83-.47-.83-1.18v-4.71h7.09v-3.8c0-4.53-3.45-6-6.11-6-3 0-6.47 1.3-6.47 6zM134.26 117.23h5.3v2.32h.06a4.08 4.08 0 0 1 3.39-2.78v6.62c-.31 0-.61-.06-.92-.06a2.2 2.2 0 0 0-2.35 2.37v9.65h-5.48zM154.3 143.46a3.86 3.86 0 1 1-3.83 3.85 3.8 3.8 0 0 1 3.83-3.85zm0 .6a3.26 3.26 0 0 0 0 6.51 3.13 3.13 0 0 0 3.08-3.24 3.16 3.16 0 0 0-3.08-3.27zm-.72 5.49h-.68v-4.29a6.79 6.79 0 0 1 1.22-.11 2.23 2.23 0 0 1 1.33.33 1 1 0 0 1 .39.89 1.07 1.07 0 0 1-.83 1c.37.07.63.41.71 1a3.41 3.41 0 0 0 .28 1.06h-.72a3.2 3.2 0 0 1-.29-1.1.8.8 0 0 0-.93-.75h-.48zm0-2.38h.5c.57 0 1-.2 1-.73s-.28-.76-1-.76a3 3 0 0 0-.5 0z" fill="#fff"/></symbol><symbol id="pioneer-logo" viewBox="0 0 377.81 70.4"><path d="M306.39 9.63V59.7h25.69v-8.81h-16.54v-9a2.42 2.42 0 0 1 2.46-2.61h12.1v-9.06h-14.53v-9.65a2 2 0 0 1 2.34-1.93h14v-9zM349 32.17h7c2.78-.32 3.2-1.59 3.2-1.59 1.18-1.54 1.07-5.14 1.07-5.14.15-3.86-.88-5.38-.88-5.38-.77-1.54-3.23-1.68-3.23-1.68H349zm0 27.51h-9.4V9.55h19.32c6 .09 8.18 4 8.18 4C370.4 18 369.88 25 369.88 25c.34 7.55-2 10.77-2 10.77a8.58 8.58 0 0 1-6.12 4.74l9.84 19.23h-8.55a3.74 3.74 0 0 1-3.36-1.75L352 42.51a1.49 1.49 0 0 0-1.63-1H349zM143.63 18.58v16.51h4.76s3.14.25 4.36-.87c0 0 2-1.39 2-7.42 0 0 0-6.06-2.13-7.46a4 4 0 0 0-3-.77zm8.26-9c6.18 0 8.87 3.59 8.87 3.59 3.8 4 3.45 13.47 3.45 13.47.43 10.61-3.74 14.13-3.74 14.13-3.57 3.88-9.09 3.6-9.09 3.6h-7.54v15.34h-9.43v-41h-5V9.53H152M171.23 9.54l.01 50.13h9.3V9.54h-9.31zM205.82 18.16a7.66 7.66 0 0 0-4.06.92s-1.85.93-2.39 4.45a77.46 77.46 0 0 0-.76 12.15s.17 8.3.46 9.68c0 0 .3 3.23 1.51 4.61 0 0 1 2 4.74 1.89 0 0 3.25.25 5-1.6 0 0 1.31-1 1.81-4.68 0 0 .34-1.66.48-9.65 0 0 0-9.73-.54-12.21a7.87 7.87 0 0 0-2.07-4.34s-1.09-1.3-4.15-1.22m9.73-6.7c4.14 2.64 5.15 8.09 5.15 8.09 1.34 4.65 1.17 15.67 1.17 15.67.1 9.78-.9 13.58-.9 13.58-1.14 6-3.82 8.22-3.82 8.22a10.67 10.67 0 0 1-5.57 3.1 22.83 22.83 0 0 1-5.91.63c-5.11.08-7.42-1-7.42-1a10.51 10.51 0 0 1-4.31-2.72c-3.61-3.85-4.19-9.6-4.19-9.6-.5-3-.51-14.34-.51-14.34a60.05 60.05 0 0 1 1-13.16c1.17-4.86 3.48-6.87 3.48-6.87C197.86 8.82 206 9.19 206 9.19c6.75-.21 9.52 2.27 9.52 2.27M230 9.55v50.12h8.74V21.35L247.91 56a5 5 0 0 0 5.09 3.68h9.66V9.54h-8.54v37.89l-9.25-35s-.45-2.91-3.26-2.91zM273 9.49V59.7h25.69v-9h-16.54v-9a2.41 2.41 0 0 1 2.42-2.6h12.14v-9.06h-14.53v-9.61a2 2 0 0 1 2.35-1.93h14v-9zM375 57.37v-.83h.55c.29 0 .59.06.59.39s-.31.44-.66.44zm0 .34h.47l.7 1.17h.46l-.76-1.19a.68.68 0 0 0 .69-.73c0-.53-.31-.76-.95-.76h-1v2.68h.4zm.49 2.16a2.33 2.33 0 1 0-2.37-2.34 2.33 2.33 0 0 0 2.37 2.34m-1.89-2.34a1.89 1.89 0 1 1 1.89 1.95 1.88 1.88 0 0 1-1.89-1.95M103.79 62.57c-3.8 4.73-11.36 4.37-11.36 4.37H20.78c-8.1 0-11.35-5.69-11.35-5.69a12.39 12.39 0 0 1-1.22-11L23.93 9.62c1.5-4 4.16-5.1 4.16-5.1a13.42 13.42 0 0 1 6.13-1.15h45.64c5.52-.19 7.59 1.74 7.59 1.74 2 1.32 4 6.25 4 6.25l13.45 34.58a26.33 26.33 0 0 1 1.73 5c1.76 6.66-2.86 11.65-2.86 11.65m4.78-16.8L94.27 9.08s-1.62-4.89-5.42-7.35c0 0-2.2-1.87-9.1-1.72H33.31a15.3 15.3 0 0 0-7.61 1.84A12 12 0 0 0 21 7.34L5.49 46.81s-3.93 7.82.1 15.35c0 0 4.09 6.21 9.74 7.62 0 0 2.44.82 8.9.57h68.55s5.29.26 8.83-1.55c0 0 3.64-1.48 6.72-6.4 0 0 4.93-6.45.24-16.63"/><path d="M76.69 54s-5.06.88-13.32-6.45c0 0 6.5-6.5 13-6.43 0 0 7.4-.17 8 6.35 0 0 .22 6.26-7.72 6.53m-38.22 0c-7.95-.27-7.73-6.53-7.73-6.53.64-6.52 8-6.35 8-6.35 6.5-.07 13 6.43 13 6.43C43.48 54.83 38.43 54 38.43 54M93 47.62a13.59 13.59 0 0 0-5-10.23c-4.72-4-11.26-3.75-11.26-3.75-8.44-.1-15.48 6.11-15.48 6.11a14.16 14.16 0 0 1 7-11.72 17.23 17.23 0 0 1 9-2.31 20.65 20.65 0 0 1 4.07.39c-6.3-7.87-17.19-6.27-20.94.3a26.6 26.6 0 0 0 1.49-8A17 17 0 0 0 57.56 7a17 17 0 0 0-4.32 11.33 26.6 26.6 0 0 0 1.49 8.05c-3.75-6.57-14.64-8.17-20.94-.3a20.65 20.65 0 0 1 4.07-.39 17.23 17.23 0 0 1 9 2.31 14.16 14.16 0 0 1 7 11.72s-7-6.21-15.48-6.11c0 0-6.54-.26-11.26 3.75a13.62 13.62 0 0 0-5 10.23A13.61 13.61 0 0 0 27.44 58a16.89 16.89 0 0 0 10.47 3.49 23.56 23.56 0 0 0 10.56-2.62s3.52-1.54 9.09-6.75c5.56 5.21 9.08 6.75 9.08 6.75a23.56 23.56 0 0 0 10.56 2.64A16.89 16.89 0 0 0 87.67 58 13.61 13.61 0 0 0 93 47.62M2 66.77v-.88h.59c.29 0 .61.06.61.41s-.32.47-.69.47zm0 .36h.5l.74 1.23h.49l-.83-1.25a.75.75 0 0 0 .74-.78c0-.56-.34-.8-1-.8H1.55v2.83H2zm.5 2.27a2.46 2.46 0 1 0 0-4.91 2.46 2.46 0 1 0 0 4.91m-2-2.47a2 2 0 0 1 2-2 2.05 2.05 0 1 1-2 2"/><path fill="none" d="M0 0h377.81v70.4H0z"/></symbol><symbol id="share-fb" viewBox="0 0 19.95 19.95"><path d="M18.85 0H1.1A1.1 1.1 0 0 0 0 1.1v17.75A1.1 1.1 0 0 0 1.1 20h9.56v-7.76H8.07v-3h2.59V7a3.64 3.64 0 0 1 3.88-4 22.53 22.53 0 0 1 2.32.12v2.7h-1.59c-1.25 0-1.49.6-1.49 1.47v1.92h3l-.39 3h-2.63V20h5.09a1.1 1.1 0 0 0 1.1-1.1V1.1a1.1 1.1 0 0 0-1.1-1.1"/></symbol><symbol id="share-instagram" viewBox="0 0 503.84 503.84"><path d="M251.92 45.39c67.27 0 75.23.26 101.8 1.47 24.56 1.12 37.9 5.22 46.78 8.67a78 78 0 0 1 29 18.85 78 78 0 0 1 18.85 29c3.45 8.87 7.55 22.21 8.67 46.77 1.21 26.57 1.47 34.54 1.47 101.8s-.26 75.23-1.47 101.8c-1.12 24.56-5.22 37.9-8.67 46.78a83.51 83.51 0 0 1-47.81 47.81c-8.88 3.45-22.22 7.55-46.78 8.67-26.56 1.21-34.53 1.47-101.8 1.47s-75.24-.26-101.8-1.47c-24.56-1.12-37.9-5.22-46.78-8.67a78 78 0 0 1-29-18.85 78 78 0 0 1-18.85-29c-3.45-8.88-7.55-22.22-8.67-46.78-1.21-26.57-1.47-34.53-1.47-101.8s.26-75.23 1.47-101.8c1.12-24.56 5.22-37.9 8.67-46.77a78 78 0 0 1 18.85-29 78 78 0 0 1 29-18.85c8.88-3.45 22.22-7.55 46.78-8.67 26.57-1.21 34.53-1.47 101.8-1.47m0-45.39c-68.42 0-77 .29-103.87 1.52S102.93 7 86.9 13.23a123.52 123.52 0 0 0-44.62 29.05 123.52 123.52 0 0 0-29 44.62C7 102.93 2.74 121.24 1.52 148.05S0 183.5 0 251.92s.29 77 1.52 103.87S7 400.91 13.23 416.94a123.52 123.52 0 0 0 29.05 44.62 123.68 123.68 0 0 0 44.62 29.06c16 6.22 34.34 10.48 61.15 11.71s35.45 1.51 103.87 1.51 77-.29 103.87-1.51 45.12-5.49 61.15-11.71a128.85 128.85 0 0 0 73.68-73.68c6.22-16 10.48-34.34 11.71-61.15s1.51-35.45 1.51-103.87-.29-77-1.51-103.87-5.49-45.12-11.71-61.15a123.68 123.68 0 0 0-29.06-44.62 123.52 123.52 0 0 0-44.62-29C400.91 7 382.6 2.74 355.79 1.52S320.34 0 251.92 0"/><path d="M251.92 122.56a129.37 129.37 0 1 0 129.36 129.36 129.35 129.35 0 0 0-129.36-129.36m0 213.33a84 84 0 1 1 84-84 84 84 0 0 1-84 84M416.63 117.44a30.23 30.23 0 1 1-30.23-30.23 30.23 30.23 0 0 1 30.23 30.23"/></symbol><symbol id="share-twitter" viewBox="0 0 22.23 18.07"><path d="M7 18.07a12.89 12.89 0 0 0 13-13v-.59a9.26 9.26 0 0 0 2.27-2.36 9.07 9.07 0 0 1-2.62.72 4.56 4.56 0 0 0 2-2.53 8.86 8.86 0 0 1-2.9 1.11 4.56 4.56 0 0 0-7.89 3.12 4.42 4.42 0 0 0 .12 1A12.94 12.94 0 0 1 1.55.84 4.55 4.55 0 0 0 3 6.92a4.42 4.42 0 0 1-2.11-.57v.06a4.56 4.56 0 0 0 3.66 4.47 4.3 4.3 0 0 1-1.2.17 4.12 4.12 0 0 1-.86-.05 4.57 4.57 0 0 0 4.26 3.17 9.15 9.15 0 0 1-5.66 1.95A9.82 9.82 0 0 1 0 16a13 13 0 0 0 7 2.05"/></symbol><symbol id="tick" viewBox="0 0 23.9 20.3"><path fill-rule="evenodd" clip-rule="evenodd" d="M23.9 1.9L21.6 0 8.2 16.1l-6.3-4.8L0 13.6l8.7 6.7 1.9-2.3v-.1z"/></symbol></svg>