<?xml version="1.0" standalone="no"?>
<!DOCTYPE svg PUBLIC "-//W3C//DTD SVG 20010904//EN"
 "http://www.w3.org/TR/2001/REC-SVG-20010904/DTD/svg10.dtd">
<svg version="1.0" xmlns="http://www.w3.org/2000/svg"
 width="600.000000pt" height="392.000000pt" viewBox="0 0 600.000000 392.000000"
 preserveAspectRatio="xMidYMid meet">

<g transform="translate(0.000000,392.000000) scale(0.100000,-0.100000)"
fill="#000000" stroke="none">
<path d="M0 1960 l0 -1960 3000 0 3000 0 0 1960 0 1960 -3000 0 -3000 0 0
-1960z m4087 1769 c29 -9 95 -71 104 -97 3 -8 19 -7 54 4 66 20 156 14 193
-12 15 -12 36 -37 47 -56 18 -33 23 -36 75 -40 135 -10 205 -99 180 -228 -7
-37 -6 -47 7 -55 91 -57 110 -74 131 -115 44 -88 26 -137 -111 -300 -53 -63
-95 -116 -94 -117 2 -1 31 11 66 28 88 42 114 46 140 20 12 -12 21 -28 21 -36
0 -24 20 -18 143 40 63 30 126 55 138 55 36 0 69 -38 69 -80 0 -20 -29 -186
-64 -368 -90 -464 -88 -409 -22 -460 154 -119 275 -419 263 -652 -23 -448
-301 -791 -756 -934 -329 -103 -732 -68 -965 85 -78 52 -80 52 -120 40 -75
-22 -120 -30 -176 -31 -30 0 -131 -11 -225 -25 -93 -13 -281 -38 -416 -55
-260 -32 -321 -31 -377 6 -23 15 -25 14 -56 -22 -29 -34 -38 -37 -92 -41 -32
-3 -79 -14 -104 -25 -34 -16 -61 -21 -115 -19 -38 2 -79 3 -90 3 -11 1 -56 -9
-100 -21 -105 -28 -281 -42 -429 -32 -115 7 -120 8 -142 36 -31 39 -48 115
-41 184 3 40 19 86 56 161 89 181 91 304 11 457 -22 41 -40 87 -40 101 0 15
14 65 30 112 17 46 30 85 30 87 0 2 -64 3 -142 3 -373 0 -668 117 -810 320
-84 121 -113 309 -69 442 53 155 194 267 360 284 l56 6 0 152 c1 171 15 246
70 361 92 192 289 309 545 322 255 14 453 -78 570 -263 22 -35 45 -64 50 -64
5 0 37 -25 71 -55 101 -90 151 -88 296 16 132 95 170 111 256 107 l68 -3 49
67 c31 42 66 77 97 95 42 25 59 28 142 30 l94 2 32 48 c87 129 225 199 321
163 35 -14 46 -4 91 82 20 38 49 78 65 89 41 30 99 36 132 14 14 -10 26 -13
26 -7 0 26 115 133 173 162 96 47 151 54 234 29z"/>
<path d="M3919 3677 c-79 -29 -120 -65 -222 -190 -21 -26 -42 -47 -48 -47 -5
0 -12 14 -16 31 -14 72 -83 42 -137 -59 -43 -83 -79 -116 -116 -107 -75 18
-107 17 -148 -4 -58 -30 -107 -75 -153 -142 -21 -31 -44 -59 -51 -62 -7 -2
-47 -2 -89 1 -111 6 -149 -13 -228 -117 l-62 -81 -72 6 c-86 8 -113 -3 -242
-97 -95 -69 -140 -89 -195 -89 -58 0 -106 23 -165 79 -28 27 -60 51 -71 55
-10 3 -30 27 -44 53 -94 177 -288 272 -530 260 -300 -15 -483 -153 -556 -417
-14 -49 -18 -103 -19 -215 0 -82 3 -162 7 -176 l8 -26 -83 -6 c-107 -7 -185
-37 -251 -98 -74 -68 -108 -142 -114 -248 -10 -189 65 -338 226 -444 167 -111
372 -159 662 -156 l155 1 -3 -38 c-2 -21 -14 -65 -28 -98 -40 -98 -41 -133 -5
-188 39 -62 60 -123 67 -206 9 -96 -9 -172 -67 -292 -55 -111 -66 -159 -55
-235 13 -83 19 -85 228 -85 178 1 263 10 382 43 34 9 64 11 100 5 60 -10 98
-3 145 24 22 12 57 20 94 22 59 2 87 19 87 51 0 16 33 45 52 45 8 0 25 -11 38
-25 14 -15 43 -28 76 -35 55 -12 136 -3 624 66 96 14 230 29 298 34 77 6 134
16 154 26 47 24 95 13 184 -44 90 -57 224 -104 352 -122 134 -20 384 -8 504
24 344 91 610 309 719 589 46 118 72 279 65 394 -14 218 -118 437 -262 552
-52 42 -63 56 -59 74 22 96 145 749 145 770 0 15 -6 30 -14 33 -7 3 -87 -29
-177 -70 -89 -42 -164 -76 -165 -76 -1 0 0 25 3 56 6 56 6 56 -18 49 -13 -4
-75 -31 -138 -61 l-113 -54 7 28 c12 48 62 124 155 237 93 113 118 162 106
211 -10 40 -68 90 -127 111 -42 15 -49 21 -44 38 14 44 17 162 5 184 -20 38
-94 64 -162 57 -55 -5 -58 -5 -58 17 0 32 -36 86 -66 97 -58 23 -165 0 -215
-46 -15 -14 -18 -11 -29 34 -18 75 -54 105 -133 109 -35 2 -78 -3 -98 -10z
m71 -75 c0 -25 -40 -138 -85 -242 -85 -196 -109 -327 -64 -351 51 -27 159 18
256 106 61 54 147 178 164 235 16 54 -6 90 -57 90 -32 0 -34 2 -24 21 18 33
99 79 140 79 59 0 85 -36 85 -118 0 -58 -5 -76 -35 -131 -34 -61 -38 -64 -95
-82 -34 -10 -71 -28 -83 -39 -23 -22 -30 -68 -12 -86 15 -15 -123 -123 -214
-169 -39 -20 -94 -38 -121 -41 -45 -6 -54 -3 -82 20 -39 33 -57 84 -49 139 4
23 28 111 55 195 29 91 45 155 39 158 -23 15 -126 -113 -186 -231 -30 -61 -66
-169 -76 -236 -5 -29 -12 -37 -42 -48 -19 -7 -37 -11 -39 -9 -2 2 4 61 14 131
9 70 15 127 12 127 -4 0 -26 -25 -51 -56 -75 -94 -129 -124 -187 -103 -32 10
-53 44 -53 82 1 30 33 98 56 119 18 16 19 15 16 -25 -3 -33 1 -47 17 -62 41
-36 66 -14 186 163 98 146 110 161 118 140 5 -13 5 -54 2 -93 l-7 -70 59 93
c80 129 187 242 265 281 71 36 78 37 78 13z m540 -184 c-1 -7 -7 -40 -14 -73
-15 -65 -20 -47 -7 23 8 42 0 57 -14 25 -9 -22 -35 -152 -35 -174 0 -14 49
-28 107 -30 9 0 41 131 42 174 1 41 -15 32 -27 -15 l-11 -43 6 55 c3 30 7 57
10 60 3 3 14 -6 25 -20 21 -25 21 -48 2 -186 l-6 -40 44 -13 c66 -20 118 -53
135 -86 l15 -30 -28 27 c-40 38 -104 64 -228 93 -115 27 -146 30 -146 15 0 -5
7 -10 15 -10 8 0 15 -4 15 -8 0 -4 -16 -6 -35 -4 -57 7 -123 -8 -153 -33 -26
-23 -27 -23 -8 -44 24 -27 13 -40 -13 -17 -32 29 -43 71 -22 90 25 23 97 46
164 53 l57 6 15 51 c7 28 18 68 24 90 11 42 37 76 58 76 7 0 13 -6 13 -12z
m37 -140 c-3 -8 -6 -5 -6 6 -1 11 2 17 5 13 3 -3 4 -12 1 -19z m-1200 -84 c3
-9 -3 -24 -14 -35 -19 -19 -19 -19 -15 16 4 37 18 46 29 19z m-198 -56 c-18
-36 -22 -63 -25 -204 -4 -129 -2 -170 10 -199 19 -45 58 -62 92 -41 24 16 60
100 70 167 5 31 13 43 33 50 14 6 35 18 45 27 18 16 19 16 12 -13 -3 -16 -9
-46 -13 -65 -4 -24 -26 -56 -68 -101 -36 -38 -74 -92 -90 -127 -22 -47 -34
-62 -49 -62 -37 0 -83 37 -107 87 -21 41 -24 62 -24 153 0 127 24 215 84 308
47 71 61 81 30 20z m1208 -50 c-2 -13 -4 -5 -4 17 -1 22 1 32 4 23 2 -10 2
-28 0 -40z m173 11 c-11 -36 -20 -49 -20 -28 0 25 12 59 20 59 5 0 5 -14 0
-31z m104 -39 c-10 -16 -20 -27 -22 -25 -5 5 26 55 34 55 3 0 -3 -13 -12 -30z
m-3183 -10 c200 -38 354 -240 405 -532 19 -110 14 -290 -10 -383 -59 -220
-220 -374 -402 -383 -148 -8 -284 47 -393 157 l-65 66 43 3 c108 8 57 116
-118 252 -44 34 -51 74 -47 270 3 136 7 177 25 232 58 181 192 288 396 318 75
11 107 11 166 0z m3068 -10 c41 -10 96 -30 124 -44 27 -14 50 -26 52 -26 2 0
8 14 14 30 5 17 14 30 20 30 6 0 -1 -24 -14 -52 -17 -39 -44 -71 -100 -120
-43 -38 -81 -68 -86 -68 -5 0 -9 11 -9 25 0 54 -80 88 -144 61 -19 -8 -37 -24
-41 -35 -3 -12 -10 -21 -15 -21 -14 0 -110 188 -104 204 3 8 18 19 32 25 47
17 191 12 271 -9z m182 -7 c-12 -20 -14 -14 -5 12 4 9 9 14 11 11 3 -2 0 -13
-6 -23z m-1768 -27 c18 -8 43 -24 56 -36 23 -20 24 -23 17 -133 -9 -142 -36
-430 -41 -435 -2 -2 -20 1 -39 8 -35 11 -36 12 -36 67 l0 55 -31 -26 c-34 -29
-98 -35 -144 -14 -117 53 -80 332 62 470 59 57 100 69 156 44z m1259 -233 c26
-9 48 -19 48 -23 0 -3 -18 -16 -40 -30 -38 -24 -40 -27 -40 -77 0 -29 -3 -53
-8 -53 -4 0 -24 14 -45 31 l-38 31 -49 -16 c-27 -9 -51 -16 -54 -16 -3 0 3 23
14 51 l20 51 -30 41 -31 42 55 3 c53 3 57 5 88 48 l33 46 14 -56 c14 -53 17
-56 63 -73z m291 75 c23 -12 22 -69 -3 -168 -32 -124 -110 -532 -104 -541 9
-16 58 -10 92 11 62 38 114 143 160 329 24 95 29 105 61 127 43 29 71 31 71 5
0 -10 -7 -49 -14 -87 -8 -38 -27 -131 -42 -208 l-26 -138 20 -20 c37 -37 124
-3 156 60 7 15 30 97 51 182 47 197 57 218 120 252 49 27 85 36 85 21 0 -12
-48 -212 -86 -358 -18 -71 -45 -191 -58 -265 -59 -315 -89 -426 -134 -479 -80
-96 -213 -28 -215 110 -1 107 97 156 156 77 20 -26 20 -27 0 -67 -12 -23 -17
-44 -12 -47 13 -8 49 57 49 87 0 15 9 69 19 121 11 52 23 130 27 172 l7 78
-46 -33 c-48 -34 -126 -49 -181 -35 -30 7 -56 52 -56 95 0 38 -13 46 -34 22
-12 -13 -15 -27 -10 -46 l7 -28 -49 6 c-52 6 -103 -6 -74 -17 8 -3 62 -17 120
-30 117 -28 245 -70 266 -87 31 -26 16 -38 -40 -32 -81 8 -140 -4 -195 -42
l-50 -33 -63 23 c-35 12 -89 28 -121 35 -47 9 -65 19 -92 48 -74 82 -219 140
-320 128 -75 -9 -166 -58 -222 -120 -46 -52 -50 -54 -113 -60 -36 -4 -84 -9
-108 -12 l-43 -6 6 -142 c7 -191 13 -230 42 -305 23 -57 24 -69 13 -95 -42
-103 -59 -161 -70 -239 -19 -139 -2 -225 58 -289 22 -24 26 -39 30 -108 4 -63
2 -80 -9 -81 -8 0 -21 -2 -29 -3 -8 -2 -64 -6 -125 -10 -60 -4 -130 -9 -154
-13 -51 -7 -61 3 -61 64 0 29 12 65 43 123 l42 82 0 157 c0 152 -1 159 -27
210 -33 63 -34 71 -9 142 27 75 35 182 26 333 -6 113 -9 127 -24 121 -9 -4
-54 -16 -101 -26 -141 -31 -134 -23 -126 -137 10 -137 32 -255 63 -330 l25
-65 -22 -91 c-25 -101 -40 -238 -33 -300 9 -90 15 -109 47 -144 25 -28 35 -50
41 -89 l7 -52 -44 -5 c-269 -35 -310 -38 -320 -28 -6 6 -13 33 -16 61 -4 42
-1 54 22 83 59 78 69 168 37 324 -18 85 -44 157 -72 195 -10 14 -8 27 12 70
23 51 24 63 23 242 -1 104 -6 192 -10 197 -5 5 -65 -4 -134 -20 -69 -16 -133
-29 -142 -30 -12 0 -23 19 -38 67 -13 38 -31 78 -42 89 -19 21 -19 22 8 43 15
11 38 21 53 22 14 0 35 4 46 8 15 6 24 2 39 -17 11 -13 38 -33 60 -43 108 -49
251 3 345 124 39 51 46 56 94 62 29 4 101 15 161 26 60 10 128 19 150 19 23 1
68 6 101 13 l59 13 -60 22 c-88 32 -137 71 -167 134 -80 167 -13 397 147 507
173 120 454 82 482 -65 10 -51 -17 -156 -54 -208 -62 -90 -155 -128 -232 -96
-69 29 -93 118 -50 188 50 82 199 77 200 -7 1 -25 1 -25 15 -7 23 31 19 90 -9
123 -22 25 -31 28 -88 28 -162 -1 -298 -144 -298 -316 0 -97 34 -144 124 -175
161 -54 299 21 444 243 43 65 60 82 84 87 58 12 59 10 36 -46 -32 -81 -59
-199 -54 -237 3 -18 13 -42 22 -52 20 -23 74 -25 112 -5 78 41 110 116 163
390 49 251 54 262 122 251 23 -4 50 -11 60 -17z m-1897 -63 c19 -21 20 -31 16
-131 -4 -87 -9 -118 -27 -154 -30 -59 -63 -93 -114 -119 -64 -33 -66 -97 -4
-118 42 -14 86 2 131 49 53 54 69 91 54 123 -16 36 0 38 58 9 51 -26 52 -27
45 -62 -3 -21 -17 -53 -30 -73 -46 -71 -196 -146 -267 -135 -27 5 -38 3 -38
-6 -2 -46 -31 -171 -49 -205 -24 -49 -65 -83 -97 -83 -30 0 -80 44 -104 91
-48 93 -63 277 -39 472 6 48 9 92 7 97 -5 14 -48 -11 -71 -41 -15 -21 -23 -59
-33 -160 -17 -163 -37 -265 -75 -384 -31 -97 -54 -131 -96 -141 -21 -6 -31 -1
-50 21 -22 25 -23 29 -8 49 8 11 20 31 27 44 6 12 17 22 24 22 8 0 20 12 27
28 32 62 75 295 84 455 l6 108 -31 32 c-32 33 -62 110 -62 160 0 34 13 35 34
2 23 -36 97 -75 152 -81 31 -4 84 2 142 14 84 17 92 18 87 3 -24 -62 -67 -241
-77 -317 -26 -216 45 -355 115 -225 33 60 33 72 2 165 -29 86 -32 161 -10 254
28 119 91 213 168 251 47 23 72 20 103 -14z m382 -412 c15 -11 33 -38 41 -60
20 -55 1 -118 -52 -179 -104 -118 -246 -120 -247 -3 0 45 30 85 71 94 34 8 59
-8 59 -36 0 -26 15 -24 39 7 28 35 34 60 21 84 -38 71 -198 -9 -251 -125 -21
-46 -25 -125 -7 -143 16 -16 57 -15 88 3 14 8 41 15 60 15 19 1 52 7 73 14 20
8 37 10 37 6 0 -17 -71 -95 -110 -121 -50 -34 -95 -44 -158 -35 -68 9 -95 40
-99 113 -2 32 2 78 9 102 12 39 20 48 68 73 71 36 144 109 161 160 7 22 22 44
33 49 36 15 133 5 164 -18z m-2206 -154 c77 -16 163 -65 214 -122 24 -27 43
-52 40 -54 -2 -3 -21 0 -43 6 -90 25 -215 3 -253 -46 -31 -40 -26 -89 13 -127
44 -44 209 -107 372 -142 109 -23 155 -28 285 -28 l155 -1 70 35 c116 58 125
60 159 39 57 -35 130 -21 176 33 10 12 47 22 116 33 99 16 102 16 137 -5 34
-20 35 -22 18 -39 -9 -9 -25 -54 -36 -99 -10 -46 -22 -85 -26 -88 -4 -2 -56
-11 -116 -19 -59 -8 -168 -25 -242 -37 l-134 -21 6 -96 c6 -112 32 -200 76
-266 34 -51 38 -71 17 -100 -32 -46 -56 -156 -56 -254 0 -95 19 -201 42 -228
8 -10 7 -18 -6 -31 -31 -35 -18 -81 41 -143 19 -20 31 -39 25 -43 -5 -3 -102
-11 -216 -17 -148 -9 -210 -9 -217 -2 -18 18 -22 97 -9 139 7 22 32 82 56 135
69 150 68 243 -2 400 l-26 57 26 81 c27 85 33 181 18 281 -8 52 12 48 -202 36
-223 -13 -401 16 -557 90 -176 84 -289 225 -287 359 2 133 93 243 233 281 59
16 69 16 133 3z m3337 -234 c101 -50 174 -148 239 -315 22 -58 26 -82 20 -105
-22 -79 -29 -143 -28 -295 0 -91 4 -192 10 -225 12 -70 -4 -130 -68 -255 l-38
-75 -77 -3 -77 -3 0 49 c0 60 -38 119 -97 148 l-38 19 55 1 c64 1 107 20 145
66 29 34 60 97 52 105 -3 2 -16 -7 -30 -21 -71 -71 -200 -40 -228 54 -6 21 -9
49 -6 62 6 21 10 23 61 20 50 -3 57 -1 94 32 49 44 78 111 93 209 27 180 -60
317 -201 317 -46 0 -61 -5 -91 -29 -45 -37 -82 -106 -111 -206 -33 -116 -33
-300 1 -403 31 -96 71 -156 118 -181 l38 -19 -66 5 c-71 6 -125 -6 -171 -39
l-27 -19 -21 41 c-11 22 -30 79 -42 127 -19 76 -23 115 -23 283 0 212 14 307
61 424 90 222 280 319 453 231z m685 -131 c9 -3 16 -13 16 -21 0 -11 -6 -12
-22 -6 -13 4 -49 8 -80 8 -62 0 -95 -21 -125 -80 -21 -39 -19 -124 3 -170 15
-32 16 -44 6 -79 -35 -120 -44 -183 -39 -281 8 -151 41 -235 111 -283 112 -75
267 3 300 153 l7 30 -18 -22 c-25 -31 -89 -56 -124 -48 -44 10 -79 58 -79 110
l0 43 29 -14 c78 -39 146 42 158 185 4 47 1 84 -11 124 -13 46 -14 62 -5 80 7
12 22 53 35 91 l22 69 26 -39 c42 -64 85 -196 98 -301 18 -151 -10 -338 -72
-471 -42 -89 -146 -193 -223 -221 -114 -42 -223 -21 -286 55 -81 99 -112 221
-119 466 -6 240 21 371 101 491 31 47 123 120 162 130 30 7 111 8 129 1z m307
-104 c288 -292 219 -837 -140 -1108 -185 -139 -382 -199 -691 -209 -210 -7
-306 8 -417 62 -89 44 -135 95 -153 169 -37 155 66 249 225 205 95 -26 138
-124 75 -171 -16 -12 -30 -25 -30 -29 0 -4 39 -12 86 -19 100 -14 220 -7 355
20 89 18 93 18 118 1 82 -57 226 -59 336 -6 67 33 168 138 213 222 85 160 116
457 67 638 -23 83 -85 213 -123 256 -18 20 -32 42 -32 48 0 21 42 -9 111 -79z
m-2696 -138 c53 -163 108 -366 191 -697 43 -172 68 -266 87 -326 l14 -46 -98
-27 c-54 -14 -109 -26 -124 -26 -23 0 -25 3 -18 28 19 65 -7 312 -36 344 -3 4
-40 -15 -82 -42 -87 -56 -80 -41 -100 -227 l-12 -113 -28 0 c-16 0 -50 -13
-76 -29 -76 -46 -123 -56 -188 -42 -41 9 -67 23 -96 51 -23 21 -39 44 -37 50
2 7 22 18 43 26 22 7 53 28 68 46 33 39 91 147 80 150 -5 0 -34 2 -66 2 -53 1
-62 4 -87 33 -60 66 -48 155 31 237 46 48 49 50 49 25 0 -55 91 -142 132 -126
10 3 25 44 42 119 33 143 99 423 140 598 29 128 33 135 65 157 19 13 38 20 42
16 4 -5 32 -86 64 -181z"/>
<path d="M1247 2759 c-46 -24 -90 -83 -114 -152 -22 -65 -25 -264 -4 -347 42
-169 147 -270 281 -270 139 0 221 95 240 275 16 160 -26 396 -55 305 -3 -10
-20 -31 -36 -45 -51 -42 -133 -31 -176 25 -16 20 -16 38 0 37 35 -1 48 6 63
34 23 45 11 90 -32 128 -28 26 -43 31 -82 31 -27 -1 -63 -9 -85 -21z"/>
<path d="M4287 3033 c-33 -5 -43 -23 -27 -52 l11 -21 39 20 c22 11 59 20 85
20 52 0 54 -14 3 -18 -67 -5 -113 -37 -85 -61 8 -6 33 -4 77 9 l65 18 -45 5
c-25 2 -13 3 26 2 59 -1 81 -7 132 -35 60 -34 87 -36 62 -5 -15 18 -59 44
-105 62 -22 8 -25 12 -10 12 28 1 99 -33 125 -59 20 -20 24 -21 37 -7 22 22 9
36 -66 69 -79 36 -229 55 -324 41z"/>
<path d="M2823 2888 c-51 -53 -93 -198 -75 -262 12 -43 51 -70 85 -57 51 20
101 168 95 285 l-3 61 -35 3 c-29 2 -41 -3 -67 -30z"/>
<path d="M4406 2839 c-3 -8 -19 -97 -36 -199 -17 -102 -47 -268 -66 -368 -18
-101 -34 -191 -33 -200 1 -43 21 38 59 243 22 121 53 288 69 370 17 87 26 154
20 159 -5 6 -10 4 -13 -5z"/>
<path d="M4460 2748 c-7 -40 -36 -210 -66 -377 -30 -168 -53 -309 -51 -314 2
-8 129 628 144 726 3 23 2 37 -5 37 -6 0 -16 -33 -22 -72z"/>
<path d="M3865 2254 c-32 -36 -81 -80 -109 -98 l-51 -31 190 -6 c171 -6 219
-10 292 -25 26 -5 38 13 48 75 l7 45 -40 -32 c-91 -73 -169 -78 -222 -14 -29
36 -57 122 -45 142 3 5 2 10 -3 10 -4 0 -35 -30 -67 -66z"/>
<path d="M4332 2015 c0 -16 2 -22 5 -12 2 9 2 23 0 30 -3 6 -5 -1 -5 -18z"/>
<path d="M2482 2685 c-35 -39 -50 -84 -59 -167 -5 -49 -3 -59 11 -64 41 -16
106 68 127 164 22 97 -21 134 -79 67z"/>
<path d="M2306 1404 c-20 -122 -33 -444 -18 -444 13 0 95 55 114 77 17 18 17
23 -7 104 -13 46 -33 126 -44 177 -26 119 -36 139 -45 86z"/>
</g>
</svg>
